<svg width="800" height="800" viewBox="0 0 800 800" fill="none" xmlns="http://www.w3.org/2000/svg">
<path d="M559.375 149.141V96.1719H525V149.141H275V96.1719H240.625V149.141H71.875V703.828H728.125V149.141H559.375ZM106.25 183.516H240.625V237.578H275V183.516H525V237.578H559.375V183.516H693.75V301.719H106.25V183.516ZM693.75 669.453H106.25V314.219H693.75V669.453Z" fill="black"/>
<path d="M223.438 441.953C223.438 448.791 226.154 455.348 230.989 460.183C235.824 465.018 242.381 467.734 249.219 467.734C256.056 467.734 262.614 465.018 267.449 460.183C272.284 455.348 275 448.791 275 441.953C275 435.116 272.284 428.558 267.449 423.723C262.614 418.888 256.056 416.172 249.219 416.172C242.381 416.172 235.824 418.888 230.989 423.723C226.154 428.558 223.438 435.116 223.438 441.953Z" fill="black"/>
<path d="M372.656 441.953C372.656 445.339 373.323 448.691 374.619 451.819C375.914 454.947 377.813 457.789 380.207 460.183C382.601 462.577 385.444 464.476 388.571 465.772C391.699 467.068 395.052 467.734 398.438 467.734C401.823 467.734 405.176 467.068 408.304 465.772C411.431 464.476 414.274 462.577 416.668 460.183C419.062 457.789 420.961 454.947 422.256 451.819C423.552 448.691 424.219 445.339 424.219 441.953C424.219 438.567 423.552 435.215 422.256 432.087C420.961 428.959 419.062 426.117 416.668 423.723C414.274 421.329 411.431 419.43 408.304 418.134C405.176 416.839 401.823 416.172 398.438 416.172C395.052 416.172 391.699 416.839 388.571 418.134C385.444 419.43 382.601 421.329 380.207 423.723C377.813 426.117 375.914 428.959 374.619 432.087C373.323 435.215 372.656 438.567 372.656 441.953Z" fill="black"/>
<path d="M521.953 441.953C521.953 448.791 524.669 455.348 529.504 460.183C534.339 465.018 540.897 467.734 547.734 467.734C554.572 467.734 561.13 465.018 565.964 460.183C570.799 455.348 573.516 448.791 573.516 441.953C573.516 435.116 570.799 428.558 565.964 423.723C561.13 418.888 554.572 416.172 547.734 416.172C540.897 416.172 534.339 418.888 529.504 423.723C524.669 428.558 521.953 435.116 521.953 441.953Z" fill="black"/>
<path d="M223.438 541.719C223.438 548.556 226.154 555.114 230.989 559.949C235.824 564.784 242.381 567.5 249.219 567.5C256.056 567.5 262.614 564.784 267.449 559.949C272.284 555.114 275 548.556 275 541.719C275 534.881 272.284 528.324 267.449 523.489C262.614 518.654 256.056 515.938 249.219 515.938C242.381 515.938 235.824 518.654 230.989 523.489C226.154 528.324 223.438 534.881 223.438 541.719Z" fill="black"/>
<path d="M372.656 541.719C372.656 545.104 373.323 548.457 374.619 551.585C375.914 554.713 377.813 557.555 380.207 559.949C382.601 562.343 385.444 564.242 388.571 565.537C391.699 566.833 395.052 567.5 398.438 567.5C401.823 567.5 405.176 566.833 408.304 565.537C411.431 564.242 414.274 562.343 416.668 559.949C419.062 557.555 420.961 554.713 422.256 551.585C423.552 548.457 424.219 545.104 424.219 541.719C424.219 538.333 423.552 534.981 422.256 531.853C420.961 528.725 419.062 525.883 416.668 523.489C414.274 521.095 411.431 519.196 408.304 517.9C405.176 516.604 401.823 515.938 398.438 515.938C395.052 515.938 391.699 516.604 388.571 517.9C385.444 519.196 382.601 521.095 380.207 523.489C377.813 525.883 375.914 528.725 374.619 531.853C373.323 534.981 372.656 538.333 372.656 541.719Z" fill="black"/>
<path d="M521.953 541.719C521.953 548.556 524.669 555.114 529.504 559.949C534.339 564.784 540.897 567.5 547.734 567.5C554.572 567.5 561.13 564.784 565.964 559.949C570.799 555.114 573.516 548.556 573.516 541.719C573.516 534.881 570.799 528.324 565.964 523.489C561.13 518.654 554.572 515.938 547.734 515.938C540.897 515.938 534.339 518.654 529.504 523.489C524.669 528.324 521.953 534.881 521.953 541.719Z" fill="black"/>
<rect x="99" y="283" width="606" height="31" fill="black"/>
</svg>
