<svg width="200" height="200" viewBox="0 0 200 200" fill="none" xmlns="http://www.w3.org/2000/svg">
<path d="M156.25 150.238C176.816 135.789 190 113.641 190 88.75C190 45.2617 149.711 10 100 10C50.2891 10 10 45.2617 10 88.75C10 113.605 23.1836 135.789 43.75 150.238V173.125C43.75 182.441 51.3086 190 60.625 190H77.5V173.125C77.5 170.031 80.0312 167.5 83.125 167.5C86.2188 167.5 88.75 170.031 88.75 173.125V190H111.25V173.125C111.25 170.031 113.781 167.5 116.875 167.5C119.969 167.5 122.5 170.031 122.5 173.125V190H139.375C148.691 190 156.25 182.441 156.25 173.125V150.625V150.238ZM43.75 100C43.75 94.0326 46.1205 88.3097 50.3401 84.0901C54.5597 79.8705 60.2826 77.5 66.25 77.5C72.2174 77.5 77.9403 79.8705 82.1599 84.0901C86.3795 88.3097 88.75 94.0326 88.75 100C88.75 105.967 86.3795 111.69 82.1599 115.91C77.9403 120.129 72.2174 122.5 66.25 122.5C60.2826 122.5 54.5597 120.129 50.3401 115.91C46.1205 111.69 43.75 105.967 43.75 100ZM133.75 77.5C139.717 77.5 145.44 79.8705 149.66 84.0901C153.879 88.3097 156.25 94.0326 156.25 100C156.25 105.967 153.879 111.69 149.66 115.91C145.44 120.129 139.717 122.5 133.75 122.5C127.783 122.5 122.06 120.129 117.84 115.91C113.621 111.69 111.25 105.967 111.25 100C111.25 94.0326 113.621 88.3097 117.84 84.0901C122.06 79.8705 127.783 77.5 133.75 77.5Z" fill="white"/>
</svg>
