<svg width="200" height="200" viewBox="0 0 200 200" fill="none" xmlns="http://www.w3.org/2000/svg">
<g clip-path="url(#clip0_32_2)">
<path d="M100 0C102.955 0 105.605 1.69546 106.645 4.25455L112.764 19.3409C115.409 25.8545 111.836 33.1182 104.786 35.5636C103.247 36.0948 101.629 36.3652 100 36.3636C92.4682 36.3636 86.3636 30.7227 86.3636 23.7636C86.3636 22.2545 86.6591 20.7545 87.2318 19.3409L93.3545 4.25455C94.3909 1.69546 97.0364 0 100 0ZM100 200C97.0409 200 94.3909 198.305 93.3545 195.745L87.2318 180.659C86.6599 179.255 86.365 177.753 86.3636 176.236C86.3636 169.282 92.4682 163.636 100 163.636C101.636 163.636 103.255 163.909 104.786 164.436C111.836 166.882 115.409 174.145 112.764 180.664L106.645 195.745C105.605 198.305 102.955 200 100 200ZM200 100C200 102.955 198.305 105.605 195.745 106.645L180.659 112.764C174.145 115.409 166.882 111.836 164.436 104.786C163.905 103.247 163.635 101.629 163.636 100C163.636 92.4682 169.277 86.3636 176.236 86.3636C177.745 86.3636 179.245 86.6591 180.659 87.2318L195.745 93.3545C198.305 94.3909 200 97.0364 200 100ZM0 100C0 97.0409 1.69546 94.3909 4.25455 93.3545L19.3409 87.2318C20.75 86.6591 22.25 86.3636 23.7636 86.3636C30.7182 86.3636 36.3636 92.4682 36.3636 100C36.3636 101.636 36.0909 103.255 35.5636 104.786C33.1182 111.836 25.8545 115.409 19.3364 112.764L4.25455 106.645C1.69546 105.605 0 102.955 0 100ZM29.2864 29.2909C31.3773 27.2 34.45 26.5273 36.9955 27.6L51.9909 33.9364C58.4682 36.6773 61.0773 44.3364 57.8182 51.05C57.1055 52.5159 56.153 53.8525 55 55.0045C49.6773 60.3273 41.3727 60.6545 36.4545 55.7318C35.3816 54.6591 34.5265 53.3887 33.9364 51.9909L27.6 37C26.5227 34.4545 27.1955 31.3818 29.2864 29.2909ZM170.709 170.714C168.618 172.805 165.545 173.477 163 172.4L148.009 166.064C146.61 165.475 145.338 164.622 144.264 163.55C139.345 158.627 139.673 150.323 144.995 145C146.148 143.847 147.484 142.894 148.95 142.182C155.664 138.923 163.323 141.532 166.064 148.009L172.4 163.005C173.473 165.55 172.8 168.618 170.709 170.714ZM170.709 29.2864C172.8 31.3773 173.473 34.45 172.4 36.9955L166.064 51.9909C163.323 58.4682 155.664 61.0773 148.95 57.8182C147.484 57.1055 146.148 56.153 144.995 55C139.673 49.6773 139.345 41.3727 144.268 36.4545C145.332 35.3818 146.6 34.5318 148.009 33.9364L163 27.6C165.545 26.5227 168.618 27.1955 170.709 29.2864ZM29.2864 170.709C27.1955 168.618 26.5227 165.545 27.6 163L33.9364 148.009C34.5273 146.6 35.3818 145.332 36.45 144.264C41.3727 139.345 49.6773 139.673 55 144.995C56.1591 146.155 57.1136 147.495 57.8182 148.95C61.0773 155.664 58.4682 163.323 51.9909 166.064L36.9955 172.4C34.45 173.473 31.3818 172.8 29.2864 170.709ZM100 150C72.3864 150 50 127.614 50 100C50 72.3864 72.3864 50 100 50C127.614 50 150 72.3864 150 100C150 127.614 127.614 150 100 150Z" fill="white"/>
</g>
<defs>
<clipPath id="clip0_32_2">
<rect width="200" height="200" fill="white"/>
</clipPath>
</defs>
</svg>
