<?xml version="1.0" standalone="no"?><!DOCTYPE svg PUBLIC "-//W3C//DTD SVG 1.1//EN" "http://www.w3.org/Graphics/SVG/1.1/DTD/svg11.dtd"><svg t="1746282292925" class="icon" viewBox="0 0 1024 1024" version="1.1" xmlns="http://www.w3.org/2000/svg" p-id="2730" xmlns:xlink="http://www.w3.org/1999/xlink" width="200" height="200"><path d="M823.962596 339.057778c88.206222 0.739556 100.764444-5.333333 149.134222 46.933333 85.12-32.568889 45.269333-173.539556-49.607111-151.011555 9.031111-63.971556-107.093333-185.870222-208.142223-46.577778 2.872889 1.28 114.744889 48.341333 108.615112 150.656z" fill="#000000" p-id="2731"></path><path d="M349.438151 512c-40.533333 0-71.466667 13.155556-92.8 40.177778-18.858667 23.466667-28.103111 54.4-28.103111 92.088889 0 38.4 8.888889 68.977778 27.022222 91.733333 20.622222 26.311111 52.266667 39.822222 94.577778 39.822222 27.392 0 50.858667-7.822222 70.4-23.466666 20.992-16.711111 34.133333-39.822222 39.822222-69.688889h-40.533333c-4.977778 19.2-13.511111 33.777778-25.6 43.377777-11.377778 8.533333-26.311111 13.155556-44.444445 13.155556-27.733333 0-48.355556-8.888889-61.511111-25.955556-12.088889-16-18.119111-39.111111-18.119111-68.977777 0-29.155556 6.044444-51.911111 18.488889-68.266667 13.511111-18.488889 33.422222-27.377778 60.074667-27.377778 17.777778 0 32.369778 3.555556 43.733333 11.377778 11.747556 7.822222 19.555556 19.911111 23.822222 36.622222h40.533334c-3.911111-25.6-14.933333-46.222222-33.422223-61.155555-19.2-15.644444-44.088889-23.466667-73.955555-23.466667z m262.755556 0c38.755556 0 69.333333 12.444444 91.733333 37.688889 21.333333 23.822222 32 55.466667 32 94.577778 0 39.111111-10.666667 70.4-32 94.222222-22.4 24.888889-52.977778 37.333333-91.733333 37.333333-39.111111 0-69.688889-12.8-91.733334-37.688889-21.333333-24.177778-31.658667-55.466667-31.658666-93.866666 0-38.755556 10.311111-70.044444 31.644444-94.222223 22.044444-25.6 52.622222-38.044444 91.733333-38.044444z m0 36.622222c-26.311111 0-46.577778 8.888889-61.155556 26.666667-13.866667 17.066667-20.622222 39.822222-20.622222 68.977778 0 28.8 6.755556 51.555556 20.622222 68.622222 14.222222 17.422222 34.844444 26.311111 61.155556 26.311111 26.311111 0 46.577778-8.533333 60.8-25.244444 13.852444-16.711111 20.963556-39.822222 20.963555-69.688889 0-29.866667-7.111111-53.333333-20.963555-70.4-14.222222-17.066667-34.488889-25.244444-60.814223-25.244445z" fill="#000000" p-id="2732"></path><path d="M848.140373 398.364444l7.196445 3.015112c112.839111 47.075556 173.624889 148.622222 168.462222 259.925333-4.949333 107.064889-70.755556 199.708444-169.671111 224.853333l-5.191111 1.308445-712.248889-0.583111-6.656-2.275556C62.604373 861.710222 8.574151 780.586667 1.022151 693.845333-7.866738 591.886222 45.608818 499.712 159.102151 446.364444l7.594667-3.569777 18.005333-0.924445C233.839929 273.536 353.676373 176.128 493.509262 176.355556c130.545778 0.213333 242.716444 87.210667 276.337778 219.349333l78.293333 2.673778z m-141.653333 78.165334l-5.205333-37.404445c-15.985778-115.2-104.106667-190.762667-208.839111-190.933333-112.156444-0.184889-209.351111 84.707556-245.333334 242.830222l-7.537778 33.137778-67.669333 3.456c-79.744 40.234667-113.024 100.124444-107.150222 167.665778 4.764444 54.883556 36.792889 105.799111 69.205333 121.201778l720.213334 0.597333c60.387556-18.033778 102.314667-79.032889 105.699555-152.391111 3.598222-77.952-36.565333-147.697778-114.702222-183.424l-138.695111-4.736z" fill="#000000" p-id="2733"></path><path d="M820.079929 618.126222c-15.402667 0-27.790222 5.191111-37.191111 15.587556-9.187556 9.799111-13.795556 22.599111-13.994667 38.584889h23.395556c0.398222-11.192889 2.801778-19.783111 7.196444-25.386667 4.408889-6.001778 10.993778-9.002667 19.783111-9.002667 8.206222 0 14.392889 1.806222 18.602667 5.603556 3.982222 3.797333 6.186667 9.6 6.186667 17.393778 0 7.992889-3.2 15.587556-9.386667 22.584889-3.996444 4.195556-10.396444 9.6-19.598222 16-16.583111 11.392-27.591111 20.195556-32.782223 26.183111-9.6 10.808889-14.193778 23.395556-14.193777 37.973333h99.555555v-20.579556h-70.371555c3.2-7.196444 12.003556-15.587556 26.595555-25.187555 13.994667-9.386667 23.978667-16.995556 29.582222-22.997333 9.201778-10.183111 13.994667-21.390222 13.994667-33.777778 0-12.8-4.408889-22.997333-13.198222-30.990222-8.988444-7.992889-20.394667-11.989333-34.176-11.989334z" fill="#000000" p-id="2734"></path></svg>