<svg width="36" height="36" viewBox="0 0 36 36" fill="none" xmlns="http://www.w3.org/2000/svg">
<path d="M0 9C0 4.02944 4.02944 0 9 0H27C31.9706 0 36 4.02944 36 9V27C36 31.9706 31.9706 36 27 36H9C4.02944 36 0 31.9706 0 27V9Z" fill="white"/>
<mask id="path-2-outside-1_15_5" maskUnits="userSpaceOnUse" x="3" y="3" width="31" height="30" fill="black">
<rect fill="white" x="3" y="3" width="31" height="30"/>
<path d="M32.932 30.5679C32.8057 30.3957 32.64 30.2581 32.4495 30.1672C31.9293 29.9223 31.3949 29.7107 30.8492 29.5336C30.3978 29.3949 29.922 29.3561 29.4706 29.6112C29.3561 29.6505 29.2357 29.6683 29.1151 29.6639C28.2731 28.5644 27.5648 28.4659 25.7551 28.2621C24.9265 26.8687 23.7777 25.93 21.953 26.192C21.8625 25.4433 21.7652 24.7334 21.6962 24.0221C21.657 23.62 21.6841 23.2124 21.6462 22.8117C21.5692 21.9798 21.4583 21.1631 21.3759 20.3381C21.3043 19.5894 21.2637 18.8379 21.1975 18.0892C21.1772 17.8576 21.1164 17.6289 21.0515 17.2822C22.0544 17.547 22.9329 17.7772 23.8088 18.0129C24.3359 18.1516 24.8549 18.3374 25.3888 18.4497C26.0389 18.5883 26.3173 18.3249 26.3349 17.6635C26.3538 16.9467 26.3565 16.2271 26.3998 15.5116C26.4119 15.2939 26.4282 15.0776 26.4498 14.8613C26.5457 13.9199 26.6728 12.9812 26.7998 12.0425C26.8688 11.5268 26.935 11.011 27.0026 10.4938C27.0607 10.021 27.1513 9.53709 26.885 9.0005C25.0522 8.94365 23.2695 9.50104 21.3989 9.61057C21.3353 8.68576 21.9598 7.91624 22.0139 7.00945C22.0679 6.10266 22.6045 5.23885 22.4288 4.18787C19.6553 3.84401 16.9075 4.0922 14.1138 4.01871C14.0543 4.27522 13.9624 4.47626 13.9786 4.67176C14 5.04499 14.0502 5.41588 14.1287 5.78099C14.4044 7.08617 14.6896 8.38858 14.9842 9.68822C15.0586 10.0113 15.218 10.3177 15.1532 10.7295C14.2773 10.4869 13.461 10.2303 12.6297 10.0362C11.9159 9.8687 11.1928 9.74553 10.4645 9.66742C9.83059 9.60087 9.59947 9.8241 9.58731 10.4993C9.56703 11.7763 9.5792 13.0547 9.59947 14.3317C9.60893 14.9737 9.66164 15.617 9.70219 16.259C9.73463 16.765 9.81843 17.2697 9.80762 17.7744C9.7941 18.3804 9.9644 18.6382 10.5402 18.5883C11.0295 18.5467 11.5106 18.415 11.9972 18.3332C12.8825 18.1821 13.7691 18.0379 14.745 17.877C14.4206 21.1368 14.1097 24.2648 13.7989 27.3845C12.0418 27.2777 10.5456 27.8073 9.20345 28.8278C8.97503 29.0011 8.71958 29.2022 8.602 29.4532C8.33168 30.0244 7.8843 30.2462 7.3315 30.4237C6.46489 30.6938 5.66823 31.1595 5 31.7867C5.28113 31.8879 5.47035 32.0293 5.62173 31.9947C6.00337 31.9184 6.37247 31.7868 6.71787 31.6037C7.90322 30.934 9.17642 30.9964 10.4564 31.0643C11.4214 31.117 12.3865 31.1822 13.3528 31.2196C13.5313 31.2196 13.7124 31.1309 14.0719 31.0338C13.6853 30.6594 13.438 30.4182 13.142 30.1298C13.388 30.0549 13.5988 29.9481 13.8178 29.9329C14.4936 29.8885 15.1856 29.8941 15.8452 30.1298C16.5696 30.3918 17.2873 30.6733 18.0077 30.9395C18.1429 30.988 18.278 31.0047 18.5997 31.0782C18.3848 30.6095 18.2389 30.2892 18.0591 29.9052C18.7092 29.6057 19.3404 29.2299 20.0175 29.0095C20.05 28.9984 20.0824 28.9859 20.1162 28.9762C20.2963 28.919 20.4796 28.8727 20.665 28.8375C21.507 28.6892 22.3166 28.8375 22.9627 29.6265C23.1113 29.8095 23.3249 29.9371 23.4911 30.1076C23.8061 30.4293 24.1507 30.4944 24.4737 30.3447C24.5724 29.944 24.6535 29.6195 24.7306 29.3048C25.924 29.2022 27.0188 29.1578 28.0068 29.9426C27.5311 30.1714 27.1134 30.335 26.735 30.5665C26.3944 30.7745 26.4227 31.0158 26.7823 31.3874C27.0283 31.2723 27.2837 31.1447 27.5446 31.0338C28.3853 30.6747 29.2084 30.3073 30.1721 30.3835C30.8289 30.4362 31.3588 30.7606 31.9413 30.9769C32.1519 31.0759 32.3727 31.1503 32.5995 31.1988C32.673 31.1979 32.7451 31.1786 32.8096 31.1426C32.8742 31.1066 32.9292 31.0549 32.9699 30.9922C32.9949 30.9231 33.0046 30.8491 32.998 30.7756C32.9915 30.7022 32.9689 30.6312 32.932 30.5679ZM13.3528 28.7585C12.9014 28.8819 12.6135 29.223 12.2486 29.4587C11.4876 29.9481 10.6672 30.3613 9.65353 29.9107C10.2955 28.8583 12.2891 28.0514 13.7881 28.233C13.6205 28.4493 13.515 28.7141 13.3528 28.7585ZM21.065 27.6368C19.5864 27.6521 18.47 28.5103 17.3035 29.223C17.2162 29.2777 17.1227 29.3215 17.0251 29.3533C16.8321 29.4071 16.6276 29.3979 16.4399 29.327C15.8992 29.1592 15.3397 29.0649 14.6828 28.911C14.7477 28.172 14.818 27.4579 14.872 26.7439C14.9356 25.9952 14.9802 25.2464 15.0586 24.5005C15.1937 23.1971 15.3546 21.8966 15.4938 20.5946C15.5708 19.8764 15.6168 19.154 15.6911 18.4344C15.7208 18.1446 15.7992 17.859 15.8344 17.5692C15.9047 16.9772 15.6533 16.6916 15.0815 16.7678C14.0962 16.8968 13.1136 17.0451 12.1256 17.1838L10.8835 17.364H10.8362C10.8227 17.3294 10.8105 17.2947 10.7983 17.26C10.6199 16.747 10.6307 16.2007 10.6348 15.6503V15.1747C10.6348 15.1137 10.6348 15.0541 10.6267 14.9931C10.6091 14.5605 10.5821 14.1279 10.5564 13.6953C10.5388 13.4097 10.524 13.1254 10.5159 12.8398C10.4942 12.0869 10.5159 11.334 10.5159 10.5174C11.1916 10.3482 11.8674 10.5534 12.5432 10.7101C13.3542 10.9 14.1449 11.1732 14.9531 11.3728C15.2126 11.4366 15.5019 11.3826 15.8479 11.3826C15.8546 9.24869 15.3586 7.24654 15.1424 5.20558H21.4583C21.4746 5.22638 21.5367 5.27352 21.53 5.30679C21.5043 5.45377 21.4827 5.60074 21.4638 5.7491C21.361 6.55051 21.3286 7.36301 21.0029 8.12976C20.7325 8.76202 20.5852 9.44974 20.3892 10.1153C20.3244 10.3357 20.3352 10.4799 20.4406 10.559C20.5277 10.6143 20.6288 10.6418 20.7312 10.638C21.0193 10.6442 21.3073 10.6247 21.5922 10.5798C22.5383 10.4411 23.4993 10.3135 24.4481 10.1527C24.8022 10.0917 25.1441 9.95443 25.4928 9.85737C25.8416 9.76032 26.0335 9.85737 26.0997 10.1693C26.1085 10.2152 26.1148 10.2615 26.1186 10.308C26.1376 10.5229 26.1376 10.7392 26.1186 10.9541C25.9835 12.2311 25.7294 13.5081 25.7483 14.7809C25.754 15.5696 25.6632 16.3559 25.478 17.1214C25.4604 17.2018 25.4415 17.2822 25.4226 17.3626L25.2509 17.3418C25.0461 17.3255 24.8428 17.2935 24.6427 17.2462C23.6682 16.9689 22.7045 16.6611 21.726 16.4143C21.357 16.3186 20.9583 16.3422 20.5595 16.3089C20.2892 17.0978 20.173 17.8091 20.3987 18.5717C20.5163 18.9696 20.4866 19.4036 20.4663 19.8265C20.4338 20.5198 20.5474 21.213 20.6136 21.9063C20.7069 22.8658 20.819 23.8239 20.911 24.7833C20.988 25.5847 21.0461 26.3875 21.115 27.189C21.1185 27.2596 21.1185 27.3304 21.115 27.4011V27.6299L21.065 27.6368ZM24.125 28.7571L22.0409 27.476V26.7661C23.2573 26.8118 24.2034 27.3332 25.0333 28.3301L24.125 28.7571Z"/>
</mask>
<path d="M32.932 30.5679C32.8057 30.3957 32.64 30.2581 32.4495 30.1672C31.9293 29.9223 31.3949 29.7107 30.8492 29.5336C30.3978 29.3949 29.922 29.3561 29.4706 29.6112C29.3561 29.6505 29.2357 29.6683 29.1151 29.6639C28.2731 28.5644 27.5648 28.4659 25.7551 28.2621C24.9265 26.8687 23.7777 25.93 21.953 26.192C21.8625 25.4433 21.7652 24.7334 21.6962 24.0221C21.657 23.62 21.6841 23.2124 21.6462 22.8117C21.5692 21.9798 21.4583 21.1631 21.3759 20.3381C21.3043 19.5894 21.2637 18.8379 21.1975 18.0892C21.1772 17.8576 21.1164 17.6289 21.0515 17.2822C22.0544 17.547 22.9329 17.7772 23.8088 18.0129C24.3359 18.1516 24.8549 18.3374 25.3888 18.4497C26.0389 18.5883 26.3173 18.3249 26.3349 17.6635C26.3538 16.9467 26.3565 16.2271 26.3998 15.5116C26.4119 15.2939 26.4282 15.0776 26.4498 14.8613C26.5457 13.9199 26.6728 12.9812 26.7998 12.0425C26.8688 11.5268 26.935 11.011 27.0026 10.4938C27.0607 10.021 27.1513 9.53709 26.885 9.0005C25.0522 8.94365 23.2695 9.50104 21.3989 9.61057C21.3353 8.68576 21.9598 7.91624 22.0139 7.00945C22.0679 6.10266 22.6045 5.23885 22.4288 4.18787C19.6553 3.84401 16.9075 4.0922 14.1138 4.01871C14.0543 4.27522 13.9624 4.47626 13.9786 4.67176C14 5.04499 14.0502 5.41588 14.1287 5.78099C14.4044 7.08617 14.6896 8.38858 14.9842 9.68822C15.0586 10.0113 15.218 10.3177 15.1532 10.7295C14.2773 10.4869 13.461 10.2303 12.6297 10.0362C11.9159 9.8687 11.1928 9.74553 10.4645 9.66742C9.83059 9.60087 9.59947 9.8241 9.58731 10.4993C9.56703 11.7763 9.5792 13.0547 9.59947 14.3317C9.60893 14.9737 9.66164 15.617 9.70219 16.259C9.73463 16.765 9.81843 17.2697 9.80762 17.7744C9.7941 18.3804 9.9644 18.6382 10.5402 18.5883C11.0295 18.5467 11.5106 18.415 11.9972 18.3332C12.8825 18.1821 13.7691 18.0379 14.745 17.877C14.4206 21.1368 14.1097 24.2648 13.7989 27.3845C12.0418 27.2777 10.5456 27.8073 9.20345 28.8278C8.97503 29.0011 8.71958 29.2022 8.602 29.4532C8.33168 30.0244 7.8843 30.2462 7.3315 30.4237C6.46489 30.6938 5.66823 31.1595 5 31.7867C5.28113 31.8879 5.47035 32.0293 5.62173 31.9947C6.00337 31.9184 6.37247 31.7868 6.71787 31.6037C7.90322 30.934 9.17642 30.9964 10.4564 31.0643C11.4214 31.117 12.3865 31.1822 13.3528 31.2196C13.5313 31.2196 13.7124 31.1309 14.0719 31.0338C13.6853 30.6594 13.438 30.4182 13.142 30.1298C13.388 30.0549 13.5988 29.9481 13.8178 29.9329C14.4936 29.8885 15.1856 29.8941 15.8452 30.1298C16.5696 30.3918 17.2873 30.6733 18.0077 30.9395C18.1429 30.988 18.278 31.0047 18.5997 31.0782C18.3848 30.6095 18.2389 30.2892 18.0591 29.9052C18.7092 29.6057 19.3404 29.2299 20.0175 29.0095C20.05 28.9984 20.0824 28.9859 20.1162 28.9762C20.2963 28.919 20.4796 28.8727 20.665 28.8375C21.507 28.6892 22.3166 28.8375 22.9627 29.6265C23.1113 29.8095 23.3249 29.9371 23.4911 30.1076C23.8061 30.4293 24.1507 30.4944 24.4737 30.3447C24.5724 29.944 24.6535 29.6195 24.7306 29.3048C25.924 29.2022 27.0188 29.1578 28.0068 29.9426C27.5311 30.1714 27.1134 30.335 26.735 30.5665C26.3944 30.7745 26.4227 31.0158 26.7823 31.3874C27.0283 31.2723 27.2837 31.1447 27.5446 31.0338C28.3853 30.6747 29.2084 30.3073 30.1721 30.3835C30.8289 30.4362 31.3588 30.7606 31.9413 30.9769C32.1519 31.0759 32.3727 31.1503 32.5995 31.1988C32.673 31.1979 32.7451 31.1786 32.8096 31.1426C32.8742 31.1066 32.9292 31.0549 32.9699 30.9922C32.9949 30.9231 33.0046 30.8491 32.998 30.7756C32.9915 30.7022 32.9689 30.6312 32.932 30.5679ZM13.3528 28.7585C12.9014 28.8819 12.6135 29.223 12.2486 29.4587C11.4876 29.9481 10.6672 30.3613 9.65353 29.9107C10.2955 28.8583 12.2891 28.0514 13.7881 28.233C13.6205 28.4493 13.515 28.7141 13.3528 28.7585ZM21.065 27.6368C19.5864 27.6521 18.47 28.5103 17.3035 29.223C17.2162 29.2777 17.1227 29.3215 17.0251 29.3533C16.8321 29.4071 16.6276 29.3979 16.4399 29.327C15.8992 29.1592 15.3397 29.0649 14.6828 28.911C14.7477 28.172 14.818 27.4579 14.872 26.7439C14.9356 25.9952 14.9802 25.2464 15.0586 24.5005C15.1937 23.1971 15.3546 21.8966 15.4938 20.5946C15.5708 19.8764 15.6168 19.154 15.6911 18.4344C15.7208 18.1446 15.7992 17.859 15.8344 17.5692C15.9047 16.9772 15.6533 16.6916 15.0815 16.7678C14.0962 16.8968 13.1136 17.0451 12.1256 17.1838L10.8835 17.364H10.8362C10.8227 17.3294 10.8105 17.2947 10.7983 17.26C10.6199 16.747 10.6307 16.2007 10.6348 15.6503V15.1747C10.6348 15.1137 10.6348 15.0541 10.6267 14.9931C10.6091 14.5605 10.5821 14.1279 10.5564 13.6953C10.5388 13.4097 10.524 13.1254 10.5159 12.8398C10.4942 12.0869 10.5159 11.334 10.5159 10.5174C11.1916 10.3482 11.8674 10.5534 12.5432 10.7101C13.3542 10.9 14.1449 11.1732 14.9531 11.3728C15.2126 11.4366 15.5019 11.3826 15.8479 11.3826C15.8546 9.24869 15.3586 7.24654 15.1424 5.20558H21.4583C21.4746 5.22638 21.5367 5.27352 21.53 5.30679C21.5043 5.45377 21.4827 5.60074 21.4638 5.7491C21.361 6.55051 21.3286 7.36301 21.0029 8.12976C20.7325 8.76202 20.5852 9.44974 20.3892 10.1153C20.3244 10.3357 20.3352 10.4799 20.4406 10.559C20.5277 10.6143 20.6288 10.6418 20.7312 10.638C21.0193 10.6442 21.3073 10.6247 21.5922 10.5798C22.5383 10.4411 23.4993 10.3135 24.4481 10.1527C24.8022 10.0917 25.1441 9.95443 25.4928 9.85737C25.8416 9.76032 26.0335 9.85737 26.0997 10.1693C26.1085 10.2152 26.1148 10.2615 26.1186 10.308C26.1376 10.5229 26.1376 10.7392 26.1186 10.9541C25.9835 12.2311 25.7294 13.5081 25.7483 14.7809C25.754 15.5696 25.6632 16.3559 25.478 17.1214C25.4604 17.2018 25.4415 17.2822 25.4226 17.3626L25.2509 17.3418C25.0461 17.3255 24.8428 17.2935 24.6427 17.2462C23.6682 16.9689 22.7045 16.6611 21.726 16.4143C21.357 16.3186 20.9583 16.3422 20.5595 16.3089C20.2892 17.0978 20.173 17.8091 20.3987 18.5717C20.5163 18.9696 20.4866 19.4036 20.4663 19.8265C20.4338 20.5198 20.5474 21.213 20.6136 21.9063C20.7069 22.8658 20.819 23.8239 20.911 24.7833C20.988 25.5847 21.0461 26.3875 21.115 27.189C21.1185 27.2596 21.1185 27.3304 21.115 27.4011V27.6299L21.065 27.6368ZM24.125 28.7571L22.0409 27.476V26.7661C23.2573 26.8118 24.2034 27.3332 25.0333 28.3301L24.125 28.7571Z" fill="black"/>
<path d="M32.932 30.5679C32.8057 30.3957 32.64 30.2581 32.4495 30.1672C31.9293 29.9223 31.3949 29.7107 30.8492 29.5336C30.3978 29.3949 29.922 29.3561 29.4706 29.6112C29.3561 29.6505 29.2357 29.6683 29.1151 29.6639C28.2731 28.5644 27.5648 28.4659 25.7551 28.2621C24.9265 26.8687 23.7777 25.93 21.953 26.192C21.8625 25.4433 21.7652 24.7334 21.6962 24.0221C21.657 23.62 21.6841 23.2124 21.6462 22.8117C21.5692 21.9798 21.4583 21.1631 21.3759 20.3381C21.3043 19.5894 21.2637 18.8379 21.1975 18.0892C21.1772 17.8576 21.1164 17.6289 21.0515 17.2822C22.0544 17.547 22.9329 17.7772 23.8088 18.0129C24.3359 18.1516 24.8549 18.3374 25.3888 18.4497C26.0389 18.5883 26.3173 18.3249 26.3349 17.6635C26.3538 16.9467 26.3565 16.2271 26.3998 15.5116C26.4119 15.2939 26.4282 15.0776 26.4498 14.8613C26.5457 13.9199 26.6728 12.9812 26.7998 12.0425C26.8688 11.5268 26.935 11.011 27.0026 10.4938C27.0607 10.021 27.1513 9.53709 26.885 9.0005C25.0522 8.94365 23.2695 9.50104 21.3989 9.61057C21.3353 8.68576 21.9598 7.91624 22.0139 7.00945C22.0679 6.10266 22.6045 5.23885 22.4288 4.18787C19.6553 3.84401 16.9075 4.0922 14.1138 4.01871C14.0543 4.27522 13.9624 4.47626 13.9786 4.67176C14 5.04499 14.0502 5.41588 14.1287 5.78099C14.4044 7.08617 14.6896 8.38858 14.9842 9.68822C15.0586 10.0113 15.218 10.3177 15.1532 10.7295C14.2773 10.4869 13.461 10.2303 12.6297 10.0362C11.9159 9.8687 11.1928 9.74553 10.4645 9.66742C9.83059 9.60087 9.59947 9.8241 9.58731 10.4993C9.56703 11.7763 9.5792 13.0547 9.59947 14.3317C9.60893 14.9737 9.66164 15.617 9.70219 16.259C9.73463 16.765 9.81843 17.2697 9.80762 17.7744C9.7941 18.3804 9.9644 18.6382 10.5402 18.5883C11.0295 18.5467 11.5106 18.415 11.9972 18.3332C12.8825 18.1821 13.7691 18.0379 14.745 17.877C14.4206 21.1368 14.1097 24.2648 13.7989 27.3845C12.0418 27.2777 10.5456 27.8073 9.20345 28.8278C8.97503 29.0011 8.71958 29.2022 8.602 29.4532C8.33168 30.0244 7.8843 30.2462 7.3315 30.4237C6.46489 30.6938 5.66823 31.1595 5 31.7867C5.28113 31.8879 5.47035 32.0293 5.62173 31.9947C6.00337 31.9184 6.37247 31.7868 6.71787 31.6037C7.90322 30.934 9.17642 30.9964 10.4564 31.0643C11.4214 31.117 12.3865 31.1822 13.3528 31.2196C13.5313 31.2196 13.7124 31.1309 14.0719 31.0338C13.6853 30.6594 13.438 30.4182 13.142 30.1298C13.388 30.0549 13.5988 29.9481 13.8178 29.9329C14.4936 29.8885 15.1856 29.8941 15.8452 30.1298C16.5696 30.3918 17.2873 30.6733 18.0077 30.9395C18.1429 30.988 18.278 31.0047 18.5997 31.0782C18.3848 30.6095 18.2389 30.2892 18.0591 29.9052C18.7092 29.6057 19.3404 29.2299 20.0175 29.0095C20.05 28.9984 20.0824 28.9859 20.1162 28.9762C20.2963 28.919 20.4796 28.8727 20.665 28.8375C21.507 28.6892 22.3166 28.8375 22.9627 29.6265C23.1113 29.8095 23.3249 29.9371 23.4911 30.1076C23.8061 30.4293 24.1507 30.4944 24.4737 30.3447C24.5724 29.944 24.6535 29.6195 24.7306 29.3048C25.924 29.2022 27.0188 29.1578 28.0068 29.9426C27.5311 30.1714 27.1134 30.335 26.735 30.5665C26.3944 30.7745 26.4227 31.0158 26.7823 31.3874C27.0283 31.2723 27.2837 31.1447 27.5446 31.0338C28.3853 30.6747 29.2084 30.3073 30.1721 30.3835C30.8289 30.4362 31.3588 30.7606 31.9413 30.9769C32.1519 31.0759 32.3727 31.1503 32.5995 31.1988C32.673 31.1979 32.7451 31.1786 32.8096 31.1426C32.8742 31.1066 32.9292 31.0549 32.9699 30.9922C32.9949 30.9231 33.0046 30.8491 32.998 30.7756C32.9915 30.7022 32.9689 30.6312 32.932 30.5679ZM13.3528 28.7585C12.9014 28.8819 12.6135 29.223 12.2486 29.4587C11.4876 29.9481 10.6672 30.3613 9.65353 29.9107C10.2955 28.8583 12.2891 28.0514 13.7881 28.233C13.6205 28.4493 13.515 28.7141 13.3528 28.7585ZM21.065 27.6368C19.5864 27.6521 18.47 28.5103 17.3035 29.223C17.2162 29.2777 17.1227 29.3215 17.0251 29.3533C16.8321 29.4071 16.6276 29.3979 16.4399 29.327C15.8992 29.1592 15.3397 29.0649 14.6828 28.911C14.7477 28.172 14.818 27.4579 14.872 26.7439C14.9356 25.9952 14.9802 25.2464 15.0586 24.5005C15.1937 23.1971 15.3546 21.8966 15.4938 20.5946C15.5708 19.8764 15.6168 19.154 15.6911 18.4344C15.7208 18.1446 15.7992 17.859 15.8344 17.5692C15.9047 16.9772 15.6533 16.6916 15.0815 16.7678C14.0962 16.8968 13.1136 17.0451 12.1256 17.1838L10.8835 17.364H10.8362C10.8227 17.3294 10.8105 17.2947 10.7983 17.26C10.6199 16.747 10.6307 16.2007 10.6348 15.6503V15.1747C10.6348 15.1137 10.6348 15.0541 10.6267 14.9931C10.6091 14.5605 10.5821 14.1279 10.5564 13.6953C10.5388 13.4097 10.524 13.1254 10.5159 12.8398C10.4942 12.0869 10.5159 11.334 10.5159 10.5174C11.1916 10.3482 11.8674 10.5534 12.5432 10.7101C13.3542 10.9 14.1449 11.1732 14.9531 11.3728C15.2126 11.4366 15.5019 11.3826 15.8479 11.3826C15.8546 9.24869 15.3586 7.24654 15.1424 5.20558H21.4583C21.4746 5.22638 21.5367 5.27352 21.53 5.30679C21.5043 5.45377 21.4827 5.60074 21.4638 5.7491C21.361 6.55051 21.3286 7.36301 21.0029 8.12976C20.7325 8.76202 20.5852 9.44974 20.3892 10.1153C20.3244 10.3357 20.3352 10.4799 20.4406 10.559C20.5277 10.6143 20.6288 10.6418 20.7312 10.638C21.0193 10.6442 21.3073 10.6247 21.5922 10.5798C22.5383 10.4411 23.4993 10.3135 24.4481 10.1527C24.8022 10.0917 25.1441 9.95443 25.4928 9.85737C25.8416 9.76032 26.0335 9.85737 26.0997 10.1693C26.1085 10.2152 26.1148 10.2615 26.1186 10.308C26.1376 10.5229 26.1376 10.7392 26.1186 10.9541C25.9835 12.2311 25.7294 13.5081 25.7483 14.7809C25.754 15.5696 25.6632 16.3559 25.478 17.1214C25.4604 17.2018 25.4415 17.2822 25.4226 17.3626L25.2509 17.3418C25.0461 17.3255 24.8428 17.2935 24.6427 17.2462C23.6682 16.9689 22.7045 16.6611 21.726 16.4143C21.357 16.3186 20.9583 16.3422 20.5595 16.3089C20.2892 17.0978 20.173 17.8091 20.3987 18.5717C20.5163 18.9696 20.4866 19.4036 20.4663 19.8265C20.4338 20.5198 20.5474 21.213 20.6136 21.9063C20.7069 22.8658 20.819 23.8239 20.911 24.7833C20.988 25.5847 21.0461 26.3875 21.115 27.189C21.1185 27.2596 21.1185 27.3304 21.115 27.4011V27.6299L21.065 27.6368ZM24.125 28.7571L22.0409 27.476V26.7661C23.2573 26.8118 24.2034 27.3332 25.0333 28.3301L24.125 28.7571Z" stroke="black" stroke-width="1.6" mask="url(#path-2-outside-1_15_5)"/>
</svg>
