<svg width="36" height="36" viewBox="0 0 36 36" fill="none" xmlns="http://www.w3.org/2000/svg">
<path d="M0 9C0 4.02944 4.02944 0 9 0H27C31.9706 0 36 4.02944 36 9V27C36 31.9706 31.9706 36 27 36H9C4.02944 36 0 31.9706 0 27V9Z" fill="white"/>
<path d="M33.0739 30.3451C32.943 30.1712 32.7714 30.0323 32.574 29.9405C32.0352 29.6932 31.4816 29.4795 30.9164 29.3007C30.4487 29.1607 29.9559 29.1215 29.4883 29.3791C29.3697 29.4187 29.245 29.4367 29.1201 29.4323C28.2478 28.322 27.5142 28.2226 25.6395 28.0168C24.7812 26.6097 23.5912 25.6619 21.7011 25.9265C21.6073 25.1705 21.5065 24.4536 21.4351 23.7354C21.3945 23.3294 21.4225 22.9177 21.3833 22.5131C21.3035 21.6731 21.1887 20.8484 21.1033 20.0154C21.0291 19.2594 20.9871 18.5005 20.9185 17.7445C20.8975 17.5107 20.8344 17.2797 20.7672 16.9296C21.8061 17.1971 22.7161 17.4295 23.6234 17.6675C24.1694 17.8075 24.707 17.9951 25.2601 18.1085C25.9335 18.2485 26.2219 17.9825 26.2401 17.3147C26.2597 16.5908 26.2625 15.8642 26.3073 15.1418C26.3199 14.9219 26.3367 14.7035 26.3591 14.4851C26.4585 13.5345 26.5901 12.5866 26.7217 11.6388C26.7931 11.118 26.8618 10.5971 26.9318 10.0749C26.992 9.59748 27.0858 9.10886 26.8099 8.56703C24.9115 8.50963 23.0648 9.07245 21.1271 9.18306C21.0613 8.24921 21.7081 7.47218 21.7641 6.55653C21.8201 5.64088 22.3759 4.76864 22.1939 3.70739C19.321 3.36017 16.4746 3.61078 13.5807 3.53658C13.5191 3.79559 13.4239 3.9986 13.4407 4.19601C13.4629 4.57288 13.5148 4.9474 13.5961 5.31607C13.8817 6.634 14.1771 7.94913 14.4823 9.26146C14.5593 9.58768 14.7245 9.8971 14.6573 10.3129C13.7501 10.0679 12.9045 9.80889 12.0434 9.61288C11.3039 9.44371 10.5549 9.31934 9.8005 9.24046C9.14386 9.17326 8.90445 9.39867 8.89185 10.0805C8.87085 11.37 8.88345 12.6608 8.90445 13.9503C8.91425 14.5985 8.96886 15.2482 9.01086 15.8964C9.04446 16.4074 9.13126 16.917 9.12006 17.4267C9.10606 18.0385 9.28247 18.2989 9.8789 18.2485C10.3857 18.2065 10.8842 18.0735 11.3882 17.9909C12.3052 17.8383 13.2237 17.6927 14.2345 17.5303C13.8985 20.8218 13.5765 23.9804 13.2545 27.1306C11.4344 27.0228 9.8845 27.5576 8.49423 28.588C8.25762 28.763 7.99301 28.966 7.8712 29.2195C7.59119 29.7963 7.12776 30.0203 6.55514 30.1995C5.65744 30.4722 4.83221 30.9425 4.14001 31.5758C4.43123 31.678 4.62724 31.8208 4.78405 31.7858C5.17937 31.7088 5.56171 31.5759 5.9195 31.391C7.14736 30.7147 8.46623 30.7777 9.7921 30.8463C10.7917 30.8995 11.7914 30.9653 12.7924 31.0032C12.9773 31.0032 13.1649 30.9135 13.5373 30.8155C13.1369 30.4375 12.8807 30.1939 12.574 29.9027C12.8288 29.8271 13.0473 29.7193 13.2741 29.7039C13.9741 29.6591 14.6909 29.6647 15.3742 29.9027C16.1246 30.1673 16.868 30.4515 17.6143 30.7203C17.7543 30.7693 17.8943 30.7861 18.2275 30.8603C18.0049 30.3871 17.8537 30.0637 17.6675 29.6759C18.3409 29.3735 18.9948 28.9941 19.6962 28.7714C19.7298 28.7602 19.7634 28.7476 19.7984 28.7378C19.985 28.6801 20.1748 28.6333 20.3668 28.5978C21.2391 28.448 22.0777 28.5978 22.7469 29.3945C22.901 29.5793 23.1222 29.7081 23.2944 29.8803C23.6206 30.2051 23.9776 30.2709 24.3122 30.1197C24.4144 29.7151 24.4984 29.3875 24.5782 29.0697C25.8145 28.966 26.9486 28.9212 27.972 29.7137C27.4792 29.9447 27.0466 30.1099 26.6545 30.3437C26.3017 30.5537 26.3311 30.7973 26.7035 31.1726C26.9584 31.0564 27.223 30.9275 27.4932 30.8155C28.364 30.4529 29.2167 30.0819 30.2149 30.1589C30.8953 30.2121 31.4442 30.5397 32.0476 30.7581C32.2658 30.858 32.4945 30.9332 32.7294 30.9821C32.8055 30.9812 32.8802 30.9617 32.9471 30.9254C33.0139 30.889 33.0709 30.8369 33.1131 30.7735C33.139 30.7038 33.149 30.629 33.1422 30.5549C33.1354 30.4807 33.1121 30.409 33.0739 30.3451ZM12.7924 28.518C12.3248 28.6426 12.0266 28.9871 11.6486 29.2251C10.8603 29.7193 10.0105 30.1365 8.96046 29.6815C9.62549 28.6188 11.6906 27.804 13.2433 27.9874C13.0697 28.2058 12.9605 28.4732 12.7924 28.518ZM20.7812 27.3854C19.2496 27.4008 18.0931 28.2674 16.8849 28.987C16.7943 29.0423 16.6975 29.0865 16.5964 29.1187C16.3965 29.173 16.1846 29.1637 15.9902 29.0921C15.4302 28.9226 14.8505 28.8274 14.1701 28.672C14.2373 27.9258 14.3101 27.2048 14.3661 26.4837C14.4319 25.7277 14.4781 24.9716 14.5593 24.2184C14.6993 22.9023 14.866 21.5891 15.0102 20.2744C15.09 19.5492 15.1376 18.8197 15.2146 18.0931C15.2454 17.8005 15.3266 17.5121 15.363 17.2195C15.4358 16.6216 15.1754 16.3332 14.5831 16.4102C13.5625 16.5404 12.5446 16.6902 11.5212 16.8302L10.2345 17.0123H10.1855C10.1715 16.9772 10.1589 16.9422 10.1463 16.9072C9.96151 16.3892 9.97271 15.8376 9.97691 15.2818V14.8015C9.97691 14.7399 9.97691 14.6797 9.96851 14.6181C9.9503 14.1813 9.9223 13.7445 9.8957 13.3077C9.8775 13.0193 9.8621 12.7322 9.8537 12.4438C9.8313 11.6836 9.8537 10.9233 9.8537 10.0987C10.5537 9.9279 11.2538 10.1351 11.9538 10.2933C12.7938 10.4851 13.6129 10.7609 14.4501 10.9625C14.7189 11.027 15.0186 10.9723 15.377 10.9723C15.384 8.81764 14.8702 6.79594 14.6461 4.73504H21.1887C21.2055 4.75604 21.2699 4.80364 21.2629 4.83724C21.2363 4.98565 21.2139 5.13406 21.1943 5.28387C21.0879 6.09311 21.0543 6.91355 20.7168 7.68779C20.4368 8.32622 20.2842 9.02065 20.0812 9.69269C20.014 9.9153 20.0252 10.0609 20.1344 10.1407C20.2246 10.1966 20.3294 10.2244 20.4354 10.2205C20.7339 10.2267 21.0323 10.2071 21.3273 10.1617C22.3073 10.0217 23.3028 9.8929 24.2856 9.73049C24.6524 9.66888 25.0067 9.53028 25.3679 9.43227C25.7291 9.33427 25.9279 9.43227 25.9965 9.74729C26.0056 9.79356 26.0122 9.8403 26.0161 9.8873C26.0357 10.1043 26.0357 10.3227 26.0161 10.5397C25.8761 11.8292 25.6129 13.1187 25.6325 14.4039C25.6384 15.2003 25.5443 15.9943 25.3525 16.7672C25.3343 16.8484 25.3147 16.9296 25.2951 17.0109L25.1173 16.9898C24.9051 16.9734 24.6945 16.9411 24.4872 16.8932C23.4778 16.6132 22.4795 16.3024 21.4659 16.0532C21.0837 15.9566 20.6706 15.9804 20.2576 15.9468C19.9776 16.7434 19.8572 17.4617 20.091 18.2317C20.2128 18.6335 20.182 19.0718 20.161 19.4988C20.1274 20.1988 20.245 20.8988 20.3136 21.5989C20.4102 22.5677 20.5264 23.5352 20.6216 24.504C20.7014 25.3133 20.7616 26.1239 20.833 26.9331C20.8366 27.0045 20.8366 27.076 20.833 27.1474V27.3784L20.7812 27.3854ZM23.951 28.5166L21.7921 27.223V26.5061C23.0522 26.5523 24.0322 27.0788 24.8919 28.0854L23.951 28.5166Z" fill="black"/>
</svg>
