<svg width="210" height="170" viewBox="0 0 210 170" fill="none" xmlns="http://www.w3.org/2000/svg">
<g clip-path="url(#clip0_14_223)">
<path d="M148.161 164.794C148.191 166.225 147.994 167.651 147.578 169.019C147.563 169.069 147.546 169.119 147.529 169.168H138.955C139.077 168.563 139.272 167.974 139.534 167.414C140.247 165.894 141.412 164.593 142.563 163.301C144.147 161.52 145.693 159.754 145.937 157.439C146.565 158.4 147.066 159.438 147.428 160.529C146.985 160.694 146.578 160.944 146.231 161.266C146.135 161.356 146.033 161.488 146.082 161.615C146.129 161.72 146.256 161.754 146.371 161.779C146.645 161.831 146.918 161.883 147.192 161.934C147.408 161.978 147.626 162.018 147.845 162.059C148.036 162.959 148.141 163.876 148.158 164.796L148.161 164.794Z" fill="#B6B6B6"/>
<path d="M155.326 163.822C153.945 164.664 153.067 165.969 152.35 167.428C151.726 167.571 151.15 167.875 150.679 168.309C150.58 168.401 150.477 168.533 150.53 168.66C150.574 168.765 150.705 168.8 150.82 168.825C151.092 168.878 151.37 168.93 151.642 168.98C151.616 169.042 151.589 169.107 151.563 169.168H142.434C142.848 168.607 143.307 168.081 143.806 167.594C143.914 167.485 144.025 167.384 144.14 167.279C145.303 166.223 146.639 165.376 148.089 164.776C150.373 163.816 152.872 163.487 155.326 163.822Z" fill="#B6B6B6"/>
<path d="M144.071 169.168H135.916C135.871 168.51 135.875 167.85 135.927 167.192C136.104 165.157 136.716 163.184 137.722 161.411C138.728 159.637 140.104 158.104 141.754 156.917C141.331 158.437 141.549 159.944 141.989 161.459C141.927 161.48 141.866 161.497 141.81 161.521C141.363 161.688 140.954 161.941 140.604 162.266C140.507 162.358 140.404 162.491 140.454 162.62C140.498 162.726 140.629 162.761 140.745 162.786C141.02 162.839 141.296 162.892 141.569 162.942C141.79 162.987 142.01 163.028 142.23 163.072C142.333 163.09 142.435 163.111 142.538 163.131C142.553 163.167 142.562 163.2 142.576 163.232C143.144 164.643 143.594 166.098 143.921 167.584C143.986 167.953 144.031 168.326 144.056 168.7C144.065 168.855 144.071 169.012 144.071 169.168Z" fill="#B6B6B6"/>
<path d="M49.5191 161.49C49.5709 164.001 49.2349 166.504 48.5236 168.907C48.4986 168.994 48.4687 169.081 48.4388 169.168H33.7666C33.9764 168.105 34.3093 167.071 34.7583 166.089C35.9794 163.42 37.9728 161.136 39.9418 158.867C42.6536 155.741 45.2989 152.641 45.7177 148.576C46.7923 150.264 47.65 152.087 48.2693 154.002C47.511 154.291 46.8152 154.73 46.221 155.295C46.0565 155.454 45.8821 155.684 45.9669 155.906C46.0466 156.091 46.2659 156.154 46.4602 156.194C46.9288 156.286 47.397 156.379 47.8656 156.466C48.2343 156.543 48.6081 156.614 48.9819 156.686C49.3105 158.266 49.4907 159.875 49.5202 161.49L49.5191 161.49Z" fill="#B6B6B6"/>
<path d="M62.0078 159.749C59.6402 161.235 58.1354 163.532 56.9063 166.105C55.8369 166.356 54.8496 166.891 54.0422 167.657C53.8715 167.818 53.6966 168.049 53.7865 168.273C53.8618 168.46 54.0874 168.523 54.283 168.563C54.7495 168.656 55.226 168.75 55.6924 168.837C55.6472 168.944 55.6022 169.06 55.557 169.168H39.906C40.6165 168.18 41.4033 167.252 42.2588 166.394C42.4443 166.203 42.635 166.022 42.8306 165.835C44.8258 163.975 47.1168 162.483 49.6031 161.426C53.5193 159.737 57.8019 159.158 62.0078 159.749Z" fill="#B6B6B6"/>
<path d="M42.3617 169.168H28.498C28.4223 168.034 28.4289 166.895 28.518 165.762C28.8182 162.254 29.8594 158.855 31.5697 155.798C33.28 152.741 35.6188 150.099 38.425 148.055C37.7061 150.67 38.0757 153.271 38.8241 155.881C38.721 155.916 38.6144 155.947 38.5198 155.986C37.7605 156.274 37.0636 156.71 36.4685 157.271C36.3038 157.429 36.1291 157.657 36.2141 157.878C36.289 158.062 36.5135 158.124 36.7081 158.163C37.1774 158.255 37.6463 158.347 38.1104 158.433C38.4848 158.51 38.8592 158.581 39.2332 158.658C39.4079 158.688 39.5825 158.724 39.7571 158.76C39.7822 158.821 39.797 158.877 39.8221 158.933C40.7005 161.406 41.6587 163.899 42.108 166.433C42.2192 167.069 42.2959 167.711 42.3377 168.355C42.3528 168.628 42.3617 168.898 42.3617 169.168Z" fill="#B6B6B6"/>
<path d="M0.401894 35.5328L-0.670654 36.6432C-0.307817 36.2546 0.0693457 35.8902 0.45674 35.5453L0.401894 35.5328Z" fill="white"/>
<path d="M78.584 135.543L78.3794 135.996L78.4907 136.065L78.584 135.543Z" fill="black"/>
<path d="M148.804 145.608H148.296V88.8747C148.296 88.6435 148.246 88.4152 148.149 88.2065C148.052 87.9978 147.91 87.8139 147.734 87.6683L148.055 87.2664C148.289 87.4605 148.478 87.7057 148.608 87.984C148.738 88.2622 148.805 88.5666 148.804 88.8747V145.608Z" fill="black"/>
<path d="M97.0544 0.0148926C97.1859 0.321082 97.2838 0.641155 97.3464 0.96929C97.2044 0.468407 97.0925 0.129067 97.0544 0.0148926Z" fill="black"/>
<path d="M101.561 15.8646C101.495 16.4269 101.368 16.9798 101.182 17.5133L101.561 15.8646Z" fill="black"/>
<path d="M147.939 69.8666C137.949 75.1808 124.881 79.7694 120.967 81.0995C123.951 80.3063 132.639 79.2381 146.098 87.8086C163.009 98.5749 181.092 91.3964 181.092 91.3964C181.092 91.3964 177.074 99.2592 168.534 99.7697C159.993 100.28 137.726 85.9288 130.194 90.0302C122.662 94.1316 119.142 89.0051 116.127 99.2592C113.112 109.513 107.588 137.535 113.951 153.258L120.311 168.978H84.1466C84.1466 168.978 97.2075 133.434 90.0064 111.562C85.976 99.3133 80.4075 83.0345 82.3048 83.8782C82.3048 83.8782 73.5974 75.1628 70.7529 75.1628C67.9084 75.1628 54.5095 73.7966 50.1584 69.1823C50.1584 69.1823 43.9634 64.739 32.9106 75.6761C21.8579 86.6131 24.5389 86.6135 14.6606 85.7577C4.93737 84.915 -2.68006 80.102 -2.91626 79.9507C-2.63434 80.0673 8.7208 84.7001 15.6639 82.3409C22.697 79.9482 28.7248 70.8903 34.9205 67.8157C41.1162 64.7411 44.7985 60.6372 53.1706 65.0808L47.6537 51.8051L46.1423 48.1682L46.1398 48.1629C46.1398 48.1629 44.2959 23.2138 40.7806 21.5055C37.2652 19.7971 39.442 15.3549 32.9117 14.4984C32.9117 14.4984 40.9468 13.4733 42.4544 19.1127C43.962 24.7522 54.3443 55.1703 54.3443 55.1703C54.3443 55.1703 60.7045 68.1554 67.7377 65.0808C74.7708 62.0062 65.058 44.7461 65.058 44.7461L53.0043 39.1053C53.0043 39.1053 62.0469 38.7631 67.5714 44.0618C73.0959 49.3605 73.4312 66.447 73.4312 66.447C73.4312 66.447 87.3278 68.4972 90.679 76.1893C90.679 76.1893 102.063 69.1823 101.563 79.435C101.563 79.435 111.609 69.6955 110.938 66.447C110.268 63.1985 109.432 55.5096 103.069 50.8977C96.7067 46.2859 92.5205 38.9338 97.043 28.339C99.5855 22.3789 100.698 19.1774 101.186 17.5157L98.5458 29.0226C98.5458 29.0226 96.8719 40.8136 101.561 44.9147C101.574 44.925 101.584 44.9356 101.596 44.9458C106.277 49.0522 112.442 56.5365 112.442 56.5365L112.424 56.2074L116.627 67.816C116.627 67.816 141.409 66.9603 146.932 55.8518C152.455 44.7433 156.98 44.2329 156.98 44.2329L153.799 53.8016L150.284 62.0023C150.284 62.0023 164.683 62.3445 172.217 71.0603C179.75 79.7761 198.504 82.3399 198.504 82.3399L187.958 85.2434C187.958 85.2434 177.909 81.8266 168.367 75.5039C158.824 69.1812 159.826 63.5435 147.939 69.8666Z" fill="black"/>
<path opacity="0.1" d="M153.277 46.5507C152.218 51.3361 150.971 55.9586 149.219 59.4814C143.694 70.5898 118.914 71.4453 118.914 71.4453C118.914 71.4453 119.031 69.978 119.209 67.663C125.5 67.1328 142.698 64.8762 147.187 55.8522C147.598 55.0278 147.979 54.1413 148.34 53.2078L153.277 46.5507Z" fill="black"/>
<path opacity="0.1" d="M118.314 38.5888C121.852 34.6656 118.278 42.7963 118.314 38.5888Z" fill="black"/>
<path opacity="0.1" d="M103.846 79.3049V83.0645C103.846 83.0645 113.892 73.324 113.222 70.0773C112.71 67.5941 112.097 62.5128 108.992 58.1964C110.392 61.459 110.818 64.6414 111.19 66.4481C111.671 68.7764 106.641 74.4435 103.756 77.4639C103.857 78.0718 103.887 78.6898 103.846 79.3049Z" fill="black"/>
<path opacity="0.1" d="M90.3687 53.505C90.4483 53.6782 90.5304 53.8486 90.6173 54.0133C93.1848 58.88 97.0558 64.0522 99.9519 68.8047C97.6124 64.0992 93.5387 58.7181 90.3687 53.505Z" fill="black"/>
<path opacity="0.1" d="M146.351 87.8082C140.844 84.3016 136.134 82.4094 132.29 81.4508C128.256 83.0005 124.935 84.156 123.265 84.7233C126.261 83.9315 134.942 82.8803 148.384 91.4373C158.93 98.1514 169.931 97.8866 176.719 96.7364C178.596 95.2905 180.17 93.4741 181.345 91.3953C181.345 91.3953 163.264 98.5738 146.351 87.8082Z" fill="black"/>
<path opacity="0.1" d="M98.533 46.23C97.1823 42.8535 96.9603 38.8359 98.5115 34.1278C98.4922 32.4217 98.5887 30.7162 98.8004 29.0236L101.437 17.5132C100.952 19.1745 99.8384 22.3753 97.2934 28.3403C94.0714 35.8914 95.2739 41.792 98.533 46.23Z" fill="black"/>
<path opacity="0.1" d="M172.471 71.0616C167.246 65.0171 158.721 63.0023 153.984 62.3328L152.569 65.6339C152.569 65.6339 166.968 65.9757 174.503 74.6908C178.681 79.5236 186.308 82.4642 192.275 84.1256L198.758 82.3401C198.758 82.3401 180.006 79.7767 172.471 71.0616Z" fill="black"/>
<path opacity="0.1" d="M70.0234 68.71C77.0542 65.6347 67.3445 48.3746 67.3445 48.3746L67.0788 48.2501C69.4998 53.4636 73.011 62.8842 67.9915 65.0804C63.2944 67.1348 58.8965 62.0235 56.4929 58.4021L56.628 58.7987C56.628 58.7987 62.9927 71.7856 70.0234 68.71Z" fill="black"/>
<path opacity="0.1" d="M101.437 17.5128C101.622 16.9797 101.749 16.4271 101.814 15.8652L101.437 17.5128Z" fill="black"/>
<path opacity="0.1" d="M17.85 86.0019C17.8846 85.9909 17.9192 85.9807 17.9514 85.9694C24.9822 83.577 31.0113 74.5201 37.208 71.4441C43.4047 68.3681 47.0867 64.2685 55.4584 68.71C55.4584 68.71 53.9938 62.5912 51.1555 58.5714C52.0955 60.6699 52.8552 62.8478 53.4261 65.0804C45.0544 60.6375 41.371 64.7386 35.1757 67.8146C28.9803 70.8906 22.9529 79.9475 15.9191 82.3398C8.88525 84.7322 -2.66626 79.9475 -2.66626 79.9475C-2.66626 79.9475 5.03568 84.9033 14.9144 85.7576C16.0452 85.8566 17.0094 85.9414 17.85 86.0019Z" fill="black"/>
<path opacity="0.1" d="M48.4264 51.792C48.4264 51.792 48.1521 51.7973 47.6544 51.8051L46.143 48.1681C46.3082 48.1657 46.3945 48.1628 46.3945 48.1628C46.3945 48.1628 45.2311 32.4269 42.991 25.0933C43.019 25.1063 43.0419 25.1219 43.0672 25.1346C46.5822 26.8433 48.4264 51.792 48.4264 51.792Z" fill="black"/>
<path opacity="0.1" d="M87.6553 168.979C90.7232 159.381 98.1009 132.839 92.2924 115.191C89.7839 107.57 87.4586 102.71 85.4931 99.6095C87.3664 103.469 88.9597 107.464 90.2604 111.562C97.4605 133.433 84.3997 168.979 84.3997 168.979H87.6553Z" fill="black"/>
<path opacity="0.1" d="M39.2644 19.8458C39.4554 20.1741 39.6868 20.4761 39.9529 20.7444C39.7575 20.4192 39.5265 20.1178 39.2644 19.8458Z" fill="black"/>
<path opacity="0.1" d="M69.8564 47.6892C70.1157 47.939 70.3586 48.2058 70.5837 48.4881C69.8502 46.6885 68.9445 45.1325 67.8258 44.06C62.3006 38.7624 53.259 39.1042 53.259 39.1042L64.5979 44.4082C66.5404 45.1482 68.3256 46.262 69.8564 47.6892Z" fill="black"/>
<path opacity="0.1" d="M97.5971 0.956167C97.5299 0.618351 97.428 0.28872 97.293 -0.0272217C97.293 -0.0272217 97.4218 0.341817 97.5971 0.956167Z" fill="black"/>
<path opacity="0.1" d="M38.4586 18.1658C39.9343 18.3503 41.6317 18.8123 42.9264 19.884C42.8419 19.5924 42.7681 19.3312 42.7095 19.1117C41.2026 13.4726 33.1658 14.4977 33.1658 14.4977C36.7975 14.9735 37.7357 16.5588 38.4586 18.1658Z" fill="black"/>
<path d="M196.353 160.199C193.856 164.108 194.54 169.079 194.54 169.079C194.54 169.079 199.273 167.713 201.77 163.804C204.267 159.896 203.583 154.925 203.583 154.925C203.583 154.925 198.85 156.291 196.353 160.199Z" fill="black"/>
<path d="M198.229 160.89C198.031 165.551 194.641 169.188 194.641 169.188C194.641 169.188 191.571 165.266 191.766 160.605C191.962 155.944 195.354 152.307 195.354 152.307C195.354 152.307 198.426 156.229 198.229 160.89Z" fill="#B6B6B6"/>
<path d="M154.248 131.392C154.248 131.392 157.122 128.317 158.297 128.935C159.472 129.553 154.916 132.305 154.916 132.305L154.248 131.392Z" fill="white"/>
<path opacity="0.1" d="M154.248 131.392C154.248 131.392 157.122 128.317 158.297 128.935C159.472 129.553 154.916 132.305 154.916 132.305L154.248 131.392Z" fill="black"/>
<path d="M145.481 124.676C145.481 124.676 144.425 126.608 144.701 128.692C144.977 130.775 147.506 137.458 148.364 137.339C149.222 137.221 155.589 132.433 155.589 132.433L154.375 130.704L149.725 133.579C149.725 133.579 149.017 123.295 145.481 124.676Z" fill="#B6B6B6"/>
<path d="M162.723 129.38L155.475 133.444C155.433 133.472 155.385 133.49 155.335 133.498C155.286 133.506 155.235 133.502 155.186 133.487C155.138 133.473 155.094 133.448 155.056 133.414C155.018 133.38 154.988 133.338 154.967 133.291L153.189 129.503C153.155 129.395 153.161 129.278 153.204 129.174C153.248 129.069 153.327 128.985 153.427 128.935L159.445 125.768C159.519 125.723 159.607 125.707 159.692 125.724C159.777 125.74 159.853 125.788 159.906 125.858L162.912 128.749C162.942 128.803 162.96 128.862 162.967 128.924C162.973 128.985 162.967 129.047 162.95 129.106C162.932 129.165 162.902 129.22 162.863 129.267C162.824 129.314 162.776 129.353 162.722 129.38H162.723Z" fill="black"/>
<path d="M162.239 128.82L155.443 132.785L153.634 129.458L159.464 126.222L162.239 128.82Z" fill="#B6B6B6"/>
<path d="M156.538 127.675C156.573 127.631 156.573 127.571 156.537 127.54C156.5 127.51 156.442 127.52 156.407 127.563C156.372 127.606 156.372 127.667 156.408 127.697C156.444 127.728 156.503 127.718 156.538 127.675Z" fill="white"/>
<path d="M159.04 131.059C159.063 131.03 159.063 130.99 159.039 130.97C159.015 130.949 158.976 130.956 158.953 130.985C158.929 131.014 158.929 131.054 158.953 131.075C158.977 131.095 159.016 131.088 159.04 131.059Z" fill="white"/>
<path opacity="0.1" d="M145.481 124.676C145.481 124.676 144.425 126.608 144.701 128.692C144.977 130.775 147.506 137.458 148.364 137.339C149.222 137.221 155.589 132.433 155.589 132.433L154.375 130.704L149.725 133.579C149.725 133.579 149.017 123.295 145.481 124.676Z" fill="black"/>
<path d="M153.377 132.184C153.262 132.238 153.157 132.287 153.064 132.33L152.947 132.114C153.001 132.073 153.061 132.028 153.126 131.98C153.44 131.749 153.866 131.451 154.322 131.179C154.783 130.903 155.251 130.668 155.652 130.545C155.918 130.463 156.096 130.45 156.208 130.462C156.192 130.48 156.173 130.501 156.151 130.523C155.896 130.778 155.439 131.086 154.901 131.395C154.375 131.697 153.812 131.978 153.377 132.184Z" fill="white" stroke="black"/>
<path d="M150.612 118.15C150.612 119.655 149.419 120.858 147.969 120.858C146.518 120.858 145.325 119.655 145.325 118.15C145.325 116.645 146.518 115.442 147.969 115.442C149.419 115.442 150.612 116.645 150.612 118.15Z" fill="white" stroke="black"/>
<path d="M159.458 153.882L158.978 153.744L158.963 153.796L158.959 153.85L158.743 157.279L158.741 157.304L158.742 157.329L158.742 157.329L158.742 157.33L158.742 157.333L158.742 157.345L158.744 157.392C158.746 157.433 158.748 157.494 158.75 157.572C158.754 157.728 158.76 157.95 158.765 158.217C158.775 158.751 158.782 159.46 158.769 160.163C158.755 160.871 158.722 161.556 158.655 162.05C158.654 162.053 158.654 162.055 158.654 162.058C158.644 162.042 158.634 162.025 158.623 162.008C158.404 161.644 158.163 161.156 157.935 160.657C157.709 160.16 157.501 159.666 157.351 159.295C157.275 159.109 157.214 158.955 157.172 158.848C157.151 158.794 157.135 158.752 157.124 158.724L157.111 158.691L157.108 158.683L157.108 158.681L157.107 158.681L157.107 158.681L157.107 158.681L157.05 158.53L156.917 158.442L156.916 158.442L156.916 158.442L156.916 158.442L156.916 158.442L156.915 158.441L156.904 158.434C156.894 158.427 156.878 158.415 156.857 158.4C156.815 158.37 156.755 158.324 156.684 158.266C156.541 158.147 156.366 157.985 156.218 157.801C156.068 157.612 155.972 157.43 155.943 157.273C155.917 157.138 155.934 157.002 156.058 156.844C156.252 156.596 156.435 156.416 156.601 156.264C156.643 156.225 156.689 156.185 156.736 156.143C156.857 156.036 156.987 155.92 157.088 155.811C157.248 155.639 157.391 155.431 157.461 155.147C157.528 154.875 157.518 154.576 157.458 154.236C157.36 153.69 157.329 152.165 157.411 150.546C157.451 149.746 157.517 148.942 157.613 148.247C157.711 147.539 157.833 146.985 157.968 146.662C158.293 145.89 158.55 145.29 158.725 144.884C158.813 144.681 158.88 144.527 158.925 144.423L158.977 144.306L158.99 144.277L158.993 144.27L158.994 144.268L158.994 144.268L158.994 144.268L158.994 144.268L158.994 144.268L159.284 143.614L158.57 143.566L157.339 143.484L159.035 141.045C159.09 141.056 159.15 141.07 159.215 141.085C159.509 141.155 159.893 141.267 160.268 141.436C161.055 141.792 161.597 142.295 161.56 143.016C161.536 143.493 161.37 144.393 161.12 145.513C160.872 146.62 160.552 147.903 160.235 149.124C159.917 150.345 159.603 151.5 159.368 152.35C159.25 152.775 159.153 153.124 159.084 153.367C159.05 153.488 159.024 153.582 159.005 153.647L158.985 153.72L158.979 153.738L158.978 153.743L158.978 153.744L158.978 153.744L159.458 153.882ZM158.98 162.491C158.98 162.491 158.979 162.49 158.978 162.489C158.979 162.49 158.98 162.491 158.98 162.491Z" fill="white" stroke="black"/>
<path opacity="0.1" d="M159.458 153.882L158.978 153.744L158.963 153.796L158.959 153.85L158.743 157.279L158.741 157.304L158.742 157.329L158.742 157.329L158.742 157.33L158.742 157.333L158.742 157.345L158.744 157.392C158.746 157.433 158.748 157.494 158.75 157.572C158.754 157.728 158.76 157.95 158.765 158.217C158.775 158.751 158.782 159.46 158.769 160.163C158.755 160.871 158.722 161.556 158.655 162.05C158.654 162.053 158.654 162.055 158.654 162.058C158.644 162.042 158.634 162.025 158.623 162.008C158.404 161.644 158.163 161.156 157.935 160.657C157.709 160.16 157.501 159.666 157.351 159.295C157.275 159.109 157.214 158.955 157.172 158.848C157.151 158.794 157.135 158.752 157.124 158.724L157.111 158.691L157.108 158.683L157.108 158.681L157.107 158.681L157.107 158.681L157.107 158.681L157.05 158.53L156.917 158.442L156.916 158.442L156.916 158.442L156.916 158.442L156.916 158.442L156.915 158.441L156.904 158.434C156.894 158.427 156.878 158.415 156.857 158.4C156.815 158.37 156.755 158.324 156.684 158.266C156.541 158.147 156.366 157.985 156.218 157.801C156.068 157.612 155.972 157.43 155.943 157.273C155.917 157.138 155.934 157.002 156.058 156.844C156.252 156.596 156.435 156.416 156.601 156.264C156.643 156.225 156.689 156.185 156.736 156.143C156.857 156.036 156.987 155.92 157.088 155.811C157.248 155.639 157.391 155.431 157.461 155.147C157.528 154.875 157.518 154.576 157.458 154.236C157.36 153.69 157.329 152.165 157.411 150.546C157.451 149.746 157.517 148.942 157.613 148.247C157.711 147.539 157.833 146.985 157.968 146.662C158.293 145.89 158.55 145.29 158.725 144.884C158.813 144.681 158.88 144.527 158.925 144.423L158.977 144.306L158.99 144.277L158.993 144.27L158.994 144.268L158.994 144.268L158.994 144.268L158.994 144.268L158.994 144.268L159.284 143.614L158.57 143.566L157.339 143.484L159.035 141.045C159.09 141.056 159.15 141.07 159.215 141.085C159.509 141.155 159.893 141.267 160.268 141.436C161.055 141.792 161.597 142.295 161.56 143.016C161.536 143.493 161.37 144.393 161.12 145.513C160.872 146.62 160.552 147.903 160.235 149.124C159.917 150.345 159.603 151.5 159.368 152.35C159.25 152.775 159.153 153.124 159.084 153.367C159.05 153.488 159.024 153.582 159.005 153.647L158.985 153.72L158.979 153.738L158.978 153.743L158.978 153.744L158.978 153.744L159.458 153.882ZM158.98 162.491C158.98 162.491 158.979 162.49 158.978 162.489C158.979 162.49 158.98 162.491 158.98 162.491Z" fill="white" stroke="black"/>
<path d="M164.553 152.777L164.068 152.897L164.077 152.935L164.093 152.972L165.827 157.065L165.837 157.087L165.848 157.109L165.848 157.109L165.848 157.109L165.849 157.109L165.85 157.112L165.855 157.122L165.877 157.162C165.896 157.198 165.924 157.25 165.96 157.317C166.03 157.451 166.13 157.642 166.246 157.872C166.479 158.332 166.776 158.941 167.034 159.542C167.297 160.154 167.504 160.724 167.58 161.118C167.583 161.133 167.585 161.147 167.588 161.16C167.464 161.104 167.319 161.016 167.151 160.892C166.853 160.671 166.543 160.378 166.234 160.07C166.136 159.972 166.036 159.87 165.936 159.768C165.737 159.566 165.542 159.367 165.372 159.209C165.242 159.088 165.107 158.972 164.977 158.883C164.866 158.809 164.674 158.693 164.445 158.693C164.386 158.693 164.241 158.669 164.026 158.604C163.823 158.542 163.596 158.454 163.389 158.355C163.188 158.258 163.029 158.162 162.928 158.08C163.146 157.56 163.398 157.055 163.683 156.57L163.829 156.322L163.688 156.071L161.065 151.409L161.065 151.409C160.581 150.548 160.215 149.624 159.977 148.661L159.978 148.661L159.974 148.648C159.723 147.74 159.536 146.815 159.415 145.88C159.398 145.454 159.098 145.17 158.861 145.006C158.601 144.827 158.278 144.695 157.99 144.599C157.835 144.548 157.682 144.505 157.54 144.468L159.254 141.638C159.292 141.65 159.332 141.664 159.375 141.678C159.667 141.779 160.055 141.934 160.45 142.152C161.266 142.601 161.98 143.243 162.107 144.11C162.274 145.241 162.767 147.448 163.213 149.351C163.437 150.307 163.65 151.193 163.808 151.84C163.887 152.164 163.952 152.428 163.997 152.612L164.049 152.823L164.063 152.878L164.067 152.893L164.068 152.896L164.068 152.897L164.068 152.897L164.553 152.777Z" fill="white" stroke="black"/>
<path d="M148.403 133.97L149.92 138.395C149.92 138.395 152.305 139.059 154.039 139.612C155.774 140.165 159.027 139.391 159.35 140.718C159.674 142.046 158.7 144.369 157.724 144.922C156.749 145.475 156.207 146.029 153.063 145.143C149.92 144.258 142.441 144.037 142.441 144.037C141.716 144.481 140.899 144.746 140.056 144.812C138.647 144.922 138.322 145.033 137.888 144.701C137.455 144.369 138.105 144.369 138.322 143.484C138.539 142.599 138.647 142.931 139.623 141.935C140.598 140.939 141.357 137.952 141.899 136.957C142.441 135.961 142.765 133.97 142.765 133.97L148.403 133.97Z" fill="black"/>
<path d="M145.72 119.296C145.927 119.445 146.182 119.653 146.45 119.884C146.794 120.182 147.141 120.501 147.402 120.747C147.417 120.762 147.432 120.776 147.447 120.79C147.188 121.056 146.969 121.361 146.799 121.695C146.553 122.176 146.413 122.704 146.388 123.244C146.187 123.151 145.903 122.962 145.571 122.697C145.182 122.386 144.789 122.022 144.489 121.731C144.418 121.662 144.352 121.597 144.293 121.539C144.297 121.534 144.301 121.528 144.305 121.523C144.47 121.302 144.691 120.998 144.913 120.673C145.134 120.349 145.362 119.994 145.536 119.671C145.605 119.545 145.668 119.418 145.72 119.296ZM146.377 123.437C146.377 123.436 146.378 123.435 146.379 123.431C146.378 123.435 146.377 123.437 146.377 123.437ZM146.561 123.304C146.565 123.304 146.567 123.304 146.567 123.304C146.567 123.304 146.565 123.304 146.561 123.304Z" fill="white" stroke="black"/>
<path d="M144.067 120.141C144.067 120.141 146.018 120.916 146.452 122.022C146.885 123.128 148.511 125.451 148.511 125.451C148.511 125.451 150.787 127.884 150.029 130.541C149.27 133.197 148.619 133.86 148.619 134.302C148.619 134.745 147.535 135.519 146.669 135.409C145.802 135.298 142.55 134.855 142.333 134.413C142.116 133.97 140.815 127.665 141.682 125.342C142.386 123.566 143.182 121.831 144.067 120.142L144.067 120.141Z" fill="#B6B6B6"/>
<path d="M148.881 118.296C149.584 118.466 150.275 118.009 150.851 117.554C151.178 117.296 151.538 116.929 151.44 116.514C151.351 116.147 150.926 115.938 150.864 115.565C150.821 115.305 150.97 115.052 150.982 114.789C150.971 114.588 150.907 114.395 150.796 114.229C150.684 114.063 150.531 113.932 150.351 113.849C150.008 113.661 149.62 113.583 149.267 113.414C148.73 113.157 148.283 112.693 147.709 112.544C146.924 112.341 146.126 112.773 145.319 112.829C144.831 112.865 144.337 112.759 143.854 112.84C143.393 112.935 142.978 113.185 142.674 113.551C142.37 113.916 142.195 114.376 142.178 114.855C142.172 115.208 142.241 115.6 142.035 115.88C141.953 115.976 141.86 116.062 141.758 116.135C141.415 116.457 141.141 116.848 140.955 117.285C140.769 117.721 140.675 118.193 140.678 118.668C140.66 119.138 140.756 119.694 141.163 119.894C141.381 119.97 141.612 120.003 141.843 119.99C141.958 119.985 142.073 120.009 142.178 120.06C142.283 120.111 142.373 120.187 142.442 120.282C142.628 120.617 142.35 121.111 142.593 121.402C142.7 121.494 142.837 121.541 142.976 121.534C143.116 121.526 143.247 121.465 143.344 121.362C143.557 121.175 143.691 120.907 143.892 120.707C144.285 120.318 144.868 120.247 145.406 120.189C145.566 120.188 145.721 120.136 145.851 120.04C145.949 119.936 146.012 119.802 146.033 119.659C146.104 119.33 146.105 118.988 146.036 118.658C146.001 118.556 145.997 118.445 146.023 118.34C146.059 118.266 146.114 118.203 146.182 118.158C146.516 117.902 147.101 117.53 147.533 117.6C148.016 117.681 148.395 118.178 148.881 118.296Z" fill="black"/>
<path d="M144.501 124.124C144.501 124.124 143.2 125.894 143.2 127.996C143.2 130.098 144.826 137.068 145.694 137.068C146.561 137.068 153.498 133.196 153.498 133.196L152.523 131.315L147.535 133.527C147.535 133.527 148.186 123.239 144.501 124.124Z" fill="#B6B6B6"/>
<path d="M159.218 144.092H134.326V149.018H159.218V144.092Z" fill="#B6B6B6"/>
<path d="M146.772 149.277C146.234 149.276 145.717 149.058 145.336 148.669C144.955 148.28 144.741 147.753 144.74 147.203V88.8747C144.74 88.4825 144.849 88.0984 145.055 87.7669C145.26 87.4354 145.553 87.17 145.9 87.0017C146.247 86.8333 146.634 86.7688 147.015 86.8156C147.397 86.8625 147.757 87.0188 148.055 87.2663L147.734 87.6682C147.511 87.4825 147.24 87.3653 146.954 87.3302C146.668 87.2951 146.378 87.3434 146.118 87.4697C145.857 87.596 145.638 87.7951 145.484 88.0438C145.33 88.2924 145.248 88.5805 145.248 88.8747V147.203C145.249 147.616 145.409 148.011 145.695 148.303C145.981 148.594 146.368 148.758 146.772 148.759L146.772 149.277Z" fill="black"/>
<path d="M142.932 116.702C143.041 116.613 142.916 116.269 142.653 115.934C142.389 115.599 142.087 115.4 141.977 115.49C141.868 115.579 141.993 115.923 142.257 116.258C142.52 116.593 142.822 116.792 142.932 116.702Z" fill="#B6B6B6"/>
<path d="M121.168 160.199C118.671 164.108 119.356 169.079 119.356 169.079C119.356 169.079 124.088 167.713 126.585 163.804C129.083 159.896 128.398 154.925 128.398 154.925C128.398 154.925 123.665 156.291 121.168 160.199Z" fill="black"/>
<path d="M123.044 160.89C122.847 165.551 119.457 169.188 119.457 169.188C119.457 169.188 116.386 165.266 116.582 160.605C116.778 155.944 120.17 152.307 120.17 152.307C120.17 152.307 123.242 156.229 123.044 160.89Z" fill="#B6B6B6"/>
<path d="M80.0737 161.678C81.2675 166.182 85.3564 168.971 85.3564 168.971C85.3564 168.971 87.51 164.458 86.3161 159.954C85.1223 155.45 81.0334 152.661 81.0334 152.661C81.0334 152.661 78.8798 157.174 80.0737 161.678Z" fill="black"/>
<path d="M81.8279 160.709C85.1036 163.964 85.504 168.967 85.504 168.967C85.504 168.967 80.5929 168.693 77.3172 165.439C74.0415 162.184 73.6411 157.181 73.6411 157.181C73.6411 157.181 78.5522 157.455 81.8279 160.709Z" fill="#B6B6B6"/>
<path d="M70.9704 38.593C70.6857 43.2497 67.2275 46.8192 67.2275 46.8192C67.2275 46.8192 64.2313 42.8386 64.517 38.1826C64.8027 33.5265 68.2575 29.9553 68.2575 29.9553C68.2575 29.9553 71.2554 33.9359 70.9704 38.593Z" fill="#B6B6B6"/>
<path d="M26.2872 65.9256C30.1545 68.4141 31.5648 73.2229 31.5648 73.2229C31.5648 73.2229 26.7053 73.9974 22.837 71.5089C18.9687 69.0204 17.5591 64.2116 17.5591 64.2116C17.5591 64.2116 22.42 63.4382 26.2872 65.9256Z" fill="#B6B6B6"/>
<path d="M104.906 17.4531C103.74 21.9646 99.6678 24.78 99.6678 24.78C99.6678 24.78 97.4859 20.2809 98.653 15.7695C99.8202 11.258 103.891 8.4425 103.891 8.4425C103.891 8.4425 106.072 12.9416 104.906 17.4531Z" fill="#B6B6B6"/>
<path d="M181.457 70.5107C178.974 74.4283 174.246 75.8129 174.246 75.8129C174.246 75.8129 173.544 70.8447 176.027 66.9267C178.51 63.0087 183.238 61.6245 183.238 61.6245C183.238 61.6245 183.94 66.593 181.457 70.5107Z" fill="#B6B6B6"/>
<path d="M208.739 168.908H15.3484V169.95H208.739V168.908Z" fill="black"/>
</g>
<defs>
<clipPath id="clip0_14_223">
<rect width="210" height="170" fill="white"/>
</clipPath>
</defs>
</svg>
