<svg width="210" height="210" viewBox="0 0 210 210" fill="none" xmlns="http://www.w3.org/2000/svg">
<g clip-path="url(#clip0_15_138)">
<path d="M204.668 149.141C204.668 149.141 204.097 153.54 204.668 154.083C205.239 154.627 206.001 153.441 206.001 153.441C206.001 153.441 205.763 156.406 207.286 156.06C208.714 155.714 209.713 154.38 209.713 152.848C209.666 151.513 207.809 147.658 207.809 147.658" fill="white"/>
<path d="M207.095 156.456C206.81 156.456 206.572 156.357 206.381 156.159C205.905 155.714 205.81 154.923 205.762 154.281C205.62 154.429 205.429 154.528 205.191 154.578C204.953 154.627 204.715 154.528 204.525 154.38C203.859 153.787 204.239 150.525 204.43 149.141C204.43 148.993 204.62 148.844 204.763 148.894C204.906 148.894 205.048 149.091 205.001 149.24C204.715 151.513 204.668 153.688 204.906 153.935C204.953 153.984 205.048 154.034 205.096 153.984C205.334 153.935 205.667 153.54 205.81 153.342C205.905 153.243 206 153.194 206.143 153.194C206.286 153.243 206.334 153.342 206.334 153.49C206.286 153.935 206.334 155.269 206.762 155.714C206.905 155.813 207.095 155.863 207.238 155.813C208.523 155.467 209.427 154.281 209.427 152.897C209.38 151.859 208.047 148.894 207.571 147.806C207.523 147.658 207.571 147.46 207.714 147.411C207.857 147.362 208.047 147.411 208.095 147.559C208.19 147.708 209.951 151.513 209.998 152.897C210.046 154.578 208.951 156.06 207.381 156.406C207.238 156.406 207.143 156.456 207.095 156.456Z" fill="#231F20"/>
<path d="M169.352 120.129C169.352 120.129 166.543 113.506 165.544 113.259C164.544 113.012 162.974 117.855 162.974 117.855C164.354 119.289 165.639 120.821 166.781 122.452C166.972 122.699 167.114 122.946 167.257 123.193C168.257 124.972 169.352 120.129 169.352 120.129Z" fill="white"/>
<path d="M167.733 123.885C167.543 123.885 167.257 123.786 167.019 123.341C166.876 123.094 166.734 122.847 166.591 122.6C165.401 121.018 164.116 119.486 162.783 118.053C162.688 117.954 162.688 117.855 162.736 117.756C163.212 116.224 164.544 112.666 165.687 112.962C166.829 113.259 169.018 118.448 169.685 120.03C169.685 120.079 169.685 120.178 169.685 120.228C169.447 121.315 168.78 123.786 167.876 123.934L167.733 123.885ZM163.307 117.756C164.639 119.19 165.877 120.672 167.019 122.254C167.21 122.501 167.352 122.748 167.495 123.045C167.59 123.242 167.686 123.292 167.686 123.292C168.019 123.242 168.59 121.809 168.971 120.178C167.638 117.064 165.925 113.704 165.401 113.555C165.115 113.456 164.116 115.236 163.307 117.756Z" fill="#231F20"/>
<path d="M190.151 177.461C190.151 177.461 190.294 180.772 190.722 180.97C191.15 181.168 197.576 182.552 197.433 181.909C197.29 181.267 193.816 177.016 193.816 177.016L190.151 177.461Z" fill="white"/>
<path d="M196.814 182.403C194.958 182.403 190.627 181.316 190.579 181.267C190.436 181.217 190.008 181.02 189.865 177.51C189.865 177.362 189.96 177.214 190.103 177.214L193.721 176.769C193.816 176.769 193.911 176.818 193.959 176.868C194.815 177.856 197.528 181.168 197.671 181.909C197.671 182.057 197.623 182.206 197.528 182.305C197.338 182.354 197.052 182.403 196.814 182.403ZM190.436 177.758C190.484 179.092 190.674 180.525 190.865 180.772C191.246 180.921 195.958 181.959 197.052 181.81C196.005 180.278 194.863 178.746 193.673 177.362L190.436 177.758Z" fill="#231F20"/>
<path d="M188.152 176.868C188.152 176.868 188.342 180.871 188.152 180.921C187.962 180.97 180.679 181.81 180.917 181.366C181.155 180.921 184.82 176.818 184.82 176.818" fill="white"/>
<path d="M181.917 181.81C181.25 181.81 180.822 181.761 180.727 181.613C180.632 181.514 180.632 181.366 180.679 181.217C180.917 180.772 184.011 177.313 184.63 176.621C184.725 176.522 184.915 176.522 185.058 176.621C185.153 176.72 185.153 176.917 185.058 177.066C183.868 178.351 182.107 180.427 181.441 181.217C182.773 181.267 186.962 180.822 187.961 180.674C188.009 180.13 187.961 178.45 187.914 176.868C187.914 176.72 188.009 176.571 188.199 176.571C188.342 176.571 188.485 176.67 188.485 176.819C188.675 181.069 188.533 181.118 188.295 181.217C188.199 181.267 184.011 181.81 181.917 181.81Z" fill="#231F20"/>
<path d="M180.917 148.152L183.249 177.51L188.675 177.461L190.103 162.782L190.151 177.461L195.148 178.301L197.623 151.266L180.917 148.152Z" fill="white"/>
<path d="M195.148 178.647H195.101L190.103 177.807C189.96 177.758 189.818 177.659 189.818 177.461V169.207L189.009 177.51C189.009 177.659 188.866 177.807 188.675 177.807H183.249C183.059 177.807 182.964 177.659 182.916 177.51L180.584 148.152C180.584 147.955 180.727 147.806 180.87 147.806C180.917 147.806 180.917 147.806 180.965 147.806L197.719 150.92C197.861 150.97 198.004 151.118 197.957 151.266L195.434 178.301C195.434 178.4 195.386 178.45 195.339 178.548C195.291 178.598 195.244 178.647 195.148 178.647ZM190.436 177.214L194.863 177.955L197.29 151.563L181.298 148.548L183.535 177.164H188.39L189.77 162.782C189.77 162.584 189.913 162.485 190.103 162.485C190.294 162.485 190.389 162.634 190.389 162.831L190.436 177.214Z" fill="#231F20"/>
<path d="M182.155 127.691C182.155 127.691 176.967 125.813 175.015 124.083C173.064 122.353 169.732 118.646 169.732 118.646L166.163 122.748C167.781 125.714 169.685 128.481 171.874 131.002C175.158 134.659 182.155 137.477 182.155 137.477V127.691Z" fill="#B6B6B6"/>
<path d="M38.1763 151.662L34.7494 177.807H29.7518L28.9902 150.179L38.1763 151.662Z" fill="white"/>
<path d="M34.7495 178.153H29.7519C29.5616 178.153 29.4188 178.005 29.4188 177.807L28.6572 150.179C28.6572 150.08 28.7048 149.981 28.7524 149.932C28.8 149.882 28.9428 149.833 29.038 149.833L38.2241 151.315C38.4144 151.365 38.5096 151.513 38.5096 151.711L35.0827 177.856C35.0351 178.005 34.8923 178.153 34.7495 178.153ZM30.0851 177.461H34.5116L37.8433 151.958L29.3712 150.574L30.0851 177.461Z" fill="#231F20"/>
<path d="M29.752 177.807V180.575C29.752 180.575 41.651 182.058 41.5558 181.366C41.4606 180.674 34.7495 177.807 34.7495 177.807H29.752Z" fill="white"/>
<path d="M40.3658 181.86C38.1288 181.86 33.6072 181.366 29.7043 180.921C29.5615 180.921 29.4187 180.772 29.4187 180.575V177.807C29.4187 177.609 29.5615 177.461 29.7519 177.461H34.7495C34.7971 177.461 34.8447 177.461 34.8923 177.51C39.4615 179.487 41.8413 180.772 41.8889 181.366C41.8889 181.464 41.8413 181.613 41.7937 181.712C41.6509 181.81 41.1274 181.86 40.3658 181.86ZM30.085 180.278C34.5591 180.822 39.4615 181.267 40.937 181.217C38.9379 180.031 36.8437 179.043 34.7019 178.153H30.085V180.278Z" fill="#231F20"/>
<path d="M17.9006 151.76L21.5179 177.856L26.5155 177.807L27.2771 150.179L17.9006 151.76Z" fill="white"/>
<path d="M26.5154 178.153H21.5178C21.375 178.153 21.2322 178.005 21.1846 177.856L17.6149 151.76C17.5673 151.563 17.7101 151.414 17.9005 151.365L27.277 149.783C27.4673 149.734 27.6101 149.882 27.6577 150.08V150.129L26.8486 177.807C26.801 178.054 26.6582 178.153 26.5154 178.153ZM21.7558 177.51H26.1822L26.9438 150.574L18.2813 152.007L21.7558 177.51Z" fill="#231F20"/>
<path d="M41.2226 106.685C41.2226 107.328 41.0798 108.02 40.8418 108.613C39.6043 111.479 36.8437 113.308 33.7976 113.259C31.5605 113.209 29.6567 111.133 28.3716 109.404C25.4206 105.4 24.9447 99.1234 28.1336 95.12C29.2759 93.6867 30.2278 92.1051 32.1793 91.7097C33.6072 91.4626 35.0351 91.858 36.1298 92.797C37.4149 93.9832 38.0336 95.8119 38.3668 97.5418C38.7 99.2716 38.8903 101.15 39.6519 102.731C40.3182 104.263 41.175 105.301 41.2226 106.685Z" fill="white"/>
<path d="M34.0356 113.555H33.8452C31.9889 113.506 30.0375 112.171 28.1337 109.552C24.8971 105.104 24.8019 98.8268 27.8957 94.8234L28.2764 94.3292C29.276 93.0442 30.2755 91.7097 32.0841 91.3143C33.6072 91.0178 35.1779 91.4626 36.3202 92.5005C37.7957 93.835 38.3668 95.8614 38.6524 97.4429C38.7476 97.8383 38.7952 98.2337 38.8904 98.6291C39.0808 99.9636 39.4139 101.298 39.9375 102.534C40.1279 102.929 40.3183 103.324 40.5087 103.72C41.0322 104.659 41.5082 105.549 41.5558 106.586C41.5558 107.278 41.413 108.02 41.1274 108.662C39.8423 111.628 37.0817 113.506 34.0356 113.555ZM32.9885 91.9568C32.7505 91.9568 32.4649 92.0063 32.2269 92.0063C30.6563 92.3028 29.7519 93.489 28.8 94.774C28.6572 94.9717 28.5144 95.12 28.4192 95.2683C25.5635 98.9257 25.6587 105.054 28.7048 109.157C30.4659 111.578 32.2269 112.814 33.8928 112.863C36.7962 112.913 39.4615 111.183 40.6038 108.415C40.8418 107.871 40.9846 107.278 40.9846 106.636C40.937 105.746 40.5087 104.955 40.0327 104.066C39.8423 103.67 39.6043 103.275 39.4139 102.88C38.8904 101.595 38.5096 100.211 38.3192 98.7774C38.224 98.382 38.1764 97.9866 38.0813 97.5912C37.7957 96.1085 37.2721 94.2303 35.9394 93.0442C35.0827 92.3522 34.0356 91.9568 32.9885 91.9568Z" fill="#231F20"/>
<path d="M34.4162 112.023C34.4162 112.023 39.509 121.167 40.6989 121.908L47.2196 114L50.0754 116.817C50.0754 116.817 43.8879 129.075 40.1278 128.284C36.3677 127.493 31.2749 118.251 31.2749 118.251" fill="white"/>
<path d="M40.5087 128.63C40.3659 128.63 40.2231 128.63 40.0803 128.58C36.2727 127.74 31.2275 118.794 31.0371 118.399C30.9419 118.251 30.9895 118.053 31.1323 117.954C31.2751 117.855 31.4654 117.905 31.5606 118.053C31.6082 118.152 36.6534 127.147 40.2231 127.888C43.0313 128.481 47.8861 120.326 49.6948 116.817L47.2674 114.396L40.9371 122.056C40.8419 122.205 40.6515 122.205 40.5087 122.106C39.2712 121.315 34.6544 113.012 34.1308 112.073C34.0356 111.924 34.0832 111.727 34.226 111.628C34.3688 111.529 34.5592 111.578 34.6544 111.727C36.5582 115.137 39.5568 120.228 40.6039 121.315L46.9342 113.654C46.9818 113.605 47.077 113.555 47.1722 113.555C47.2674 113.555 47.3626 113.605 47.4101 113.654L50.2659 116.471C50.3611 116.57 50.4087 116.718 50.3135 116.867C49.7424 118.201 44.364 128.63 40.5087 128.63Z" fill="#231F20"/>
<path d="M164.021 84.049C164.021 84.049 166.876 111.232 167.114 111.578C167.781 112.814 168.019 114.247 167.781 115.582C167.448 117.806 165.972 120.03 165.496 120.228C165.02 120.425 162.402 120.425 162.355 119.882C162.307 119.338 163.545 118.992 164.259 118.597C164.973 118.201 166.353 116.521 166.02 115.532C165.686 114.544 164.354 113.951 163.973 114.099C163.592 114.247 162.545 116.867 161.784 116.323C161.022 115.779 162.212 114 162.64 112.616C163.069 111.232 157.167 85.2845 157.167 85.2845" fill="white"/>
<path d="M164.306 120.722C163.64 120.771 162.974 120.672 162.355 120.376C162.212 120.277 162.117 120.129 162.069 119.931C162.022 119.289 162.831 118.943 163.592 118.646C163.783 118.547 164.021 118.448 164.164 118.399C164.782 118.053 166.02 116.471 165.782 115.73C165.449 115.087 164.877 114.593 164.164 114.494C164.116 114.544 163.926 114.84 163.783 115.087C163.354 115.779 162.783 116.669 162.212 116.817C162.022 116.867 161.831 116.817 161.688 116.718C160.927 116.175 161.451 115.038 161.926 113.901C162.117 113.506 162.26 113.061 162.402 112.666C162.688 111.578 159.261 95.8614 156.929 85.5317C156.881 85.3834 156.976 85.1857 157.119 85.1363C157.262 85.0868 157.452 85.1857 157.5 85.334V85.3834C158.119 88.0523 163.402 111.43 162.974 112.863C162.831 113.308 162.64 113.753 162.45 114.148C162.117 114.939 161.641 115.977 162.022 116.224C162.069 116.224 162.069 116.224 162.117 116.224C162.45 116.175 163.021 115.285 163.307 114.741C163.592 114.198 163.735 114 163.926 113.951C164.211 113.852 164.544 113.901 164.83 114.05C165.496 114.297 166.067 114.84 166.353 115.532C166.734 116.718 165.211 118.547 164.449 118.943C164.259 119.041 164.068 119.14 163.83 119.239C163.497 119.387 162.783 119.684 162.688 119.882C163.021 120.129 164.973 120.178 165.401 119.98C165.687 119.832 167.162 117.806 167.495 115.582C167.733 114.297 167.495 112.913 166.876 111.776C166.639 111.381 164.83 94.2798 163.735 84.0983C163.735 83.9501 163.83 83.8018 163.973 83.7524C164.116 83.7524 164.259 83.8512 164.306 83.9995C165.449 94.6752 167.162 110.788 167.4 111.479C168.066 112.764 168.304 114.247 168.066 115.681C167.733 117.905 166.258 120.326 165.639 120.574C165.163 120.623 164.735 120.722 164.306 120.722Z" fill="#231F20"/>
<path d="M119.375 83.1592C119.375 83.1592 113.14 103.423 111.237 107.081C109.333 110.738 108 112.567 108.143 113.704C108.286 114.84 108.809 116.422 110.57 115.483C112.331 114.544 113.283 114.494 114.616 111.628C115.187 110.442 125.42 86.7178 125.42 86.7178" fill="white"/>
<path d="M109.666 116.125C109.428 116.125 109.19 116.076 109 115.928C108.238 115.483 108 114.395 107.905 113.753C107.81 112.863 108.428 111.727 109.523 109.799C109.952 109.008 110.475 108.069 111.046 106.982C112.902 103.374 119.09 83.3075 119.138 83.1099C119.185 82.9616 119.376 82.8627 119.518 82.9121C119.661 82.9616 119.756 83.1098 119.709 83.3075C119.471 84.1478 113.426 103.67 111.57 107.278C110.999 108.366 110.475 109.305 110.047 110.096C109.095 111.825 108.428 113.012 108.524 113.704C108.571 114.099 108.762 115.087 109.285 115.433C109.666 115.582 110.142 115.532 110.475 115.285L111.237 114.89C112.522 114.247 113.283 113.901 114.378 111.578C114.949 110.392 125.087 86.9155 125.182 86.6684C125.23 86.5201 125.42 86.4707 125.563 86.5201C125.706 86.5696 125.753 86.7673 125.706 86.9155C125.277 87.904 115.473 110.639 114.901 111.825C113.712 114.297 112.807 114.791 111.522 115.384C111.284 115.483 111.046 115.631 110.761 115.779C110.427 115.977 110.047 116.076 109.666 116.125Z" fill="#231F20"/>
<path d="M107.476 97.8878C107.476 97.8878 110.951 106.834 111.284 107.081C112.331 107.921 113.093 109.157 113.378 110.54C113.902 112.715 113.378 115.384 113.045 115.73C112.712 116.076 110.285 117.163 110.047 116.669C109.809 116.175 110.808 115.335 111.332 114.741C111.855 114.148 112.474 111.974 111.808 111.232C111.141 110.491 109.666 110.442 109.428 110.738C109.19 111.035 109.142 113.852 108.238 113.704C107.334 113.555 107.762 111.381 107.619 109.947C107.476 108.514 102.526 100.804 102.526 100.804" fill="white"/>
<path d="M110.332 117.163C110.284 117.163 110.237 117.163 110.142 117.163C109.951 117.163 109.809 117.015 109.713 116.867C109.428 116.274 110.047 115.681 110.618 115.038C110.76 114.89 110.903 114.692 111.046 114.544C111.522 114 112.046 112.023 111.522 111.43C110.998 110.936 110.237 110.738 109.571 110.936C109.571 110.985 109.475 111.331 109.428 111.628C109.285 112.468 109.095 113.506 108.619 113.852C108.476 113.951 108.285 114 108.095 113.951C107.191 113.753 107.238 112.468 107.238 111.232C107.286 110.788 107.286 110.343 107.238 109.898C107.143 108.909 104.192 103.967 102.193 100.903C102.146 100.754 102.193 100.557 102.336 100.507C102.431 100.458 102.574 100.507 102.669 100.557C103.193 101.347 107.714 108.366 107.809 109.848C107.857 110.293 107.857 110.788 107.809 111.232C107.809 112.122 107.762 113.259 108.19 113.308C108.238 113.308 108.238 113.308 108.285 113.308C108.571 113.11 108.761 112.073 108.857 111.479C108.857 111.133 108.952 110.788 109.095 110.491C109.333 110.293 109.618 110.194 109.951 110.194C110.665 110.145 111.427 110.442 111.95 110.936C112.759 111.875 111.998 114.198 111.474 114.84C111.332 114.989 111.189 115.186 110.998 115.335C110.713 115.631 110.189 116.175 110.189 116.422C110.618 116.521 112.426 115.779 112.759 115.433C112.997 115.186 113.569 112.715 113.045 110.491C112.759 109.206 112.046 108.02 111.046 107.229C110.713 106.982 108.714 101.99 107.143 97.8877C107.096 97.7395 107.143 97.5418 107.286 97.4923C107.429 97.4429 107.619 97.4924 107.667 97.6406C108.952 100.952 111.094 106.339 111.379 106.735C112.474 107.624 113.283 108.909 113.569 110.343C114.092 112.517 113.616 115.335 113.14 115.829C112.331 116.62 111.332 117.015 110.332 117.163Z" fill="#231F20"/>
<path d="M50.837 96.405C50.837 96.405 48.4096 108.563 48.0765 108.811C47.0769 109.75 46.363 110.985 46.1726 112.369C45.7442 114.593 46.4582 117.213 46.839 117.559C47.2197 117.905 49.6947 118.844 49.9327 118.3C50.1707 117.756 49.076 117.015 48.5524 116.422C48.0289 115.829 47.2673 113.753 47.8385 112.962C48.4096 112.171 49.9327 112.023 50.2183 112.32C50.5039 112.616 50.6943 115.433 51.5986 115.186C52.5029 114.939 51.9318 112.814 51.9793 111.381C52.0269 109.947 55.7394 99.8153 55.7394 99.8153" fill="white"/>
<path d="M49.5043 118.794C48.5048 118.695 47.5052 118.349 46.6009 117.806C46.0774 117.312 45.411 114.593 45.8394 112.369C46.0774 110.936 46.7437 109.601 47.7908 108.662C48.0764 107.97 49.5995 100.804 50.5038 96.3556C50.5514 96.2073 50.6942 96.059 50.837 96.1084C50.9798 96.1579 51.1225 96.3061 51.075 96.4544V96.5038C48.6 108.761 48.3144 109.008 48.2192 109.107C47.2673 109.997 46.6485 111.183 46.4105 112.517C45.9822 114.741 46.7437 117.163 46.9817 117.41C47.3149 117.707 49.1711 118.349 49.5995 118.251C49.5995 118.053 49.0283 117.509 48.7427 117.262C48.5524 117.114 48.4096 116.916 48.2668 116.768C47.6956 116.125 46.7913 113.852 47.5528 112.863C48.0764 112.32 48.7427 111.974 49.5043 111.974C49.7899 111.924 50.123 112.023 50.361 112.221C50.5514 112.517 50.6466 112.863 50.6942 113.209C50.837 113.802 51.075 114.791 51.3605 114.989C51.4081 114.989 51.4081 114.989 51.4557 114.989C51.8365 114.89 51.7413 113.753 51.6937 112.863C51.6461 112.418 51.6461 111.924 51.6461 111.479C51.6937 109.997 55.2634 100.211 55.4062 99.8153C55.4538 99.667 55.6442 99.5682 55.787 99.6176C55.9298 99.667 56.025 99.8647 55.9774 100.013C54.9302 102.83 52.2649 110.343 52.2649 111.479C52.2649 111.924 52.2649 112.369 52.3125 112.814C52.4076 114.049 52.5028 115.335 51.6461 115.582C51.4557 115.631 51.2653 115.631 51.1226 115.483C50.599 115.186 50.361 114.148 50.1706 113.308C50.123 113.061 50.0754 112.814 49.9802 112.616C49.2663 112.517 48.6 112.764 48.0764 113.259C47.6004 113.901 48.2668 115.829 48.7427 116.323C48.8855 116.471 49.0283 116.62 49.2187 116.768C49.8375 117.312 50.4562 117.905 50.2182 118.498C50.123 118.646 49.9802 118.794 49.8375 118.794C49.6947 118.794 49.5995 118.794 49.5043 118.794Z" fill="#231F20"/>
<path d="M87.391 174.594C87.391 174.594 86.2011 178.45 86.7247 178.894C87.2482 179.339 97.8146 181.959 98.5761 181.909C99.3376 181.86 101.622 181.514 101.622 180.871C101.622 180.229 92.817 174.545 92.817 174.545" fill="white"/>
<path d="M98.5759 182.206C97.4336 182.206 87.1052 179.586 86.534 179.141C85.9629 178.697 86.4865 176.374 87.1052 174.496C87.1528 174.347 87.3432 174.248 87.486 174.347C87.6288 174.397 87.6764 174.545 87.6764 174.693C87.1052 176.571 86.772 178.4 86.9148 178.697C87.5336 179.092 97.8143 181.662 98.5283 181.613C99.7658 181.514 101.051 181.168 101.241 180.921C100.718 180.278 96.4816 177.362 92.6264 174.842C92.4836 174.743 92.436 174.545 92.5312 174.397C92.6264 174.248 92.8167 174.199 92.9595 174.298C101.908 180.081 101.908 180.674 101.908 180.871C101.908 181.909 99.385 182.156 98.5759 182.206Z" fill="#231F20"/>
<path d="M78.0145 174.644C78.0145 174.644 80.2039 178.499 79.3948 178.993C78.5857 179.487 67.6861 182.502 67.0674 182.403C66.4486 182.305 63.1645 182.057 63.6405 181.168C64.1164 180.278 73.3025 174.199 73.3025 174.199L78.0145 174.644Z" fill="white"/>
<path d="M67.0673 182.7H67.0197L66.6866 182.651C64.8779 182.453 63.5928 182.156 63.3072 181.613C63.212 181.415 63.212 181.217 63.3072 181.02C63.7832 180.13 71.5414 174.94 73.112 173.902C73.1596 173.853 73.2548 173.853 73.3024 173.853L78.0144 174.298C78.1096 174.298 78.2048 174.347 78.2524 174.446C78.538 174.99 80.1087 177.758 79.8231 178.795C79.7755 178.993 79.6803 179.141 79.5375 179.191C78.8236 179.685 68.2572 182.7 67.0673 182.7ZM73.35 174.496C69.8279 176.868 64.2116 180.723 63.8308 181.316C63.8784 181.415 64.2592 181.761 66.7342 182.057L67.0673 182.107C67.8765 182.107 78.4428 179.141 79.2043 178.697C79.3947 178.499 78.8236 176.818 77.7765 174.94L73.35 174.496Z" fill="#231F20"/>
<path d="M64.4971 97.8878L70.8274 174.644H79.0139L78.7283 112.122L86.6293 175.533L94.3399 175.484L92.5788 97.2452L64.4971 97.8878Z" fill="white"/>
<path d="M94.3398 175.83H86.6292C86.4864 175.83 86.3436 175.731 86.296 175.533L79.0614 117.46L79.347 174.594C79.347 174.693 79.2994 174.792 79.2518 174.841C79.2042 174.891 79.109 174.94 79.0138 174.94L70.7797 174.99C70.6369 174.99 70.4941 174.842 70.4465 174.693L64.1162 97.8877C64.1162 97.7889 64.1162 97.69 64.2114 97.6406C64.259 97.5912 64.3542 97.5418 64.4494 97.5418L92.5311 96.9487C92.7215 96.9487 92.8643 97.0969 92.8643 97.2452L94.6253 175.484C94.6253 175.583 94.5777 175.682 94.5302 175.731C94.4826 175.781 94.435 175.83 94.3398 175.83ZM86.8672 175.187H94.0066L92.2455 97.5912L64.8302 98.1843L71.1128 174.298H78.7282L78.3951 112.122C78.3951 111.924 78.5378 111.776 78.6806 111.776C78.871 111.776 79.0138 111.875 79.0138 112.073L86.8672 175.187Z" fill="#231F20"/>
<path d="M72.3979 53.0598C72.3979 53.0598 62.4979 54.4437 60.3561 56.5689C58.2143 58.6942 50.9321 93.9832 47.5527 102.287L54.9301 106.191L61.9744 79.2547L63.3071 101.644L93.8638 101.545L92.9595 79.1559C92.9595 79.1559 98.195 95.2188 102.574 104.56L110.522 99.4693C110.522 99.4693 97.4811 68.1343 95.7676 59.3861C94.0542 50.638 72.3979 53.0598 72.3979 53.0598Z" fill="#B6B6B6"/>
<path d="M36.2726 108.909C36.2726 108.909 22.1841 106.29 19.4236 108.811C16.663 111.331 20.2327 132.04 20.2327 132.04L37.4625 129.964C37.4625 129.964 41.5082 115.73 36.2726 108.909Z" fill="#B6B6B6"/>
<path d="M20.2328 112.073C20.2328 112.073 13.8549 119.684 12.8554 119.931C11.8559 120.178 7.76264 111.133 7.76264 111.133L3.38379 114.494C3.38379 114.494 9.04773 127.79 11.3323 128.778C13.617 129.766 28.229 115.977 20.2328 112.073Z" fill="white"/>
<path d="M11.5701 129.173C11.4273 129.173 11.2845 129.173 11.1894 129.124C8.85714 128.086 3.62156 116.027 3.05041 114.643C3.00281 114.494 3.05041 114.346 3.1456 114.247L7.52445 110.886C7.66724 110.788 7.85762 110.837 7.95281 110.985C7.95281 110.985 7.95281 111.035 8.00041 111.035C9.80906 114.989 12.1413 119.437 12.76 119.635C13.2836 119.486 16.8533 115.582 19.947 111.924C20.0422 111.825 20.185 111.776 20.3278 111.825C22.9456 113.11 23.5644 115.483 22.1841 118.695C20.185 123.391 13.8547 129.173 11.5701 129.173ZM3.76435 114.593C5.43022 118.448 9.71387 127.691 11.4273 128.481C12.522 128.976 19.3759 123.687 21.6129 118.349C22.8028 115.582 22.3744 113.605 20.2802 112.468C18.8999 114.099 13.9023 119.98 12.9028 120.228C11.9033 120.475 9.52349 115.779 7.61964 111.628L3.76435 114.593Z" fill="#231F20"/>
<path d="M32.5125 107.18L32.7028 111.381C32.7028 111.381 32.1317 112.616 28.8 111.677C25.4682 110.738 25.4682 109.107 25.4682 109.107L25.3254 101.249C25.3254 100.853 25.4682 96.751 25.4206 93.143C29.4663 93.0442 33.0836 92.6982 33.0836 92.6982C32.7028 93.0936 34.1307 93.1924 34.1307 93.1924C34.7971 93.1924 35.4158 93.2913 36.0346 93.489C36.2726 95.9108 37.4625 102.632 37.1769 104.016C36.7009 106.636 32.5125 107.18 32.5125 107.18Z" fill="white"/>
<path d="M31.0369 112.32C30.2754 112.32 29.4662 112.171 28.7523 111.924C25.2302 110.936 25.2302 109.156 25.2302 109.058C25.0398 101.249 25.0398 101.249 25.0398 101.249C25.0874 99.8153 25.1826 96.3556 25.135 93.143C25.135 93.0441 25.1826 92.9947 25.2302 92.9453C25.2778 92.8959 25.373 92.8464 25.4206 92.8464C29.4186 92.7476 33.036 92.4016 33.036 92.4016C33.1787 92.4016 33.3215 92.5005 33.3691 92.6982C33.3691 92.7476 33.3691 92.7476 33.3691 92.797C33.6071 92.8464 33.8927 92.8959 34.1307 92.8959C34.797 92.8959 35.511 92.9947 36.1297 93.1924C36.2249 93.2418 36.3201 93.3407 36.3201 93.4395C36.4153 94.2303 36.5581 95.4659 36.796 96.8004C37.2244 99.7164 37.7004 103.077 37.51 104.066C37.034 106.537 33.7975 107.278 32.8456 107.476L32.9884 111.43C32.9884 111.479 32.9884 111.529 32.9884 111.578C32.8932 111.628 32.5124 112.32 31.0369 112.32ZM25.7061 93.4395C25.7537 96.5533 25.6585 99.9141 25.611 101.199C25.611 101.249 25.7537 109.107 25.7537 109.107C25.7537 109.107 25.8489 110.54 28.8475 111.381C31.4177 112.122 32.1792 111.479 32.3696 111.282L32.2268 107.13C32.2268 106.982 32.322 106.834 32.4648 106.834C32.5124 106.834 36.4153 106.29 36.8912 103.868C37.0816 102.978 36.5581 99.5187 36.1773 96.8004C35.9869 95.5648 35.8441 94.428 35.7489 93.6372C35.2254 93.4889 34.6542 93.3901 34.0831 93.4395C33.7975 93.4395 32.9408 93.3407 32.7504 93.0441C31.7985 93.0935 28.8951 93.3407 25.7061 93.4395Z" fill="#231F20"/>
<path d="M32.2268 99.9141C32.6552 100.705 33.0836 101.644 32.8456 101.941C32.4172 102.435 31.2749 102.089 31.2749 102.089" fill="white"/>
<path d="M32.0365 102.534C31.7509 102.534 31.4653 102.484 31.1797 102.435C30.9893 102.385 30.9417 102.188 30.9893 101.99C31.0369 101.842 31.1797 101.743 31.3225 101.792C31.7033 101.891 32.4172 101.941 32.6076 101.743C32.6076 101.743 32.6076 101.397 31.9413 100.112C31.8461 99.9636 31.8937 99.7659 32.0365 99.667C32.1792 99.5682 32.3696 99.6176 32.4648 99.7659C33.3691 101.446 33.274 101.891 33.0836 102.188C32.798 102.435 32.4172 102.534 32.0365 102.534Z" fill="#231F20"/>
<path d="M27.7053 109.305C27.4197 109.947 26.9914 110.491 26.4202 110.936C25.3731 111.776 24.1356 112.369 22.8505 112.616C21.2322 113.012 19.4712 113.11 17.9481 112.468C16.5202 111.875 14.9971 110.343 15.3303 108.613C15.7111 106.784 16.4726 104.807 16.9962 102.978C18.7572 97.344 19.6616 88.6454 26.4202 87.3109C31.513 86.3224 34.7971 87.558 36.8914 90.2764C39.414 93.5878 38.5096 98.0854 33.75 95.9602C32.4173 95.3671 31.4654 94.1809 31.0846 92.6982C30.5611 94.1809 29.6092 95.4165 28.4193 96.405C27.9909 96.7015 27.6101 97.0475 27.2769 97.4429C25.8967 99.5187 26.6106 102.484 27.1342 104.708C27.5625 106.636 28.2289 107.97 27.7053 109.305Z" fill="white"/>
<path d="M20.4706 113.259C19.5662 113.259 18.6619 113.11 17.8052 112.764C16.1393 112.073 14.6162 110.392 14.997 108.563C15.3302 107.179 15.7109 105.796 16.1869 104.412C16.3773 103.868 16.5201 103.374 16.7105 102.88C17.0436 101.891 17.3292 100.804 17.6148 99.667C19.0427 94.2797 20.6133 88.1017 26.3725 87.0144C31.2273 86.0753 34.8446 87.1132 37.1292 90.1281C38.6523 92.1051 39.0331 94.5763 38.0335 95.9602C37.5576 96.6027 36.3201 97.5417 33.6547 96.3556C32.5124 95.8119 31.6081 94.8728 31.0845 93.6866C30.5133 94.8728 29.7042 95.9107 28.6571 96.751L28.4191 96.9487C28.0859 97.1464 27.8004 97.4429 27.5624 97.7394C26.2773 99.667 26.9436 102.435 27.4672 104.659V104.758C27.5624 105.203 27.6576 105.598 27.8004 105.993C28.1811 107.278 28.4667 108.366 28.0383 109.502C27.7528 110.194 27.2768 110.787 26.6581 111.282C25.5633 112.171 24.2783 112.764 22.9456 113.012C22.0888 113.16 21.2797 113.259 20.4706 113.259ZM29.609 87.3109C28.5619 87.3109 27.5148 87.4592 26.4677 87.6569C21.1369 88.6948 19.5662 94.6257 18.2335 99.8153C17.948 101.001 17.6624 102.089 17.3292 103.077C17.1864 103.572 16.996 104.115 16.8057 104.609C16.3297 105.944 15.9489 107.278 15.6158 108.662C15.3302 110.145 16.6629 111.529 18.0432 112.122C19.3283 112.666 20.8989 112.715 22.7552 112.27C23.9927 112.023 25.1826 111.479 26.1821 110.639C26.7057 110.244 27.0864 109.75 27.372 109.156C27.7528 108.217 27.4672 107.278 27.134 106.092C27.0388 105.697 26.896 105.301 26.8008 104.857V104.758C26.2773 102.534 25.5633 99.4693 26.9912 97.2946C27.2768 96.9487 27.5624 96.6027 27.9432 96.3556L28.1811 96.1579C29.3234 95.2188 30.1802 93.9832 30.7037 92.5993C30.7513 92.451 30.8941 92.3522 31.0369 92.4016C31.1797 92.4016 31.2749 92.5005 31.3225 92.6487C31.6557 93.9832 32.56 95.1199 33.7975 95.6636C35.5109 96.405 36.796 96.3556 37.4148 95.4659C38.2239 94.3786 37.8432 92.2039 36.5105 90.4741C34.9398 88.3488 32.6552 87.3109 29.609 87.3109Z" fill="#231F20"/>
<path d="M31.9889 104.412C31.0846 104.412 30.1803 103.967 29.3711 102.978C29.2283 102.83 29.2759 102.632 29.3711 102.484C29.4663 102.336 29.7043 102.385 29.8471 102.484C30.6086 103.324 31.3702 103.72 32.1317 103.67C33.4168 103.572 34.3687 102.237 34.3687 102.237C34.4639 102.089 34.6543 102.039 34.7971 102.138C34.9399 102.237 34.9875 102.435 34.8923 102.583C34.8447 102.632 33.7976 104.165 32.1793 104.263L31.9889 104.412Z" fill="#231F20"/>
<path d="M32.5126 107.18C32.5126 107.18 29.7996 107.229 28.8 106.24C28.8 106.24 29.7996 107.624 32.7029 109.354L32.5126 107.18Z" fill="#231F20"/>
<path d="M32.7028 109.7C32.6552 109.7 32.6076 109.7 32.56 109.651C29.6567 107.871 28.6095 106.488 28.5619 106.438C28.4668 106.29 28.4668 106.092 28.6095 105.993C28.7523 105.894 28.8951 105.894 29.0379 105.993C29.7994 106.735 31.8461 106.834 32.56 106.834C32.7504 106.834 32.8456 106.982 32.8932 107.13L33.036 109.354C33.036 109.502 32.9884 109.601 32.8932 109.651C32.798 109.7 32.7504 109.7 32.7028 109.7ZM30.2754 107.278C30.9418 107.822 31.6081 108.316 32.322 108.761L32.2269 107.525C31.5605 107.476 30.8942 107.427 30.2754 107.278Z" fill="#231F20"/>
<path d="M33.2265 99.1234C33.1789 99.1234 33.1313 99.1234 33.0837 99.0739C32.9409 98.9751 32.8933 98.7774 32.9409 98.6291C33.2741 97.9866 33.6549 97.6406 34.0832 97.6406C34.5592 97.6406 34.9876 97.9372 35.2256 98.3326C35.3208 98.4808 35.2732 98.6785 35.0828 98.7774C34.94 98.8762 34.7972 98.8268 34.702 98.6785C34.5592 98.4808 34.3688 98.3326 34.1308 98.2831C33.9405 98.2831 33.7025 98.5303 33.5121 98.9257C33.4645 99.0739 33.3693 99.1234 33.2265 99.1234Z" fill="#231F20"/>
<path d="M28.9428 99.1728C28.8952 99.1728 28.8476 99.1728 28.8 99.1234C28.6572 99.0245 28.562 98.8268 28.6572 98.6786C28.9904 98.036 29.3712 97.6901 29.8471 97.6901C30.3231 97.6901 30.7514 97.9866 30.9894 98.382C31.0846 98.5303 31.037 98.728 30.8466 98.8268C30.7038 98.9257 30.5611 98.8762 30.4659 98.728C30.3707 98.6291 30.1327 98.3326 29.8947 98.3326C29.7043 98.3326 29.4663 98.5797 29.276 98.9751C29.1808 99.0739 29.0856 99.1728 28.9428 99.1728Z" fill="#231F20"/>
<path d="M8.42875 113.901C9.0951 111.974 8.57154 109.058 8.09558 107.575C8.00039 107.18 7.81 106.784 7.66721 106.438C7.47683 106.092 7.23885 105.796 6.85808 105.598C6.71529 105.499 6.52491 105.549 6.38212 105.647C6.28693 105.796 6.23933 105.944 6.28692 106.142C6.33452 106.982 6.47731 107.773 6.66769 108.563C6.42971 107.97 6.23933 107.278 6.14414 106.636C6.00135 105.895 5.76337 105.104 5.52539 104.412C5.43019 104.066 5.28741 103.473 4.90664 103.324C4.04991 102.978 4.38308 104.955 4.43068 105.301C4.52587 106.24 4.71625 107.18 5.04943 108.069L4.28789 105.944C4.1451 105.351 3.95471 104.758 3.66914 104.165C3.57394 103.967 3.43116 103.769 3.24077 103.769C3.05039 103.769 2.9076 103.918 2.81241 104.066C2.76481 104.264 2.76481 104.461 2.76481 104.609C2.86 105.252 2.95519 105.895 3.09798 106.537C3.28837 107.229 3.47875 107.872 3.76433 108.514C3.28837 107.18 2.76481 105.895 2.28885 104.609C2.24125 104.461 2.14606 104.313 2.05087 104.214C1.81289 104.066 1.47971 104.214 1.38452 104.461C1.28933 104.708 1.28933 105.005 1.33692 105.301C1.52731 106.488 1.86048 107.624 2.24125 108.761L1.52731 106.784C1.43212 106.537 1.28933 105.993 0.956155 105.944C0.622982 105.895 0.385001 106.24 0.289809 106.488C0.242213 106.784 0.242212 107.081 0.337404 107.377C0.908558 109.947 1.95567 113.506 3.66914 115.384" fill="white"/>
<path d="M3.71679 115.681C3.6216 115.681 3.574 115.631 3.52641 115.582C2.14612 114.049 1.00381 111.331 0.0994836 107.427C0.00429127 107.081 -0.0433042 106.735 0.0518881 106.339C0.194677 105.894 0.575445 105.598 1.05141 105.598H1.099C1.099 105.499 1.05141 105.4 1.05141 105.301C0.956214 104.955 1.00381 104.609 1.1466 104.263C1.24179 104.016 1.47977 103.868 1.71775 103.769C1.90814 103.72 2.09852 103.72 2.28891 103.868C2.3841 103.967 2.52689 104.066 2.57448 104.214C2.57448 104.115 2.62208 104.016 2.62208 103.917C2.71727 103.621 3.00285 103.423 3.33602 103.423C3.6216 103.473 3.90718 103.67 4.00237 103.967C4.04996 104.016 4.04997 104.115 4.09756 104.165C4.04997 103.769 4.19275 103.324 4.43073 103.028C4.62112 102.88 4.8591 102.88 5.04948 102.978C5.52545 103.176 5.71583 103.819 5.81102 104.214C5.90621 104.511 5.95381 104.708 6.049 104.955C6.0966 105.104 6.1442 105.252 6.19179 105.4C6.42977 105.203 6.71535 105.153 7.00093 105.301C7.42929 105.499 7.71487 105.845 7.90525 106.29C8.09564 106.685 8.23843 107.081 8.38122 107.476C8.80958 108.811 9.42833 111.875 8.66679 114C8.6192 114.148 8.42881 114.247 8.28602 114.148C8.14323 114.099 8.09564 113.951 8.09564 113.802C8.71439 111.974 8.23843 109.107 7.76247 107.624C7.66727 107.229 7.52448 106.883 7.3341 106.537C7.19131 106.24 6.95333 105.993 6.66775 105.845C6.62016 105.845 6.57256 105.845 6.52496 105.845C6.52496 105.845 6.47737 105.944 6.47737 106.092C6.52497 106.883 6.66775 107.674 6.85814 108.465C6.90573 108.613 6.81054 108.761 6.66775 108.811C6.52496 108.86 6.38218 108.761 6.28698 108.613C6.049 107.97 5.85862 107.328 5.76343 106.636C5.66823 106.142 5.52545 105.647 5.38266 105.153C5.28747 104.906 5.23987 104.659 5.14468 104.412C5.04948 104.066 4.9067 103.621 4.71631 103.522C4.66871 103.522 4.62112 103.473 4.62112 103.522C4.62112 103.572 4.43073 103.769 4.57352 105.054V105.203C4.66872 106.043 4.8115 106.883 5.09708 107.723L5.14468 107.871C5.19227 108.02 5.09708 108.217 4.95429 108.267C4.8115 108.316 4.66871 108.217 4.62112 108.119L4.57352 107.97L3.90718 105.993C3.81198 105.746 3.76439 105.548 3.71679 105.351C3.6216 105.005 3.52641 104.609 3.33602 104.313C3.24083 104.115 3.14564 104.066 3.14564 104.066C3.14564 104.066 3.05045 104.115 3.05045 104.165C3.00285 104.313 3.00285 104.461 3.05045 104.609C3.09804 105.203 3.24083 105.796 3.33602 106.389V106.488C3.38362 106.636 3.43121 106.784 3.43121 106.982C3.6216 107.476 3.81198 107.921 3.95477 108.415C4.00237 108.563 3.95477 108.761 3.76439 108.811C3.6216 108.86 3.43122 108.811 3.38362 108.613C3.33602 108.415 3.24083 108.217 3.19323 108.069C3.09804 107.773 2.95525 107.476 2.86006 107.18C2.81246 107.081 2.76487 106.932 2.71727 106.834C2.4317 106.142 2.19371 105.4 1.90814 104.708C1.86054 104.609 1.81295 104.511 1.76535 104.461C1.71775 104.461 1.71775 104.461 1.67016 104.461C1.57496 104.461 1.52737 104.56 1.47977 104.609C1.43218 104.807 1.38458 105.054 1.47977 105.252C1.67016 106.389 2.00333 107.525 2.3841 108.662C2.43169 108.811 2.3365 109.008 2.19372 109.058C2.05093 109.107 1.86054 109.008 1.81295 108.86L1.099 106.834C0.956215 106.438 0.861023 106.29 0.76583 106.24C0.670638 106.191 0.480253 106.389 0.432657 106.537C0.385061 106.784 0.432657 107.031 0.480253 107.278C1.33698 111.084 2.4317 113.704 3.76439 115.137C3.85958 115.236 3.85958 115.433 3.76439 115.582C3.85958 115.681 3.81198 115.681 3.71679 115.681Z" fill="#231F20"/>
<path d="M6.71528 108.563C6.71528 108.563 4.81144 108.217 4.85903 111.183L6.71528 108.563Z" fill="white"/>
<path d="M4.81146 111.479C4.66867 111.479 4.52588 111.331 4.52588 111.183C4.52588 109.997 4.81146 109.157 5.33501 108.662C5.71578 108.316 6.23934 108.168 6.7153 108.267C6.85809 108.316 6.95328 108.514 6.90569 108.662C6.85809 108.811 6.7629 108.909 6.62011 108.86C6.28694 108.811 5.95376 108.909 5.71578 109.157C5.33501 109.502 5.09703 110.194 5.09703 111.183C5.09703 111.331 5.00184 111.479 4.81146 111.479Z" fill="#231F20"/>
<path d="M182.155 127.691C182.155 127.691 196.243 127.592 198.718 129.816C201.193 132.04 198.147 151.563 198.147 151.563L180.298 150.179C180.298 150.129 178.537 137.279 182.155 127.691Z" fill="#B6B6B6"/>
<path d="M147.981 40.4566C147.838 40.1106 147.648 39.8141 147.457 39.5175C146.077 37.4417 145.601 38.5291 143.649 37.8865C140.318 36.7004 138.795 33.7843 134.606 35.613C130.703 37.3429 128.181 40.1601 127.61 44.6577C127.229 47.7714 127.99 51.0828 126.943 54.0483C125.753 57.508 122.374 59.6827 120.851 63.0435C119.328 66.4044 120.042 70.4572 122.184 73.4227C124.325 76.3881 127.657 78.118 131.132 78.7111C134.606 79.3042 138.176 78.7605 141.555 77.6732C144.173 76.833 146.791 75.6468 148.695 73.6204C153.169 68.9745 153.502 62.0056 152.074 56.0253L150.075 47.5737C149.599 45.3496 149.028 42.5819 147.981 40.4566Z" fill="white"/>
<path d="M134.13 79.2053C133.131 79.2053 132.084 79.1559 131.084 79.0076C127.276 78.3651 123.945 76.3881 121.898 73.571C119.613 70.4078 119.042 66.2067 120.565 62.8953C121.279 61.2643 122.422 59.9298 123.516 58.6448C124.801 57.1621 125.991 55.7288 126.61 53.9495C127.229 52.1702 127.181 50.3415 127.134 48.4139C127.086 47.1783 127.134 45.8933 127.229 44.6577C127.752 40.2589 130.132 37.244 134.416 35.3165C137.462 33.982 139.175 35.0694 141.079 36.2061C141.888 36.7498 142.793 37.1946 143.697 37.59C144.173 37.7877 144.697 37.8371 145.22 37.8371C146.125 37.8371 146.743 37.936 147.648 39.3693C147.838 39.6658 148.028 40.0118 148.219 40.3578C149.171 42.2853 149.742 44.7565 150.218 46.7829L152.407 55.9759C154.121 63.2413 152.883 69.7653 148.933 73.8675C147.219 75.6468 144.887 76.9812 141.65 78.0192C139.223 78.7605 136.7 79.1559 134.13 79.2053ZM137.081 35.3165C136.272 35.3165 135.463 35.5142 134.749 35.8601C130.703 37.6394 128.466 40.506 127.943 44.6577C127.848 45.8933 127.8 47.0795 127.848 48.3151C127.895 50.2426 127.895 52.269 127.276 54.0977C126.658 55.9265 125.325 57.508 124.04 58.9908C122.945 60.2758 121.85 61.5608 121.184 63.093C119.804 66.1573 120.327 70.1607 122.469 73.1261C124.421 75.7951 127.61 77.6732 131.227 78.2663C134.321 78.7605 137.748 78.4145 141.508 77.2284C144.649 76.2399 146.886 74.9548 148.552 73.2744C153.93 67.6895 152.645 59.3367 151.884 56.0253L149.694 46.7829C149.218 44.7071 148.695 42.3842 147.743 40.5555C147.6 40.2589 147.41 39.9129 147.219 39.6658C146.458 38.4796 146.029 38.4302 145.315 38.4302C144.744 38.4302 144.125 38.3314 143.602 38.1337C142.65 37.7383 141.746 37.2935 140.889 36.7004C139.604 36.0084 138.509 35.3165 137.081 35.3165Z" fill="#231F20"/>
<path d="M139.366 170.393C139.366 170.393 140.46 178.202 140.223 178.598C139.985 178.993 137.51 179.092 137.51 179.092V177.362C137.51 177.362 136.51 179.24 134.892 179.636C133.273 180.031 124.754 180.229 124.849 179.685C124.944 179.142 127.181 178.796 132.988 175.237L133.607 167.626" fill="white"/>
<path d="M128.419 180.328C126.515 180.328 124.849 180.229 124.563 179.932C124.468 179.833 124.421 179.735 124.421 179.586C124.468 179.142 124.897 178.993 125.991 178.499C128.276 177.51 130.465 176.324 132.56 174.99L133.131 167.527C133.178 167.329 133.321 167.23 133.512 167.23C133.654 167.28 133.797 167.379 133.797 167.576L133.178 175.188C133.178 175.286 133.131 175.385 133.036 175.435C130.846 176.819 128.609 178.054 126.277 179.092C125.944 179.24 125.611 179.389 125.373 179.537C127.038 179.784 133.274 179.636 134.749 179.29C136.225 178.944 137.129 177.214 137.176 177.165C137.272 177.016 137.414 176.967 137.557 177.016C137.7 177.066 137.795 177.165 137.795 177.313V178.647C138.509 178.647 139.223 178.499 139.937 178.351C139.985 177.659 139.556 173.804 139.08 170.393C139.033 170.196 139.175 170.047 139.366 169.998C139.556 169.949 139.699 170.097 139.747 170.295C140.889 178.252 140.603 178.598 140.508 178.746C140.223 179.141 138.747 179.29 137.557 179.339C137.462 179.339 137.367 179.29 137.319 179.24C137.272 179.191 137.224 179.092 137.224 178.993V178.351C136.653 179.092 135.891 179.636 134.987 179.883C132.798 180.229 130.608 180.328 128.419 180.328Z" fill="#231F20"/>
<path d="M147.886 170.294C147.886 170.294 147.79 178.153 148.076 178.548C148.362 178.944 150.789 178.993 150.789 178.993V177.313C150.789 177.313 151.788 179.191 153.407 179.537C155.025 179.883 163.545 180.081 163.45 179.487C163.354 178.894 161.07 178.647 155.263 175.089L154.359 170.64" fill="white"/>
<path d="M159.832 180.229C157.643 180.278 155.501 180.13 153.359 179.883C152.455 179.636 151.693 179.092 151.122 178.351V178.993C151.122 179.092 151.074 179.191 151.027 179.24C150.979 179.29 150.884 179.339 150.789 179.339C149.599 179.29 148.124 179.141 147.838 178.746C147.6 178.449 147.505 175.583 147.6 170.294C147.6 170.097 147.743 169.948 147.933 169.948C148.124 169.948 148.266 170.097 148.266 170.294C148.219 173.804 148.266 177.708 148.409 178.351C149.123 178.548 149.837 178.647 150.551 178.647V177.313C150.551 177.115 150.694 176.967 150.884 176.967C151.027 176.967 151.122 177.016 151.17 177.164C151.17 177.164 152.122 178.894 153.597 179.24C155.073 179.586 161.355 179.685 163.021 179.438C162.783 179.339 162.45 179.191 162.069 178.993C159.737 177.955 157.452 176.769 155.263 175.385C155.168 175.336 155.12 175.237 155.12 175.187L154.216 170.739C154.168 170.542 154.263 170.393 154.454 170.344C154.644 170.294 154.787 170.443 154.835 170.591L155.691 174.891C157.833 176.176 160.023 177.362 162.307 178.351C163.402 178.845 163.83 179.043 163.878 179.438C163.878 179.586 163.83 179.685 163.783 179.784C163.402 180.13 161.736 180.229 159.832 180.229Z" fill="#231F20"/>
<path d="M139.223 136.785L128.99 136.834C130.513 151.118 132.607 165.797 133.131 170.69L139.366 170.393C139.366 170.393 139.176 151.76 139.223 136.785Z" fill="white"/>
<path d="M133.131 170.986C132.988 170.986 132.845 170.888 132.845 170.739C132.655 168.861 132.226 165.599 131.703 161.497C130.846 154.825 129.656 145.78 128.704 136.884C128.704 136.785 128.704 136.735 128.752 136.637C128.8 136.587 128.895 136.538 128.99 136.538L139.223 136.488C139.318 136.488 139.366 136.538 139.413 136.587C139.461 136.636 139.509 136.735 139.509 136.785C139.413 151.612 139.604 170.196 139.604 170.393C139.604 170.542 139.509 170.69 139.318 170.69L133.131 170.986ZM129.323 137.131C130.275 145.879 131.417 154.825 132.274 161.398C132.798 165.352 133.178 168.466 133.416 170.393L139.08 170.097C139.08 167.675 138.89 150.821 138.985 137.081L129.323 137.131Z" fill="#231F20"/>
<path d="M145.315 136.735C146.458 151.661 147.886 170.294 147.886 170.294L154.454 170.69C154.454 170.69 155.025 152.353 155.453 136.735H145.315Z" fill="white"/>
<path d="M154.406 170.986L147.886 170.591C147.743 170.591 147.6 170.443 147.6 170.294C147.6 170.294 146.172 151.661 145.03 136.735C145.03 136.636 145.03 136.587 145.125 136.488C145.173 136.439 145.268 136.389 145.363 136.389L155.453 136.34C155.549 136.34 155.596 136.389 155.644 136.439C155.691 136.488 155.739 136.587 155.739 136.686C155.263 152.304 154.739 170.64 154.739 170.64C154.739 170.739 154.692 170.789 154.644 170.838C154.549 170.986 154.501 170.986 154.406 170.986ZM148.124 169.998L154.121 170.344C154.216 167.873 154.692 151.365 155.12 137.032L145.649 137.081C146.696 150.871 147.981 167.724 148.124 169.998Z" fill="#231F20"/>
<path d="M156.215 88.6948C156.263 87.904 164.687 85.5316 164.687 85.5316C161.213 74.1146 160.594 69.6664 155.882 64.032C153.026 60.6217 130.751 56.5689 125.373 64.8722C120.518 72.3847 116.853 85.9765 116.853 85.9765L125.801 89.9798L127.467 85.3339C127.372 89.189 127.705 93.0441 128.419 96.8004C126.658 116.817 124.944 149.536 124.659 156.604C124.659 156.604 130.037 158.581 144.03 158.531C158.024 158.482 164.925 156.406 164.925 156.406C164.925 156.406 158.88 116.669 158.262 110.442C157.643 104.214 154.454 96.0096 154.454 96.0096L155.929 84.0983C155.882 84.1478 154.026 81.4788 156.215 88.6948Z" fill="#B6B6B6"/>
<path d="M136.986 60.0287L136.796 64.4275C136.796 64.4275 137.51 67.7883 141.555 67.3435C145.268 66.9481 145.887 64.5757 145.887 64.5757L146.458 52.3185C146.458 52.022 146.362 50.1438 146.315 47.6726C143.84 47.8703 140.27 45.9922 138.319 41.89C137.129 44.0646 135.701 45.4979 132.179 46.9312C132.274 51.0829 131.703 55.6299 131.988 56.8161C132.702 60.2758 136.986 60.0287 136.986 60.0287Z" fill="white"/>
<path d="M140.889 67.6895C137.272 67.6895 136.558 64.5263 136.558 64.5263C136.558 64.4769 136.558 64.4769 136.558 64.4275L136.701 60.3747C135.653 60.3253 132.369 60.0287 131.751 56.9644C131.608 56.3713 131.703 54.9874 131.798 53.1587C131.893 51.33 131.989 49.1553 131.941 47.0301C131.941 46.8818 131.989 46.783 132.131 46.7335C135.653 45.3002 136.986 43.8669 138.081 41.8405C138.128 41.7417 138.224 41.6923 138.366 41.6923C138.462 41.6923 138.557 41.7417 138.604 41.8405C140.413 45.6956 143.935 47.6232 146.315 47.4255C146.41 47.4255 146.458 47.4255 146.553 47.5243C146.601 47.5738 146.648 47.6726 146.648 47.722C146.648 48.7599 146.696 50.3909 146.791 52.2691V52.3185C146.791 52.3185 146.791 52.3185 146.22 64.5758V64.6252C146.172 64.724 145.458 67.1952 141.603 67.5906C141.317 67.6401 141.079 67.6895 140.889 67.6895ZM137.129 64.3781C137.224 64.724 138.033 67.3929 141.555 66.9975C144.792 66.6516 145.553 64.7735 145.649 64.4769C145.696 63.6861 146.22 52.3679 146.22 52.2691C146.125 50.5392 146.077 49.0071 146.077 47.9692H146.029C143.554 47.9692 140.27 46.1405 138.366 42.5325C137.224 44.4106 135.796 45.7945 132.56 47.1784C132.607 49.2048 132.512 51.3794 132.417 53.1093C132.322 54.3449 132.274 55.5805 132.369 56.7667C132.988 59.8804 136.891 59.6827 137.034 59.6827C137.129 59.6827 137.177 59.7322 137.272 59.7816C137.319 59.831 137.367 59.9299 137.367 60.0287L137.129 64.3781Z" fill="#231F20"/>
<path d="M138.224 49.353C138.224 49.353 135.987 52.8622 136.558 53.4553C137.129 54.0483 138.557 53.6529 138.557 53.6529" fill="white"/>
<path d="M137.557 54.0977C137.081 54.1472 136.653 53.9989 136.272 53.6529C135.653 52.961 137.034 50.5392 137.938 49.1553C138.033 49.007 138.271 49.007 138.414 49.1059C138.509 49.2047 138.557 49.353 138.509 49.5013C137.462 51.1323 136.653 52.8621 136.796 53.2081C137.081 53.5541 138.081 53.4058 138.509 53.307C138.7 53.2575 138.842 53.3564 138.89 53.5541C138.938 53.7518 138.842 53.9 138.652 53.9495C138.271 53.9989 137.938 54.0483 137.557 54.0977Z" fill="#231F20"/>
<path d="M136.112 49.0801C136.126 48.6709 135.966 48.3331 135.756 48.3256C135.546 48.3182 135.365 48.6438 135.351 49.053C135.338 49.4622 135.497 49.8 135.707 49.8075C135.917 49.8149 136.099 49.4893 136.112 49.0801Z" fill="#231F20"/>
<path d="M141.483 49.3225C141.496 48.9133 141.337 48.5755 141.127 48.5681C140.916 48.5606 140.735 48.8863 140.722 49.2955C140.708 49.7047 140.868 50.0424 141.078 50.0499C141.288 50.0574 141.469 49.7317 141.483 49.3225Z" fill="#231F20"/>
<path d="M135.32 55.9263C135.32 55.9263 139.223 59.2377 141.555 54.493L135.32 55.9263Z" fill="white"/>
<path d="M138.176 57.3597C137.034 57.3103 135.987 56.8655 135.082 56.1736C134.94 56.0747 134.892 55.8276 135.035 55.6793C135.13 55.531 135.368 55.531 135.511 55.6299C135.511 55.6299 137.129 56.9643 138.795 56.6184C139.794 56.4207 140.603 55.6299 141.27 54.2954C141.365 54.1472 141.555 54.0483 141.698 54.1472C141.841 54.246 141.889 54.4437 141.841 54.592C141.079 56.0747 140.127 57.0138 138.938 57.2609C138.652 57.3597 138.414 57.3597 138.176 57.3597Z" fill="#231F20"/>
<path d="M136.986 60.0287C136.986 60.0287 140.651 59.6332 142.126 57.9528C140.937 60.424 139.08 62.5493 136.796 63.9826L136.986 60.0287Z" fill="#B6B6B6"/>
<path d="M136.843 64.3286C136.796 64.3286 136.748 64.3286 136.653 64.2792C136.558 64.2298 136.51 64.0815 136.51 63.9826L136.653 60.0287C136.653 59.8804 136.796 59.7321 136.938 59.7321C136.986 59.7321 140.508 59.3367 141.888 57.7552C141.984 57.6069 142.222 57.6069 142.317 57.7057C142.412 57.8046 142.46 57.9529 142.412 58.1011C141.174 60.6712 139.318 62.7964 136.986 64.3286C136.938 64.3286 136.891 64.3286 136.843 64.3286ZM137.319 60.3252L137.224 63.3895C138.795 62.2528 140.127 60.8195 141.174 59.139C139.937 59.7321 138.604 60.177 137.319 60.3252Z" fill="#231F20"/>
<path d="M144.506 49.8471C144.506 49.8471 146.172 47.3265 147.552 48.3644C148.933 49.4023 149.266 51.5771 145.22 53.9989" fill="white"/>
<path d="M145.22 54.3943C145.125 54.3943 144.982 54.3449 144.935 54.246C144.839 54.0977 144.887 53.9 145.03 53.8012C147.505 52.3185 148.076 51.0829 148.124 50.2921C148.124 49.6495 147.838 49.0565 147.314 48.7105C147.124 48.5622 146.886 48.5128 146.648 48.5128C145.887 48.6611 145.03 49.699 144.744 50.0944C144.649 50.2426 144.459 50.2921 144.316 50.1932C144.173 50.0944 144.125 49.8967 144.221 49.7484C144.268 49.699 145.315 48.1174 146.553 47.9197C146.981 47.8208 147.41 47.9691 147.743 48.2162C148.457 48.7105 148.837 49.5507 148.837 50.4403C148.79 51.3794 148.124 52.8621 145.411 54.4437C145.315 54.3943 145.268 54.3943 145.22 54.3943Z" fill="#231F20"/>
<path d="M72.1126 76.6847C72.065 76.6847 72.0174 76.6847 71.9698 76.6353L68.1145 74.3124C68.0193 74.2629 67.9717 74.1641 67.9717 74.0158V66.8987C67.9717 66.701 68.1145 66.5527 68.2573 66.5527L75.1111 66.5033C75.3015 66.5033 75.4443 66.6516 75.4443 66.8493V73.9664C75.4443 74.0652 75.3967 74.1641 75.3015 74.2135L72.3505 76.5364C72.2553 76.6353 72.1601 76.6847 72.1126 76.6847ZM68.5904 73.8675L72.1126 75.9928L74.7779 73.917V67.3435H68.5904V73.8675Z" fill="#231F20"/>
<path d="M78.6807 101.298C78.4903 101.298 78.3475 101.15 78.3475 101.001C77.8716 86.2235 76.9673 58.101 76.8721 57.4585C76.8721 57.2608 77.0149 57.1125 77.2052 57.1125C77.348 57.1125 77.4908 57.2114 77.5384 57.3596C77.6336 57.9033 78.8711 96.5532 79.0139 101.001C79.0139 101.1 78.8711 101.298 78.6807 101.298Z" fill="#231F20"/>
<path d="M156.215 88.9914C156.072 88.9914 155.977 88.8925 155.929 88.7442C151.979 71.1491 152.217 70.902 152.312 70.7538C152.407 70.6055 152.598 70.6055 152.74 70.7043C152.836 70.7538 152.883 70.902 152.836 71.0503C152.836 71.8905 155.025 82.0225 156.548 88.6454C156.596 88.7937 156.5 88.9914 156.31 88.9914H156.215Z" fill="#231F20"/>
<path d="M93.5307 96.0096C93.3879 96.0096 93.2451 95.8614 93.2451 95.7131C93.1975 94.5763 92.3408 68.1343 92.3408 67.3929C92.3408 67.2446 92.436 67.0469 92.5788 67.0469C92.7216 67.0469 92.912 67.1458 92.912 67.2941C92.912 67.3435 92.912 67.3435 92.912 67.3929C92.912 68.1343 93.8163 95.4165 93.8163 95.6637C93.8163 95.8614 93.7211 96.0096 93.5307 96.0096Z" fill="#231F20"/>
<path d="M48.2669 115.73C48.7429 116.521 49.5996 116.916 50.5039 116.718C50.7895 116.62 51.0751 116.471 51.2655 116.224C52.8361 114.692 52.1698 111.183 49.9328 110.689C47.2198 110.194 47.2198 114.099 48.2669 115.73Z" fill="white"/>
<path d="M50.0278 117.114C49.2186 117.064 48.4571 116.62 47.9811 115.878C47.2196 114.692 46.9816 112.468 47.7907 111.232C48.2667 110.491 49.1234 110.194 49.9802 110.442C51.0749 110.738 51.9792 111.628 52.2172 112.764C52.6455 114.049 52.3124 115.483 51.4556 116.471C51.2177 116.718 50.8845 116.916 50.5513 117.015C50.3609 117.114 50.2181 117.114 50.0278 117.114ZM49.409 110.985C48.9806 110.985 48.5523 111.183 48.2667 111.578C47.6004 112.567 47.8383 114.544 48.4571 115.532C48.8378 116.224 49.5994 116.57 50.3609 116.422C50.5989 116.323 50.8369 116.175 51.0273 116.026C51.7412 115.186 51.9792 114 51.646 112.962C51.4556 112.023 50.7417 111.282 49.8374 111.035C49.7422 110.985 49.5518 110.985 49.409 110.985Z" fill="#231F20"/>
<path d="M20.2327 132.04C20.2327 132.04 14.5687 150.624 12.9504 155.863C12.9504 155.863 32.5601 162.535 43.9355 156.209L37.4625 129.915L20.2327 132.04Z" fill="#B6B6B6"/>
<path d="M27.4196 133.028C25.2778 133.078 23.1836 132.732 21.1369 131.991C20.9941 131.941 20.8989 131.743 20.9941 131.595C21.0893 131.447 21.2321 131.348 21.3749 131.447C21.4701 131.496 28.3239 134.314 36.5581 130.261C36.7009 130.162 36.8912 130.211 36.9864 130.36C37.0816 130.508 37.034 130.706 36.8912 130.804L36.8436 130.854C33.8927 132.287 30.6561 133.028 27.4196 133.028Z" fill="#231F20"/>
<path d="M144.696 98.6785C139.699 98.6291 134.749 98.0854 129.846 97.1464C129.704 97.0969 129.561 96.9487 129.608 96.8004C129.656 96.6521 129.799 96.5038 129.942 96.5533C130.084 96.6027 146.124 99.7659 153.502 96.8004C153.645 96.751 153.835 96.8004 153.882 96.9981C153.93 97.1464 153.882 97.3441 153.692 97.3935C151.265 98.3326 148.028 98.6785 144.696 98.6785Z" fill="#231F20"/>
<path d="M127.895 94.3786C127.752 94.3786 127.609 94.2797 127.609 94.1315C127.514 93.4889 125.134 78.711 127.99 70.6054C128.038 70.4572 128.228 70.3583 128.371 70.4078C128.514 70.4572 128.609 70.6549 128.561 70.8031C125.753 78.7605 128.181 93.8843 128.181 94.0326C128.228 94.1809 128.085 94.3786 127.943 94.3786H127.895Z" fill="#231F20"/>
<path d="M85.8678 40.2095C85.725 39.9624 86.1534 33.5866 85.5346 28.8419C85.0111 24.7891 81.013 22.5156 77.4433 22.2684C74.5399 22.0707 71.6366 22.7627 69.114 24.2454C68.3524 24.6902 66.639 25.827 66.8769 27.0132C66.7818 26.6178 66.401 26.3707 65.9726 26.4201C65.5918 26.5189 65.2587 26.7661 65.0683 27.112C64.6875 27.8534 64.5447 28.6442 64.5923 29.4844C64.5923 30.8683 65.0207 31.8568 65.2587 33.1418L65.925 36.6509L66.5438 39.9129C66.5914 40.2589 66.5914 41.0003 66.7817 41.2968L85.8678 40.2095Z" fill="white"/>
<path d="M66.7818 41.6428C66.6866 41.6428 66.5914 41.5934 66.4962 41.4945C66.3059 41.1486 66.2107 40.7532 66.2107 40.3578C66.2107 40.2095 66.1631 40.0612 66.1631 40.0118L64.878 33.1912C64.7828 32.7958 64.6876 32.4004 64.5924 32.005C64.3544 31.1648 64.2116 30.3246 64.2116 29.4844C64.164 28.5948 64.3068 27.7051 64.7352 26.9143C64.9732 26.4695 65.4015 26.173 65.8775 26.0741C66.1155 26.0247 66.3535 26.0741 66.5438 26.173C66.877 25.2833 67.9241 24.4925 68.8761 23.8994C71.4462 22.3673 74.3972 21.6753 77.3958 21.873C81.0607 22.1202 85.2491 24.3937 85.8203 28.743C86.1535 31.9556 86.2486 35.1682 86.1059 38.3808C86.1059 39.1716 86.0583 39.9624 86.1059 40.0612C86.1535 40.1601 86.1535 40.2589 86.1059 40.3578C86.0583 40.4566 85.9155 40.506 85.8203 40.506L66.7818 41.6428ZM66.1155 26.7661H66.0679C65.7823 26.8155 65.5443 27.0132 65.4015 27.3097C65.0684 28.0017 64.9256 28.743 64.9732 29.4844C64.9732 30.2752 65.116 31.066 65.3539 31.8568C65.4491 32.2522 65.5443 32.6476 65.6395 33.0924L66.9246 39.9129C66.9722 40.0612 66.9722 40.2095 66.9722 40.3578C66.9722 40.6049 67.0198 40.8026 67.0674 41.0003L85.5823 39.9129C85.5823 39.6164 85.5823 39.1716 85.5823 38.4302C85.6775 35.2671 85.5823 32.0545 85.2967 28.8913C84.8208 24.9374 80.9179 22.8615 77.491 22.6144C74.6352 22.4167 71.827 23.1087 69.352 24.542C67.9241 25.3822 67.1626 26.2718 67.2578 26.9143C67.3054 27.112 67.1626 27.2603 67.0198 27.3097C66.8294 27.3592 66.6866 27.2109 66.639 27.0626C66.4962 26.8649 66.3059 26.7661 66.1155 26.7661Z" fill="#231F20"/>
<path d="M82.5359 39.5175C82.9167 36.4532 87.7239 35.5636 87.5811 39.1716C87.5811 40.4072 87.1527 41.5934 86.3912 42.5819C85.582 43.5209 84.2969 43.8669 83.1546 43.4715" fill="white"/>
<path d="M84.1067 43.9657C83.7259 43.9657 83.3928 43.9163 83.012 43.768C82.8216 43.7186 82.7264 43.5209 82.8216 43.3232C82.8692 43.1255 83.0596 43.0267 83.25 43.1255C83.25 43.1255 83.25 43.1255 83.2976 43.1255C84.2971 43.4715 85.4394 43.175 86.1534 42.3347C86.8673 41.4451 87.2481 40.3083 87.2481 39.1716C87.2957 38.0348 86.7721 37.2934 85.7726 37.1946C84.3447 37.0958 83.1072 38.1337 82.8216 39.567C82.774 39.7647 82.6312 39.8635 82.4409 39.8635C82.2505 39.8141 82.1553 39.6658 82.1553 39.4681C82.4409 37.6394 84.0115 36.3544 85.8202 36.5027C86.8673 36.6015 87.962 37.3429 87.9144 39.1716C87.9144 40.506 87.4385 41.7911 86.6293 42.7796C85.963 43.5209 85.0586 43.9657 84.1067 43.9657Z" fill="#231F20"/>
<path d="M70.4466 39.8636C69.8754 36.8487 65.0206 36.2556 65.3538 39.8141C65.4014 41.0498 65.9249 42.2359 66.7341 43.1256C67.5908 44.0152 68.8759 44.3118 70.0182 43.8175" fill="white"/>
<path d="M68.9713 44.4107C68.0669 44.4107 67.2102 44.0153 66.5439 43.3727C65.6871 42.4337 65.1636 41.1486 65.0684 39.8142C64.878 37.9855 65.9727 37.1947 66.9722 36.997C68.7333 36.7499 70.3992 37.9361 70.7799 39.7648C70.8275 39.9625 70.6847 40.1107 70.5419 40.1602C70.3516 40.2096 70.2088 40.0613 70.1612 39.8636C69.828 38.4303 68.4953 37.4912 67.115 37.6889C66.1155 37.8372 65.6395 38.5786 65.7347 39.7153C65.7823 40.8521 66.2583 41.9889 67.0198 42.8291C67.7814 43.6199 68.9237 43.867 69.9232 43.4716C70.066 43.3727 70.304 43.4716 70.3516 43.6199C70.4467 43.7681 70.3516 44.0153 70.2088 44.0647C69.7804 44.3118 69.352 44.4107 68.9713 44.4107Z" fill="#231F20"/>
<path d="M71.6366 53.6529C71.6366 53.6529 73.2549 57.9034 76.539 57.8045C79.8232 57.7057 81.727 54.3943 81.727 54.3943L81.3463 40.852L71.3035 40.6049L71.6366 53.6529Z" fill="white"/>
<path d="M76.4438 58.1999C73.0168 58.1999 71.3986 53.9989 71.351 53.8012C71.351 53.7517 71.351 53.7023 71.3034 53.7023L70.9226 40.7037C70.9226 40.6048 70.9702 40.506 71.0178 40.4566C71.0654 40.4071 71.1606 40.3577 71.2558 40.3577L81.2986 40.6048C81.4889 40.6048 81.6317 40.7531 81.6317 40.9508L82.0125 54.4931C82.0125 54.5425 82.0125 54.6414 81.9649 54.6908C81.8697 54.8391 79.9659 58.1999 76.5389 58.2988L76.4438 58.1999ZM71.9697 53.6035C72.1601 54.0483 73.6832 57.508 76.4438 57.508H76.5389C79.3471 57.4091 81.0606 54.8391 81.3938 54.3448L81.013 41.2474L71.6365 41.0497L71.9697 53.6035Z" fill="#231F20"/>
<path d="M71.7793 46.783C71.8745 47.3266 73.35 51.7748 81.6793 52.1702L81.4889 45.8933C80.1086 46.1899 77.6336 48.0186 76.1106 47.8703C74.8255 47.8703 73.5404 47.5737 72.3505 47.1289C72.1601 46.9806 71.9697 46.8818 71.7793 46.783Z" fill="#B6B6B6"/>
<path d="M81.6792 52.4667C72.4932 52.0713 71.4937 46.8323 71.4937 46.7829C71.4937 46.6346 71.5412 46.5358 71.6364 46.4369C71.7316 46.3875 71.8744 46.3875 71.9696 46.4369C72.16 46.5358 72.3504 46.6346 72.5408 46.7335C73.6831 47.1783 74.9206 47.4254 76.2057 47.4748C77.0148 47.5243 78.2523 46.9312 79.347 46.3875C80.061 45.9921 80.7749 45.6956 81.5364 45.4979C81.7268 45.4484 81.8696 45.5967 81.9172 45.745V45.7944L82.1076 52.0713C82.1076 52.1701 82.06 52.269 82.0124 52.3184C81.822 52.4667 81.7744 52.5161 81.6792 52.4667ZM72.3504 47.4748C73.0167 48.8093 75.1586 51.4288 81.2985 51.8242L81.1557 46.2886C80.5845 46.4863 80.061 46.7335 79.4898 47.03C78.2999 47.6231 77.0148 48.2656 76.0629 48.1668C74.8254 48.1668 73.5879 47.9196 72.3504 47.4748Z" fill="#231F20"/>
<path d="M76.1106 48.9576L76.8722 48.9082C80.5847 48.8094 83.488 45.5968 83.3928 41.7417L83.1072 30.72C80.8702 31.7579 78.538 32.4005 76.1106 32.5982C73.6356 32.697 71.2082 32.2028 68.9712 31.1648L69.2568 42.1371C69.352 46.0416 72.4457 49.1059 76.1106 48.9576Z" fill="white"/>
<path d="M83.1073 30.8189L83.3929 41.8406C83.4881 45.6957 80.5847 48.8588 76.9198 49.0071L76.1582 49.0565H75.9679C72.3505 49.0565 69.352 46.0911 69.2568 42.2854L68.9712 31.3132C70.9703 32.2522 73.1597 32.7465 75.3491 32.7465C75.5871 32.7465 75.8727 32.7465 76.1106 32.7465C78.5381 32.4994 80.8703 31.8568 83.1073 30.8189ZM83.1073 30.127C83.0121 30.127 82.9169 30.1764 82.8217 30.1764C80.6799 31.1649 78.3953 31.758 76.063 31.9557C75.8251 31.9557 75.5871 31.9557 75.3491 31.9557C73.2549 31.9063 71.1606 31.4615 69.2568 30.5718C69.1616 30.5224 69.0664 30.5224 68.9712 30.5224C68.8284 30.5224 68.7332 30.5718 68.5905 30.6212C68.4001 30.7695 68.2573 30.9672 68.3049 31.2143L68.5905 42.1865C68.6856 46.3382 71.9698 49.6496 75.9679 49.6002H76.1582H76.9198C80.9655 49.4519 84.1544 45.9428 84.0592 41.7417L83.7736 30.7201C83.7736 30.473 83.6308 30.2753 83.4405 30.127C83.3453 30.1764 83.2025 30.127 83.1073 30.127Z" fill="#231F20"/>
<path d="M76.2056 42.2359C75.9677 42.2359 75.7297 42.2359 75.4441 42.1864C75.2537 42.1864 75.1109 42.0382 75.0157 41.8899C74.4922 41.0003 75.5869 37.5405 75.9201 36.5026C75.9677 36.3049 76.158 36.2555 76.3484 36.3049C76.5388 36.3544 76.634 36.5521 76.5388 36.7498C75.7773 39.0233 75.3013 41.1979 75.5393 41.5439C76.158 41.5933 76.7292 41.5439 77.3479 41.4451C77.5383 41.3956 77.6811 41.5439 77.7287 41.7416C77.7763 41.9393 77.6335 42.0876 77.4431 42.137C77.0624 42.2359 76.634 42.2359 76.2056 42.2359Z" fill="#231F20"/>
<path d="M76.8245 46.7334C75.8726 46.684 74.9207 46.4368 74.0639 45.992C73.9211 45.8932 73.8259 45.6955 73.9211 45.5472C74.0163 45.3989 74.2067 45.3001 74.3495 45.3989C75.6822 46.0909 76.8245 46.2886 77.7288 45.9426C78.2524 45.7449 78.6807 45.3989 78.9663 44.8553C79.0615 44.707 79.2519 44.6081 79.3947 44.707C79.5375 44.8058 79.6327 45.0035 79.5375 45.1518C79.2043 45.7943 78.6332 46.338 77.9192 46.5851C77.6336 46.684 77.2053 46.7334 76.8245 46.7334Z" fill="#231F20"/>
<path d="M79.4788 37.5361C79.7144 37.5141 79.8692 37.0775 79.8244 36.5609C79.7796 36.0444 79.5523 35.6435 79.3167 35.6655C79.0811 35.6875 78.9263 36.1241 78.9711 36.6407C79.0159 37.1572 79.2432 37.5581 79.4788 37.5361Z" fill="#231F20"/>
<path d="M73.3397 37.4846C73.5752 37.4614 73.7279 37.0241 73.6807 36.5078C73.6335 35.9915 73.4044 35.5917 73.1689 35.6149C72.9334 35.6381 72.7807 36.0755 72.8279 36.5918C72.875 37.1081 73.1042 37.5078 73.3397 37.4846Z" fill="#231F20"/>
<path d="M26.5154 177.807V180.575C26.5154 180.575 14.6163 182.107 14.7115 181.464C14.8067 180.822 21.5178 177.856 21.5178 177.856L26.5154 177.807Z" fill="white"/>
<path d="M15.9015 181.959C15.14 181.959 14.6164 181.909 14.4736 181.761C14.3784 181.662 14.3784 181.563 14.3784 181.415C14.4736 180.871 16.8058 179.537 21.3751 177.51C21.4226 177.51 21.4702 177.461 21.5178 177.51H26.5154C26.7058 177.51 26.8486 177.659 26.8486 177.856V180.624C26.8486 180.772 26.7534 180.921 26.563 180.97C22.6602 181.415 18.1385 181.959 15.9015 181.959ZM15.3303 181.316C16.8534 181.366 21.7082 180.871 26.1823 180.328V178.202H21.5654C19.4236 179.092 17.3294 180.13 15.3303 181.316Z" fill="#231F20"/>
<path d="M63.0217 96.6522C62.8789 96.6522 62.7361 96.5533 62.7361 96.3556L60.8323 65.7125C60.8323 65.5642 60.9275 65.4159 61.1179 65.3665C61.3082 65.3171 61.4034 65.4654 61.451 65.6631L63.3549 96.3062C63.3073 96.5039 63.2121 96.6522 63.0217 96.6522Z" fill="#231F20"/>
<path d="M161.784 118.498C161.879 119.239 162.402 119.832 163.116 119.98C163.735 119.98 164.306 119.684 164.687 119.19C165.401 118.399 165.877 117.41 165.972 116.323C166.115 115.087 165.401 112.913 163.878 113.852C162.736 114.643 161.593 117.114 161.784 118.498Z" fill="white"/>
<path d="M163.259 120.326H163.116C162.26 120.178 161.593 119.486 161.498 118.597C161.26 117.114 162.45 114.494 163.735 113.654C164.163 113.308 164.782 113.259 165.258 113.605C166.02 114.099 166.401 115.483 166.258 116.422C166.115 117.559 165.639 118.646 164.877 119.437C164.497 119.931 163.878 120.277 163.259 120.326ZM164.592 113.951C164.401 113.951 164.211 114.05 164.068 114.148C162.974 114.84 161.926 117.213 162.117 118.498C162.164 119.091 162.593 119.585 163.164 119.733C163.688 119.733 164.163 119.486 164.497 119.041C165.163 118.3 165.591 117.361 165.734 116.323C165.829 115.532 165.544 114.445 164.973 114.099C164.83 114 164.735 113.951 164.592 113.951Z" fill="#231F20"/>
<path d="M187.248 127.394L186.867 130.458C186.867 130.458 187.39 131.793 190.341 130.953C193.292 130.112 193.435 128.185 193.435 128.185L193.53 122.155C193.53 121.809 193.34 118.201 193.388 115.038C189.818 114.989 183.583 114.494 183.012 114.692C182.821 116.817 182.821 123.391 183.059 124.626C183.583 126.999 187.248 127.394 187.248 127.394Z" fill="white"/>
<path d="M188.628 131.546C187.01 131.546 186.629 130.607 186.581 130.557C186.581 130.508 186.581 130.458 186.581 130.409L186.914 127.641C186.01 127.493 183.249 126.801 182.821 124.676C182.583 123.391 182.535 116.768 182.726 114.643C182.726 114.544 182.821 114.445 182.916 114.395C183.249 114.297 184.63 114.346 187.961 114.494C189.77 114.593 191.864 114.692 193.387 114.692C193.483 114.692 193.53 114.741 193.578 114.791C193.625 114.84 193.673 114.939 193.673 114.989C193.625 117.707 193.721 120.821 193.768 122.007C193.768 122.056 193.768 122.056 193.721 128.135C193.721 128.234 193.483 130.261 190.389 131.2C189.818 131.447 189.247 131.546 188.628 131.546ZM187.152 130.409C187.295 130.607 188.009 131.348 190.246 130.656C192.911 129.865 193.102 128.234 193.149 128.135C193.197 128.037 193.197 122.205 193.197 122.106C193.149 120.87 193.054 117.954 193.054 115.285C191.579 115.236 189.627 115.137 187.914 115.087C186.01 114.989 183.916 114.89 183.249 114.939C183.059 117.213 183.107 123.341 183.345 124.527C183.773 126.653 187.2 127.048 187.248 127.048C187.343 127.048 187.39 127.098 187.438 127.147C187.485 127.196 187.485 127.295 187.485 127.394L187.152 130.409Z" fill="#231F20"/>
<path d="M187.438 121.018C187.057 121.71 186.676 122.551 186.867 122.798C187.248 123.193 188.247 122.946 188.247 122.946" fill="white"/>
<path d="M187.628 123.341C187.295 123.391 186.914 123.243 186.676 122.995C186.486 122.748 186.391 122.303 187.2 120.821C187.247 120.672 187.438 120.574 187.628 120.623C187.771 120.672 187.866 120.87 187.819 121.068C187.819 121.068 187.819 121.117 187.771 121.117C187.152 122.254 187.2 122.551 187.2 122.551C187.533 122.649 187.914 122.649 188.247 122.551C188.437 122.501 188.58 122.6 188.628 122.798C188.675 122.995 188.58 123.144 188.39 123.193C188.152 123.341 187.866 123.341 187.628 123.341Z" fill="#231F20"/>
<path d="M187.676 125.022H187.533C186.105 124.923 185.153 123.588 185.106 123.539C185.01 123.391 185.058 123.193 185.201 123.094C185.344 122.995 185.534 122.995 185.629 123.144C185.629 123.144 186.438 124.28 187.581 124.379C188.247 124.429 188.913 124.083 189.532 123.341C189.675 123.242 189.865 123.242 190.008 123.391C190.103 123.49 190.103 123.687 190.008 123.836C189.437 124.527 188.58 124.972 187.676 125.022Z" fill="#231F20"/>
<path d="M187.248 127.394C187.248 127.394 189.627 127.394 190.532 126.554C190.532 126.554 189.723 128.234 187.2 129.816L187.248 127.394Z" fill="#231F20"/>
<path d="M187.153 130.162C187.105 130.162 187.057 130.162 186.962 130.112C186.867 130.063 186.819 129.915 186.819 129.816L186.915 127.394C186.915 127.196 187.057 127.048 187.248 127.098H187.295C187.962 127.098 189.675 126.949 190.294 126.356C190.389 126.257 190.579 126.257 190.722 126.356C190.865 126.455 190.865 126.603 190.817 126.752C190.77 126.801 189.913 128.531 187.343 130.162C187.248 130.162 187.2 130.162 187.153 130.162ZM187.533 127.74L187.486 129.223C188.2 128.729 188.914 128.135 189.485 127.444C188.866 127.641 188.2 127.74 187.533 127.74Z" fill="#231F20"/>
<path d="M185.728 120.278C185.912 120.277 186.06 119.9 186.059 119.436C186.057 118.972 185.907 118.597 185.723 118.597C185.539 118.598 185.391 118.975 185.392 119.439C185.394 119.903 185.544 120.278 185.728 120.278Z" fill="#231F20"/>
<path d="M189.441 120.278C189.625 120.277 189.773 119.9 189.771 119.436C189.77 118.972 189.619 118.597 189.435 118.597C189.251 118.598 189.103 118.975 189.105 119.439C189.106 119.903 189.257 120.278 189.441 120.278Z" fill="#231F20"/>
<path d="M193.768 120.277C193.768 120.277 191.864 119.289 190.484 115.829C190.484 115.829 185.867 117.41 182.869 118.3C182.869 118.3 179.394 115.087 181.346 112.616C183.297 110.145 191.626 108.267 194.482 111.974C197.338 115.681 194.768 121.562 194.768 121.562L193.768 120.277Z" fill="white"/>
<path d="M194.815 121.859C194.72 121.859 194.625 121.809 194.577 121.76L193.53 120.524C193.197 120.326 191.531 119.239 190.246 116.224C189.247 116.57 185.439 117.855 182.916 118.597C182.821 118.646 182.726 118.597 182.631 118.547C181.346 117.361 179.394 114.593 181.108 112.419C182.393 110.788 185.915 109.552 189.151 109.552C190.913 109.552 193.34 109.947 194.72 111.776C197.671 115.631 195.149 121.463 195.053 121.661C195.053 121.76 194.958 121.809 194.815 121.859ZM190.484 115.532C190.627 115.532 190.722 115.582 190.77 115.73C192.055 119.041 193.863 120.03 193.911 120.03C193.959 120.03 193.959 120.079 194.006 120.079L194.768 120.969C195.291 119.536 196.624 115.087 194.339 112.122C193.34 110.837 191.531 110.145 189.199 110.145C186.2 110.145 182.774 111.331 181.631 112.765C180.061 114.742 182.44 117.361 183.012 117.954C185.963 117.064 190.389 115.582 190.437 115.532C190.389 115.532 190.437 115.532 190.484 115.532Z" fill="#231F20"/>
<path d="M192.245 119.634C192.245 119.634 193.578 117.46 195.053 119.041C196.529 120.623 195.101 122.847 193.054 123.292" fill="white"/>
<path d="M193.054 123.638C192.911 123.638 192.769 123.49 192.769 123.341C192.769 123.193 192.864 123.094 193.007 123.045C194.054 122.847 194.958 122.106 195.339 121.117C195.529 120.475 195.339 119.783 194.863 119.338C194.625 118.992 194.244 118.844 193.816 118.844C193.102 118.943 192.483 119.832 192.483 119.832C192.388 119.98 192.197 120.03 192.102 119.931C191.959 119.832 191.912 119.634 192.007 119.536C192.055 119.486 192.721 118.349 193.768 118.251C194.339 118.201 194.91 118.448 195.291 118.943C195.91 119.536 196.148 120.475 195.862 121.364C195.434 122.6 194.387 123.49 193.102 123.737L193.054 123.638Z" fill="#231F20"/>
<path d="M198.718 129.816C198.718 129.816 207.809 139.404 208.761 148.795L204.239 151.217L195.053 136.686L198.718 129.816Z" fill="#B6B6B6"/>
<path d="M203.335 150.129C203.24 150.129 203.145 150.08 203.097 149.981L195.482 137.971C195.386 137.823 195.434 137.625 195.577 137.526C195.72 137.427 195.91 137.477 196.005 137.625L203.621 149.635C203.716 149.783 203.668 149.981 203.525 150.031C203.43 150.129 203.383 150.129 203.335 150.129Z" fill="#231F20"/>
</g>
<defs>
<clipPath id="clip0_15_138">
<rect width="210" height="210" fill="white"/>
</clipPath>
</defs>
</svg>
