<svg width="210" height="200" viewBox="0 0 210 200" fill="none" xmlns="http://www.w3.org/2000/svg">
<g clip-path="url(#clip0_15_81)">
<mask id="mask0_15_81" style="mask-type:luminance" maskUnits="userSpaceOnUse" x="0" y="0" width="210" height="200">
<path d="M210 0H0V200H210V0Z" fill="white"/>
</mask>
<g mask="url(#mask0_15_81)">
<path d="M46.5973 166.772L14.7983 150.105C22.1085 139.427 22.6828 133.289 23.8838 124.855C27.9043 97.7092 56.0483 80.3935 77.9264 66.1218C79.7539 64.8742 81.6859 63.7265 83.67 62.6786C85.9675 61.4809 92.4422 57.7883 94.1653 61.1815C95.7839 64.475 91.7634 70.4133 89.727 72.8085C91.0846 70.9123 92.5466 69.1158 94.113 67.4192C94.6352 66.7705 95.314 66.3214 96.0972 66.0719C97.5592 65.7724 98.969 67.0699 99.2301 68.517C99.4912 69.9641 98.8124 71.3614 98.1336 72.6588C96.5149 75.7527 94.4785 78.5971 92.0767 81.1919C93.6953 79.4454 99.6478 72.9083 99.4912 79.5452C99.3868 83.687 97.5592 87.6791 94.4263 90.5733C95.7839 89.4256 97.2982 88.3777 98.8646 87.4795C99.3345 87.1302 99.8567 87.0304 100.431 87.0803C101.058 87.2799 101.371 87.9286 101.475 88.5274C102.467 92.769 100.013 95.813 98.3425 99.4058C97.0371 102.2 96.2539 104.895 94.583 107.59C88.526 117.42 82.2602 124.257 75.3156 133.538C73.5925 135.884 46.7018 166.822 46.5973 166.772Z" fill="white"/>
<path d="M46.5974 167.122C46.5452 167.122 46.4929 167.122 46.4929 167.072L14.6418 150.405C14.5373 150.355 14.4851 150.255 14.4851 150.205C14.4851 150.105 14.4851 150.006 14.5373 149.906C21.3775 139.926 22.2652 133.888 23.4139 126.253L23.5705 124.855C27.4344 98.6074 53.9597 81.3915 75.2112 67.5689L77.7698 65.9222C79.5973 64.6746 81.5293 63.5269 83.5134 62.479L84.0356 62.2295C86.2286 61.0817 90.3014 58.936 92.8077 59.7344C93.5387 59.9839 94.1653 60.4829 94.4786 61.1815C95.3663 62.978 94.7397 65.3233 93.6954 67.519L93.852 67.3194C94.3742 66.6208 95.1574 66.1218 95.9928 65.8723C96.7239 65.7226 97.4549 65.8723 98.0292 66.2715C98.8647 66.8204 99.3868 67.6687 99.5435 68.5669C99.8045 70.064 99.1257 71.561 98.4469 72.9083C97.6115 74.4553 96.6716 75.9523 95.6795 77.3994C96.7761 76.601 97.8204 76.2018 98.6036 76.4513C99.3868 76.7008 99.8568 77.7986 99.8568 79.5951C99.8045 82.689 98.8125 85.683 96.9849 88.2779C97.5593 87.9286 98.0814 87.5793 98.6558 87.23C99.178 86.8308 99.8567 86.6811 100.536 86.7809C101.162 86.9805 101.632 87.5294 101.841 88.4775C102.676 91.9706 101.267 94.5654 99.8045 97.3599C99.439 98.0585 99.0213 98.807 98.708 99.5556C98.2381 100.554 97.8726 101.502 97.4549 102.45C96.7761 104.296 95.9406 106.043 94.9485 107.739C90.928 114.276 86.803 119.466 82.4691 124.955C80.2761 127.7 78.0309 130.544 75.6812 133.688C74.5847 135.185 63.9328 147.511 60.6955 151.203C57.197 155.195 53.8031 159.138 51.2445 162.082C47.3806 166.523 46.8585 167.122 46.5974 167.122ZM15.3205 150.006L46.5452 166.323C48.7382 163.828 73.0704 135.983 75.0546 133.339C77.4043 130.195 79.6495 127.351 81.8426 124.606C86.1764 119.117 90.3014 113.977 94.2697 107.44C95.2618 105.793 96.0973 104.047 96.7239 102.25C97.1416 101.302 97.5071 100.304 97.977 99.3061C98.3425 98.5575 98.708 97.809 99.1257 97.0605C100.536 94.3658 101.893 91.8708 101.11 88.6272C101.005 88.1282 100.797 87.5793 100.274 87.4296C99.8045 87.3797 99.3346 87.5294 98.9691 87.7789C97.4026 88.6771 95.9406 89.6751 94.583 90.8229C94.4264 90.9726 94.2175 90.9726 94.0609 90.8229C93.9042 90.6731 93.9042 90.4735 94.0609 90.3238C97.1416 87.5294 98.9169 83.6371 99.0213 79.5452C99.0735 78.098 98.8125 77.2497 98.2381 77.0501C97.246 76.7008 95.2618 78.148 92.2856 81.3416L92.2334 81.3915C92.0767 81.5412 91.8678 81.5412 91.7112 81.4414C91.5546 81.3416 91.5546 81.0921 91.659 80.9424C94.0087 78.3476 96.045 75.5032 97.6637 72.4592C98.3425 71.2117 98.9169 69.8644 98.708 68.5669C98.6036 67.8184 98.1337 67.1697 97.5071 66.7206C97.0894 66.4212 96.5672 66.3214 96.0451 66.4212C95.3141 66.6707 94.7397 67.0699 94.2697 67.6687C93.3299 68.6667 92.4422 69.7147 91.6068 70.7626C90.7191 72.06 89.9881 72.9582 89.8837 73.058C89.7792 73.2077 89.5182 73.2576 89.3615 73.1079C89.2049 73.0081 89.1527 72.7586 89.2571 72.6089C89.8315 71.8105 90.458 71.0121 91.0846 70.2137C92.9644 67.3693 94.7919 63.6267 93.6954 61.3312C93.4865 60.8322 93.0166 60.433 92.4422 60.2833C90.197 59.5847 86.1764 61.6806 84.2445 62.7285L83.7223 63.0279C81.7381 64.0758 79.8584 65.2235 78.0309 66.4711L75.4723 68.1178C54.3774 81.7907 28.061 98.9068 24.2493 124.855L24.0405 126.303C22.944 133.987 22.0563 140.075 15.3205 150.006Z" fill="#231F20"/>
<path d="M54.2209 184.487L58.7637 158.289C58.7637 158.289 16.5217 142.371 15.8429 142.021C15.3207 141.772 0.387207 184.487 0.387207 184.487H54.2209Z" fill="#231F20"/>
<path d="M54.2209 184.787H0.387132C0.282702 184.787 0.178273 184.737 0.0738426 184.637C0.0216276 184.537 -0.0305867 184.437 0.0216284 184.338C14.7985 141.972 15.4251 141.722 15.6862 141.622C15.7906 141.572 15.895 141.572 15.9994 141.622C16.6782 141.972 44.3522 152.401 58.9202 157.89C59.0769 157.94 59.1813 158.09 59.1291 158.289L54.5864 184.487C54.5864 184.687 54.4297 184.837 54.2209 184.787ZM0.857069 184.138H53.9076L58.3459 158.489C54.5864 157.042 19.6545 143.918 15.9472 142.421C14.6941 144.966 6.44408 168.22 0.857069 184.138Z" fill="#231F20"/>
<path d="M25.3459 44.3648L88.0562 26.1509C89.8837 25.602 91.8679 26.6 92.3901 28.3465L126.278 134.836C126.852 136.582 125.808 138.478 123.98 138.977L61.2699 157.191C59.4423 157.74 57.4582 156.742 56.936 154.996L22.9962 48.5066C22.4741 46.7601 23.5184 44.8638 25.3459 44.3648Z" fill="#231F20"/>
<path d="M61.1132 157.391C58.8158 157.391 56.7794 155.944 56.1006 153.848L23.0485 49.9038C22.213 47.2591 23.7273 44.4646 26.4946 43.6662C26.4946 43.6662 26.4946 43.6662 26.5469 43.6662L86.5942 26.2507C89.3616 25.4024 92.2856 26.8994 93.1211 29.4942C93.1211 29.5441 93.1211 29.5441 93.1733 29.594L126.225 133.538C127.061 136.183 125.547 138.977 122.779 139.776C122.779 139.776 122.779 139.776 122.727 139.776L62.6797 157.191C62.1575 157.291 61.6354 157.391 61.1132 157.391ZM88.1606 26.6499C87.6907 26.6499 87.273 26.6998 86.8553 26.8495L26.8079 44.265C24.406 44.9636 23.1007 47.3589 23.7795 49.6543L56.8316 153.598C57.5626 155.894 60.0689 157.141 62.4708 156.493L122.518 139.077C124.92 138.379 126.225 135.983 125.547 133.688L92.4423 29.7438C91.8679 27.9473 90.1448 26.6998 88.1606 26.6499Z" fill="#231F20"/>
<path d="M90.8009 35.2977L28.7014 53.329L56.8583 141.897L118.958 123.866L90.8009 35.2977Z" fill="white"/>
<path d="M56.8316 142.271C56.7794 142.271 56.7272 142.271 56.675 142.221C56.5705 142.171 56.5183 142.121 56.5183 142.021L28.3744 53.4467C28.3222 53.3469 28.3744 53.2471 28.4266 53.1972C28.4788 53.0974 28.5311 53.0475 28.6355 53.0475L90.7192 35.0331C90.8236 34.9832 90.9281 35.0331 90.9803 35.083C91.0847 35.1329 91.1369 35.1828 91.1891 35.2826L119.333 123.857C119.385 124.057 119.281 124.257 119.072 124.306L56.9883 142.321C56.9361 142.221 56.8838 142.271 56.8316 142.271ZM29.1576 53.5465L57.0927 141.472L118.498 123.658L90.5103 35.7318L29.1576 53.5465Z" fill="#231F20"/>
<path d="M85.6542 145.614C84.4533 145.614 83.409 144.866 83.0435 143.768L82.1558 141.023C81.7381 139.676 82.5213 138.229 83.9834 137.78L95.314 134.486C95.9928 134.287 96.776 134.337 97.4026 134.686C98.0292 134.985 98.4991 135.584 98.708 136.233L99.5957 138.977C100.013 140.325 99.2302 141.772 97.8204 142.221L86.4897 145.514C86.1764 145.564 85.9153 145.614 85.6542 145.614ZM96.0973 135.085C95.8884 135.085 95.7318 135.135 95.5229 135.185L84.1922 138.478C83.1479 138.778 82.5736 139.826 82.8868 140.824L83.7745 143.568C84.0878 144.566 85.2365 145.115 86.2808 144.816L97.6115 141.522C98.1336 141.373 98.5514 141.023 98.7602 140.624C99.0213 140.175 99.0735 139.676 98.9169 139.177L98.0292 136.432C97.7681 135.634 96.9849 135.085 96.0973 135.085Z" fill="#B6B6B6"/>
<path d="M44.4044 44.6643C44.2478 44.6643 44.0912 44.5644 44.0389 44.4147C43.9867 44.2151 44.0912 44.0155 44.3 43.9656L63.9851 38.2769C64.194 38.227 64.4028 38.3268 64.455 38.4765C64.5073 38.6262 64.4028 38.8757 64.2462 38.9256C64.2462 38.9256 64.2462 38.9256 64.194 38.9256L44.5089 44.6643C44.4567 44.6643 44.4044 44.6643 44.4044 44.6643Z" fill="#B6B6B6"/>
<path d="M66.8047 38.1272C66.5959 38.1272 66.4392 37.9775 66.4392 37.7779C66.4392 37.6282 66.5436 37.4785 66.7003 37.4286L69.311 36.6801C69.5199 36.6302 69.7288 36.73 69.781 36.9296C69.8332 37.1292 69.7288 37.3288 69.5721 37.3787L66.9614 38.1272C66.9091 38.1272 66.8569 38.1272 66.8047 38.1272Z" fill="#B6B6B6"/>
<path d="M41.3761 67.02C43.7408 67.02 45.6578 65.188 45.6578 62.9281C45.6578 60.6682 43.7408 58.8362 41.3761 58.8362C39.0114 58.8362 37.0945 60.6682 37.0945 62.9281C37.0945 65.188 39.0114 67.02 41.3761 67.02Z" fill="#B6B6B6"/>
<path d="M48.5816 57.7882C48.3727 57.7882 48.2161 57.6385 48.2161 57.4389C48.2161 57.2892 48.3205 57.1395 48.4771 57.0896L87.8995 45.6623C88.1084 45.6124 88.3172 45.7122 88.3172 45.9118C88.3695 46.1114 88.265 46.2611 88.1084 46.311L48.6338 57.7383L48.5816 57.7882Z" fill="#B6B6B6"/>
<path d="M49.5737 60.9318C49.417 60.9318 49.2604 60.832 49.2082 60.6823C49.1559 60.4827 49.2604 60.2831 49.417 60.2332L88.7872 48.8058C88.996 48.7559 89.2049 48.8557 89.2571 49.0055C89.3093 49.2051 89.2049 49.4047 88.996 49.4546L49.6781 60.9318H49.5737Z" fill="#B6B6B6"/>
<path d="M50.5658 64.0758C50.4092 64.0758 50.2525 63.976 50.2003 63.8263C50.1481 63.6267 50.2525 63.4271 50.4614 63.3771L86.1765 52.9977C86.3854 52.9478 86.5942 53.0476 86.6464 53.2472C86.6987 53.4468 86.5942 53.6464 86.3854 53.6963L50.6703 64.0758C50.618 64.0758 50.618 64.0758 50.5658 64.0758Z" fill="#B6B6B6"/>
<path d="M59.0247 133.039C58.8158 133.039 58.6592 132.89 58.6592 132.69C58.6592 132.54 58.7636 132.39 58.9203 132.341L111.71 117.021C111.919 116.971 112.127 117.071 112.18 117.221C112.232 117.42 112.127 117.62 111.971 117.67C111.971 117.67 111.971 117.67 111.919 117.67L59.1813 132.989C59.0769 133.039 59.0769 133.039 59.0247 133.039Z" fill="#B6B6B6"/>
<path d="M81.2974 62.5151L39.5813 74.6278L52.2557 114.495L93.9718 102.383L81.2974 62.5151Z" fill="#B6B6B6"/>
<path d="M52.2367 114.875C52.0801 114.875 51.9235 114.775 51.8712 114.626L39.183 74.7048C39.1308 74.5052 39.2352 74.3056 39.4441 74.2556L81.1639 62.1297C81.3728 62.0798 81.5816 62.1796 81.6338 62.3792L94.3221 102.25C94.3743 102.45 94.2699 102.649 94.1132 102.699L52.3934 114.825L52.2367 114.875ZM40.0184 74.8545L52.4978 114.077L93.5389 102.15L81.0595 62.9281L40.0184 74.8545Z" fill="#231F20"/>
<path d="M93.9673 102.417L52.2512 114.53L55.4692 124.652L97.1852 112.539L93.9673 102.417Z" fill="white"/>
<path d="M55.4741 125.005C55.4219 125.005 55.3697 125.005 55.3174 124.955C55.213 124.905 55.1608 124.855 55.1608 124.756L51.9235 114.626C51.8712 114.426 51.9757 114.227 52.1845 114.177L93.9044 102.051C94.1132 102.001 94.3221 102.101 94.3743 102.3L97.6117 112.43C97.6639 112.53 97.6116 112.63 97.5594 112.68C97.5072 112.779 97.455 112.829 97.3506 112.829L55.6307 124.955L55.4741 125.005ZM52.7067 114.726L55.7352 124.207L96.7762 112.28L93.7477 102.799L52.7067 114.726Z" fill="#231F20"/>
<path d="M57.9804 116.422C57.8238 116.422 57.6671 116.322 57.6149 116.173C57.5627 115.973 57.6671 115.773 57.8238 115.724L89.9882 106.392C90.1971 106.342 90.406 106.442 90.4582 106.641C90.5104 106.841 90.406 107.041 90.1971 107.091L58.0848 116.372C58.0848 116.422 58.0326 116.422 57.9804 116.422Z" fill="#B6B6B6"/>
<path d="M59.1292 119.965C58.9203 119.965 58.7637 119.815 58.7637 119.616C58.7637 119.466 58.8681 119.316 59.0247 119.267L89.0484 110.534C89.2573 110.484 89.4661 110.584 89.5184 110.783C89.5706 110.983 89.4661 111.183 89.2573 111.232L59.2336 119.965H59.1292Z" fill="#B6B6B6"/>
<path d="M56.5183 100.753C56.3617 100.753 56.205 100.653 56.1528 100.504L50.9835 84.186C50.9313 84.0862 50.9835 83.9864 51.0358 83.9365C51.088 83.8367 51.1402 83.7868 51.2446 83.7868L76.9344 76.3515C77.0389 76.3016 77.1433 76.3515 77.1955 76.4014C77.2999 76.4513 77.3522 76.5012 77.3522 76.601L82.5214 92.9187C82.5737 93.0185 82.5214 93.1183 82.4692 93.1682C82.417 93.268 82.3648 93.3179 82.2604 93.3678L56.5706 100.803C56.6228 100.753 56.5706 100.753 56.5183 100.753ZM51.819 84.3357L56.7794 99.9547L81.7904 92.7191L76.83 77.1L51.819 84.3357Z" fill="white"/>
<path d="M56.5184 100.753C56.4662 100.753 56.414 100.753 56.3618 100.703C56.2051 100.603 56.1007 100.404 56.2051 100.254V100.204L62.732 88.4775C62.7842 88.3777 62.8364 88.3278 62.9409 88.3278C63.0453 88.2779 63.1497 88.3278 63.2019 88.3777L75.4725 94.6652C75.6291 94.7651 75.7336 94.9647 75.6291 95.1144C75.5247 95.2641 75.3158 95.3639 75.1592 95.2641L63.2019 89.1761L56.8317 100.603C56.7795 100.653 56.6751 100.753 56.5184 100.753Z" fill="white"/>
<path d="M72.1307 93.6173C72.0785 93.6173 72.0263 93.6173 71.9218 93.5674C71.7652 93.4676 71.6608 93.268 71.7652 93.1183C71.7652 93.1183 71.7652 93.1183 71.7652 93.0684L74.8981 87.7789C75.0025 87.6292 75.2114 87.5793 75.368 87.6292L81.5816 90.1741C81.7905 90.274 81.8427 90.4736 81.7905 90.6233C81.7383 90.773 81.4772 90.8728 81.3205 90.8229L75.368 88.3777L72.3918 93.3678C72.3918 93.5674 72.2873 93.6173 72.1307 93.6173Z" fill="white"/>
<path d="M69.8334 87.6791C68.3714 87.6791 67.1704 86.5314 67.1704 85.1341C67.1704 83.7369 68.3714 82.5892 69.8334 82.5892C70.9821 82.5892 72.0264 83.3377 72.3919 84.3856C72.8096 85.7329 72.0264 87.1302 70.6166 87.5294C70.3555 87.6292 70.0945 87.6791 69.8334 87.6791ZM69.8334 83.3377C69.6245 83.3377 69.4679 83.3876 69.259 83.4375C68.2669 83.7369 67.6403 84.7349 67.9536 85.7329C68.2669 86.731 69.3112 87.2799 70.3555 86.9805C71.3998 86.6811 71.9742 85.683 71.6609 84.685C71.5043 84.2359 71.191 83.8367 70.721 83.5872C70.46 83.3876 70.1467 83.3377 69.8334 83.3377Z" fill="white"/>
<path d="M125.724 49.5854L84.0076 61.6982L96.682 101.566L138.398 89.453L125.724 49.5854Z" fill="#B6B6B6"/>
<path d="M96.6718 101.951C96.6196 101.951 96.5674 101.951 96.5152 101.901C96.4108 101.851 96.3585 101.801 96.3585 101.701L83.6703 61.8303C83.6181 61.6307 83.7225 61.4311 83.9314 61.3812L125.651 49.2552C125.756 49.2053 125.86 49.2552 125.912 49.3051C126.017 49.355 126.069 49.4049 126.069 49.5047L138.757 89.4256C138.809 89.6252 138.705 89.8248 138.496 89.8747L96.7763 101.951C96.7241 101.951 96.7241 101.951 96.6718 101.951ZM84.4535 61.98L96.9329 101.202L137.974 89.2759L125.495 50.0536L84.4535 61.98Z" fill="#231F20"/>
<path d="M138.393 89.4863L96.6765 101.599L99.8944 111.721L141.611 99.6083L138.393 89.4863Z" fill="white"/>
<path d="M99.9091 112.131C99.8569 112.131 99.8047 112.131 99.7525 112.081C99.6481 112.031 99.5959 111.981 99.5959 111.881L96.3585 101.751C96.3063 101.552 96.4107 101.352 96.6196 101.302L138.339 89.176C138.548 89.1261 138.757 89.2259 138.809 89.4255L142.047 99.5555C142.099 99.6553 142.099 99.7551 142.047 99.805C141.994 99.9048 141.942 99.9547 141.838 99.9547L100.118 112.081C99.9614 112.081 99.9614 112.131 99.9091 112.131ZM97.1417 101.851L100.17 111.332L141.211 99.4057L138.183 89.9245L97.1417 101.851Z" fill="#231F20"/>
<path d="M102.416 103.548C102.207 103.548 102.05 103.398 102.05 103.198C102.05 103.049 102.154 102.899 102.311 102.849L134.476 93.5175C134.684 93.4676 134.893 93.5674 134.946 93.7171C134.998 93.9167 134.893 94.1163 134.684 94.1662L102.52 103.498L102.416 103.548Z" fill="#B6B6B6"/>
<path d="M103.512 107.091C103.355 107.091 103.199 106.991 103.146 106.841C103.094 106.642 103.199 106.442 103.407 106.392L129.306 98.9069C129.515 98.857 129.724 98.9568 129.776 99.1065C129.828 99.3061 129.724 99.5057 129.515 99.5556L103.616 107.091C103.616 107.091 103.564 107.091 103.512 107.091Z" fill="#B6B6B6"/>
<path d="M100.953 87.8287C100.901 87.8287 100.849 87.8287 100.797 87.7788C100.692 87.7289 100.64 87.679 100.64 87.5792L95.4708 71.2615C95.4186 71.1617 95.4186 71.0619 95.4708 71.012C95.523 70.9122 95.5752 70.8623 95.6797 70.8623L121.369 63.427C121.578 63.3771 121.787 63.4769 121.839 63.6266L127.061 79.9443C127.113 80.0441 127.061 80.1439 127.061 80.1938C127.009 80.2936 126.956 80.3435 126.852 80.3435L101.162 87.7788C101.006 87.8287 100.953 87.8287 100.953 87.8287ZM96.2018 71.4112L101.162 87.0303L126.173 79.7946L121.213 64.1755L96.2018 71.4112Z" fill="white"/>
<path d="M100.953 87.8287C100.901 87.8287 100.849 87.8287 100.797 87.7788C100.64 87.679 100.536 87.4795 100.64 87.3298L107.167 75.6029C107.219 75.5031 107.271 75.4532 107.376 75.4532C107.48 75.4532 107.585 75.4532 107.637 75.5031L119.908 81.7907C120.064 81.8905 120.169 82.0901 120.064 82.2398C119.96 82.4394 119.751 82.4893 119.542 82.3895L107.637 76.2516L101.267 87.679C101.215 87.7788 101.058 87.8287 100.953 87.8287Z" fill="white"/>
<path d="M116.514 80.7428C116.461 80.7428 116.409 80.7428 116.357 80.6929C116.2 80.5931 116.096 80.3935 116.2 80.2438L119.333 74.9543C119.438 74.8046 119.646 74.7547 119.803 74.8046L126.069 77.3496C126.278 77.4494 126.33 77.649 126.278 77.7987C126.173 77.9983 125.964 78.0482 125.808 77.9983L119.855 75.5531L116.879 80.5432C116.775 80.6929 116.67 80.7428 116.514 80.7428Z" fill="white"/>
<path d="M114.216 74.8046C112.754 74.8046 111.553 73.6569 111.553 72.2596C111.553 70.8624 112.754 69.7147 114.216 69.7147C115.365 69.7147 116.409 70.4632 116.722 71.5111C117.14 72.8584 116.357 74.2557 114.947 74.6549C114.738 74.7547 114.477 74.8046 114.216 74.8046ZM114.216 70.4133C113.172 70.4133 112.284 71.2117 112.284 72.2596C112.284 73.2576 113.119 74.106 114.216 74.106C115.312 74.106 116.148 73.3075 116.148 72.2596C116.148 72.06 116.096 71.9103 116.043 71.7107C115.835 70.9622 115.104 70.4133 114.216 70.4133Z" fill="white"/>
<path d="M170.111 36.7175L128.395 48.8302L141.07 88.6977L182.786 76.5849L170.111 36.7175Z" fill="#B6B6B6"/>
<path d="M141.107 89.0763C141.055 89.0763 141.002 89.0763 140.95 89.0264C140.846 88.9765 140.794 88.9266 140.794 88.8268L128.105 48.9558C128.053 48.7562 128.158 48.5566 128.314 48.5067L170.034 36.3807C170.139 36.3308 170.243 36.3308 170.295 36.3807C170.4 36.4306 170.452 36.4805 170.452 36.5803L183.14 76.4513C183.192 76.6509 183.088 76.8505 182.879 76.9004L141.159 89.0264L141.107 89.0763ZM128.836 49.0556L141.316 88.2779L182.357 76.3515L169.877 37.1292L128.836 49.0556Z" fill="#231F20"/>
<path d="M182.782 76.6191L141.066 88.7318L144.284 98.8539L186 86.7411L182.782 76.6191Z" fill="white"/>
<path d="M144.292 99.2063C144.135 99.2063 143.979 99.1065 143.926 98.9568L140.689 88.8268C140.637 88.6272 140.741 88.4276 140.898 88.3777L182.618 76.2517C182.827 76.2018 183.036 76.3016 183.088 76.5012L186.325 86.6312C186.325 86.731 186.325 86.8308 186.325 86.8807C186.273 86.9805 186.221 87.0304 186.116 87.0304L144.396 99.1564L144.292 99.2063ZM141.525 88.9765L144.553 98.4578L185.594 86.5314L182.566 77.0501L141.525 88.9765Z" fill="#231F20"/>
<path d="M146.798 90.6233C146.642 90.6233 146.485 90.5235 146.433 90.3737C146.381 90.1741 146.485 89.9745 146.694 89.9246L178.858 80.5931C179.067 80.5432 179.276 80.643 179.328 80.7927C179.38 80.9923 179.276 81.1919 179.119 81.2418C179.119 81.2418 179.119 81.2418 179.067 81.2418L146.903 90.5734C146.85 90.6233 146.85 90.6233 146.798 90.6233Z" fill="#B6B6B6"/>
<path d="M147.947 94.1662C147.738 94.1662 147.582 94.0165 147.582 93.8169C147.582 93.6672 147.686 93.5175 147.843 93.4676L171.339 86.6311C171.548 86.5812 171.705 86.6811 171.809 86.8308C171.862 87.0304 171.757 87.23 171.548 87.2799L148.051 94.1163C147.999 94.1662 147.947 94.1662 147.947 94.1662Z" fill="#B6B6B6"/>
<path d="M145.336 74.9543C145.18 74.9543 145.023 74.8545 144.971 74.7048L139.802 58.3871C139.749 58.2873 139.802 58.1875 139.802 58.1376C139.854 58.0378 139.906 57.9879 140.01 57.9879L165.7 50.5027C165.909 50.4528 166.118 50.5526 166.17 50.7522L171.339 67.0699C171.339 67.1697 171.339 67.2695 171.339 67.3194C171.287 67.4192 171.235 67.4691 171.131 67.4691L145.441 74.9543H145.336ZM140.637 58.5368L145.597 74.1559L170.608 66.9202L165.648 51.3011L140.637 58.5368Z" fill="white"/>
<path d="M145.336 74.9543C145.284 74.9543 145.232 74.9543 145.18 74.9044C145.023 74.8046 144.919 74.605 145.023 74.4553L151.55 62.7285C151.602 62.6287 151.654 62.5788 151.759 62.5788C151.863 62.5289 151.968 62.5289 152.02 62.5788L164.29 68.8664C164.499 68.9662 164.551 69.1658 164.499 69.3155C164.395 69.5151 164.186 69.565 164.029 69.5151C164.029 69.5151 163.977 69.5151 163.977 69.4652L152.02 63.3273L145.65 74.7547C145.597 74.8545 145.493 74.9543 145.336 74.9543Z" fill="white"/>
<path d="M160.949 67.8683C160.896 67.8683 160.844 67.8683 160.74 67.8184C160.583 67.7186 160.531 67.519 160.583 67.3693L163.716 62.0798C163.82 61.9301 164.029 61.8802 164.186 61.9301L170.452 64.4751C170.661 64.5749 170.713 64.7745 170.661 64.9242C170.556 65.1238 170.347 65.1737 170.191 65.1238L164.238 62.6786L161.262 67.6687C161.21 67.7685 161.053 67.8683 160.949 67.8683Z" fill="white"/>
<path d="M158.651 61.8802C157.189 61.8802 155.988 60.7325 155.988 59.3352C155.988 57.938 157.189 56.7903 158.651 56.7903C159.8 56.7903 160.844 57.5388 161.21 58.5867C161.627 59.9341 160.844 61.3313 159.434 61.7305C159.173 61.8303 158.912 61.8802 158.651 61.8802ZM158.651 57.5388C158.442 57.5388 158.286 57.5887 158.077 57.6386C157.085 57.938 156.51 58.936 156.771 59.9341C157.137 60.8822 158.285 61.3313 159.278 60.982C160.165 60.6327 160.635 59.7844 160.426 58.8861C160.217 58.0378 159.486 57.5388 158.651 57.5388Z" fill="white"/>
<path d="M194.47 147.061C194.47 147.061 177.605 107.24 166.326 92.9187C164.76 90.9725 162.671 90.5234 161.105 91.3717C159.277 92.4196 158.912 96.1622 158.912 96.1622C158.912 96.1622 154.421 93.3179 152.176 93.7171C149.931 94.1163 149.409 97.4098 149.409 97.4098C149.409 97.4098 144.553 95.5634 142.412 97.1104C140.271 98.6573 140.01 101.651 140.01 101.651C140.01 101.651 115.208 80.1939 112.441 78.3475C109.673 76.5012 104.295 79.1459 106.592 82.7887C108.054 85.0842 120.377 98.308 124.398 102.5C128.418 106.691 137.608 118.019 138.496 121.213C139.384 124.406 140.062 128.049 133.274 128.099C126.486 128.149 120.325 128.848 117.192 131.043C114.059 133.239 111.866 136.682 113.276 137.48C114.686 138.279 136.459 139.027 145.336 143.069C154.213 147.111 164.864 161.283 164.864 161.283L194.47 147.061Z" fill="white"/>
<path d="M164.865 161.682C164.76 161.682 164.656 161.633 164.551 161.533C164.447 161.383 153.847 147.411 145.179 143.419C139.122 140.624 126.852 139.427 119.49 138.678C115.521 138.279 113.589 138.079 113.119 137.78C112.754 137.58 112.493 137.181 112.493 136.732C112.388 135.235 114.425 132.54 116.983 130.744C119.855 128.748 125.338 127.75 133.274 127.75C135.729 127.75 137.347 127.251 138.078 126.303C139.07 125.055 138.653 123.159 138.13 121.312C137.295 118.219 128.262 107.091 124.085 102.749C119.855 98.258 107.689 85.2837 106.279 82.9883C105.287 81.4414 105.496 79.8445 106.801 78.6469C108.107 77.4493 110.822 76.8504 112.649 78.0481C115.208 79.7447 136.094 97.8089 139.749 100.953C139.958 99.9547 140.585 98.0085 142.203 96.8109C144.135 95.4137 147.895 96.5115 149.148 96.9606C149.357 96.0125 150.088 93.717 152.124 93.4176C154.16 93.1182 157.398 94.8648 158.651 95.6133C158.808 94.4656 159.382 91.9705 160.948 91.0723C162.776 90.0743 165.073 90.723 166.64 92.719C177.866 106.941 194.679 146.562 194.836 146.962C194.888 147.111 194.836 147.311 194.679 147.411L165.073 161.633C165.021 161.682 164.969 161.682 164.865 161.682ZM110.3 78.098C109.203 78.098 108.159 78.4972 107.324 79.1958C106.697 79.7447 105.809 80.9423 106.906 82.639C108.316 84.8845 120.586 98.0085 124.659 102.3C128.418 106.242 137.869 117.769 138.861 121.163C139.436 123.159 139.854 125.255 138.705 126.752C137.765 127.899 135.99 128.448 133.274 128.498C125.494 128.498 120.168 129.496 117.401 131.392C114.842 133.139 113.119 135.634 113.224 136.782C113.224 136.981 113.328 137.181 113.485 137.281C113.85 137.48 116.618 137.78 119.594 138.079C127.009 138.828 139.384 140.075 145.545 142.87C153.847 146.712 163.559 158.988 165.021 160.934L194.053 146.962C192.486 143.269 176.717 106.641 166.065 93.1681C164.708 91.4715 162.828 90.8727 161.314 91.721C159.956 92.4695 159.382 95.264 159.33 96.262C159.33 96.4616 159.121 96.6113 158.912 96.5614C158.86 96.5614 158.808 96.5614 158.755 96.5115C158.703 96.4616 154.369 93.7669 152.281 94.1163C150.297 94.4656 149.827 97.4596 149.827 97.5095C149.827 97.6093 149.722 97.7091 149.67 97.759C149.566 97.8089 149.461 97.8089 149.357 97.759C149.304 97.759 144.657 96.0125 142.673 97.4097C140.689 98.807 140.428 101.701 140.376 101.701C140.376 101.901 140.167 102.051 139.958 102.001C139.853 102.001 139.801 101.951 139.749 101.901C139.488 101.701 114.947 80.4433 112.232 78.6469C111.657 78.2976 110.979 78.098 110.3 78.098Z" fill="#231F20"/>
<path d="M209.665 184.487C205.906 173.509 194.366 138.179 193.792 138.429C193.165 138.728 157.084 154.996 157.084 154.996L159.277 184.487H209.665Z" fill="#231F20"/>
<path d="M209.665 184.787H159.278C159.069 184.787 158.912 184.637 158.912 184.487L156.719 154.996C156.719 154.846 156.771 154.696 156.928 154.646C158.39 153.998 192.956 138.329 193.635 138.079C193.739 138.029 193.844 138.029 193.948 138.079C194.47 138.279 196.089 142.77 205.227 170.166C207.211 176.054 208.882 181.144 209.978 184.338C210.031 184.437 209.978 184.537 209.926 184.637C209.926 184.737 209.822 184.837 209.665 184.787ZM159.643 184.138H209.195C208.099 180.944 206.48 176.054 204.6 170.415C200.423 157.94 194.784 141.023 193.687 138.878C190.45 140.325 160.426 153.898 157.502 155.245L159.643 184.138Z" fill="#231F20"/>
<path d="M21.3252 137.58C21.3252 137.58 27.8521 90.5733 33.4913 85.5333C40.2271 79.5452 46.3362 75.5032 47.4327 78.8964C48.5292 82.2897 49.5736 88.0284 40.4359 94.4157L41.7935 105.843C41.7935 105.843 50.8267 111.781 46.1274 130.594" fill="white"/>
<path d="M21.3251 137.88C21.1163 137.88 20.9596 137.68 21.0118 137.53C21.2729 135.584 27.6431 90.3737 33.2824 85.2838C39.757 79.4953 44.1953 76.8505 46.3361 77.3994C47.0149 77.599 47.5893 78.098 47.7459 78.7966C50.3045 86.5812 45.3963 91.3218 40.7491 94.5654L42.0545 105.643C43.2032 106.492 50.8266 112.829 46.3884 130.644C46.3361 130.794 46.1795 130.943 46.0228 130.893C45.8662 130.844 45.7096 130.694 45.7618 130.544V130.494C50.3567 112.081 41.6368 106.142 41.5846 106.043C41.4801 105.993 41.4801 105.893 41.4279 105.843L40.0703 94.4157C40.0703 94.3159 40.1225 94.1662 40.227 94.1163C48.7902 88.1282 48.3725 82.8386 47.1194 78.9463C47.0149 78.4972 46.6494 78.098 46.1795 77.9982C44.2998 77.4992 39.8615 80.2937 33.7523 85.7329C28.2697 90.6232 21.7428 137.131 21.6384 137.58C21.6384 137.78 21.4818 137.88 21.3251 137.88Z" fill="#231F20"/>
</g>
</g>
<defs>
<clipPath id="clip0_15_81">
<rect width="210" height="200" fill="white"/>
</clipPath>
</defs>
</svg>
