<svg width="210" height="170" viewBox="0 0 210 170" fill="none" xmlns="http://www.w3.org/2000/svg">
<path d="M106.16 15.2213C105.978 15.2213 105.796 15.0503 105.796 14.8793V0.342051C105.796 0.114017 105.978 0 106.16 0C106.342 0 106.523 0.171025 106.523 0.342051V14.8793C106.523 15.0503 106.342 15.2213 106.16 15.2213Z" fill="#231F20"/>
<path d="M106.159 9.40643C107.131 9.40643 107.918 8.58967 107.918 7.58215C107.918 6.57463 107.131 5.75787 106.159 5.75787C105.188 5.75787 104.401 6.57463 104.401 7.58215C104.401 8.58967 105.188 9.40643 106.159 9.40643Z" fill="white"/>
<path d="M106.16 9.74848C104.886 9.8625 103.734 8.95036 103.673 7.75318C103.552 6.556 104.522 5.47283 105.796 5.41582C107.069 5.3018 108.221 6.21394 108.282 7.41113C108.282 7.46814 108.282 7.52514 108.282 7.58215C108.343 8.72232 107.372 9.69147 106.16 9.74848ZM106.16 6.09992C105.311 5.98591 104.522 6.556 104.462 7.35412C104.34 8.15224 104.947 8.89335 105.796 8.95036C106.645 9.06438 107.433 8.49429 107.494 7.69617C107.494 7.63916 107.494 7.58215 107.494 7.52514C107.554 6.84104 106.948 6.21394 106.16 6.09992Z" fill="#231F20"/>
<path d="M106.099 4.61773C105.007 4.33268 103.977 3.70559 103.249 2.90747C102.218 1.65328 102.4 1.1402 102.4 1.1402L104.947 2.39439C104.947 2.39439 104.826 3.36354 106.099 3.47755V4.61773Z" fill="white"/>
<path d="M106.099 5.01677H105.978C104.765 4.67472 103.734 4.04762 102.885 3.19249C101.794 1.88129 101.915 1.19719 101.975 1.02616C102.036 0.912142 102.097 0.855136 102.218 0.798128C102.339 0.741119 102.461 0.741119 102.521 0.798128L105.068 2.05232C105.189 2.10933 105.311 2.28035 105.25 2.39437C105.25 2.50839 105.25 3.02147 106.038 3.07848C106.22 3.07848 106.402 3.2495 106.402 3.42053V4.5607C106.402 4.67472 106.341 4.78874 106.281 4.84575C106.281 4.95976 106.22 5.01677 106.099 5.01677ZM102.946 1.82428C103.128 2.16633 103.31 2.45138 103.552 2.73642C104.158 3.36352 104.886 3.87659 105.735 4.16164V3.81959C105.129 3.70557 104.704 3.2495 104.583 2.6224L102.946 1.82428Z" fill="#231F20"/>
<path d="M106.159 4.61773C107.251 4.33268 108.282 3.70559 109.01 2.90747C110.04 1.65328 109.858 1.1402 109.858 1.1402L107.312 2.39439C107.312 2.39439 107.433 3.36354 106.159 3.47755V4.61773Z" fill="white"/>
<path d="M106.16 5.01677C105.917 5.01677 105.796 4.84574 105.796 4.67472V3.53454C105.796 3.36352 105.917 3.19249 106.16 3.19249C107.009 3.07847 106.948 2.5654 106.948 2.50839C106.948 2.33736 107.009 2.22334 107.19 2.16633L109.737 0.912141C109.859 0.855133 109.98 0.855133 110.041 0.912141C110.162 0.96915 110.222 1.02616 110.283 1.14018C110.344 1.25419 110.526 1.9383 109.374 3.30651C108.525 4.16164 107.494 4.78873 106.281 5.13079H106.16V5.01677ZM106.523 3.76258V4.10463C107.372 3.81959 108.1 3.30651 108.706 2.67941C108.949 2.39437 109.131 2.10932 109.313 1.76727L107.676 2.5654C107.554 3.19249 107.13 3.64856 106.523 3.76258Z" fill="#231F20"/>
<path d="M106.887 11.1167C105.311 10.9457 101.854 11.5728 101.369 16.5326C100.884 21.4923 102.036 23.7727 102.036 23.7727C102.036 23.7727 95.1837 25.882 95.0018 28.6184C94.7592 31.7539 95.1231 33.0651 98.7008 33.5212C103.067 34.0912 114.346 33.8632 116.408 32.9511C118.469 32.0389 118.591 27.5352 116.408 26.3381C114.649 25.3689 112.709 24.5138 110.768 23.9437C110.768 23.9437 112.102 19.7821 111.193 16.0765C110.465 13.055 108.767 11.2878 106.887 11.1167Z" fill="#231F20"/>
<path d="M105.674 34.2622C103.309 34.2622 100.944 34.2052 98.6402 33.9201C94.8199 33.4071 94.2741 31.8678 94.5773 28.5613C94.7592 25.9959 99.9136 24.0576 101.49 23.5446C101.187 22.6894 100.581 20.3521 101.005 16.5325C101.248 14.2521 102.097 12.5989 103.552 11.6297C104.583 10.9456 105.796 10.6606 107.008 10.7746C109.131 10.9456 110.889 12.9409 111.617 15.9624C112.405 19.1549 111.617 22.5754 111.314 23.6586C113.194 24.2857 114.952 25.0268 116.65 25.9959C118.045 26.7371 118.469 28.5043 118.469 29.8725C118.409 31.5258 117.742 32.837 116.65 33.3501C115.134 33.9201 110.222 34.2622 105.674 34.2622ZM106.463 11.5157C105.553 11.5157 104.704 11.7438 103.976 12.2568C102.703 13.055 101.975 14.5372 101.793 16.5895C101.308 21.3212 102.4 23.6016 102.4 23.6016C102.521 23.7726 102.46 24.0576 102.218 24.1147C102.218 24.1147 102.157 24.1147 102.157 24.1717C100.338 24.7417 95.5476 26.68 95.4263 28.6753C95.1837 31.8108 95.6082 32.78 98.7615 33.179C103.128 33.7491 114.285 33.5211 116.226 32.609C117.014 32.2669 117.499 31.1837 117.56 29.8725C117.62 28.4473 117.075 27.1931 116.165 26.68C114.407 25.7109 112.527 24.9128 110.647 24.2857C110.526 24.2287 110.465 24.1717 110.404 24.1147C110.344 24.0006 110.344 23.8866 110.404 23.8296C110.404 23.7726 111.678 19.725 110.829 16.1334C110.222 13.454 108.706 11.7438 106.948 11.5727C106.766 11.5157 106.584 11.5157 106.463 11.5157Z" fill="#231F20"/>
<path d="M0.464111 70.1207H209.55L205.305 80.4393H4.7089L0.464111 70.1207Z" fill="#231F20"/>
<path d="M205.306 80.8384H4.7091C4.52718 80.8384 4.34526 80.7244 4.28462 80.6103L0.0398319 70.2918C-0.020808 70.1777 -0.0208089 70.0067 0.100471 69.9497C0.161111 69.8357 0.282389 69.7787 0.464309 69.7787H209.55C209.672 69.7787 209.793 69.8357 209.914 69.9497C209.975 70.0637 210.036 70.1777 209.975 70.2918L205.73 80.6103C205.609 80.7814 205.488 80.8384 205.306 80.8384ZM5.0123 80.0403H205.002L208.944 70.4628H1.07071L5.0123 80.0403Z" fill="#231F20"/>
<path d="M3.86011 46.3481H206.155L202.031 56.7237H7.98362L3.86011 46.3481Z" fill="#231F20"/>
<path d="M202.031 57.1227H7.98357C7.80165 57.1227 7.61973 57.0087 7.55909 56.8376L3.43558 46.5191C3.37494 46.405 3.37494 46.234 3.49622 46.177C3.55686 46.063 3.67814 46.006 3.86006 46.006H206.154C206.276 46.006 206.397 46.063 206.518 46.177C206.579 46.291 206.64 46.405 206.579 46.5191L202.455 56.8376C202.395 57.0087 202.213 57.1227 202.031 57.1227ZM8.22613 56.3246H201.728L205.548 46.7471H4.46646L8.22613 56.3246Z" fill="#231F20"/>
<path d="M202.031 51.0228H7.98364V65.0469H202.031V51.0228Z" fill="#B6B6B6"/>
<path d="M202.031 65.389H7.98371C7.74115 65.389 7.61987 65.218 7.61987 65.047V51.0228C7.61987 50.7948 7.80179 50.6808 7.98371 50.6808H202.031C202.274 50.6808 202.395 50.8518 202.395 51.0228V65.047C202.395 65.218 202.213 65.389 202.031 65.389ZM8.34755 64.6479H201.667V51.3649H8.34755V64.6479Z" fill="#231F20"/>
<path d="M71.7767 40.9893H138.238L133.933 50.4527H76.0822L71.7767 40.9893Z" fill="#231F20"/>
<path d="M133.933 50.8518H76.1427C75.9608 50.8518 75.8396 50.7378 75.7789 50.6237L71.4735 41.1603C71.3522 40.9323 71.4735 40.7042 71.716 40.6472C71.7767 40.6472 71.8373 40.5902 71.898 40.5902H138.359C138.602 40.5902 138.784 40.7612 138.784 40.9893C138.784 41.0463 138.784 41.1033 138.723 41.1603L134.418 50.6237C134.236 50.7378 134.054 50.8518 133.933 50.8518ZM76.3853 50.0537H133.629L137.571 41.3883H72.4437L76.3853 50.0537Z" fill="#231F20"/>
<path d="M131.992 46.3481H78.0226V64.9899H131.992V46.3481Z" fill="#B6B6B6"/>
<path d="M131.992 65.3889H78.0227C77.7801 65.3889 77.6588 65.2179 77.6588 65.0469V46.405C77.6588 46.177 77.8407 46.063 78.0227 46.063H131.992C132.235 46.063 132.356 46.234 132.356 46.405V65.0469C132.356 65.2179 132.174 65.3889 131.992 65.3889ZM78.4471 64.6478H131.628V46.6901H78.4471V64.6478Z" fill="#231F20"/>
<path d="M202.031 65.0469H7.98364V70.1207H202.031V65.0469Z" fill="white"/>
<path d="M202.031 70.5198H7.98356C7.741 70.5198 7.55908 70.3488 7.55908 70.1207V65.0469C7.55908 64.8189 7.741 64.6479 7.98356 64.6479H202.031C202.274 64.6479 202.455 64.8189 202.455 65.0469V70.1207C202.455 70.3488 202.274 70.5198 202.031 70.5198ZM8.3474 69.7217H201.607V65.446H8.40804L8.3474 69.7217Z" fill="#231F20"/>
<path d="M202.031 75.2515H3.86011V87.8505H202.031V75.2515Z" fill="#B6B6B6"/>
<path d="M202.031 88.2495H3.86018C3.61762 88.2495 3.49634 88.0784 3.49634 87.9074V75.3655C3.49634 75.1375 3.67826 75.0234 3.86018 75.0234H202.031C202.274 75.0234 202.395 75.1945 202.395 75.3655V87.9074C202.456 88.0784 202.274 88.1924 202.031 88.2495ZM4.22402 87.5083H201.667V75.6505H4.22402V87.5083Z" fill="#231F20"/>
<path d="M204.275 87.8505H1.55591V92.4112H204.275V87.8505Z" fill="white"/>
<path d="M204.336 92.8102H1.55607C1.31351 92.8102 1.13159 92.6391 1.13159 92.4111V87.8504C1.13159 87.6224 1.31351 87.4514 1.55607 87.4514H204.275C204.518 87.4514 204.699 87.6224 204.699 87.8504V92.4111C204.76 92.6391 204.518 92.8102 204.336 92.8102ZM2.04119 92.012H203.911V88.2495H2.04119V92.012Z" fill="#231F20"/>
<path d="M126.353 52.391H84.4504V58.0349H126.353V52.391Z" fill="white"/>
<path d="M17.2009 84.6579H13.5019C13.2593 84.6579 13.1381 84.4869 13.1381 84.3159V78.843C13.1381 78.615 13.32 78.501 13.5019 78.501H17.2009C17.4435 78.501 17.5648 78.672 17.5648 78.843V84.3159C17.5648 84.4869 17.3828 84.6579 17.2009 84.6579ZM13.9264 83.9168H16.8371V79.1851H13.9264V83.9168Z" fill="#231F20"/>
<path d="M29.9352 84.6579H26.2968C26.0543 84.6579 25.933 84.4869 25.933 84.3159V78.843C25.933 78.615 26.1149 78.501 26.2968 78.501H29.9352C30.1778 78.501 30.2991 78.672 30.2991 78.843V84.3159C30.2991 84.4869 30.1171 84.6579 29.9352 84.6579ZM26.6607 83.9168H29.5714V79.1851H26.6607V83.9168Z" fill="#231F20"/>
<path d="M42.6697 84.6579H39.0313C38.7888 84.6579 38.6675 84.4869 38.6675 84.3159V78.843C38.6675 78.615 38.8494 78.501 39.0313 78.501H42.6697C42.9123 78.501 43.0335 78.672 43.0335 78.843V84.3159C43.0335 84.4869 42.8516 84.6579 42.6697 84.6579ZM39.3952 83.9168H42.3059V79.1851H39.3952V83.9168Z" fill="#231F20"/>
<path d="M55.404 84.6579H51.7656C51.523 84.6579 51.4017 84.4869 51.4017 84.3159V78.843C51.4017 78.615 51.5836 78.501 51.7656 78.501H55.404C55.6465 78.501 55.7678 78.672 55.7678 78.843V84.3159C55.7678 84.4869 55.5859 84.6579 55.404 84.6579ZM52.1294 83.9168H55.0401V79.1851H52.1294V83.9168Z" fill="#231F20"/>
<path d="M68.0778 84.6579H64.4394C64.1968 84.6579 64.0756 84.4869 64.0756 84.3159V78.843C64.0756 78.615 64.2575 78.501 64.4394 78.501H68.1384C68.381 78.501 68.5023 78.672 68.5023 78.843V84.3159C68.5023 84.4869 68.3204 84.6579 68.0778 84.6579ZM64.8032 83.9168H67.714V79.1851H64.8032V83.9168Z" fill="#231F20"/>
<path d="M80.812 84.6579H77.1737C76.9311 84.6579 76.8098 84.4869 76.8098 84.3159V78.843C76.8098 78.615 76.9917 78.501 77.1737 78.501H80.8727C81.1152 78.501 81.2365 78.672 81.2365 78.843V84.3159C81.2365 84.4869 81.0546 84.6579 80.812 84.6579ZM77.5375 83.9168H80.4482V79.1851H77.5375V83.9168Z" fill="#231F20"/>
<path d="M93.5463 84.6579H89.9079C89.6654 84.6579 89.5441 84.4869 89.5441 84.3159V78.843C89.5441 78.615 89.726 78.501 89.9079 78.501H93.5463C93.7889 78.501 93.9101 78.672 93.9101 78.843V84.3159C93.9708 84.4869 93.7889 84.6579 93.5463 84.6579ZM90.2717 83.9168H93.1825V79.1851H90.2717V83.9168Z" fill="#231F20"/>
<path d="M106.281 84.6579H102.642C102.4 84.6579 102.279 84.4869 102.279 84.3159V78.843C102.279 78.615 102.46 78.501 102.642 78.501H106.281C106.523 78.501 106.645 78.672 106.645 78.843V84.3159C106.705 84.4869 106.523 84.6579 106.281 84.6579ZM103.006 83.9168H105.917V79.1851H103.006V83.9168Z" fill="#231F20"/>
<path d="M119.015 84.6579H115.377C115.134 84.6579 115.013 84.4869 115.013 84.3159V78.843C115.013 78.615 115.195 78.501 115.377 78.501H119.015C119.258 78.501 119.379 78.672 119.379 78.843V84.3159C119.44 84.4869 119.258 84.6579 119.015 84.6579ZM115.741 83.9168H118.651V79.1851H115.741V83.9168Z" fill="#231F20"/>
<path d="M131.75 84.6579H128.111C127.869 84.6579 127.747 84.4869 127.747 84.3159V78.843C127.747 78.615 127.929 78.501 128.111 78.501H131.75C131.992 78.501 132.113 78.672 132.113 78.843V84.3159C132.174 84.4869 131.992 84.6579 131.75 84.6579ZM128.475 83.9168H131.386V79.1851H128.475V83.9168Z" fill="#231F20"/>
<path d="M144.484 84.6579H140.846C140.603 84.6579 140.482 84.4869 140.482 84.3159V78.843C140.482 78.615 140.664 78.501 140.846 78.501H144.484C144.726 78.501 144.848 78.672 144.848 78.843V84.3159C144.908 84.4869 144.726 84.6579 144.484 84.6579ZM141.209 83.9168H144.12V79.1851H141.209V83.9168Z" fill="#231F20"/>
<path d="M157.218 84.6579H153.58C153.337 84.6579 153.216 84.4869 153.216 84.3159V78.843C153.216 78.615 153.398 78.501 153.58 78.501H157.218C157.461 78.501 157.582 78.672 157.582 78.843V84.3159C157.643 84.4869 157.461 84.6579 157.218 84.6579ZM153.944 83.9168H156.854V79.1851H153.944V83.9168Z" fill="#231F20"/>
<path d="M169.953 84.6579H166.314C166.072 84.6579 165.95 84.4869 165.95 84.3159V78.843C165.95 78.615 166.132 78.501 166.314 78.501H169.953C170.135 78.501 170.317 78.672 170.317 78.843V84.3159C170.317 84.4869 170.195 84.6579 169.953 84.6579ZM166.678 83.9168H169.589V79.1851H166.678V83.9168Z" fill="#231F20"/>
<path d="M182.687 84.6579H179.049C178.806 84.6579 178.685 84.4869 178.685 84.3159V78.843C178.685 78.615 178.867 78.501 179.049 78.501H182.687C182.929 78.501 183.051 78.672 183.051 78.843V84.3159C183.051 84.4869 182.929 84.6579 182.687 84.6579ZM179.412 83.9168H182.323V79.1851H179.412V83.9168Z" fill="#231F20"/>
<path d="M195.421 84.6579H191.783C191.54 84.6579 191.419 84.4869 191.419 84.3159V78.843C191.419 78.615 191.601 78.501 191.783 78.501H195.421C195.664 78.501 195.785 78.672 195.785 78.843V84.3159C195.785 84.4869 195.603 84.6579 195.421 84.6579ZM192.147 83.9168H195.058V79.1851H192.147V83.9168Z" fill="#231F20"/>
<path d="M5.86133 92.4111H21.9309V94.1784C21.9309 95.2046 21.0213 96.0597 19.9298 96.0597H7.86244C6.77093 96.0597 5.86133 95.2046 5.86133 94.1784V92.4111Z" fill="#B6B6B6"/>
<path d="M19.1415 96.4588H8.65083C6.89227 96.4588 5.49756 95.0906 5.49756 93.4944V92.4112C5.49756 92.2402 5.67948 92.0692 5.8614 92.0692H21.9309C22.1129 92.0692 22.2948 92.2402 22.2948 92.4112V93.4374C22.2948 95.0906 20.9001 96.4588 19.1415 96.4588ZM6.22523 92.7533V93.4374C6.22523 94.6916 7.31675 95.7177 8.65083 95.7177H19.1415C20.4756 95.7177 21.5671 94.6916 21.5671 93.4374V92.7533H6.22523Z" fill="#231F20"/>
<path d="M19.1413 96.0597H8.5293V162.418H19.1413V96.0597Z" fill="#B6B6B6"/>
<path d="M19.2019 162.817H8.58991C8.34735 162.817 8.22607 162.646 8.22607 162.475V96.0596C8.22607 95.8316 8.40799 95.7176 8.58991 95.7176H19.2019C19.3838 95.7176 19.5657 95.8886 19.5657 96.0596V162.418C19.5657 162.646 19.3838 162.817 19.2019 162.817ZM8.95375 162.076H18.838V96.4587H8.95375V162.076Z" fill="#231F20"/>
<path d="M7.86244 160.594H19.9298C21.0213 160.594 21.9309 161.449 21.9309 162.475V164.242H5.86133V162.475C5.86133 161.449 6.77093 160.594 7.86244 160.594Z" fill="#B6B6B6"/>
<path d="M21.9309 164.641H5.8614C5.61884 164.641 5.49756 164.47 5.49756 164.299V163.273C5.49756 161.62 6.89227 160.309 8.65083 160.309H19.1415C20.9001 160.309 22.2948 161.62 22.2948 163.273V164.299C22.2948 164.47 22.1129 164.641 21.9309 164.641ZM6.28587 163.9H21.5671V163.216C21.5671 161.962 20.4756 160.936 19.1415 160.936H8.65083C7.31675 160.936 6.22523 161.962 6.22523 163.216L6.28587 163.9Z" fill="#231F20"/>
<path d="M23.3254 164.299H4.40576V169.658H23.3254V164.299Z" fill="#B6B6B6"/>
<path d="M23.3861 170H4.40583C4.16327 170 4.04199 169.829 4.04199 169.658V164.299C4.04199 164.071 4.22391 163.957 4.40583 163.957H23.3255C23.568 163.957 23.6893 164.128 23.6893 164.299V169.658C23.7499 169.829 23.568 170 23.3861 170ZM4.83031 169.259H23.0223V164.641H4.83031V169.259Z" fill="#231F20"/>
<path d="M11.804 158.883C11.5614 158.883 11.3795 158.712 11.3795 158.484V97.77C11.3795 97.542 11.5614 97.371 11.804 97.371C12.0466 97.371 12.2285 97.542 12.2285 97.77V158.541C12.1678 158.769 11.9859 158.883 11.804 158.883Z" fill="white"/>
<path d="M15.9881 158.883C15.7455 158.883 15.5636 158.712 15.5636 158.484V97.77C15.5636 97.542 15.7455 97.371 15.9881 97.371C16.2306 97.371 16.4126 97.542 16.4126 97.77V158.541C16.4126 158.769 16.17 158.94 15.9881 158.883Z" fill="white"/>
<path d="M41.8207 92.4111H57.8902V94.1784C57.8902 95.2046 56.9806 96.0597 55.8891 96.0597H43.8218C42.7303 96.0597 41.8207 95.2046 41.8207 94.1784V92.4111Z" fill="#B6B6B6"/>
<path d="M55.1007 96.4588H44.6101C42.8515 96.4588 41.4568 95.1476 41.4568 93.4944V92.4112C41.4568 92.2402 41.6387 92.0692 41.8206 92.0692H57.8902C58.0721 92.0692 58.254 92.2402 58.254 92.4112V93.4374C58.254 95.0906 56.8593 96.4588 55.1007 96.4588ZM42.1845 92.7533V93.4374C42.1845 94.6916 43.276 95.7177 44.6101 95.7177H55.1007C56.4348 95.7177 57.5263 94.6916 57.5263 93.4374V92.7533H42.1845Z" fill="#231F20"/>
<path d="M55.1614 96.0597H44.5494V162.418H55.1614V96.0597Z" fill="#B6B6B6"/>
<path d="M55.1615 162.817H44.5495C44.307 162.817 44.1857 162.646 44.1857 162.475V96.0596C44.1857 95.8316 44.3676 95.7176 44.5495 95.7176H55.1615C55.404 95.7176 55.5253 95.8886 55.5253 96.0596V162.418C55.5253 162.646 55.404 162.817 55.1615 162.817ZM44.9133 162.076H54.7976V96.4587H44.9133V162.076Z" fill="#231F20"/>
<path d="M43.8218 160.594H55.8891C56.9806 160.594 57.8902 161.449 57.8902 162.475V164.242H41.8207V162.475C41.8207 161.449 42.7303 160.651 43.8218 160.594Z" fill="#B6B6B6"/>
<path d="M57.8902 164.641H41.8206C41.6387 164.641 41.4568 164.47 41.4568 164.299V163.273C41.4568 161.62 42.8515 160.309 44.6101 160.309H55.1007C56.8593 160.309 58.254 161.62 58.254 163.273V164.299C58.254 164.47 58.0721 164.641 57.8902 164.641ZM42.1845 163.9H57.4657V163.216C57.4657 161.962 56.3742 160.936 55.0401 160.936H44.6101C43.276 160.936 42.1845 161.962 42.1845 163.216V163.9Z" fill="#231F20"/>
<path d="M59.285 164.299H40.3654V169.658H59.285V164.299Z" fill="#B6B6B6"/>
<path d="M59.3456 169.43H40.426C40.1834 169.43 40.0621 169.259 40.0621 169.088V163.729C40.0621 163.501 40.2441 163.387 40.426 163.387H59.3456C59.5882 163.387 59.7094 163.558 59.7094 163.729V169.088C59.7094 169.259 59.5275 169.43 59.3456 169.43ZM40.7898 168.689H58.9818V164.071H40.7898V168.689Z" fill="#231F20"/>
<path d="M47.7635 158.883C47.5209 158.883 47.339 158.712 47.339 158.484V97.77C47.339 97.542 47.5209 97.371 47.7635 97.371C48.006 97.371 48.188 97.542 48.188 97.77V158.541C48.1273 158.769 47.9454 158.94 47.7635 158.883Z" fill="white"/>
<path d="M51.9475 158.883C51.705 158.883 51.5231 158.712 51.5231 158.484V97.77C51.5231 97.542 51.705 97.371 51.9475 97.371C52.1901 97.371 52.372 97.542 52.372 97.77V158.541C52.372 158.769 52.1295 158.94 51.9475 158.883Z" fill="white"/>
<path d="M77.7802 92.4111H93.8497V94.1784C93.8497 95.2046 92.9401 96.0597 91.8486 96.0597H79.7813C78.6897 96.0597 77.7802 95.2046 77.7802 94.1784V92.4111Z" fill="#B6B6B6"/>
<path d="M91.0602 96.4588H80.5695C78.811 96.4588 77.4163 95.1476 77.4163 93.4944V92.4112C77.4163 92.2402 77.5982 92.0692 77.7801 92.0692H93.8497C94.0316 92.0692 94.2135 92.2402 94.2135 92.4112V93.4374C94.2135 95.0906 92.8188 96.4588 91.0602 96.4588ZM78.2046 92.7533V93.4374C78.2046 94.6916 79.2961 95.7177 80.6302 95.7177H91.0602C92.3943 95.7177 93.4858 94.6916 93.4858 93.4374V92.7533H78.2046Z" fill="#231F20"/>
<path d="M91.1209 96.0597H80.5089V162.418H91.1209V96.0597Z" fill="#B6B6B6"/>
<path d="M91.1207 162.817H80.5087C80.2662 162.817 80.1449 162.646 80.1449 162.475V96.0596C80.1449 95.8316 80.3268 95.7176 80.5087 95.7176H91.1207C91.3633 95.7176 91.4845 95.8886 91.4845 96.0596V162.418C91.4845 162.646 91.3633 162.817 91.1207 162.817ZM80.8726 162.076H90.7569V96.4587H80.8726V162.076Z" fill="#231F20"/>
<path d="M79.7813 160.594H91.8486C92.9401 160.594 93.8497 161.449 93.8497 162.475V164.242H77.7802V162.475C77.7802 161.449 78.6897 160.594 79.7813 160.594Z" fill="#B6B6B6"/>
<path d="M93.8497 164.641H77.7801C77.5375 164.641 77.4163 164.47 77.4163 164.299V163.273C77.4163 161.62 78.811 160.309 80.5695 160.309H91.0602C92.8188 160.309 94.2135 161.62 94.2135 163.273V164.299C94.2135 164.47 94.0922 164.641 93.8497 164.641ZM78.1439 163.9H93.4252V163.216C93.4252 161.962 92.3337 160.936 90.9996 160.936H80.5695C79.2355 160.936 78.1439 161.962 78.1439 163.216V163.9Z" fill="#231F20"/>
<path d="M95.2443 164.299H76.3247V169.658H95.2443V164.299Z" fill="#B6B6B6"/>
<path d="M95.3049 170H76.3246C76.0821 170 75.9608 169.829 75.9608 169.658V164.299C75.9608 164.071 76.1427 163.957 76.3246 163.957H95.3049C95.5475 163.957 95.6688 164.128 95.6688 164.299V169.658C95.6688 169.829 95.5475 170 95.3049 170ZM76.7491 169.259H94.9411V164.641H76.7491V169.259Z" fill="#231F20"/>
<path d="M83.7228 158.883C83.4803 158.883 83.2983 158.712 83.2983 158.484V97.77C83.2983 97.542 83.4803 97.371 83.7228 97.371C83.9654 97.371 84.1473 97.542 84.1473 97.77V158.541C84.0867 158.769 83.9047 158.94 83.7228 158.883Z" fill="white"/>
<path d="M87.9069 158.883C87.6643 158.883 87.4824 158.712 87.4824 158.484V97.77C87.4824 97.542 87.6643 97.371 87.9069 97.371C88.1495 97.371 88.3314 97.542 88.3314 97.77V158.541C88.3314 158.769 88.1495 158.883 87.9069 158.883Z" fill="white"/>
<path d="M113.74 92.4111H129.809V94.1784C129.809 95.2046 128.899 96.0597 127.808 96.0597H115.741C114.649 96.0597 113.74 95.2046 113.74 94.1784V92.4111Z" fill="#B6B6B6"/>
<path d="M127.02 96.4588H116.529C114.77 96.4588 113.376 95.0906 113.376 93.4944V92.4112C113.376 92.2402 113.558 92.0692 113.74 92.0692H129.809C129.991 92.0692 130.173 92.2402 130.173 92.4112V93.4374C130.173 95.0906 128.778 96.4588 127.02 96.4588ZM114.103 92.7533V93.4374C114.103 94.6916 115.195 95.7177 116.529 95.7177H127.02C128.354 95.7177 129.445 94.6916 129.445 93.4374V92.7533H114.103Z" fill="#231F20"/>
<path d="M127.08 96.0597H116.468V162.418H127.08V96.0597Z" fill="#B6B6B6"/>
<path d="M127.08 162.817H116.468C116.226 162.817 116.104 162.646 116.104 162.475V96.0596C116.104 95.8316 116.286 95.7176 116.468 95.7176H127.08C127.323 95.7176 127.444 95.8886 127.444 96.0596V162.418C127.505 162.646 127.323 162.817 127.08 162.817ZM116.832 162.076H126.716V96.4587H116.832V162.076Z" fill="#231F20"/>
<path d="M115.741 160.594H127.808C128.899 160.594 129.809 161.449 129.809 162.475V164.242H113.74V162.475C113.74 161.449 114.649 160.594 115.741 160.594Z" fill="#B6B6B6"/>
<path d="M129.809 164.641H113.74C113.497 164.641 113.376 164.47 113.376 164.299V163.273C113.376 161.62 114.831 160.309 116.529 160.309H127.02C128.778 160.309 130.173 161.62 130.173 163.273V164.299C130.173 164.47 129.991 164.641 129.809 164.641ZM114.103 163.9H129.385V163.216C129.385 161.962 128.293 160.936 126.959 160.936H116.529C115.195 160.936 114.103 161.962 114.103 163.216V163.9Z" fill="#231F20"/>
<path d="M131.204 164.299H112.284V169.658H131.204V164.299Z" fill="#B6B6B6"/>
<path d="M131.264 170H112.284C112.042 170 111.92 169.829 111.92 169.658V164.299C111.92 164.071 112.102 163.957 112.284 163.957H131.204C131.446 163.957 131.568 164.128 131.568 164.299V169.658C131.628 169.829 131.446 170 131.264 170ZM112.709 169.259H130.901V164.641H112.709V169.259Z" fill="#231F20"/>
<path d="M119.682 158.883C119.44 158.883 119.258 158.712 119.258 158.484V97.77C119.258 97.542 119.44 97.371 119.682 97.371C119.925 97.371 120.107 97.542 120.107 97.77V158.541C120.046 158.769 119.864 158.94 119.682 158.883Z" fill="white"/>
<path d="M123.866 158.883C123.624 158.883 123.442 158.712 123.442 158.484V97.77C123.442 97.542 123.624 97.371 123.866 97.371C124.109 97.371 124.291 97.542 124.291 97.77V158.541C124.291 158.769 124.109 158.94 123.866 158.883Z" fill="white"/>
<path d="M149.699 92.4111H165.769V94.1784C165.769 95.2046 164.859 96.0597 163.767 96.0597H151.7C150.609 96.0597 149.699 95.2046 149.699 94.1784V92.4111Z" fill="#B6B6B6"/>
<path d="M162.979 96.4588H152.488C150.73 96.4588 149.335 95.1476 149.335 93.4944V92.4112C149.335 92.2402 149.517 92.0692 149.699 92.0692H165.768C165.95 92.0692 166.132 92.2402 166.132 92.4112V93.4374C166.132 95.0906 164.738 96.4588 162.979 96.4588ZM150.063 92.7533V93.4374C150.063 94.6916 151.154 95.7177 152.488 95.7177H162.979C164.313 95.7177 165.405 94.6916 165.405 93.4374V92.7533H150.063Z" fill="#231F20"/>
<path d="M163.04 96.0597H152.428V162.418H163.04V96.0597Z" fill="#B6B6B6"/>
<path d="M163.04 162.817H152.428C152.185 162.817 152.064 162.646 152.064 162.475V96.0596C152.064 95.8316 152.246 95.7176 152.428 95.7176H163.04C163.282 95.7176 163.403 95.8886 163.403 96.0596V162.418C163.403 162.646 163.282 162.817 163.04 162.817ZM152.791 162.076H162.615V96.4587H152.791V162.076Z" fill="#231F20"/>
<path d="M151.7 160.594H163.767C164.859 160.594 165.769 161.449 165.769 162.475V164.242H149.699V162.475C149.699 161.449 150.609 160.594 151.7 160.594Z" fill="#B6B6B6"/>
<path d="M165.768 164.641H149.699C149.517 164.641 149.335 164.47 149.335 164.299V163.273C149.335 161.62 150.73 160.309 152.488 160.309H162.979C164.738 160.309 166.132 161.62 166.132 163.273V164.299C166.132 164.47 165.95 164.641 165.768 164.641ZM150.063 163.9H165.344V163.216C165.344 161.962 164.252 160.936 162.918 160.936H152.488C151.154 160.936 150.063 161.962 150.063 163.216V163.9Z" fill="#231F20"/>
<path d="M167.224 164.299H148.304V169.658H167.224V164.299Z" fill="#B6B6B6"/>
<path d="M167.224 170H148.304C148.062 170 147.94 169.829 147.94 169.658V164.299C147.94 164.071 148.122 163.957 148.304 163.957H167.224C167.466 163.957 167.588 164.128 167.588 164.299V169.658C167.588 169.829 167.406 170 167.224 170ZM148.668 169.259H166.86V164.641H148.668V169.259Z" fill="#231F20"/>
<path d="M155.642 158.883C155.399 158.883 155.217 158.712 155.217 158.484V97.77C155.217 97.542 155.399 97.371 155.642 97.371C155.884 97.371 156.066 97.542 156.066 97.77V158.541C156.005 158.769 155.824 158.883 155.642 158.883Z" fill="white"/>
<path d="M159.826 158.883C159.583 158.883 159.401 158.712 159.401 158.484V97.77C159.401 97.542 159.583 97.371 159.826 97.371C160.068 97.371 160.25 97.542 160.25 97.77V158.541C160.25 158.769 160.068 158.94 159.826 158.883Z" fill="white"/>
<path d="M185.658 92.4111H201.728V94.1784C201.728 95.2046 200.818 96.0597 199.727 96.0597H187.659C186.568 96.0597 185.658 95.2046 185.658 94.1784V92.4111Z" fill="#B6B6B6"/>
<path d="M198.939 96.4588H188.448C186.689 96.4588 185.295 95.1476 185.295 93.4944V92.4112C185.295 92.2402 185.476 92.0692 185.658 92.0692H201.728C201.91 92.0692 202.092 92.2402 202.092 92.4112V93.4374C202.092 95.0906 200.697 96.4588 198.939 96.4588ZM186.022 92.7533V93.4374C186.022 94.6916 187.114 95.7177 188.448 95.7177H198.939C200.273 95.7177 201.364 94.6916 201.364 93.4374V92.7533H186.022Z" fill="#231F20"/>
<path d="M198.999 96.0597H188.387V162.418H198.999V96.0597Z" fill="#B6B6B6"/>
<path d="M198.999 162.817H188.387C188.144 162.817 188.023 162.646 188.023 162.475V96.0596C188.023 95.8316 188.205 95.7176 188.387 95.7176H198.999C199.242 95.7176 199.363 95.8886 199.363 96.0596V162.418C199.363 162.646 199.242 162.817 198.999 162.817ZM188.751 162.076H198.575V96.4587H188.751V162.076Z" fill="#231F20"/>
<path d="M187.659 160.594H199.727C200.818 160.594 201.728 161.449 201.728 162.475V164.242H185.658V162.475C185.658 161.449 186.568 160.594 187.659 160.594Z" fill="#B6B6B6"/>
<path d="M201.728 164.641H185.658C185.416 164.641 185.295 164.47 185.295 164.299V163.273C185.295 161.62 186.689 160.309 188.448 160.309H198.939C200.697 160.309 202.092 161.62 202.092 163.273V164.299C202.092 164.47 201.91 164.641 201.728 164.641ZM186.022 163.9H201.303V163.216C201.303 161.962 200.212 160.936 198.878 160.936H188.448C187.114 160.936 186.022 161.962 186.022 163.216V163.9Z" fill="#231F20"/>
<path d="M203.122 164.299H184.203V169.658H203.122V164.299Z" fill="#B6B6B6"/>
<path d="M203.183 170H184.264C184.021 170 183.9 169.829 183.9 169.658V164.299C183.9 164.071 184.082 163.957 184.264 163.957H203.183C203.426 163.957 203.547 164.128 203.547 164.299V169.658C203.547 169.829 203.426 170 203.183 170ZM184.627 169.259H202.819V164.641H184.627V169.259Z" fill="#231F20"/>
<path d="M191.601 158.883C191.359 158.883 191.177 158.712 191.177 158.484V97.77C191.177 97.542 191.359 97.371 191.601 97.371C191.844 97.371 192.026 97.542 192.026 97.77V158.541C192.026 158.769 191.783 158.94 191.601 158.883Z" fill="white"/>
<path d="M195.785 158.883C195.543 158.883 195.361 158.712 195.361 158.484V97.77C195.361 97.542 195.543 97.371 195.785 97.371C196.028 97.371 196.21 97.542 196.21 97.77V158.541C196.21 158.769 196.028 158.883 195.785 158.883Z" fill="white"/>
<path d="M102.4 29.5875C101.187 28.6754 99.7923 27.9342 98.3976 27.3071C98.3976 27.3071 96.7603 20.7511 96.2146 20.4661C95.6688 20.1811 95.6082 19.4399 95.4869 19.4969C95.3656 19.554 95.1837 20.5231 95.1837 20.5231L93.3645 20.6371L92.6975 19.4969C92.6975 19.4969 93.122 20.6371 92.6975 21.1502C92.273 21.6633 89.6655 26.0529 90.4538 26.68C91.2421 27.3071 91.6666 27.4782 92.273 27.1931C92.8188 26.9081 93.3039 26.509 93.7284 26.11C93.7284 26.11 91.7879 28.7894 92.3943 30.2716C92.94 31.5258 93.6677 32.723 94.456 33.8061C94.456 33.8061 92.6368 36.7706 92.6975 37.4547C92.7581 38.1388 94.7592 40.1341 94.7592 40.1341L95.2443 38.8229C95.2443 38.8229 94.1528 37.8538 94.1528 37.3977C94.1528 36.9416 95.6688 35.0033 95.6688 35.0033C95.6688 35.0033 96.0933 37.1126 96.3359 38.2528C96.5784 39.393 97.2455 40.9892 97.2455 40.9892H98.5795C98.1551 40.1911 97.7912 39.336 97.488 38.4808C97.3061 37.7397 98.0338 35.1173 98.0338 35.1173L99.9136 34.7753C99.9136 34.7753 99.5498 36.7136 99.2466 37.5117C98.9434 38.3098 99.4891 40.9892 99.4891 40.9892H100.884C100.884 39.8491 101.005 38.7089 101.126 37.5687C101.369 36.1435 102.642 35.0033 102.582 32.666C102.703 31.6398 102.642 30.6136 102.4 29.5875Z" fill="#D1D3D4"/>
<path d="M101.005 41.3313H99.6105C99.4286 41.3313 99.2467 41.2173 99.2467 41.0463C99.186 40.7612 98.7009 38.2528 99.0041 37.3977C99.186 36.8846 99.4286 35.8585 99.5499 35.2314L98.4583 35.4594C98.1551 36.4286 98.0339 37.3977 97.9732 38.4239C98.2764 39.279 98.5796 40.0771 99.0041 40.8752C99.0647 40.9893 99.0647 41.1033 99.0041 41.2173C98.9435 41.3313 98.8222 41.3883 98.7009 41.3883H97.3668C97.1849 41.3883 97.0636 41.2743 97.003 41.1603C96.6391 40.2481 96.3359 39.336 96.0327 38.3669C95.8508 37.6827 95.6689 36.6566 95.487 35.9725C95.1231 36.4286 94.8199 36.9416 94.5774 37.4547C94.8199 37.9108 95.1231 38.2528 95.5476 38.5949C95.6689 38.7089 95.6689 38.8229 95.6689 38.994L95.1838 40.3052C95.1231 40.4192 95.0019 40.5332 94.8806 40.5332C94.7593 40.5332 94.638 40.5332 94.5167 40.4192C94.0316 39.9061 92.3337 38.3098 92.3337 37.5687C92.3337 36.8276 93.4859 34.7753 94.0316 33.9202C93.3039 32.837 92.6369 31.6968 92.0912 30.4996C91.7273 29.6445 92.0912 28.5043 92.5763 27.5922C91.6667 28.0483 90.939 27.5922 90.272 27.0221C89.1198 26.053 92.455 21.0362 92.455 20.9792C92.6976 20.6942 92.5156 19.953 92.3943 19.668C92.3337 19.497 92.3944 19.2689 92.5763 19.2119C92.7582 19.1549 93.0008 19.2119 93.0614 19.383L93.6071 20.2951L94.8806 20.2381C95.0625 19.3259 95.2444 19.2689 95.4263 19.2119C95.8508 19.0979 96.0327 19.497 96.0934 19.668C96.154 19.896 96.3359 20.0671 96.5179 20.2381C96.9423 20.4661 97.7307 22.8035 98.8222 27.1361C100.217 27.7632 101.49 28.5043 102.703 29.3595C102.764 29.4165 102.824 29.4735 102.824 29.5305C103.067 30.5567 103.188 31.6398 103.188 32.666C103.188 33.9202 102.885 35.1174 102.279 36.2005C102.036 36.6566 101.854 37.1697 101.733 37.6828C101.551 38.8229 101.49 39.9061 101.49 41.0463C101.43 41.1603 101.248 41.3313 101.005 41.3313ZM99.9137 40.5902H100.581C100.581 39.564 100.702 38.4809 100.823 37.4547C100.945 36.8846 101.187 36.3145 101.43 35.8015C101.975 34.8323 102.279 33.6921 102.279 32.609C102.279 31.6398 102.218 30.6707 102.036 29.7585C100.823 28.9034 99.5499 28.2193 98.2158 27.5922C98.0945 27.5352 98.0339 27.4782 97.9732 27.3642C97.2455 24.3997 96.2753 21.0932 95.9721 20.6942C95.7902 20.5801 95.6689 20.4661 95.5476 20.3521C95.5476 20.4091 95.5476 20.4661 95.487 20.5801C95.4263 20.7512 95.3051 20.8652 95.1231 20.8652L93.3039 20.9792C93.2433 20.9792 93.1827 20.9792 93.1827 20.9792C93.122 21.1502 93.0614 21.2642 93.0007 21.4353C92.3944 22.2334 90.3932 25.939 90.6964 26.509C91.4241 27.0791 91.7273 27.1361 92.0912 26.9651C92.5763 26.6801 93.0614 26.338 93.4859 25.939C93.6071 25.7679 93.8497 25.7679 94.0316 25.8819C94.2135 25.996 94.2135 26.224 94.0923 26.395C93.6071 27.0791 92.3337 29.1884 92.8188 30.2146C93.3646 31.4118 94.0316 32.609 94.8199 33.6921C94.8806 33.8062 94.8806 33.9772 94.8199 34.0912C93.971 35.4594 93.0614 37.1697 93.0614 37.5117C93.0614 37.8538 93.8497 38.6519 94.638 39.507L94.8199 38.994C94.3955 38.5949 93.7891 37.9678 93.7891 37.4547C93.7891 36.9416 94.7593 35.6304 95.3657 34.8323C95.487 34.7183 95.6083 34.6613 95.7902 34.7183C95.9115 34.7753 96.0327 34.8893 96.0934 35.0033C96.0934 35.0033 96.5179 37.1127 96.7604 38.2528C97.003 39.108 97.4275 40.1911 97.6094 40.7042H98.0945C97.7307 40.0201 97.4881 39.336 97.2455 38.5949C97.0636 37.7968 97.7307 35.3454 97.7913 35.0603C97.8519 34.9463 97.9732 34.8323 98.0945 34.7753L99.9743 34.4333C100.096 34.4333 100.217 34.4333 100.338 34.5473C100.459 34.6613 100.459 34.7753 100.459 34.8893C100.459 34.9463 100.096 36.8276 99.7924 37.6828C99.5498 38.0818 99.7318 39.6211 99.9137 40.5902Z" fill="#231F20"/>
<path d="M90.5145 29.5875C89.3017 28.6754 87.907 27.9342 86.5123 27.3071C86.5123 27.3071 84.875 20.7511 84.3292 20.4661C83.7835 20.1811 83.7228 19.4399 83.6015 19.4969C83.4803 19.554 83.2983 20.5231 83.2983 20.5231L81.4791 20.6371L80.8121 19.4969C80.8121 19.4969 81.2366 20.6371 80.8121 21.1502C80.3876 21.6633 77.7801 26.0529 78.5684 26.68C79.3567 27.3071 79.7812 27.4782 80.3876 27.1931C80.9334 26.9081 81.4185 26.509 81.843 26.11C81.843 26.11 79.9025 28.7894 80.5089 30.2716C81.0547 31.5258 81.7823 32.723 82.5707 33.8061C82.5707 33.8061 80.7515 36.7706 80.8121 37.4547C80.8728 38.1388 82.9345 40.0771 82.9345 40.0771L83.4196 38.7659C83.4196 38.7659 82.3281 37.7967 82.3281 37.3407C82.3281 36.8846 83.8441 34.9463 83.8441 34.9463C83.8441 34.9463 84.2686 37.0556 84.5111 38.1958C84.7537 39.336 85.4207 40.9322 85.4207 40.9322H86.7548C86.3303 40.1341 85.9665 39.279 85.6633 38.4238C85.4814 37.6827 86.2091 35.0603 86.2091 35.0603L88.0889 34.7183C88.0889 34.7183 87.725 36.6566 87.4218 37.4547C87.1186 38.2528 87.6644 40.9322 87.6644 40.9322H89.0591C89.0591 39.792 89.1804 38.6519 89.3017 37.5117C89.5442 36.0865 90.8177 34.9463 90.757 32.609C90.8783 31.5828 90.757 30.5566 90.5145 29.5875Z" fill="#D1D3D4"/>
<path d="M89.1196 41.3313H87.7249C87.5429 41.3313 87.361 41.2173 87.361 41.0463C87.3004 40.7612 86.8153 38.2528 87.1185 37.3977C87.3004 36.8846 87.5429 35.8585 87.6642 35.2314L86.5727 35.4594C86.2695 36.4286 86.1482 37.3977 86.0876 38.4239C86.3908 39.279 86.694 40.0771 87.1185 40.8752C87.1791 40.9893 87.1791 41.1033 87.1185 41.2173C87.0578 41.3313 86.9365 41.3883 86.8153 41.3883H85.4812C85.2993 41.3883 85.178 41.2743 85.1174 41.1603C85.1174 41.1033 84.4503 39.507 84.1471 38.3669C83.9652 37.6827 83.7833 36.6566 83.6014 35.9725C83.2375 36.4286 82.9343 36.9416 82.6918 37.4547C82.9343 37.9108 83.2375 38.2528 83.662 38.5949C83.7833 38.7089 83.7833 38.8229 83.7833 38.994L83.2982 40.3052C83.2375 40.4192 83.1162 40.5332 82.995 40.5332C82.8737 40.5332 82.7524 40.5332 82.6311 40.4192C82.146 39.9061 80.4481 38.3098 80.4481 37.5687C80.4481 36.8276 81.6002 34.7753 82.146 33.9202C81.4183 32.837 80.7513 31.6968 80.2055 30.4996C79.8417 29.6445 80.2055 28.5043 80.6906 27.5922C79.781 28.0483 79.0534 27.5922 78.3863 27.0221C77.2342 26.053 80.5694 21.0362 80.5694 20.9792C80.8119 20.6942 80.63 19.953 80.5087 19.668C80.4481 19.497 80.5694 19.2689 80.7513 19.2119C80.9332 19.1549 81.1151 19.2119 81.2364 19.383L81.7822 20.2951L83.0556 20.2381C83.2375 19.3259 83.4194 19.2689 83.6014 19.2119C84.0258 19.0979 84.2078 19.497 84.2684 19.668C84.329 19.896 84.511 20.0671 84.6929 20.2381C85.1174 20.4661 85.9057 22.8035 86.9972 27.1361C88.3919 27.7632 89.6653 28.5043 90.8781 29.3595C90.9388 29.4165 90.9994 29.4735 90.9994 29.5305C91.242 30.5567 91.3633 31.6398 91.3633 32.666C91.3633 33.9202 91.0601 35.1174 90.4537 36.2005C90.2111 36.6566 90.0292 37.1697 89.9079 37.6828C89.726 38.8229 89.6653 39.9061 89.6653 41.0463C89.5441 41.1603 89.3621 41.3313 89.1196 41.3313ZM88.0281 40.5902H88.6951C88.6951 39.564 88.8164 38.4809 88.9377 37.4547C89.0589 36.8846 89.3015 36.3145 89.5441 35.8015C90.0898 34.8323 90.393 33.6921 90.393 32.609C90.393 31.6398 90.3324 30.6707 90.1505 29.7585C88.9377 28.9034 87.6642 28.2193 86.3301 27.5922C86.2089 27.5352 86.1482 27.4782 86.0876 27.3642C85.3599 24.3997 84.3897 21.0932 84.0865 20.6942C83.9046 20.5801 83.7833 20.4661 83.662 20.2951C83.662 20.3521 83.662 20.4091 83.6014 20.5231C83.5407 20.6942 83.4194 20.8082 83.2375 20.8082L81.4183 20.9222C81.3577 20.9222 81.297 20.9222 81.297 20.9222C81.2364 21.0932 81.1758 21.2072 81.1151 21.3783C80.5087 22.1764 78.5076 25.8819 78.8108 26.452C79.5385 27.0221 79.8417 27.0791 80.2055 26.9081C80.6906 26.6231 81.1758 26.281 81.6002 25.8819C81.7215 25.7109 81.9641 25.7109 82.146 25.8249C82.3279 25.939 82.3279 26.167 82.2066 26.338C81.7215 27.0221 80.4481 29.1314 80.9332 30.1576C81.479 31.3548 82.146 32.552 82.9343 33.6351C82.995 33.7491 82.995 33.9202 82.9343 34.0342C82.0854 35.4024 81.1758 37.1127 81.1758 37.4547C81.1758 37.7968 81.9641 38.5949 82.7524 39.45L82.9343 38.9369C82.5098 38.5379 81.9034 37.9108 81.9034 37.3977C81.9034 36.8846 82.8737 35.5734 83.4801 34.7753C83.6014 34.6613 83.7226 34.6043 83.9046 34.6613C84.0258 34.7183 84.1471 34.8323 84.2078 34.9463C84.2078 34.9463 84.6322 37.0557 84.8748 38.1958C85.1174 39.051 85.4812 40.1341 85.7237 40.6472H86.2089C85.845 39.9631 85.6025 39.279 85.3599 38.5379C85.178 37.7398 85.845 35.2884 85.9057 35.0033C85.9663 34.8893 86.0876 34.7753 86.2089 34.7183L88.0887 34.3762C88.21 34.3762 88.3313 34.3762 88.4525 34.4903C88.5738 34.6043 88.5738 34.7183 88.5738 34.8323C88.5738 34.8893 88.21 36.7706 87.9068 37.6257C87.6642 38.0818 87.8461 39.6211 88.0281 40.5902Z" fill="#231F20"/>
<path d="M109.798 29.5875C111.011 28.6754 112.405 27.9342 113.8 27.3071C113.8 27.3071 115.437 20.7511 115.983 20.4661C116.529 20.1811 116.59 19.4399 116.711 19.4969C116.832 19.554 117.014 20.5231 117.014 20.5231L118.833 20.6371L119.5 19.4969C119.5 19.4969 119.076 20.6371 119.5 21.1502C119.925 21.6633 122.532 26.0529 121.744 26.68C120.956 27.3071 120.531 27.4782 119.925 27.1931C119.379 26.9081 118.894 26.509 118.469 26.11C118.469 26.11 120.41 28.7894 119.804 30.2716C119.258 31.5258 118.53 32.723 117.742 33.8061C117.742 33.8061 119.561 36.7706 119.5 37.4547C119.44 38.1388 117.378 40.0771 117.378 40.0771L116.893 38.7659C116.893 38.7659 117.984 37.7967 117.984 37.3407C117.984 36.8846 116.468 34.9463 116.468 34.9463C116.468 34.9463 116.044 37.0556 115.801 38.1958C115.559 39.336 114.892 40.9322 114.892 40.9322H113.558C113.982 40.1341 114.346 39.279 114.649 38.4238C114.831 37.6827 114.103 35.0603 114.103 35.0603L112.224 34.7183C112.224 34.7183 112.587 36.6566 112.891 37.4547C113.194 38.2528 112.587 40.9322 112.587 40.9322H111.193C111.193 39.792 111.071 38.6519 110.889 37.5117C110.647 36.0865 109.373 34.9463 109.434 32.609C109.434 31.5828 109.495 30.5566 109.798 29.5875Z" fill="#D1D3D4"/>
<path d="M114.892 41.3313H113.558C113.436 41.3313 113.315 41.2743 113.254 41.1603C113.194 41.0463 113.194 40.9323 113.254 40.8182C113.679 40.0201 114.043 39.222 114.285 38.3669C114.285 37.3407 114.103 36.3716 113.8 35.4024L112.709 35.1744C112.83 35.8015 113.072 36.8276 113.254 37.3407C113.558 38.1958 113.072 40.7042 113.012 40.9893C112.951 41.1603 112.83 41.2743 112.648 41.2743H111.253C111.011 41.2743 110.889 41.1033 110.889 40.9323C110.889 39.7921 110.768 38.6519 110.647 37.5687C110.526 37.0557 110.344 36.5996 110.101 36.0865C109.495 35.0034 109.191 33.8062 109.191 32.552C109.131 31.4688 109.252 30.4427 109.555 29.4165C109.555 29.3595 109.616 29.3025 109.677 29.2455C110.889 28.3903 112.223 27.6492 113.558 27.0221C114.649 22.6895 115.377 20.3521 115.862 20.1241C116.044 19.953 116.226 19.782 116.286 19.554C116.347 19.383 116.529 18.9839 116.953 19.0979C117.075 19.1549 117.317 19.2119 117.499 20.1241L118.773 20.1811L119.318 19.2689C119.44 19.0979 119.621 19.0409 119.803 19.0979C119.985 19.1549 120.107 19.383 119.985 19.554C119.864 19.839 119.682 20.5801 119.925 20.8652C119.985 20.9222 123.321 25.939 122.108 26.9081C121.441 27.4212 120.713 27.9343 119.803 27.4782C120.228 28.3903 120.592 29.5305 120.289 30.3856C119.743 31.5828 119.076 32.723 118.348 33.8062C118.894 34.7183 120.107 36.8276 120.046 37.4547C119.985 38.0818 118.348 39.8491 117.863 40.3052C117.742 40.4192 117.62 40.4192 117.499 40.4192C117.378 40.4192 117.257 40.3052 117.196 40.1911L116.711 38.8799C116.65 38.7659 116.711 38.5949 116.832 38.4809C117.257 38.1388 117.56 37.7398 117.802 37.2837C117.56 36.7706 117.257 36.2575 116.893 35.8015C116.771 36.5426 116.529 37.5687 116.347 38.1958C116.044 39.108 115.741 40.0771 115.377 40.9893C115.195 41.2743 115.073 41.3313 114.892 41.3313ZM114.164 40.5902H114.649C114.831 40.0771 115.255 38.994 115.498 38.1388C115.801 37.0557 116.165 34.9463 116.165 34.8893C116.226 34.7183 116.286 34.6613 116.468 34.6043C116.589 34.5473 116.771 34.6043 116.893 34.7183C117.499 35.4594 118.469 36.8276 118.469 37.3407C118.469 37.8538 117.863 38.4809 117.438 38.8799L117.62 39.393C118.409 38.5949 119.136 37.6828 119.197 37.3977C119.258 37.1127 118.287 35.3454 117.438 33.9772C117.378 33.8632 117.378 33.6922 117.438 33.5781C118.227 32.495 118.894 31.2978 119.44 30.1006C119.864 29.0174 118.651 26.9651 118.166 26.281C118.045 26.11 118.045 25.882 118.227 25.7679C118.409 25.6539 118.651 25.6539 118.773 25.8249C119.197 26.224 119.682 26.5661 120.167 26.8511C120.531 27.0221 120.774 27.0221 121.562 26.395C121.865 25.8249 119.864 22.1764 119.258 21.3783C119.136 21.2642 119.076 21.0932 119.076 20.9222C119.015 20.9222 118.954 20.9222 118.954 20.9222L117.135 20.8082C116.953 20.8082 116.832 20.6942 116.771 20.5231C116.771 20.4661 116.771 20.4091 116.711 20.2951C116.589 20.4661 116.408 20.5801 116.226 20.6942C115.922 21.0362 115.013 24.3427 114.225 27.3072C114.225 27.4212 114.103 27.5352 113.982 27.5352C112.648 28.1623 111.374 28.8464 110.162 29.7015C109.98 30.6137 109.858 31.5828 109.858 32.552C109.858 33.6922 110.162 34.7753 110.707 35.7445C110.95 36.2575 111.193 36.8276 111.314 37.3977C111.496 38.4239 111.556 39.507 111.617 40.5332H112.345C112.527 39.507 112.709 38.0248 112.587 37.5117C112.284 36.7136 111.92 34.8323 111.92 34.7183C111.92 34.6043 111.92 34.4903 112.042 34.3763C112.102 34.3192 112.284 34.2622 112.405 34.2622L114.285 34.6043C114.406 34.6613 114.528 34.7183 114.588 34.8893C114.649 35.1744 115.316 37.5687 115.134 38.4239C114.831 39.279 114.528 39.9631 114.164 40.5902Z" fill="#231F20"/>
<path d="M121.623 29.5875C122.836 28.6754 124.23 27.9342 125.625 27.3071C125.625 27.3071 127.262 20.7511 127.808 20.4661C128.354 20.1811 128.414 19.4399 128.536 19.4969C128.657 19.554 128.839 20.5231 128.839 20.5231L130.658 20.6371L131.325 19.4969C131.325 19.4969 130.901 20.6371 131.325 21.1502C131.75 21.6633 134.357 26.0529 133.569 26.68C132.78 27.3071 132.356 27.4782 131.75 27.1931C131.204 26.9081 130.719 26.509 130.294 26.11C130.294 26.11 132.235 28.7894 131.628 30.2716C131.083 31.5258 130.355 32.723 129.567 33.8061C129.567 33.8061 131.386 36.7706 131.325 37.4547C131.264 38.1388 129.203 40.0771 129.203 40.0771L128.718 38.7659C128.718 38.7659 129.748 37.8538 129.748 37.3977C129.748 36.9416 128.232 35.0033 128.232 35.0033C128.232 35.0033 127.808 37.1126 127.565 38.2528C127.323 39.393 126.656 40.9892 126.656 40.9892H125.322C125.746 40.1911 126.11 39.336 126.413 38.4808C126.595 37.7397 125.868 35.1173 125.868 35.1173L123.988 34.7753C123.988 34.7753 124.352 36.7136 124.655 37.5117C124.958 38.3098 124.352 40.9892 124.352 40.9892H122.957C122.957 39.8491 122.836 38.7089 122.654 37.5687C122.411 36.1435 121.138 35.0033 121.198 32.666C121.259 31.6398 121.38 30.6136 121.623 29.5875Z" fill="#D1D3D4"/>
<path d="M126.777 41.3313H125.443C125.322 41.3313 125.2 41.2743 125.14 41.1602C125.079 41.0462 125.079 40.9322 125.14 40.8182C125.564 40.0201 125.928 39.2219 126.171 38.3668C126.11 37.3407 125.989 36.3715 125.686 35.4024L124.594 35.1743C124.715 35.8014 124.958 36.8276 125.14 37.3407C125.443 38.1958 124.958 40.7042 124.897 40.9892C124.837 41.1602 124.715 41.2743 124.533 41.2743H123.139C122.896 41.2743 122.775 41.1032 122.775 40.9322C122.775 39.792 122.654 38.6519 122.532 37.5687C122.411 37.0556 122.229 36.5425 121.987 36.0865C121.38 35.0033 121.077 33.8061 121.077 32.5519C121.016 31.4688 121.138 30.4426 121.441 29.4164C121.441 29.3594 121.501 29.3024 121.562 29.2454C122.775 28.3903 124.109 27.6492 125.443 27.0221C126.535 22.6894 127.262 20.3521 127.747 20.124C127.929 19.953 128.111 19.782 128.172 19.5539C128.232 19.3829 128.414 18.9838 128.839 19.0979C128.96 19.1549 129.203 19.2119 129.385 20.124L130.658 20.181L131.204 19.2689C131.325 19.0979 131.568 19.0409 131.75 19.1549C131.931 19.2689 131.992 19.4399 131.931 19.6109C131.81 19.896 131.628 20.6371 131.871 20.9221C131.931 20.9792 135.267 25.9959 134.054 26.9651C133.387 27.4781 132.659 27.9912 131.75 27.5352C132.174 28.4473 132.538 29.5875 132.235 30.4426C131.689 31.6398 131.022 32.78 130.294 33.8631C130.84 34.7753 132.053 36.8846 131.992 37.5117C131.931 38.1388 130.294 39.906 129.809 40.3621C129.688 40.4761 129.566 40.4761 129.445 40.4761C129.324 40.4761 129.203 40.3621 129.142 40.2481L128.657 38.9369C128.596 38.8229 128.657 38.6519 128.778 38.5378C129.203 38.1958 129.506 37.7967 129.748 37.3407C129.506 36.8276 129.203 36.3145 128.839 35.8584C128.718 36.5995 128.475 37.6257 128.293 38.2528C127.99 39.393 127.383 40.9322 127.323 41.0462C127.08 41.2172 126.959 41.3313 126.777 41.3313ZM126.049 40.5902H126.535C126.716 40.0771 127.141 38.9939 127.383 38.1388C127.687 37.0556 128.051 34.9463 128.051 34.8893C128.111 34.7183 128.293 34.5472 128.475 34.6042C128.596 34.6042 128.657 34.6612 128.718 34.7183C129.324 35.4594 130.294 36.8276 130.294 37.3407C130.294 37.8537 129.688 38.4808 129.263 38.8799L129.445 39.393C130.234 38.5948 130.961 37.6827 131.022 37.3977C131.082 37.1126 130.112 35.3454 129.263 33.9771C129.203 33.8631 129.203 33.6921 129.263 33.5781C130.052 32.4949 130.719 31.2977 131.264 30.1005C131.689 29.0174 130.476 26.9651 129.93 26.281C129.809 26.1099 129.809 25.8819 129.991 25.7679C130.173 25.6539 130.415 25.6539 130.537 25.8249C130.961 26.224 131.446 26.566 131.931 26.8511C132.295 27.0221 132.538 27.0221 133.326 26.395C133.629 25.8249 131.628 22.1763 131.022 21.3782C130.901 21.2642 130.84 21.0932 130.84 20.9221C130.779 20.9221 130.719 20.9221 130.719 20.9221L128.899 20.8081C128.718 20.8081 128.596 20.6941 128.536 20.5231C128.536 20.4661 128.536 20.4091 128.475 20.2951C128.354 20.4661 128.172 20.5801 127.99 20.6941C127.687 21.0362 126.777 24.3427 125.989 27.3071C125.989 27.4211 125.867 27.5352 125.746 27.5352C124.412 28.1623 123.139 28.8464 121.926 29.7015C121.744 30.6136 121.623 31.5828 121.623 32.5519C121.623 33.6921 121.926 34.7753 122.472 35.7444C122.775 36.2575 122.957 36.8276 123.078 37.3977C123.26 38.4238 123.321 39.507 123.381 40.5331H124.048C124.23 39.507 124.412 38.0248 124.291 37.5117C123.988 36.7136 123.624 34.8323 123.624 34.7183C123.563 34.5472 123.745 34.3192 123.927 34.3192C123.988 34.3192 124.048 34.3192 124.048 34.3192L125.928 34.6612C126.049 34.7183 126.171 34.7753 126.231 34.9463C126.292 35.2313 126.959 37.6257 126.777 38.4808C126.656 39.279 126.353 39.9631 126.049 40.5902Z" fill="#231F20"/>
<path d="M107.918 7.98123H104.401C104.158 7.98123 104.037 7.8102 104.037 7.63917C104.037 7.46815 104.219 7.29712 104.401 7.29712H107.918C108.161 7.29712 108.282 7.46815 108.282 7.63917C108.343 7.8102 108.161 7.98123 107.918 7.98123Z" fill="#231F20"/>
<path d="M106.16 9.74843C105.978 9.74843 105.796 9.57741 105.796 9.40638V5.75782C105.796 5.52979 105.978 5.41577 106.16 5.41577C106.342 5.41577 106.523 5.5868 106.523 5.75782V9.40638C106.523 9.57741 106.342 9.74843 106.16 9.74843Z" fill="#231F20"/>
<path d="M19.2023 96.0597V100.62L8.59033 99.3092V96.0597H19.2023Z" fill="#231F20"/>
<path d="M19.202 101.019L8.52937 99.6513C8.34745 99.6513 8.16553 99.4802 8.16553 99.2522V96.0597C8.16553 95.8317 8.34744 95.6606 8.59 95.6606H19.202C19.4445 95.6606 19.6265 95.8317 19.6265 96.0597V100.62C19.6265 100.734 19.5658 100.848 19.5052 100.905C19.3839 101.019 19.3233 101.019 19.202 101.019ZM9.01448 98.9671L18.7775 100.221V96.5158H9.01448V98.9671Z" fill="#231F20"/>
<path d="M55.1614 96.0597V105.238L44.5494 103.87V96.0597H55.1614Z" fill="#231F20"/>
<path d="M55.1614 105.637H55.1008L44.4888 104.269C44.3069 104.269 44.125 104.098 44.125 103.87V96.1167C44.125 95.8886 44.3069 95.7176 44.5495 95.7176H55.2221C55.4646 95.7176 55.6466 95.8886 55.6466 96.1167V105.238C55.5859 105.409 55.404 105.58 55.1614 105.637C55.1614 105.58 55.1614 105.58 55.1614 105.637ZM44.974 103.528L54.737 104.782V96.5157H44.974V103.528Z" fill="#231F20"/>
<path d="M91.1209 96.0597V109.799L80.5089 108.431V96.0597H91.1209Z" fill="#231F20"/>
<path d="M91.1208 110.198H91.0601L80.3875 108.83C80.2056 108.773 80.0237 108.602 80.0237 108.431V96.0597C80.0237 95.8317 80.2056 95.6606 80.4482 95.6606H91.0601C91.3027 95.6606 91.4846 95.8317 91.4846 96.0597V109.742C91.4846 109.856 91.424 109.97 91.3633 110.027C91.3027 110.141 91.2421 110.198 91.1208 110.198ZM80.9333 108.089L90.6963 109.343V96.5158H80.9333V108.089Z" fill="#231F20"/>
<path d="M127.08 96.0597V114.359L116.468 112.991V96.0597H127.08Z" fill="#231F20"/>
<path d="M127.08 114.759L116.408 113.39C116.226 113.39 116.044 113.219 116.044 112.991V96.0597C116.044 95.8317 116.226 95.6606 116.468 95.6606H127.08C127.323 95.6606 127.505 95.8317 127.505 96.0597V114.302C127.505 114.588 127.323 114.759 127.08 114.759ZM116.893 112.649L126.656 113.903V96.5158H116.893V112.649Z" fill="#231F20"/>
<path d="M163.04 96.0597V118.92L152.428 117.552V96.0597H163.04Z" fill="#231F20"/>
<path d="M163.04 119.319L152.367 117.951C152.185 117.894 152.003 117.78 152.003 117.552V96.0597C152.003 95.8317 152.185 95.6606 152.428 95.6606H163.04C163.282 95.6606 163.464 95.8317 163.464 96.0597V118.92C163.464 119.034 163.403 119.148 163.343 119.205C163.222 119.319 163.161 119.319 163.04 119.319ZM152.852 117.21L162.615 118.464V96.4588H152.852V117.21Z" fill="#231F20"/>
<path d="M198.999 96.0597V123.481L188.387 122.113V96.0597H198.999Z" fill="#231F20"/>
<path d="M198.999 123.88H198.938L188.326 122.512C188.145 122.512 187.963 122.341 187.963 122.113V96.0597C187.963 95.8317 188.145 95.6606 188.387 95.6606H198.999C199.242 95.6606 199.424 95.8317 199.424 96.0597V123.481C199.424 123.595 199.363 123.709 199.302 123.766C199.181 123.88 199.12 123.88 198.999 123.88ZM188.812 121.771L198.575 123.025V96.4588H188.812V121.771Z" fill="#231F20"/>
</svg>
