<svg width="352" height="251" viewBox="0 0 352 251" fill="none" xmlns="http://www.w3.org/2000/svg">
<g clip-path="url(#clip0_15_263)">
<mask id="mask0_15_263" style="mask-type:luminance" maskUnits="userSpaceOnUse" x="0" y="0" width="352" height="251">
<path d="M352 0H0V251H352V0Z" fill="white"/>
</mask>
<g mask="url(#mask0_15_263)">
<path d="M298.583 60.7406H71.1116C66.332 60.6432 62.2484 64.3591 62.1484 69.0539C62.1484 69.6405 62.1484 70.1295 62.2484 70.7161L84.0593 233.549C84.9552 239.221 89.7358 243.427 95.6122 243.525H323.082C327.962 243.623 331.945 239.906 332.045 235.114C332.045 234.527 332.045 234.038 331.945 233.452L310.134 70.6186C309.239 65.0439 304.359 60.839 298.583 60.7406Z" fill="#B6B6B6"/>
<path d="M322.982 244.307H95.5121C89.3367 244.111 84.1582 239.613 83.2622 233.647L61.4514 70.8133C61.0524 68.0755 61.8493 65.2394 63.7421 63.0874C65.634 61.0336 68.3227 59.8605 71.1114 59.958H298.581C304.757 60.1538 309.935 64.6521 310.831 70.6183L332.543 233.549C332.941 236.287 332.144 239.124 330.252 241.275C328.46 243.231 325.771 244.405 322.982 244.307ZM71.1114 61.4252C68.7216 61.3269 66.4309 62.305 64.937 64.0655C63.3432 65.826 62.6463 68.2705 63.0442 70.6183L84.7561 233.549C85.5521 238.83 90.1336 242.742 95.5121 242.938H322.982C325.372 242.938 327.663 242.057 329.156 240.297C330.75 238.537 331.447 236.092 331.049 233.745L309.337 70.8133C308.54 65.5327 303.96 61.5227 298.581 61.4252H71.1114Z" fill="#B6B6B6"/>
<path d="M51.0933 86.6566H301.868L276.87 233.549C275.775 239.221 270.795 243.328 264.92 243.524H34.5609C28.8842 243.524 25.0997 239.026 26.0956 233.549L51.0933 86.6566Z" fill="white"/>
<path d="M264.92 244.307H34.5613C31.7725 244.405 29.0839 243.231 27.2912 241.177C25.4985 239.026 24.8014 236.19 25.2993 233.452L50.2967 86.5593C50.3967 86.1677 50.6957 85.9728 50.9946 85.9728H301.769C302.167 85.9728 302.466 86.266 302.466 86.7551V86.8526L277.469 233.745C276.473 239.71 271.194 244.111 264.92 244.307ZM51.7906 87.4392L26.8928 233.745C26.3948 236.092 26.9924 238.439 28.5858 240.298C30.0798 242.057 32.3705 243.035 34.6612 242.938H265.019C270.497 242.742 275.178 238.83 276.174 233.549L301.071 87.4392H51.7906Z" fill="#B6B6B6"/>
<path d="M65.7338 60.7407H296.092C301.669 60.7407 305.554 65.2398 304.558 70.7162L301.868 86.657H51.0933L53.783 70.7162C54.8779 65.044 59.8574 60.9365 65.7338 60.7407Z" fill="black"/>
<path d="M301.868 87.3416H51.0938C50.8948 87.3416 50.6958 87.2433 50.4968 87.0483C50.3968 86.8525 50.2969 86.6567 50.2969 86.4609L52.9866 70.5201C54.1815 64.5546 59.36 60.1539 65.6344 59.8606H295.993C298.782 59.7623 301.371 60.9362 303.263 62.9899C305.056 65.1412 305.753 67.9772 305.255 70.7158L302.566 86.6567C302.566 87.1458 302.267 87.3416 301.868 87.3416ZM51.9907 85.8744H301.272L303.86 70.6184C304.358 68.2705 303.761 65.9235 302.167 64.0655C300.674 62.3051 298.383 61.4253 296.092 61.4253H65.7344C60.2569 61.6211 55.5754 65.5327 54.5795 70.8133L51.9907 85.8744Z" fill="#B6B6B6"/>
<path d="M281.652 131.155H62.6468C62.2488 131.155 61.8499 130.862 61.8499 130.373C61.8499 129.884 62.1488 129.59 62.6468 129.59H281.652C282.05 129.59 282.448 129.884 282.448 130.373C282.448 130.862 282.05 131.155 281.652 131.155Z" fill="black"/>
<path d="M276.274 162.842H57.2693C56.8704 162.842 56.4724 162.548 56.4724 162.059C56.4724 161.571 56.7714 161.276 57.2693 161.276H276.274C276.672 161.276 277.07 161.571 277.07 162.059C277.07 162.548 276.672 162.842 276.274 162.842Z" fill="black"/>
<path d="M270.796 194.528H51.7915C51.3926 194.528 50.9946 194.235 50.9946 193.746C50.9946 193.257 51.2936 192.963 51.7915 192.963H270.796C271.194 192.963 271.592 193.257 271.592 193.746C271.592 194.235 271.294 194.528 270.796 194.528Z" fill="black"/>
<path d="M246.495 243.134L279.062 218.097H260.239C254.761 218.293 250.18 222.107 249.185 227.388L246.495 243.134Z" fill="white"/>
<path d="M246.496 243.916C246.396 243.916 246.197 243.916 246.097 243.818C245.799 243.623 245.699 243.329 245.699 243.036L248.387 227.29C249.483 221.716 254.363 217.608 260.139 217.412H278.963C279.361 217.412 279.759 217.707 279.759 218.097C279.759 218.293 279.659 218.586 279.46 218.684L246.894 243.72C246.795 243.818 246.695 243.916 246.496 243.916ZM260.239 218.88C255.16 219.075 250.877 222.694 249.881 227.584L247.492 241.373L276.871 218.88H260.239Z" fill="black"/>
<path d="M230.361 78.3444C229.863 78.3444 229.465 78.2469 229.066 77.9528C221.199 73.4545 218.509 63.4791 223.091 55.6549C227.672 47.929 237.831 45.2887 245.798 49.7878C248.586 51.4499 250.877 53.7969 252.371 56.7313C252.969 58.1002 252.272 59.5674 250.977 60.154C249.781 60.643 248.288 60.1539 247.591 58.98C244.902 53.5036 238.129 51.1566 232.453 53.8952C228.568 55.7532 226.079 59.6649 226.079 63.8698C226.079 67.7824 228.269 71.4983 231.656 73.4545C232.951 74.1394 233.449 75.7041 232.751 76.9755C232.353 77.9528 231.357 78.4418 230.361 78.3444Z" fill="white"/>
<path d="M230.361 79.1267C229.763 79.1267 229.166 78.9309 228.668 78.6377C220.401 73.9436 217.614 63.4791 222.393 55.3616C225.481 50.0811 231.257 46.8534 237.432 46.8534C244.105 46.8534 250.081 50.5693 252.968 56.4373C253.765 58.1002 253.068 60.0557 251.375 60.9363C249.683 61.7187 247.69 61.0338 246.794 59.3716C244.304 54.1885 237.93 52.1348 232.751 54.5793C229.166 56.3398 226.776 59.9582 226.776 63.8699C226.776 67.5866 228.768 70.9118 232.054 72.7697C233.648 73.6504 234.245 75.7041 233.249 77.3663C232.751 78.4419 231.556 79.1267 230.361 79.1267ZM237.333 48.3206C228.569 48.3206 221.497 55.2642 221.497 63.8699C221.497 69.4446 224.485 74.5302 229.365 77.3663C230.261 77.8553 231.456 77.5621 231.954 76.6814C232.452 75.8016 232.154 74.6277 231.257 74.1386C225.481 70.9118 223.589 63.6749 226.876 58.0019C229.067 54.3835 232.95 52.1348 237.233 52.1348C241.814 52.1348 245.997 54.6776 248.089 58.7851C248.587 59.6649 249.683 60.0557 250.678 59.6649C251.176 59.4691 251.474 59.0784 251.674 58.5893C251.873 58.1002 251.773 57.6112 251.574 57.1221C248.985 51.7432 243.408 48.3206 237.333 48.3206Z" fill="#B6B6B6"/>
<path d="M170.705 78.3444C170.207 78.3444 169.808 78.2469 169.41 77.9528C161.542 73.4545 158.853 63.4791 163.435 55.6549C168.016 47.929 178.174 45.2887 186.142 49.7878C189.03 51.4499 191.221 53.7969 192.715 56.7313C193.313 58.1002 192.615 59.5674 191.32 60.154C190.125 60.643 188.631 60.1539 187.935 58.98C185.246 53.5036 178.473 51.1566 172.896 53.8952C169.012 55.7532 166.522 59.6649 166.522 63.8698C166.522 67.7824 168.713 71.4983 172.099 73.4545C173.394 74.1394 173.892 75.7041 173.195 76.9755C172.597 77.9528 171.701 78.4418 170.705 78.3444Z" fill="white"/>
<path d="M170.705 79.1267C170.107 79.1267 169.51 78.9309 169.013 78.6377C160.746 73.9436 157.958 63.4791 162.738 55.3616C165.825 50.0811 171.601 46.8534 177.777 46.8534C184.449 46.8534 190.424 50.5693 193.313 56.4373C194.11 58.1002 193.412 60.0557 191.819 60.8388C190.126 61.6212 188.134 60.9363 187.238 59.2733C184.748 54.0902 178.374 52.0365 173.195 54.4818C169.609 56.2423 167.22 59.8607 167.22 63.7724C167.22 67.4883 169.212 70.8135 172.498 72.6722C174.091 73.5521 174.689 75.6058 173.693 77.2688C172.996 78.4419 171.9 79.1267 170.705 79.1267ZM177.677 48.3206C168.913 48.3206 161.841 55.2642 161.841 63.8699C161.841 69.4446 164.829 74.5302 169.709 77.3663C170.605 77.8553 171.801 77.5621 172.299 76.6814C172.797 75.8016 172.498 74.6277 171.601 74.1386C165.825 70.8134 163.933 63.6749 167.22 58.0019C170.605 52.3298 177.876 50.4718 183.652 53.6995C185.744 54.8726 187.338 56.633 188.433 58.6868C188.632 59.1759 189.031 59.4691 189.529 59.6649C190.026 59.8607 190.524 59.7624 191.022 59.5674C191.918 59.0784 192.317 58.0019 191.918 57.0246C189.33 51.7432 183.752 48.3206 177.677 48.3206Z" fill="#B6B6B6"/>
<path d="M111.048 78.3443C110.551 78.3443 110.152 78.246 109.754 77.9527C101.885 73.3561 99.1967 63.3807 103.878 55.6548C106.866 50.6675 112.243 47.6356 118.12 47.6356C124.493 47.6356 130.27 51.1566 133.058 56.8287C133.656 58.1001 133.158 59.6648 131.863 60.3497C130.569 61.0337 128.975 60.4471 128.278 59.1757C125.589 53.6994 118.817 51.3515 113.14 54.0901C109.256 55.9481 106.766 59.8606 106.766 64.0656C106.766 67.9773 108.957 71.694 112.343 73.6494C113.638 74.3343 114.136 75.899 113.438 77.1704C112.94 78.051 112.044 78.5401 111.048 78.5401V78.3443Z" fill="white"/>
<path d="M111.049 79.1267C110.452 79.1267 109.854 78.9309 109.356 78.6377C101.09 73.9436 98.3008 63.4791 103.081 55.3616C106.169 50.0811 111.846 46.8534 118.02 46.8534C124.693 46.8534 130.669 50.5693 133.556 56.4373C134.353 58.1002 133.656 60.0557 131.964 60.9363C130.27 61.7187 128.278 61.0338 127.382 59.3716C124.892 54.1885 118.518 52.1348 113.339 54.5793C109.754 56.3398 107.364 59.9582 107.364 63.8699C107.364 67.5866 109.356 70.9118 112.642 72.7697C114.235 73.6504 114.833 75.7041 113.837 77.3663C113.339 78.4419 112.244 79.0293 111.049 79.1267ZM118.02 48.3206C109.256 48.3206 102.185 55.2642 102.185 63.8699C102.185 69.4446 105.173 74.5302 110.053 77.3663C110.95 77.8553 112.144 77.5621 112.642 76.6814C113.14 75.8016 112.841 74.6277 111.946 74.1386C106.169 70.9118 104.276 63.6749 107.563 58.0019C109.754 54.3835 113.638 52.1348 118.02 52.1348C122.601 52.1348 126.784 54.6776 128.876 58.7851C129.374 59.6649 130.47 60.0557 131.466 59.6649C131.964 59.4691 132.263 59.0784 132.462 58.5893C132.661 58.1002 132.561 57.6112 132.362 57.1221C129.573 51.7432 124.095 48.3206 118.02 48.3206Z" fill="#B6B6B6"/>
<path d="M105.97 56.0465C105.871 56.0465 105.672 56.0465 105.572 55.9482C105.273 55.7532 105.074 55.3616 105.273 54.9709C106.568 52.9172 108.459 51.2542 110.651 50.276C111.049 50.0811 111.448 50.276 111.647 50.6676C111.846 51.0584 111.647 51.45 111.348 51.6458C109.455 52.5256 107.762 53.9928 106.568 55.7532C106.468 55.9482 106.17 56.0465 105.97 56.0465Z" fill="#B6B6B6"/>
<path d="M165.725 56.0465C165.625 56.0465 165.426 56.0465 165.326 55.9482C165.027 55.7532 164.828 55.3616 165.027 54.9709C166.322 52.9172 168.215 51.2542 170.506 50.276C170.904 50.0811 171.302 50.276 171.502 50.6676C171.701 51.0584 171.502 51.45 171.203 51.6458C169.31 52.5256 167.617 53.9928 166.422 55.7532C166.223 55.9482 166.023 56.0465 165.725 56.0465Z" fill="#B6B6B6"/>
<path d="M225.978 56.0465C225.879 56.0465 225.679 56.0465 225.58 55.9482C225.282 55.7532 225.083 55.3616 225.282 54.9709C226.576 52.9172 228.468 51.2542 230.759 50.276C231.158 50.0811 231.556 50.276 231.755 50.6676C231.954 51.0584 231.755 51.45 231.456 51.6458C229.564 52.5256 227.871 53.9928 226.675 55.7532C226.476 55.9482 226.277 56.0465 225.978 56.0465Z" fill="#B6B6B6"/>
<path d="M145.608 156.68C145.409 156.68 145.209 156.582 145.01 156.386L127.283 136.338C126.984 136.045 127.084 135.556 127.382 135.263C127.68 134.969 128.178 135.067 128.477 135.36L146.205 155.408C146.504 155.702 146.405 156.192 146.106 156.485C145.907 156.68 145.807 156.68 145.608 156.68Z" fill="black"/>
<path d="M124.594 156.68C124.195 156.68 123.797 156.387 123.797 155.996C123.797 155.8 123.897 155.604 124.096 155.41L148.397 135.556C148.696 135.263 149.194 135.36 149.492 135.654C149.791 135.948 149.692 136.436 149.393 136.73L124.992 156.485C124.893 156.583 124.693 156.583 124.594 156.68Z" fill="black"/>
<path d="M241.515 190.127C241.316 190.127 241.117 190.029 240.918 189.834L223.191 169.785C222.892 169.491 222.991 169.002 223.29 168.709C223.589 168.416 224.087 168.514 224.386 168.807L242.113 188.856C242.412 189.149 242.312 189.638 242.013 189.834C241.914 190.029 241.715 190.127 241.515 190.127Z" fill="black"/>
<path d="M220.501 190.03C220.302 190.03 220.103 189.932 219.903 189.736C219.605 189.442 219.704 188.953 220.003 188.66L244.304 168.808C244.603 168.514 245.101 168.612 245.3 168.905C245.599 169.198 245.499 169.687 245.2 169.883L220.899 189.736C220.899 190.03 220.7 190.03 220.501 190.03Z" fill="black"/>
<path d="M72.6055 222.498H72.5065C72.1075 222.4 71.8095 222.009 71.9085 221.618L92.1256 102.304C92.2256 101.914 92.6245 101.62 93.0225 101.718C93.4205 101.815 93.7194 102.207 93.6204 102.598L73.4024 221.813C73.3034 222.205 73.0044 222.498 72.6055 222.498Z" fill="black"/>
<path d="M106.168 222.498H106.069C105.671 222.401 105.373 222.009 105.472 221.618L125.789 102.403C125.889 102.011 126.287 101.718 126.684 101.815C127.083 101.914 127.382 102.304 127.282 102.696L106.965 221.911C106.866 222.205 106.567 222.498 106.168 222.498Z" fill="black"/>
<path d="M139.831 222.498H139.731C139.333 222.401 139.034 222.009 139.134 221.618L159.451 102.403C159.55 102.011 159.949 101.718 160.347 101.815C160.746 101.914 161.044 102.304 160.945 102.696L140.628 221.911C140.429 222.205 140.13 222.498 139.831 222.498Z" fill="black"/>
<path d="M173.394 222.498H173.294C172.896 222.401 172.597 222.009 172.697 221.618L193.014 102.403C193.113 102.011 193.512 101.718 193.91 101.815C194.309 101.914 194.607 102.304 194.508 102.696L174.191 221.911C174.091 222.205 173.693 222.498 173.394 222.498Z" fill="black"/>
<path d="M206.957 222.498H206.858C206.459 222.401 206.16 222.009 206.26 221.618L226.577 102.403C226.677 102.011 227.075 101.718 227.473 101.815C227.872 101.914 228.171 102.304 228.071 102.696L207.654 221.911C207.555 222.205 207.356 222.498 206.957 222.498Z" fill="black"/>
<path d="M240.519 222.498H240.42C240.021 222.401 239.722 222.009 239.822 221.618L260.139 102.403C260.239 102.011 260.537 101.718 260.936 101.815C261.334 101.914 261.633 102.304 261.533 102.696L241.316 221.911C241.216 222.205 240.918 222.498 240.519 222.498Z" fill="black"/>
</g>
</g>
<defs>
<clipPath id="clip0_15_263">
<rect width="352" height="251" fill="white"/>
</clipPath>
</defs>
</svg>
