<svg width="288" height="438" viewBox="0 0 288 438" fill="none" xmlns="http://www.w3.org/2000/svg">
<path d="M138 368C195.438 368 242 359.864 242 349.828C242 339.792 195.438 331.656 138 331.656C80.5624 331.656 34 339.792 34 349.828C34 359.864 80.5624 368 138 368Z" fill="#B6B6B6"/>
<path d="M212.409 186.853C203.369 178.819 206.509 152.135 206.509 152.135H108.218C108.218 152.135 111.358 178.819 102.319 186.853C93.2796 194.887 75.5815 198.904 75.5815 222.528V346.289H239.051V222.528C239.051 198.904 221.353 194.887 212.409 186.853Z" fill="white"/>
<path d="M239.051 346.958H75.5813C75.2007 346.958 74.9153 346.671 74.9153 346.289V222.528C74.9153 204.165 85.7625 197.183 94.4212 191.635C96.9903 190.105 99.4642 188.288 101.843 186.375C110.502 178.628 107.552 152.518 107.457 152.231C107.457 152.04 107.457 151.848 107.647 151.657C107.742 151.561 107.933 151.466 108.123 151.466H206.509C206.699 151.466 206.89 151.561 206.985 151.657C207.08 151.753 207.175 152.04 207.175 152.231C207.175 152.518 204.225 178.628 212.789 186.375C215.168 188.288 217.642 190.105 220.211 191.635C228.87 197.183 239.717 204.165 239.717 222.528V346.289C239.717 346.671 239.431 346.958 239.051 346.958ZM76.2474 345.619H238.385V222.528C238.385 204.834 228.299 198.426 219.45 192.783C216.785 191.157 214.216 189.34 211.838 187.332C203.464 179.776 205.177 157.3 205.653 152.805H108.979C109.455 157.3 111.263 179.776 102.795 187.332C100.416 189.34 97.8467 191.157 95.1824 192.783C86.3334 198.426 76.2474 204.93 76.2474 222.528V345.619Z" fill="#231F20"/>
<path d="M139.998 298.755C135.241 306.693 140.569 324.291 140.569 324.291L147.611 329.456C158.172 335.768 171.779 332.421 178.154 321.805C184.434 311.188 181.104 297.511 170.542 291.103L162.74 287.278C162.644 287.373 144.756 290.912 139.998 298.755Z" fill="#B6B6B6"/>
<path d="M159.029 333.282C154.842 333.282 150.846 332.134 147.23 330.03L140.189 324.865C140.094 324.77 139.999 324.674 139.999 324.483C139.808 323.718 134.67 306.502 139.523 298.372C144.376 290.243 161.883 286.704 162.645 286.608C162.74 286.608 162.93 286.608 163.025 286.608L170.828 290.434C181.675 296.938 185.195 311.093 178.725 321.996C174.539 329.074 167.117 333.377 159.029 333.282ZM141.141 323.909L147.991 328.882C158.173 335.003 171.494 331.656 177.583 321.422C183.673 311.188 180.343 297.799 170.162 291.677L162.645 287.947C160.647 288.426 144.851 291.964 140.57 299.042C136.288 306.119 140.57 321.9 141.141 323.909Z" fill="#231F20"/>
<path d="M154.175 329.743C166.472 329.743 176.441 319.723 176.441 307.363C176.441 295.002 166.472 284.982 154.175 284.982C141.879 284.982 131.91 295.002 131.91 307.363C131.91 319.723 141.879 329.743 154.175 329.743Z" fill="#B6B6B6"/>
<path d="M154.175 330.412C141.52 330.412 131.244 320.083 131.244 307.363C131.244 294.642 141.52 284.313 154.175 284.313C166.83 284.313 177.107 294.642 177.107 307.363C177.107 311.571 175.965 315.588 173.872 319.222C169.685 326.204 162.263 330.412 154.175 330.412ZM154.27 285.652C142.377 285.652 132.671 295.312 132.671 307.267C132.671 319.222 142.281 328.978 154.175 328.978C166.069 328.978 175.775 319.318 175.775 307.363C175.775 299.711 171.778 292.634 165.308 288.712C161.978 286.8 158.172 285.747 154.27 285.652Z" fill="#231F20"/>
<path d="M141.711 297.129L144.471 298.851C144.566 298.946 144.756 298.946 144.851 298.851C145.898 297.607 147.325 296.747 148.752 296.173C150.37 295.599 152.083 295.599 153.7 296.268C154.176 296.46 154.557 296.651 155.032 296.842L152.463 301.146C151.797 300.764 151.036 300.572 150.275 300.668C149.704 300.859 149.133 301.051 148.562 301.242V301.337L153.891 304.589L154.271 304.207C155.223 303.155 156.269 302.294 157.411 301.433C159.124 300.19 161.312 299.998 163.215 300.955C165.023 301.72 166.45 303.059 167.212 304.876C167.878 306.311 167.973 307.937 167.687 309.467C167.497 310.423 167.212 311.38 166.926 312.336L169.02 313.58L166.641 317.501L164.547 316.258C163.881 316.927 163.215 317.597 162.549 318.17C161.217 319.318 159.504 319.988 157.792 320.083C156.269 320.083 154.747 319.701 153.51 318.936L156.079 314.727C157.601 315.588 159.504 315.301 160.741 314.058L155.032 310.615C154.271 311.284 153.605 311.954 152.939 312.623C152.083 313.388 151.036 314.058 149.989 314.345C148.847 314.632 147.611 314.536 146.469 314.154C145.137 313.675 143.9 312.815 142.948 311.667C141.616 310.041 141.045 307.841 141.521 305.737C141.711 304.876 141.997 304.111 142.282 303.25C142.282 303.155 142.377 303.059 142.377 302.963L139.523 301.242L141.711 297.129ZM163.12 310.137C163.406 309.467 163.501 308.606 163.406 307.841C163.12 306.502 161.978 305.546 160.646 305.641C159.695 305.928 158.933 306.406 158.267 307.076L163.12 310.137ZM145.898 305.068C145.803 305.737 145.803 306.406 145.803 307.076C145.898 308.415 147.135 309.467 148.467 309.371C148.562 309.371 148.752 309.371 148.847 309.276C149.514 308.989 150.18 308.511 150.751 307.937L145.898 305.068Z" fill="white"/>
<path d="M153.986 175.663C147.992 182.741 150.371 200.913 150.371 200.913L156.46 207.13C165.785 215.164 179.867 214.016 187.765 204.643C195.758 195.27 194.616 181.115 185.291 173.177L178.25 168.108C178.25 168.108 159.886 168.586 153.986 175.663Z" fill="#B6B6B6"/>
<path d="M170.827 213.155C165.404 213.155 160.075 211.242 155.984 207.608L149.894 201.296C149.799 201.2 149.704 201.104 149.704 200.913C149.608 200.148 147.42 182.263 153.51 175.09C159.599 167.917 177.488 167.343 178.249 167.343C178.439 167.343 178.534 167.438 178.63 167.438L185.671 172.507C195.281 180.733 196.518 195.27 188.335 204.93C183.958 210.19 177.583 213.155 170.827 213.155ZM150.941 200.626L156.84 206.652C165.974 214.399 179.581 213.251 187.288 204.069C194.9 194.983 193.854 181.402 184.909 173.655L178.059 168.777C175.965 168.873 159.885 169.734 154.461 176.046C149.038 182.358 150.75 198.522 150.941 200.626Z" fill="#231F20"/>
<path d="M166.545 208.851C178.842 208.851 188.811 198.831 188.811 186.471C188.811 174.111 178.842 164.091 166.545 164.091C154.249 164.091 144.28 174.111 144.28 186.471C144.28 198.831 154.249 208.851 166.545 208.851Z" fill="#B6B6B6"/>
<path d="M166.546 209.425C153.891 209.425 143.614 199.096 143.614 186.376C143.614 173.655 153.891 163.326 166.546 163.326C171.969 163.326 177.298 165.334 181.484 168.873C191.095 177.098 192.236 191.636 184.053 201.296C179.581 206.556 173.206 209.521 166.546 209.425ZM166.546 164.76C154.652 164.76 144.946 174.42 144.946 186.376C144.946 198.331 154.557 208.086 166.45 208.086C178.344 208.086 188.05 198.426 188.05 186.471C188.05 180.159 185.29 174.133 180.533 170.021C176.632 166.673 171.684 164.76 166.546 164.76Z" fill="#231F20"/>
<path d="M155.983 174.324C156.84 174.994 157.601 175.759 158.457 176.429C158.552 176.524 158.743 176.524 158.838 176.429C160.075 175.376 161.597 174.707 163.215 174.42C164.927 174.133 166.64 174.516 168.067 175.376C168.448 175.568 168.829 175.855 169.209 176.142L165.974 179.967C165.403 179.489 164.642 179.202 163.881 179.202C163.31 179.298 162.739 179.298 162.073 179.489V179.585L166.83 183.697C166.926 183.602 167.116 183.506 167.306 183.315C168.353 182.454 169.59 181.689 170.827 181.115C172.73 180.159 174.918 180.35 176.631 181.593C179.676 183.506 181.008 187.427 179.581 190.775C179.2 191.731 178.724 192.592 178.344 193.548L180.152 195.174L177.202 198.713L175.299 197.087C174.538 197.661 173.777 198.139 173.015 198.618C171.493 199.574 169.78 199.957 167.972 199.765C166.45 199.574 165.118 198.904 163.976 197.852L167.211 194.122C168.638 195.27 170.541 195.27 171.969 194.218L166.83 189.818C165.974 190.392 165.213 190.87 164.357 191.444C163.405 192.114 162.263 192.496 161.121 192.688C159.98 192.783 158.743 192.496 157.696 191.827C156.459 191.157 155.317 190.105 154.651 188.766C153.605 186.854 153.414 184.654 154.175 182.645C154.556 181.88 154.841 181.115 155.317 180.35C155.317 180.254 155.412 180.159 155.508 180.063L152.938 177.863L155.983 174.324ZM175.013 190.584C175.394 189.914 175.68 189.149 175.68 188.384C175.68 187.045 174.633 185.897 173.301 185.801C172.349 185.897 171.398 186.28 170.637 186.854L175.013 190.584ZM158.838 182.837C158.648 183.506 158.457 184.08 158.362 184.749C158.267 186.088 159.218 187.332 160.646 187.427C160.741 187.427 160.931 187.427 161.026 187.427C161.788 187.236 162.454 186.949 163.024 186.471L158.838 182.837Z" fill="white"/>
<path d="M96.3247 144.102V162.178C96.3247 169.638 123.633 175.759 157.316 175.759C191 175.759 218.308 169.638 218.308 162.178V144.102H96.3247Z" fill="white"/>
<path d="M157.316 176.524C126.963 176.524 95.6584 171.168 95.6584 162.273V144.197C95.6584 143.814 95.9439 143.527 96.3245 143.527H218.308C218.689 143.527 218.974 143.814 218.974 144.197V162.273C219.069 171.168 187.669 176.524 157.316 176.524ZM96.9906 144.771V162.178C96.9906 168.394 121.254 175.089 157.316 175.089C193.378 175.089 217.642 168.394 217.642 162.178V144.771H96.9906Z" fill="#231F20"/>
<path d="M157.316 157.683C191.001 157.683 218.308 151.602 218.308 144.101C218.308 136.601 191.001 130.52 157.316 130.52C123.632 130.52 96.3247 136.601 96.3247 144.101C96.3247 151.602 123.632 157.683 157.316 157.683Z" fill="white"/>
<path d="M157.316 158.352C126.963 158.352 95.6584 152.996 95.6584 144.102C95.6584 135.207 127.058 129.851 157.316 129.851C187.574 129.851 218.974 135.207 218.974 144.102C218.974 152.996 187.669 158.352 157.316 158.352ZM157.316 131.19C121.254 131.19 96.9906 137.885 96.9906 144.102C96.9906 150.318 121.254 157.013 157.316 157.013C193.378 157.013 217.642 150.318 217.642 144.102C217.642 137.885 193.474 131.19 157.316 131.19Z" fill="#231F20"/>
<path d="M157.316 364.461C202.457 364.461 239.051 356.325 239.051 346.289C239.051 336.253 202.457 328.117 157.316 328.117C112.175 328.117 75.5815 336.253 75.5815 346.289C75.5815 356.325 112.175 364.461 157.316 364.461Z" fill="white"/>
<path d="M157.316 365.131C111.073 365.131 74.9153 356.905 74.9153 346.289C74.9153 335.673 111.073 327.448 157.316 327.448C203.559 327.448 239.717 335.673 239.717 346.289C239.717 356.905 203.559 365.131 157.316 365.131ZM157.316 328.786C118.209 328.786 76.2474 335.864 76.2474 346.289C76.2474 356.714 118.114 363.792 157.316 363.792C196.518 363.792 238.385 356.714 238.385 346.289C238.385 335.864 196.518 328.786 157.316 328.786Z" fill="#231F20"/>
<path d="M85.4771 330.891C85.0965 330.891 84.811 330.604 84.811 330.221V218.989C84.811 211.72 94.3261 204.547 102.795 198.33C107.838 194.6 112.595 191.062 113.356 188.671C114.593 184.462 115.354 180.158 115.545 175.759C115.545 175.376 115.83 175.089 116.116 175.089H116.211C116.591 175.089 116.877 175.376 116.877 175.759C116.591 180.254 115.83 184.654 114.593 188.958C113.737 191.731 108.979 195.27 103.556 199.383C95.7534 205.121 86.1431 212.294 86.1431 218.989V330.221C86.048 330.604 85.7625 330.891 85.4771 330.891Z" fill="#B6B6B6"/>
<path d="M229.25 330.891C228.869 330.891 228.584 330.604 228.584 330.221V218.989C228.584 212.39 218.878 205.217 211.171 199.383C205.652 195.366 200.99 191.827 200.133 188.958C198.897 184.654 198.135 180.254 197.85 175.759C197.85 175.376 198.135 175.089 198.516 175.089C198.897 175.089 199.182 175.376 199.182 175.759C199.467 180.158 200.229 184.462 201.37 188.671C202.132 191.062 206.889 194.6 211.932 198.33C220.401 204.547 229.916 211.72 229.916 218.989V330.125C229.916 330.604 229.63 330.891 229.25 330.891Z" fill="#B6B6B6"/>
<path d="M96.6096 327.161V338.638C96.6096 342.942 107.171 346.48 120.207 346.48C133.243 346.48 143.805 342.942 143.805 338.638V327.161H96.6096Z" fill="#B6B6B6"/>
<path d="M120.302 347.246C108.313 347.246 96.0388 344.089 96.0388 338.733V327.256C96.0388 326.874 96.3243 326.587 96.7049 326.587H143.995C144.375 326.587 144.661 326.874 144.661 327.256V338.733C144.566 343.994 132.196 347.246 120.302 347.246ZM97.2758 327.83V338.638C97.2758 342.081 106.505 345.811 120.207 345.811C133.909 345.811 143.139 342.081 143.139 338.638V327.83H97.2758Z" fill="#231F20"/>
<path d="M120.302 335.003C133.335 335.003 143.9 331.492 143.9 327.161C143.9 322.829 133.335 319.318 120.302 319.318C107.27 319.318 96.7048 322.829 96.7048 327.161C96.7048 331.492 107.27 335.003 120.302 335.003Z" fill="#231F20"/>
<path d="M120.302 335.673C108.313 335.673 96.0388 332.421 96.0388 327.161C96.0388 321.9 108.408 318.553 120.302 318.553C132.196 318.553 144.566 321.805 144.566 327.161C144.566 332.517 132.196 335.673 120.302 335.673ZM120.302 319.987C106.601 319.987 97.3709 323.717 97.3709 327.161C97.3709 330.604 106.601 334.334 120.302 334.334C134.004 334.334 143.234 330.604 143.234 327.161C143.234 323.717 134.004 319.987 120.302 319.987Z" fill="#231F20"/>
<path d="M102.224 311.38V322.857C102.224 327.161 112.786 330.699 125.822 330.699C138.857 330.699 149.419 327.161 149.419 322.857V311.38H102.224Z" fill="#B6B6B6"/>
<path d="M125.821 331.464C113.832 331.464 101.557 328.308 101.557 322.952V311.475C101.557 311.093 101.843 310.806 102.223 310.806H149.513C149.894 310.806 150.18 311.093 150.18 311.475V322.952C150.18 328.308 137.81 331.464 125.821 331.464ZM102.889 312.049V322.857C102.889 326.3 112.119 330.03 125.821 330.03C139.523 330.03 148.752 326.3 148.752 322.857V312.049H102.889Z" fill="#231F20"/>
<path d="M125.822 319.222C138.854 319.222 149.419 315.711 149.419 311.38C149.419 307.048 138.854 303.537 125.822 303.537C112.789 303.537 102.224 307.048 102.224 311.38C102.224 315.711 112.789 319.222 125.822 319.222Z" fill="#231F20"/>
<path d="M125.821 319.988C113.832 319.988 101.557 316.831 101.557 311.475C101.557 306.119 113.927 302.963 125.821 302.963C137.715 302.963 150.084 306.119 150.084 311.475C150.084 316.831 137.81 319.988 125.821 319.988ZM125.821 304.207C112.119 304.207 102.889 307.937 102.889 311.38C102.889 314.823 112.119 318.553 125.821 318.553C139.523 318.553 148.752 314.823 148.752 311.38C148.752 307.937 139.523 304.207 125.821 304.207Z" fill="#231F20"/>
<path d="M97.3713 293.877V305.354C97.3713 309.658 107.933 313.197 120.969 313.197C134.004 313.197 144.661 309.658 144.661 305.354V293.877H97.3713Z" fill="#B6B6B6"/>
<path d="M120.968 313.867C108.979 313.867 96.7048 310.71 96.7048 305.354V293.877C96.7048 293.495 96.9903 293.208 97.3709 293.208H144.661C145.042 293.208 145.327 293.495 145.327 293.877V305.354C145.327 310.71 132.957 313.867 120.968 313.867ZM98.0369 294.451V305.259C98.0369 308.702 107.267 312.432 120.968 312.432C134.67 312.432 143.9 308.702 143.9 305.259V294.451H98.0369Z" fill="#231F20"/>
<path d="M120.969 301.72C134.001 301.72 144.566 298.208 144.566 293.877C144.566 289.546 134.001 286.034 120.969 286.034C107.936 286.034 97.3713 289.546 97.3713 293.877C97.3713 298.208 107.936 301.72 120.969 301.72Z" fill="#231F20"/>
<path d="M120.968 302.389C108.979 302.389 96.7048 299.138 96.7048 293.877C96.7048 288.617 109.074 285.269 120.968 285.269C132.862 285.269 145.232 288.521 145.232 293.877C145.232 299.233 132.957 302.389 120.968 302.389ZM120.968 286.608C107.267 286.608 98.0369 290.339 98.0369 293.782C98.0369 297.225 107.267 300.955 120.968 300.955C134.67 300.955 143.9 297.225 143.9 293.782C143.9 290.339 134.765 286.608 120.968 286.608Z" fill="#231F20"/>
<path d="M158.838 325.152V336.629C158.838 340.933 169.4 344.472 182.436 344.472C195.472 344.472 206.033 340.933 206.033 336.629V325.152H158.838Z" fill="#B6B6B6"/>
<path d="M182.53 345.237C170.636 345.237 158.267 342.081 158.267 336.725V325.248C158.267 324.865 158.552 324.578 158.933 324.578H206.223C206.604 324.578 206.889 324.865 206.889 325.248V336.725C206.794 341.985 194.424 345.237 182.53 345.237ZM159.504 325.822V336.629C159.504 340.073 168.733 343.803 182.435 343.803C196.137 343.803 205.367 340.073 205.367 336.629V325.822H159.504Z" fill="#231F20"/>
<path d="M182.531 332.995C195.564 332.995 206.129 329.484 206.129 325.152C206.129 320.821 195.564 317.31 182.531 317.31C169.499 317.31 158.934 320.821 158.934 325.152C158.934 329.484 169.499 332.995 182.531 332.995Z" fill="#231F20"/>
<path d="M182.53 333.76C170.636 333.76 158.267 330.508 158.267 325.152C158.267 319.796 170.636 316.64 182.53 316.64C194.424 316.64 206.794 319.892 206.794 325.152C206.794 330.412 194.424 333.76 182.53 333.76ZM182.53 317.979C168.829 317.979 159.599 321.709 159.599 325.152C159.599 328.595 168.829 332.325 182.53 332.325C196.232 332.325 205.462 328.595 205.462 325.152C205.462 321.709 196.232 317.979 182.53 317.979Z" fill="#231F20"/>
<path d="M155.793 311.571V323.048C155.793 327.447 166.355 330.891 179.391 330.891C192.426 330.891 202.988 327.352 202.988 323.048V311.571H155.793Z" fill="#B6B6B6"/>
<path d="M179.392 331.56C167.498 331.56 155.128 328.309 155.128 323.048V311.571C155.128 311.189 155.414 310.902 155.794 310.902H203.084C203.465 310.902 203.75 311.189 203.75 311.571V323.048C203.75 328.404 191.381 331.56 179.392 331.56ZM156.46 312.241V323.048C156.46 326.491 165.69 330.221 179.392 330.221C193.093 330.221 202.323 326.491 202.323 323.048V312.241H156.46Z" fill="#231F20"/>
<path d="M179.391 319.414C192.423 319.414 202.988 315.902 202.988 311.571C202.988 307.24 192.423 303.728 179.391 303.728C166.358 303.728 155.793 307.24 155.793 311.571C155.793 315.902 166.358 319.414 179.391 319.414Z" fill="#231F20"/>
<path d="M179.392 320.083C167.498 320.083 155.128 316.927 155.128 311.571C155.128 306.215 167.498 302.963 179.392 302.963C191.286 302.963 203.655 306.119 203.655 311.475C203.655 316.831 191.381 320.083 179.392 320.083ZM179.392 304.302C165.69 304.302 156.46 308.032 156.46 311.475C156.46 314.919 165.69 318.649 179.392 318.649C193.093 318.649 202.323 314.919 202.323 311.475C202.323 308.032 193.189 304.302 179.392 304.302Z" fill="#231F20"/>
<path d="M159.6 294.929V306.406C159.6 310.71 170.162 314.249 183.198 314.249C196.233 314.249 206.795 310.71 206.795 306.406V294.929H159.6Z" fill="#B6B6B6"/>
<path d="M183.197 315.014C171.303 315.014 158.934 311.858 158.934 306.502V295.025C158.934 294.642 159.219 294.355 159.6 294.355H206.89C207.271 294.355 207.556 294.642 207.556 295.025V306.502C207.556 311.762 195.186 315.014 183.197 315.014ZM160.266 295.599V306.406C160.266 309.849 169.496 313.579 183.197 313.579C196.899 313.579 206.129 309.849 206.129 306.406V295.599H160.266Z" fill="#231F20"/>
<path d="M183.198 302.772C196.23 302.772 206.795 299.261 206.795 294.929C206.795 290.598 196.23 287.087 183.198 287.087C170.165 287.087 159.6 290.598 159.6 294.929C159.6 299.261 170.165 302.772 183.198 302.772Z" fill="#231F20"/>
<path d="M183.197 303.441C171.303 303.441 158.934 300.19 158.934 294.834C158.934 289.478 171.303 286.322 183.197 286.322C195.091 286.322 207.461 289.573 207.461 294.834C207.461 300.094 195.186 303.441 183.197 303.441ZM183.197 287.756C169.496 287.756 160.266 291.486 160.266 294.929C160.266 298.372 169.496 302.102 183.197 302.102C196.899 302.102 206.129 298.372 206.129 294.929C206.129 291.486 196.994 287.661 183.197 287.756Z" fill="#231F20"/>
<path d="M155.793 278.287V289.764C155.793 294.068 166.355 297.607 179.391 297.607C192.426 297.607 202.988 294.068 202.988 289.764V278.287H155.793Z" fill="#B6B6B6"/>
<path d="M179.392 298.277C167.403 298.277 155.128 295.12 155.128 289.764V278.287C155.128 277.905 155.414 277.618 155.794 277.618H203.084C203.465 277.618 203.75 277.905 203.75 278.287V289.764C203.75 295.12 191.381 298.277 179.392 298.277ZM156.46 278.957V289.764C156.46 293.208 165.69 296.938 179.392 296.938C193.093 296.938 202.323 293.208 202.323 289.764V278.957H156.46Z" fill="#231F20"/>
<path d="M179.391 286.13C192.423 286.13 202.988 282.619 202.988 278.288C202.988 273.956 192.423 270.445 179.391 270.445C166.358 270.445 155.793 273.956 155.793 278.288C155.793 282.619 166.358 286.13 179.391 286.13Z" fill="#231F20"/>
<path d="M179.392 286.8C167.403 286.8 155.128 283.548 155.128 278.192C155.128 272.836 167.498 269.68 179.392 269.68C191.286 269.68 203.655 272.932 203.655 278.192C203.655 283.452 191.381 286.8 179.392 286.8ZM179.392 271.019C165.69 271.019 156.46 274.749 156.46 278.192C156.46 281.635 165.69 285.365 179.392 285.365C193.093 285.365 202.323 281.635 202.323 278.192C202.323 274.749 193.189 271.019 179.392 271.019Z" fill="#231F20"/>
<path d="M163.405 264.611V276.088C163.405 280.392 173.967 283.93 187.098 283.93C200.229 283.93 210.695 280.392 210.695 276.088V264.611H163.405Z" fill="#B6B6B6"/>
<path d="M187.003 284.695C175.014 284.695 162.739 281.444 162.739 276.183V264.706C162.739 264.324 163.025 264.037 163.405 264.037H210.695C211.076 264.037 211.361 264.324 211.361 264.706V276.183C211.361 281.444 198.992 284.695 187.003 284.695ZM164.071 265.28V276.088C164.071 279.531 173.301 283.261 187.003 283.261C200.704 283.261 209.934 279.531 209.934 276.088V265.28H164.071Z" fill="#231F20"/>
<path d="M187.003 272.453C200.035 272.453 210.6 268.942 210.6 264.611C210.6 260.279 200.035 256.768 187.003 256.768C173.97 256.768 163.405 260.279 163.405 264.611C163.405 268.942 173.97 272.453 187.003 272.453Z" fill="#231F20"/>
<path d="M187.003 273.219C175.014 273.219 162.739 270.062 162.739 264.706C162.739 259.35 175.109 256.194 187.003 256.194C198.897 256.194 211.266 259.35 211.266 264.706C211.266 270.062 198.992 273.219 187.003 273.219ZM187.003 257.438C173.206 257.438 164.071 261.168 164.071 264.611C164.071 268.054 173.301 271.784 187.003 271.784C200.704 271.784 209.934 268.054 209.934 264.611C209.934 261.168 200.8 257.438 187.003 257.438Z" fill="#231F20"/>
<path d="M158.172 250.934V262.411C158.172 266.715 168.734 270.253 181.865 270.253C194.996 270.253 205.462 266.715 205.462 262.411V250.934H158.172Z" fill="#B6B6B6"/>
<path d="M181.865 271.019C169.971 271.019 157.602 267.863 157.602 262.507V251.03C157.602 250.647 157.887 250.36 158.268 250.36H205.558C205.938 250.36 206.224 250.647 206.224 251.03V262.507C206.129 267.863 193.759 271.019 181.865 271.019ZM158.839 251.699V262.507C158.839 265.95 168.068 269.68 181.77 269.68C195.472 269.68 204.701 265.95 204.701 262.507V251.699H158.839Z" fill="#231F20"/>
<path d="M181.864 258.776C194.897 258.776 205.462 255.265 205.462 250.934C205.462 246.602 194.897 243.091 181.864 243.091C168.832 243.091 158.267 246.602 158.267 250.934C158.267 255.265 168.832 258.776 181.864 258.776Z" fill="#B6B6B6"/>
<path d="M181.865 259.542C169.971 259.542 157.602 256.29 157.602 250.934C157.602 245.578 169.971 242.422 181.865 242.422C193.759 242.422 206.129 245.673 206.129 250.934C206.129 256.194 193.759 259.542 181.865 259.542ZM181.865 243.761C168.163 243.761 158.934 247.491 158.934 250.934C158.934 254.377 168.163 258.107 181.865 258.107C195.567 258.107 204.796 254.377 204.796 250.934C204.796 247.491 195.567 243.761 181.865 243.761Z" fill="#231F20"/>
<path d="M132.196 339.594L132.672 348.202C132.767 353.941 143.71 358.436 157.031 358.149C170.352 357.862 181.104 352.984 181.009 347.246L180.533 338.638L132.196 339.594Z" fill="#B6B6B6"/>
<path d="M155.984 358.818C150.465 358.914 144.851 357.957 139.713 356.045C134.861 354.036 132.101 351.262 132.101 348.202L131.625 339.69C131.625 339.498 131.721 339.307 131.816 339.212C131.911 339.116 132.101 339.02 132.292 339.02L180.628 338.064C181.009 338.064 181.294 338.351 181.294 338.638L181.77 347.245C181.865 353.462 171.113 358.531 157.126 358.818H155.984ZM132.862 340.264L133.338 348.106C133.433 350.593 135.812 352.984 140.094 354.801C145.518 356.81 151.227 357.67 157.031 357.479C169.781 357.288 180.438 352.601 180.343 347.341L179.867 339.403L132.862 340.264Z" fill="#231F20"/>
<path d="M156.457 349.626C169.803 349.375 180.534 344.506 180.427 338.749C180.32 332.993 169.415 328.529 156.07 328.78C142.725 329.031 131.993 333.9 132.1 339.657C132.207 345.413 143.112 349.876 156.457 349.626Z" fill="#B6B6B6"/>
<path d="M155.413 350.306C149.894 350.402 144.28 349.445 139.142 347.533C134.29 345.524 131.53 342.75 131.53 339.69C131.435 333.473 142.187 328.404 156.174 328.117C162.074 327.926 167.973 328.787 173.587 330.891C178.44 332.899 181.199 335.673 181.199 338.733C181.294 344.95 170.542 350.019 156.555 350.306H155.413ZM157.221 329.456H156.174C143.424 329.647 132.767 334.334 132.862 339.594C132.862 342.081 135.336 344.472 139.618 346.194C145.042 348.202 150.751 349.063 156.555 348.871C169.305 348.68 179.962 343.994 179.867 338.733C179.867 336.247 177.393 333.856 173.111 332.134C167.973 330.221 162.645 329.265 157.221 329.456Z" fill="#231F20"/>
<path d="M173.491 337.681L170.066 338.064C169.875 338.064 169.78 338.16 169.875 338.255C170.637 338.925 170.922 339.881 170.827 340.838C170.542 341.794 169.59 342.368 167.877 342.751C167.402 342.846 166.926 342.942 166.45 343.037L163.12 340.168C163.786 340.168 164.357 339.977 164.832 339.594C165.023 339.307 165.118 339.02 165.213 338.734H165.118L158.743 339.403C158.838 339.499 158.838 339.594 158.933 339.69C159.409 340.359 159.694 341.125 159.885 341.985C160.075 343.324 159.028 344.09 156.745 344.472C154.556 344.855 152.368 344.759 150.179 344.185C148.562 343.803 147.039 343.133 145.612 342.272C144.946 341.794 144.28 341.316 143.614 340.838L141.235 341.029L139.617 338.734L141.901 338.542C141.806 338.064 141.711 337.681 141.616 337.203C141.616 336.342 142.091 335.482 142.948 335.099C143.994 334.621 145.136 334.238 146.278 334.238L148.181 336.342C146.563 336.629 145.707 337.203 145.993 338.064L152.273 337.395C152.082 336.916 151.892 336.438 151.797 335.96C151.606 335.482 151.702 334.908 151.987 334.525C152.558 333.951 153.319 333.665 154.08 333.569C155.412 333.282 156.745 333.186 158.077 333.282C160.265 333.378 162.454 333.856 164.452 334.717C165.213 335.004 165.879 335.386 166.545 335.769L166.831 335.864L170.161 335.482L173.491 337.681ZM147.991 340.264C148.562 340.742 149.133 341.029 149.799 341.316C151.131 341.794 153.034 341.698 153.605 341.22C154.176 340.742 153.795 340.264 153.7 339.786L147.991 340.264ZM162.644 336.247C161.978 335.96 161.407 335.673 160.741 335.482C159.219 335.004 157.316 335.099 157.03 335.769C156.84 336.056 157.03 336.438 157.22 336.821L162.644 336.247Z" fill="white"/>
<path d="M172.35 238.5L170.637 246.917C169.21 252.464 178.63 259.637 191.57 262.889C204.511 266.141 216.119 264.228 217.547 258.681L219.259 250.264L172.35 238.5Z" fill="#B6B6B6"/>
<path d="M203.75 265.185C199.658 265.185 195.472 264.611 191.475 263.559C177.964 260.211 168.544 252.847 170.067 246.821L171.779 238.405C171.779 238.214 171.97 238.118 172.065 237.927C172.255 237.831 172.445 237.831 172.54 237.831L219.45 249.595C219.83 249.691 220.021 250.073 219.926 250.36L218.213 258.777C217.452 261.741 214.217 263.846 209.078 264.706C207.271 265.089 205.558 265.185 203.75 265.185ZM172.921 239.361L171.303 247.108C170.067 252.273 179.391 259.159 191.761 262.315C197.28 263.846 203.084 264.228 208.793 263.463C213.36 262.698 216.31 260.976 216.881 258.585L218.403 250.838L172.921 239.361Z" fill="#231F20"/>
<path d="M219.307 250.314C220.69 244.727 211.311 237.572 198.358 234.333C185.405 231.094 173.784 232.998 172.401 238.585C171.019 244.172 180.398 251.327 193.351 254.566C206.303 257.805 217.925 255.901 219.307 250.314Z" fill="#B6B6B6"/>
<path d="M205.462 256.768C201.371 256.768 197.184 256.194 193.188 255.142C187.384 253.803 181.96 251.316 177.107 247.969C172.921 244.813 171.018 241.37 171.779 238.405C172.54 235.44 175.775 233.336 180.913 232.475C192.807 231.136 204.701 234.196 214.597 240.891C218.783 244.047 220.686 247.491 219.925 250.456C219.164 253.42 215.929 255.525 210.791 256.385C208.983 256.672 207.27 256.768 205.462 256.768ZM186.242 233.431C184.529 233.431 182.816 233.527 181.104 233.814C176.536 234.579 173.587 236.396 173.016 238.692C172.445 240.987 174.158 244.047 177.868 246.821C187.479 253.325 198.992 256.194 210.505 254.951C215.072 254.186 218.022 252.464 218.593 250.073C219.164 247.682 217.451 244.717 213.74 241.943C209.078 238.596 203.749 236.205 198.136 234.961C194.33 233.909 190.333 233.431 186.242 233.431Z" fill="#231F20"/>
<path d="M212.789 247.491L209.363 246.917C209.173 246.917 209.078 246.917 209.173 247.012C209.744 247.873 209.744 248.83 209.363 249.786C208.888 250.647 207.746 250.934 206.033 250.838C205.557 250.838 205.082 250.742 204.606 250.742L202.132 247.108C202.703 247.299 203.369 247.204 203.94 246.917C204.13 246.725 204.32 246.438 204.511 246.247L204.416 246.152L198.04 245.099C198.04 245.195 198.136 245.291 198.136 245.386C198.421 246.152 198.516 247.012 198.516 247.873C198.421 249.212 197.089 249.69 194.805 249.499C192.617 249.308 190.524 248.638 188.525 247.586C187.098 246.821 185.766 245.769 184.624 244.621C184.053 243.952 183.578 243.282 183.102 242.708L180.723 242.326L179.771 239.648L182.055 240.03C182.055 239.552 182.055 239.17 182.15 238.691C182.341 237.831 183.102 237.161 183.958 236.97C185.1 236.779 186.242 236.779 187.384 236.97L188.716 239.552C187.098 239.457 186.147 239.743 186.147 240.7L192.427 241.752C192.427 241.274 192.331 240.796 192.236 240.317C192.141 239.744 192.331 239.265 192.807 238.978C193.473 238.596 194.33 238.5 195.091 238.596C196.423 238.691 197.755 238.883 199.087 239.361C201.18 240.03 203.083 241.083 204.891 242.421C205.557 242.9 206.033 243.474 206.699 244.047L206.89 244.239L210.22 244.813L212.789 247.491ZM187.479 243.282C187.859 243.856 188.43 244.334 189.001 244.717C190.143 245.482 191.951 245.96 192.712 245.578C193.473 245.195 193.188 244.717 193.188 244.143L187.479 243.282ZM202.703 243.187C202.132 242.708 201.656 242.326 201.085 242.039C199.753 241.178 197.85 240.796 197.374 241.274C197.089 241.561 197.184 241.943 197.279 242.326L202.703 243.187Z" fill="white"/>
<path d="M114.593 254.377L121.824 258.872C126.582 262.124 136.477 255.62 143.899 244.526C151.321 233.431 153.509 221.763 148.847 218.511L141.615 214.016L114.593 254.377Z" fill="#B6B6B6"/>
<path d="M124.869 260.402C123.727 260.402 122.586 260.115 121.634 259.446L114.403 254.951C114.117 254.76 114.022 254.377 114.212 253.994L141.235 213.633C141.425 213.346 141.806 213.251 142.092 213.442L149.418 217.937C154.556 221.476 152.463 233.24 144.756 244.908C138.19 254.377 130.293 260.402 124.869 260.402ZM115.544 254.186L122.205 258.298C126.582 261.263 136.287 254.76 143.424 244.143C150.56 233.527 152.844 222.05 148.467 219.085L141.806 214.972L115.544 254.186Z" fill="#231F20"/>
<path d="M136.68 240.063C144.132 228.932 146.321 217.304 141.569 214.089C136.817 210.875 126.923 217.292 119.471 228.422C112.019 239.553 109.83 251.182 114.582 254.396C119.334 257.611 129.227 251.193 136.68 240.063Z" fill="#B6B6B6"/>
<path d="M117.542 255.907C116.4 255.907 115.259 255.62 114.307 254.951C111.738 253.229 110.882 249.404 111.928 244.239C114.783 232.571 121.634 222.337 131.339 215.259C135.716 212.39 139.522 211.72 142.091 213.442C144.66 215.164 145.516 218.989 144.47 224.154C141.615 235.822 134.764 246.152 125.059 253.134C122.205 254.951 119.731 255.907 117.542 255.907ZM138.761 213.92C136.858 213.92 134.574 214.781 132.005 216.407C122.68 223.198 116.02 233.144 113.165 244.526C112.309 249.117 112.975 252.464 114.973 253.899C116.971 255.333 120.397 254.664 124.298 252.081C133.623 245.291 140.283 235.344 143.138 223.963C143.994 219.372 143.328 216.024 141.33 214.59C140.474 214.207 139.617 213.92 138.761 213.92Z" fill="#231F20"/>
<path d="M136.763 219.276C136.192 220.328 135.621 221.285 135.05 222.241C134.955 222.432 134.955 222.528 135.145 222.432C136.097 222.241 137.048 222.528 137.809 223.197C138.38 223.963 138.38 225.11 137.619 226.736C137.429 227.214 137.239 227.597 136.953 228.075L132.671 229.127C133.052 228.649 133.147 227.98 133.147 227.406C133.052 227.119 132.862 226.832 132.671 226.641L132.576 226.736L129.436 232.379C129.531 232.379 129.626 232.379 129.817 232.379C130.673 232.379 131.529 232.57 132.291 232.857C133.432 233.431 133.528 234.77 132.576 236.874C131.625 238.883 130.292 240.7 128.58 242.135C127.343 243.282 126.011 244.143 124.393 244.813C123.632 245.099 122.871 245.291 122.014 245.578L120.873 247.682H118.018L119.16 245.673C118.779 245.482 118.303 245.386 117.923 245.099C117.162 244.621 116.781 243.665 116.971 242.804C117.162 241.656 117.542 240.509 118.113 239.552L120.968 239.17C120.302 240.604 120.206 241.656 121.158 241.943C122.205 240.03 123.156 238.213 124.203 236.396C123.727 236.3 123.251 236.205 122.776 236.013C122.3 235.918 121.824 235.535 121.729 235.057C121.634 234.292 121.729 233.527 122.11 232.762C122.68 231.518 123.346 230.371 124.203 229.318C125.535 227.597 127.153 226.067 129.056 224.919C129.722 224.441 130.388 224.154 131.149 223.771L131.434 223.676L133.052 220.711L136.763 219.276ZM124.203 241.752C124.869 241.561 125.535 241.274 126.106 240.796C127.248 239.935 128.294 238.405 128.199 237.639C128.104 236.97 127.533 236.97 127.057 236.779L124.203 241.752ZM129.341 227.31C128.77 227.693 128.199 228.075 127.628 228.458C126.391 229.414 125.44 231.04 125.63 231.71C125.82 232.092 126.201 232.092 126.582 232.188L129.341 227.31Z" fill="white"/>
<path d="M97.0854 280.201L97.5612 288.808C97.6564 294.547 108.599 299.042 121.92 298.755C135.241 298.468 145.993 293.59 145.898 287.852L145.422 279.244L97.0854 280.201Z" fill="#B6B6B6"/>
<path d="M120.873 299.424C107.457 299.424 97.0853 294.834 96.9902 288.808L96.5144 280.296C96.5144 280.105 96.6096 279.913 96.7047 279.818C96.7999 279.722 96.9902 279.626 97.1805 279.626L145.517 278.67C145.898 278.67 146.183 278.957 146.183 279.244L146.659 287.852C146.754 290.912 144.09 293.782 139.332 295.981C133.814 298.277 128.009 299.424 122.015 299.424H120.873ZM97.7514 280.87L98.2271 288.712C98.3223 293.973 109.169 298.277 121.92 298.085C127.629 298.085 133.338 296.938 138.666 294.738C142.853 292.825 145.232 290.338 145.232 287.852L144.756 279.913L97.7514 280.87Z" fill="#231F20"/>
<path d="M121.346 290.138C134.691 289.888 145.423 285.018 145.316 279.262C145.209 273.505 134.304 269.042 120.958 269.292C107.613 269.543 96.8816 274.413 96.9886 280.169C97.0956 285.925 108.001 290.389 121.346 290.138Z" fill="#B6B6B6"/>
<path d="M120.302 290.817C106.886 290.817 96.5142 286.226 96.4191 280.2C96.3239 273.984 107.076 268.914 121.063 268.628C127.629 268.532 133.813 269.488 138.476 271.401C143.329 273.41 146.088 276.183 146.088 279.244C146.183 282.304 143.519 285.174 138.761 287.373C133.243 289.669 127.438 290.817 121.444 290.817H120.302ZM122.11 269.967H121.063C108.313 270.158 97.656 274.844 97.7512 280.105C97.8463 285.365 108.694 289.669 121.444 289.382C127.153 289.382 132.862 288.234 138.19 286.034C142.377 284.122 144.756 281.635 144.756 279.148C144.756 276.662 142.282 274.27 138 272.549C132.862 270.827 127.533 269.871 122.11 269.967Z" fill="#231F20"/>
<path d="M138.382 278.288L134.956 278.67C134.766 278.67 134.671 278.766 134.766 278.862C135.527 279.531 135.812 280.487 135.717 281.444C135.432 282.4 134.48 282.974 132.768 283.357C132.292 283.452 131.816 283.548 131.34 283.644L128.01 280.774C128.676 280.774 129.247 280.583 129.723 280.201C129.913 279.914 130.008 279.627 130.103 279.34H130.008L123.633 280.009C123.728 280.105 123.728 280.201 123.823 280.296C124.299 280.966 124.585 281.731 124.775 282.592C124.965 283.931 123.919 284.696 121.635 285.078C119.447 285.461 117.258 285.365 115.07 284.791C113.452 284.409 111.93 283.739 110.502 282.879C109.836 282.4 109.17 281.922 108.504 281.444L106.125 281.635L104.508 279.34L106.791 279.148C106.696 278.67 106.601 278.288 106.506 277.809C106.506 276.949 106.982 276.088 107.838 275.705C108.885 275.227 110.027 274.845 111.168 274.845L113.071 276.949C111.454 277.236 110.597 277.809 110.883 278.67L117.163 278.001C116.973 277.523 116.782 277.044 116.592 276.566C116.402 276.088 116.497 275.514 116.782 275.131C117.353 274.558 118.114 274.271 118.876 274.175C120.208 273.888 121.54 273.793 122.872 273.888C125.06 273.984 127.249 274.462 129.247 275.323C130.008 275.61 130.674 275.992 131.34 276.375L131.626 276.47L134.956 276.088L138.382 278.288ZM112.881 280.87C113.452 281.348 114.023 281.635 114.689 281.922C116.021 282.4 117.924 282.305 118.495 281.826C119.066 281.348 118.685 280.87 118.59 280.392L112.881 280.87ZM127.534 276.757C126.868 276.471 126.297 276.184 125.631 275.992C124.109 275.514 122.206 275.61 121.92 276.279C121.73 276.566 121.92 276.949 122.111 277.331L127.534 276.757Z" fill="white"/>
<path d="M164.643 99.7236L170.257 106.132C173.777 110.627 185.1 107.471 195.472 99.0541C205.843 90.6376 211.362 80.3082 207.841 75.8131L202.227 69.405L164.643 99.7236Z" fill="#B6B6B6"/>
<path d="M175.49 108.809C172.921 108.809 170.922 108.044 169.685 106.514L164.072 100.106C163.786 99.8191 163.881 99.4365 164.167 99.1496L201.751 68.9267C202.037 68.6397 202.417 68.7354 202.703 69.0223L208.317 75.4303C210.22 77.8214 209.934 81.7427 207.46 86.3335C204.511 91.4982 200.609 95.9934 195.852 99.6278C188.525 105.558 180.913 108.809 175.49 108.809ZM165.594 99.8191L170.732 105.749C174.062 109.862 185.1 106.61 195.091 98.6714C199.658 95.1326 203.464 90.8287 206.319 85.8553C208.507 81.7427 208.888 78.3952 207.365 76.4824L202.227 70.5526L165.594 99.8191Z" fill="#231F20"/>
<path d="M189.91 92.637C200.287 84.2832 205.823 73.9016 202.276 69.449C198.728 64.9965 187.44 68.1591 177.063 76.5128C166.686 84.8666 161.15 95.2482 164.697 99.7007C168.245 104.153 179.533 100.991 189.91 92.637Z" fill="#B6B6B6"/>
<path d="M169.971 102.401C167.402 102.401 165.404 101.636 164.167 100.106C160.361 95.228 165.785 84.7074 176.632 76.0039C181.199 72.1783 186.432 69.309 192.046 67.5874C197.089 66.1528 200.895 66.7267 202.798 69.1177C206.605 73.8998 201.181 84.6117 190.334 93.3152C182.912 99.0537 175.3 102.401 169.971 102.401ZM196.994 68.0656C195.472 68.0656 193.854 68.3526 192.427 68.7351C187.003 70.4567 181.865 73.2303 177.488 76.9604C167.593 84.8987 161.979 95.1324 165.214 99.245C168.449 103.358 179.582 100.106 189.477 92.0718C199.373 84.0379 204.987 73.8998 201.752 69.7872C200.8 68.7351 199.088 68.0656 196.994 68.0656Z" fill="#231F20"/>
<path d="M196.042 72.9441L193.569 75.3351C193.378 75.5264 193.378 75.5264 193.569 75.5264C194.52 75.6221 195.376 76.1959 195.852 77.0567C196.233 77.9175 195.757 79.0652 194.615 80.4042C194.33 80.7868 193.949 81.0737 193.664 81.4562L189.287 81.1693C189.763 80.7867 190.048 80.2129 190.238 79.639C190.238 79.3521 190.143 79.0652 190.048 78.7783H189.953L185.29 83.1778L185.576 83.2735C186.337 83.5604 187.098 83.9429 187.764 84.5168C188.716 85.3776 188.335 86.7166 186.813 88.4381C185.29 90.064 183.483 91.403 181.484 92.2638C179.962 93.0289 178.344 93.4115 176.727 93.5072C175.87 93.5072 175.109 93.5072 174.253 93.5072L172.54 95.1331L169.876 94.2723L171.589 92.6464C171.208 92.3595 170.923 92.0725 170.542 91.7856C169.971 91.1161 169.876 90.1597 170.352 89.2989C170.827 88.2468 171.589 87.2904 172.445 86.5253L175.3 87.0035C174.253 88.1512 173.872 89.1076 174.634 89.6815L179.201 85.2819C178.725 84.995 178.344 84.8037 177.964 84.5168C177.488 84.2299 177.203 83.7517 177.203 83.2735C177.298 82.5083 177.678 81.7432 178.249 81.265C179.106 80.2129 180.152 79.3521 181.199 78.587C183.007 77.3436 185.005 76.3872 187.098 75.8134C187.955 75.6221 188.621 75.5264 189.477 75.3351H189.763L192.236 73.0397L196.042 72.9441ZM177.488 90.5423C178.154 90.5423 178.915 90.4466 179.581 90.2553C180.914 89.7771 182.341 88.6294 182.436 87.8643C182.531 87.1948 181.96 87.0035 181.58 86.6209L177.488 90.5423ZM186.623 78.3957C185.956 78.587 185.29 78.6826 184.72 78.9696C183.292 79.5434 181.865 80.7868 181.96 81.4562C181.96 81.8388 182.341 82.0301 182.721 82.2214L186.623 78.3957Z" fill="white"/>
<path d="M116.116 60.1276L110.217 66.2487C106.03 70.17 110.121 81.2645 119.161 90.9244C128.2 100.584 139.047 105.366 143.139 101.445L149.133 95.3239L116.116 60.1276Z" fill="#B6B6B6"/>
<path d="M139.142 103.549C136.954 103.453 134.766 102.975 132.767 102.018C127.439 99.4361 122.681 95.8974 118.685 91.4978C109.17 81.3598 105.269 70.074 109.741 65.8657L115.64 59.7446C115.735 59.649 115.926 59.5533 116.116 59.5533C116.306 59.5533 116.497 59.649 116.592 59.7446L149.609 94.941C149.895 95.2279 149.895 95.6105 149.609 95.8974L143.71 102.018C142.473 103.071 140.855 103.644 139.142 103.549ZM116.116 61.0836L110.692 66.7265C106.886 70.3609 110.978 81.2641 119.732 90.5414C123.538 94.8453 128.2 98.2884 133.433 100.775C137.62 102.592 141.045 102.688 142.853 101.062L148.372 95.4192L116.116 61.0836Z" fill="#231F20"/>
<path d="M149.137 95.3133C153.269 91.4021 149.229 80.3446 140.113 70.6157C130.998 60.8868 120.259 56.1706 116.128 60.0818C111.996 63.9929 116.036 75.0504 125.151 84.7793C134.266 94.5083 145.005 99.2245 149.137 95.3133Z" fill="#B6B6B6"/>
<path d="M145.137 97.428C139.713 97.428 131.815 92.9329 124.679 85.2815C115.164 75.1434 111.263 63.8576 115.735 59.6494C117.923 57.5453 121.825 57.5453 126.582 59.6494C137.239 65.0053 145.612 73.9957 150.275 84.8989C152.083 89.8723 151.797 93.698 149.609 95.8021C148.372 96.9498 146.754 97.5237 145.137 97.428ZM120.112 59.4581C118.78 59.3625 117.543 59.8407 116.591 60.6058C112.785 64.2402 116.877 75.1434 125.631 84.3251C134.385 93.5067 144.851 98.3845 148.657 94.8457C150.465 93.1241 150.56 89.681 148.943 85.3771C144.375 74.7608 136.288 66.0574 126.011 60.7971C124.108 60.032 122.205 59.5537 120.112 59.4581Z" fill="#231F20"/>
<path d="M145.137 89.4901L142.568 87.1947C142.378 87.0034 142.378 87.0034 142.378 87.1947C142.378 88.1511 141.902 89.1075 141.046 89.5857C140.189 89.9683 139.047 89.6814 137.62 88.6293C137.24 88.3424 136.859 88.0555 136.478 87.7685L136.383 83.369C136.764 83.8472 137.335 84.1341 138.001 84.2298C138.286 84.1341 138.572 84.0385 138.857 83.9428L138.762 83.8472L134.004 79.5433L133.909 79.8302C133.719 80.691 133.338 81.4561 132.863 82.1256C132.006 83.1777 130.674 82.8908 128.961 81.4561C127.249 80.1171 125.821 78.3956 124.775 76.4827C123.918 75.0481 123.347 73.5178 123.157 71.8919C123.062 71.0311 122.967 70.266 122.967 69.4052L121.254 67.7793L121.92 65.0057L123.633 66.536C123.918 66.1534 124.109 65.7708 124.394 65.4839C125.06 64.8144 126.012 64.7188 126.773 65.1013C127.82 65.4839 128.771 66.1534 129.627 66.9185L129.342 69.7878C128.105 68.8314 127.058 68.5444 126.583 69.4052L131.34 73.6135C131.53 73.1353 131.721 72.7527 132.006 72.2745C132.197 71.7963 132.672 71.4137 133.243 71.4137C134.004 71.5094 134.766 71.7963 135.336 72.2745C136.383 73.0396 137.43 73.996 138.286 75.0481C139.713 76.7697 140.76 78.6825 141.521 80.691C141.807 81.4561 141.902 82.2213 142.187 82.9864C142.187 83.0821 142.187 83.1777 142.283 83.2733L144.756 85.5688L145.137 89.4901ZM126.202 72.2745C126.202 72.944 126.392 73.7091 126.678 74.283C127.249 75.622 128.486 76.961 129.342 76.961C130.008 77.0566 130.198 76.4827 130.484 76.0045L126.202 72.2745ZM139.047 80.4997C138.762 79.8302 138.572 79.2564 138.286 78.5869C137.62 77.1522 136.288 75.8132 135.622 76.0045C135.241 76.1002 135.146 76.4827 134.956 76.8653L139.047 80.4997Z" fill="white"/>
<path d="M190.714 313.292C185.957 321.231 191.285 338.829 191.285 338.829L198.326 343.994C208.698 350.593 222.495 347.437 228.965 336.916C235.53 326.491 232.39 312.623 221.924 306.119C221.733 305.928 221.448 305.832 221.163 305.641L213.36 301.815C213.36 301.815 195.377 305.354 190.714 313.292Z" fill="#B6B6B6"/>
<path d="M209.649 347.819C205.558 347.819 201.466 346.672 197.946 344.567L190.905 339.403C190.809 339.307 190.714 339.212 190.619 339.02C190.429 338.255 185.291 321.039 190.143 312.91C194.996 304.78 212.504 301.242 213.265 301.146C213.36 301.146 213.551 301.146 213.646 301.242L221.448 305.067C232.295 311.571 235.816 325.726 229.346 336.629C225.254 343.611 217.832 347.819 209.649 347.819ZM191.856 338.446L198.707 343.42C208.888 349.541 222.209 346.193 228.299 335.96C234.389 325.726 231.058 312.336 220.877 306.215L213.36 302.485C211.362 302.963 195.567 306.502 191.38 313.579C187.003 320.753 191.285 336.438 191.856 338.446Z" fill="#231F20"/>
<path d="M204.892 344.281C217.188 344.281 227.157 334.261 227.157 321.9C227.157 309.54 217.188 299.52 204.892 299.52C192.595 299.52 182.626 309.54 182.626 321.9C182.626 334.261 192.595 344.281 204.892 344.281Z" fill="#B6B6B6"/>
<path d="M204.891 344.855C192.236 344.855 181.96 334.525 182.055 321.805C182.15 309.084 192.331 298.755 204.986 298.851C209.173 298.851 213.264 299.998 216.785 302.102C227.632 308.606 231.153 322.761 224.587 333.664C220.401 340.646 212.884 344.95 204.891 344.855ZM204.891 300.19C192.997 300.19 183.292 309.849 183.292 321.9C183.292 333.856 192.902 343.611 204.891 343.611C216.785 343.611 226.49 333.951 226.49 321.9C226.49 314.249 222.494 307.267 216.024 303.346C212.693 301.242 208.792 300.19 204.891 300.19Z" fill="#231F20"/>
<path d="M192.427 311.667L195.186 313.388C195.377 313.484 195.472 313.484 195.567 313.293C196.613 312.049 198.041 311.188 199.563 310.615C201.181 310.041 202.893 310.041 204.511 310.71C204.987 310.901 205.367 311.093 205.843 311.284L203.274 315.588C202.608 315.205 201.847 315.014 201.086 315.11C200.515 315.301 199.944 315.397 199.373 315.684V315.779L204.701 319.031C204.796 318.935 204.987 318.744 205.082 318.648C206.033 317.596 207.08 316.736 208.222 315.875C209.935 314.632 212.123 314.44 214.026 315.397C215.834 316.162 217.261 317.596 218.022 319.318C218.688 320.753 218.784 322.379 218.498 323.909C218.308 324.865 218.022 325.822 217.737 326.778L219.83 328.021L217.452 331.943L215.263 330.604C214.597 331.273 213.931 331.943 213.265 332.517C211.933 333.664 210.22 334.334 208.507 334.429C206.985 334.429 205.558 334.047 204.226 333.282L206.795 329.073C208.317 329.934 210.22 329.647 211.457 328.404L205.748 324.961C204.987 325.63 204.321 326.3 203.655 326.969C202.798 327.735 201.752 328.404 200.705 328.691C199.563 328.978 198.326 328.882 197.28 328.5C195.947 328.021 194.71 327.161 193.759 326.013C192.427 324.387 191.856 322.187 192.332 320.083C192.522 319.222 192.807 318.457 193.093 317.596C193.093 317.501 193.188 317.405 193.188 317.31L190.333 315.588L192.427 311.667ZM213.836 324.578C214.121 323.909 214.216 323.048 214.121 322.283C213.836 320.944 212.694 319.987 211.362 320.083C210.41 320.37 209.554 320.848 208.983 321.518L213.836 324.578ZM196.613 319.605C196.518 320.274 196.518 320.944 196.518 321.613C196.613 322.952 197.85 324.004 199.183 323.909C199.278 323.909 199.468 323.909 199.563 323.813C200.229 323.526 200.895 323.048 201.371 322.474L196.613 319.605Z" fill="white"/>
<path d="M112.691 308.702C103.652 306.885 88.9033 317.692 88.9033 317.692L86.4293 326.109C83.9554 338.16 91.7578 350.019 103.747 352.506C115.736 354.993 127.535 347.15 130.008 335.099L130.96 326.396C130.96 326.396 121.73 310.615 112.691 308.702Z" fill="#B6B6B6"/>
<path d="M108.314 353.654C106.791 353.654 105.174 353.462 103.651 353.175C91.2816 350.689 83.289 338.542 85.7629 326.109V326.013L88.2368 317.597C88.2368 317.501 88.332 317.31 88.4271 317.214C88.998 316.736 103.556 306.215 112.691 308.032C121.92 309.945 131.055 325.344 131.435 326.013C131.531 326.109 131.53 326.3 131.53 326.396L130.579 335.099C128.581 345.907 119.161 353.654 108.314 353.654ZM89.4738 318.17L87.095 326.3C84.7162 338.064 92.2331 349.445 103.937 351.836C115.64 354.228 126.963 346.672 129.342 334.908L130.294 326.491C129.247 324.674 120.683 310.997 112.5 309.276C104.508 307.745 91.1865 316.927 89.4738 318.17Z" fill="#231F20"/>
<path d="M109.36 347.437C121.656 347.437 131.625 337.417 131.625 325.057C131.625 312.696 121.656 302.676 109.36 302.676C97.0628 302.676 87.0942 312.696 87.0942 325.057C87.0942 337.417 97.0628 347.437 109.36 347.437Z" fill="#B6B6B6"/>
<path d="M109.455 348.107C107.932 348.107 106.315 347.915 104.792 347.628C92.4228 345.046 84.4301 332.899 86.904 320.466C89.4731 308.032 101.557 299.999 113.927 302.485C126.297 305.068 134.289 317.214 131.815 329.648C129.627 340.36 120.302 348.011 109.455 348.107ZM109.36 303.346C97.4658 303.346 87.7604 313.102 87.8555 325.057C87.8555 337.012 97.5609 346.768 109.455 346.672C119.731 346.672 128.485 339.403 130.578 329.361C132.957 317.597 125.44 306.215 113.832 303.729C112.309 303.537 110.787 303.346 109.36 303.346Z" fill="#231F20"/>
<path d="M114.784 309.849C114.594 310.901 114.403 311.953 114.118 313.006C114.118 313.197 114.118 313.292 114.308 313.388C115.831 314.058 117.068 315.014 118.114 316.257C119.161 317.596 119.732 319.222 119.637 320.944C119.637 321.422 119.542 321.9 119.542 322.378L114.689 321.326C114.784 320.561 114.689 319.796 114.403 319.127C114.118 318.648 113.737 318.17 113.357 317.692H113.262L112.025 323.813L112.5 324.004C113.737 324.578 114.974 325.248 116.116 326.013C117.829 327.256 118.78 329.265 118.495 331.369C118.4 333.282 117.543 335.099 116.116 336.438C114.974 337.49 113.452 338.159 111.929 338.351C110.978 338.446 109.931 338.446 108.98 338.542L108.504 340.933L104.032 339.977L104.508 337.49C103.651 337.012 102.795 336.725 102.034 336.247C100.511 335.386 99.2744 334.047 98.6083 332.421C98.0374 330.986 97.9422 329.456 98.3228 328.021L103.176 328.978C102.89 330.699 103.842 332.421 105.364 333.186C105.84 330.986 106.22 328.786 106.696 326.587C105.84 326.108 104.983 325.726 104.127 325.248C103.08 324.674 102.224 323.909 101.558 322.952C100.892 321.996 100.606 320.753 100.606 319.605C100.606 318.17 100.987 316.736 101.748 315.397C102.89 313.579 104.698 312.336 106.886 312.049C107.743 311.953 108.599 311.953 109.456 311.953H109.741L110.407 308.606L114.784 309.849ZM109.836 334.429C110.597 334.525 111.359 334.334 112.025 333.951C113.166 333.282 113.642 331.847 113.166 330.604C112.595 329.839 111.834 329.169 110.978 328.786L109.836 334.429ZM108.789 316.449C108.123 316.544 107.552 316.736 106.886 316.927C105.649 317.501 105.079 318.935 105.649 320.179C105.745 320.274 105.745 320.466 105.84 320.561C106.316 321.135 106.982 321.613 107.648 321.9L108.789 316.449Z" fill="white"/>
<path d="M178.154 143.815C175.87 137.311 171.683 128.225 165.879 125.164C156.554 120.191 136.668 127.268 136.668 127.268L131.244 135.685C129.912 138.172 128.961 140.945 128.58 143.815H178.154Z" fill="#B6B6B6"/>
<path d="M178.154 144.484H128.486C128.295 144.484 128.105 144.388 128.01 144.293C127.915 144.101 127.82 143.91 127.82 143.719C128.295 140.85 129.247 137.98 130.579 135.398L136.098 126.886C136.193 126.79 136.288 126.695 136.478 126.599C137.335 126.312 156.745 119.426 166.165 124.495C172.065 127.651 176.251 136.641 178.725 143.528C178.82 143.719 178.821 144.006 178.63 144.101C178.63 144.388 178.44 144.484 178.154 144.484ZM129.342 143.145H177.203C174.729 136.546 170.828 128.607 165.595 125.738C157.126 121.147 139.238 127.077 137.144 127.842L131.816 136.068C130.674 138.267 129.818 140.658 129.342 143.145Z" fill="#231F20"/>
<path d="M182.436 143.815C183.388 129.66 172.731 117.418 158.648 116.461C144.566 115.505 132.387 126.217 131.435 140.372C131.34 141.519 131.34 142.667 131.435 143.815H182.436Z" fill="#B6B6B6"/>
<path d="M182.435 144.484H131.339C130.959 144.484 130.673 144.197 130.673 143.91C129.722 129.372 140.569 116.748 155.032 115.791C169.495 114.835 182.055 125.738 183.006 140.276C183.101 141.519 183.101 142.667 183.006 143.91C183.006 144.197 182.816 144.484 182.435 144.484ZM132.005 143.145H181.769C182.34 129.277 171.683 117.608 157.981 117.035C144.28 116.461 132.576 127.173 132.005 140.945C131.91 141.71 131.91 142.38 132.005 143.145Z" fill="#231F20"/>
<path d="M150.845 140.754C151.606 141.519 152.463 142.284 153.224 143.145C153.129 143.336 153.034 143.528 152.843 143.815H162.359C161.788 143.241 161.122 142.667 160.551 142.093L160.075 141.71L163.5 135.302H163.595C163.881 135.972 164.166 136.546 164.357 137.215C164.547 138.076 164.357 138.937 163.976 139.702L169.019 142.476C169.209 141.902 169.4 141.423 169.59 140.945C170.256 139.032 170.161 137.024 169.4 135.207C168.639 133.485 167.592 131.955 166.069 130.807C165.879 130.616 165.879 130.52 165.974 130.329C166.545 129.277 167.116 128.129 167.782 127.077L163.12 124.59L161.312 128.034C161.217 128.034 161.122 127.938 160.931 127.938C159.98 127.651 159.028 127.364 158.077 127.268C155.603 126.886 153.224 127.651 151.321 129.277C150.084 130.425 149.133 131.859 148.657 133.485C148.181 134.824 148.181 136.163 148.562 137.502C149.228 138.65 149.894 139.893 150.845 140.754ZM156.745 132.337C157.506 132.242 158.267 132.242 159.028 132.337L155.983 138.076C155.317 137.502 154.746 136.833 154.366 135.972C153.89 134.442 154.746 132.816 156.269 132.433C156.459 132.337 156.649 132.337 156.745 132.337Z" fill="white"/>
<path d="M190.047 144.484H123.156C122.776 144.484 122.49 144.197 122.49 143.815C122.49 143.432 122.776 143.145 123.156 143.145H190.047C190.428 143.145 190.713 143.432 190.713 143.815C190.713 144.197 190.428 144.484 190.047 144.484Z" fill="#231F20"/>
</svg>
