<svg width="483" height="400" viewBox="0 0 483 400" fill="none" xmlns="http://www.w3.org/2000/svg">
<g clip-path="url(#clip0_20_12)">
<path opacity="0.18" d="M482.863 288.95C481.923 305.49 480.003 322.29 473.343 337.45C461.173 365.18 434.023 384.34 404.933 392.77C397.543 394.89 389.993 396.46 382.373 397.46C360.093 400.48 337.173 399.16 314.783 396.4C295.563 394.03 276.463 390.59 257.273 387.96C246.463 386.53 235.613 385.24 224.733 384.6C203.903 383.38 183.023 384.3 162.203 385.8C161.233 385.8 160.243 385.93 159.343 386.01C140.423 387.44 121.213 389.26 102.493 386.97C98.163 386.46 93.863 385.7 89.623 384.68C87.443 384.17 85.283 383.56 83.143 382.88C61.623 376.06 42.753 361.75 26.153 346.98C9.06297 331.78 1.06297 308.22 0.282973 285.82C-0.637027 259.45 -4.20702 215.43 85.243 143.22C104.033 127.98 102.443 98.11 111.383 75.6C124.253 43.33 150.623 15.8 183.753 5.31999C198.053 0.769994 213.253 -0.590007 228.283 -0.400007C247.393 -0.240007 266.403 2.25 284.903 7.01C319.853 15.95 361.313 34.09 387.663 61.96C392.223 66.74 396.333 71.92 399.963 77.45C422.413 111.88 419.883 156.68 442.983 190.9C452.993 205.67 467.293 217.42 475.243 233.4C483.723 250.27 483.953 270.05 482.863 288.95Z" fill="#8D8D8D"/>
<path d="M162.203 385.81C161.233 385.81 160.243 385.94 159.343 386.02C140.423 387.45 121.213 389.27 102.493 386.98C98.163 386.47 93.863 385.71 89.623 384.69C87.443 384.18 85.283 383.57 83.143 382.89C81.223 321.89 133.603 241.1 139.983 231.41L159.613 232.24L221.653 234.86C165.563 288.11 160.293 352.15 162.203 385.81Z" fill="#8D8D8D"/>
<path d="M161.433 230.47C160.803 231.06 160.193 231.64 159.593 232.24C102.053 288.29 99.713 355.57 102.423 386.95C98.093 386.44 93.793 385.68 89.553 384.66C87.373 384.15 85.213 383.54 83.073 382.86C81.233 321.89 133.603 241.1 139.983 231.41L140.623 230.47H161.423H161.433Z" fill="#8D8D8D"/>
<path d="M63.653 84.4501L70.943 76.8201L244.263 84.4501L284.553 227.21L277.263 234.84H96.3029L63.653 84.4501Z" fill="#8D8D8D"/>
<path d="M63.653 84.4501L70.943 76.8201L244.263 84.4501L284.553 227.21L277.263 234.84H96.3029L63.653 84.4501Z" fill="url(#paint0_linear_20_12)"/>
<path d="M70.943 76.8201H251.553L284.553 227.21H103.593L70.943 76.8201Z" fill="#8D8D8D"/>
<path d="M78.243 81.95H246.523L277.263 222.08H108.653L78.243 81.95Z" fill="white"/>
<path opacity="0.18" d="M119.703 109.66C121.203 107.73 123.093 106.12 125.253 104.96C127.713 103.49 130.423 102.48 133.243 101.97C140.643 101.02 148.023 103.88 152.843 109.56C157.553 115.28 159.993 122.54 159.703 129.95C161.683 129.28 163.873 130.1 164.903 131.92C165.843 133.73 166.193 135.79 165.903 137.81C165.873 139.5 165.383 141.16 164.473 142.59C163.513 144.03 161.753 144.71 160.073 144.29C161.063 148.51 160.073 152.95 157.383 156.34C156.263 157.77 154.823 159.04 154.523 160.8C154.233 163 155.953 165 158.013 165.96C160.103 166.71 162.233 167.34 164.393 167.83C169.073 169.63 172.913 173.09 175.193 177.55C177.433 181.98 179.103 186.67 180.183 191.52C180.443 192.49 180.643 193.68 179.893 194.38C179.363 194.76 178.703 194.94 178.053 194.88L121.413 196.64C120.773 190.08 120.393 182.66 124.813 177.75C128.233 173.98 133.603 172.82 138.613 171.84C138.553 168.95 137.873 166.1 136.623 163.49C136.303 162.68 135.763 161.96 135.063 161.43C134.303 161.04 133.493 160.77 132.643 160.64C127.083 159.21 124.063 153.22 122.633 147.66C122.453 146.65 122.093 145.68 121.573 144.8C120.753 143.79 119.713 142.99 118.543 142.44C111.633 138.48 110.193 134.06 115.173 128.14C119.653 123.04 115.343 115.63 119.693 109.64L119.703 109.66Z" fill="#8D8D8D"/>
<path opacity="0.32" d="M16.193 31.63L40.003 149.5H111.113L90.963 31.63H16.193Z" fill="#8D8D8D"/>
<path opacity="0.32" d="M37.973 192.19L61.763 310.07H132.873L112.733 192.19H37.973Z" fill="#8D8D8D"/>
<path opacity="0.32" d="M183.023 31.63L206.813 149.5H277.923L257.773 31.63H183.023Z" fill="#8D8D8D"/>
<path d="M190.553 19.53L214.353 137.4H285.453L265.313 19.53H190.553Z" fill="url(#paint1_linear_20_12)"/>
<path d="M29.033 34.85L50.053 138.96H112.853L95.073 34.85H29.033Z" fill="url(#paint2_linear_20_12)"/>
<path d="M43.293 187.02L67.083 304.88H138.193L118.043 187.02H43.293Z" fill="url(#paint3_linear_20_12)"/>
<path d="M304.513 100.98C302.173 105.27 302.893 110.45 301.863 115.18C301.553 116.52 301.163 117.84 300.693 119.13C298.893 124.31 296.613 129.63 292.283 132.99C290.953 133.76 289.843 134.88 289.093 136.22C288.653 137.63 288.923 139.18 289.823 140.35C290.733 141.47 291.813 142.43 293.023 143.21C292.783 145.68 292.853 148.61 292.593 151.07C292.033 156.52 291.673 162.65 295.283 166.8C298.143 169.99 302.543 171.09 306.723 171.58C310.903 172.07 315.303 172.32 319.053 174.44C326.943 178.83 329.063 189.98 336.913 194.46C339.253 195.7 341.813 196.45 344.453 196.68C350.013 197.47 355.683 196.42 360.593 193.71C365.383 190.85 381.053 186.19 376.803 182.57C372.173 178.64 365.063 167.48 361.743 161.55C358.053 154.95 355.543 147.76 354.323 140.3C353.323 134.08 353.223 127.76 352.293 121.54C351.363 115.32 349.433 109.03 345.443 104.2C339.423 97.05 329.583 94.19 320.233 93.66C317.623 93.4 314.983 93.59 312.443 94.23C309.863 94.88 307.673 96.58 306.393 98.91" fill="#666666"/>
<path d="M396.653 130.21C396.283 133.52 395.373 136.74 393.953 139.75C393.133 141.78 391.973 143.65 390.503 145.27C387.643 147.82 387.553 152.12 385.803 155.48C384.603 157.63 382.933 159.48 380.923 160.9C372.763 166.92 362.133 168.49 352.583 165.06L351.153 164.52C346.953 162.56 342.973 160.16 339.273 157.37C339.043 157.22 338.853 157 338.733 156.76C338.493 156.16 339.003 155.56 339.463 155.09C342.513 151.96 344.193 147.74 344.123 143.37C344.193 141.52 343.623 139.7 342.503 138.22C341.313 136.75 339.253 136.3 337.553 137.13C336.123 137.95 334.693 139.89 333.463 138.85C333.103 138.46 332.883 137.95 332.833 137.42C332.423 134.24 331.583 131.12 330.333 128.17C328.653 125.32 326.583 122.71 324.183 120.42C318.613 114.28 314.133 107.23 310.943 99.57C310.753 98.88 310.323 98.28 309.743 97.87C309.193 97.63 308.593 97.55 308.003 97.64C305.393 97.79 302.783 97.74 300.183 97.5C298.853 97.5 297.573 97.06 296.523 96.24C294.753 94.54 295.553 91.51 296.983 89.52C300.233 84.96 305.653 82.57 310.813 80.41C309.483 79.54 307.383 77.62 306.053 76.75C305.593 76.51 305.223 76.13 304.993 75.66C304.703 74.77 305.563 73.92 306.423 73.49C307.923 72.73 309.613 72.46 311.273 72.7C311.033 68.75 306.793 65.09 308.413 61.49C309.513 59.12 312.703 58.5 315.243 59.13C317.783 59.76 319.993 61.32 322.463 62.15C323.023 60.42 321.473 58.62 321.763 56.82C322.073 55.5 323.113 54.48 324.433 54.19C325.753 53.93 327.113 54.01 328.393 54.42C331.383 55.22 334.163 56.69 336.513 58.71C337.883 60.16 339.443 61.44 341.133 62.5C344.483 64.23 348.493 63.27 352.253 63.27C356.683 63.45 361.053 64.44 365.123 66.2C367.823 67.21 370.473 68.38 373.043 69.69C376.473 71.4 379.683 73.53 382.583 76.04C389.903 82.47 394.483 91.64 396.493 101.16C398.293 110.76 398.343 120.61 396.653 130.23V130.21Z" fill="#272727"/>
<path d="M209.583 279.8C209.343 281.85 208.073 283.65 206.223 284.56C203.593 286.1 200.373 286.19 197.313 286.23C195.193 286.42 193.053 286.14 191.053 285.41C189.343 284.49 187.813 283.27 186.523 281.82C179.083 274.67 169.203 269.25 165.523 259.66C163.733 255 163.653 249.89 163.593 244.93C163.593 239.65 163.593 233.86 167.093 229.9C169.823 226.77 174.343 225.18 176.113 221.42C173.133 219.74 170.423 217.61 168.073 215.11C165.733 212.55 164.683 209.07 165.213 205.64C169.353 207.02 173.323 208.88 177.043 211.17C190.733 219.63 200.413 233.27 203.863 248.99C205.293 255.87 205.433 263.02 207.323 269.81C208.163 272.96 209.953 276.62 209.583 279.78V279.8Z" fill="#666666"/>
<path d="M209.583 279.8C208.903 280.1 208.293 280.55 207.793 281.1C205.863 283.96 201.103 283.23 198.673 280.73C196.243 278.23 195.303 274.7 193.643 271.62C189.493 263.83 180.513 257.96 180.543 249.14C180.543 242.32 186.263 236.27 185.743 229.57C185.453 226.02 183.523 223.14 181.453 220.45C179.523 217.61 178.043 214.49 177.063 211.2C190.753 219.66 200.433 233.3 203.883 249.02C205.313 255.9 205.453 263.05 207.343 269.84C208.163 272.99 209.943 276.65 209.573 279.81L209.583 279.8Z" fill="#5B5B5B"/>
<path d="M391.943 372.43C390.183 381.22 387.553 390.32 382.373 397.47C381.633 397.57 380.943 397.67 380.143 397.74C375.683 398.28 371.203 398.67 366.703 398.9C349.353 399.57 331.983 398.74 314.783 396.41C295.563 394.04 276.463 390.6 257.273 387.97C258.173 386.96 259.203 386.07 260.333 385.32C271.943 376.68 279.123 363.34 279.923 348.89C278.783 348.13 277.453 347.7 276.093 347.66C272.463 347.32 267.783 348.1 265.113 347.77C242.893 344.98 186.973 290.46 186.973 290.46L214.753 276.56L256.093 290.46C256.093 290.46 300.543 220.65 318.603 200.62C336.663 180.59 369.233 180.17 369.233 180.17C373.133 180.02 377.033 180.51 380.783 181.6C402.913 188.08 414.323 214.92 415.813 237.64C418.803 282.34 400.573 329.31 391.933 372.42L391.943 372.43Z" fill="white"/>
<path d="M396.653 130.21C396.283 133.52 395.373 136.74 393.953 139.75C393.133 141.78 391.973 143.65 390.503 145.27C387.643 147.82 387.553 152.12 385.803 155.48C384.603 157.63 382.933 159.48 380.923 160.9C372.763 166.92 362.133 168.49 352.583 165.06L351.153 164.52C350.533 163.56 350.053 162.51 349.723 161.42L355.443 161.22C355.333 159.22 354.523 157.31 353.153 155.84L366.183 155.58C369.843 156.01 373.333 153.93 374.693 150.5C376.663 147.44 378.713 144.09 378.383 140.49C378.053 138.37 377.303 136.34 376.193 134.5C373.333 128.91 370.473 123.06 369.673 116.87C368.873 110.68 370.713 103.69 375.703 99.83C376.753 99.18 377.683 98.35 378.453 97.37C379.093 96.2 379.313 94.84 379.083 93.52C378.423 87.54 373.783 82.9 369.403 78.75L359.723 69.53C360.813 70.57 365.753 70.7 367.373 71.22C370.093 72.15 372.763 73.23 375.363 74.45C374.963 73.26 373.933 71.59 373.033 69.67C376.463 71.38 379.673 73.51 382.573 76.02C389.893 82.45 394.473 91.62 396.483 101.14C398.283 110.74 398.343 120.59 396.653 130.21Z" fill="#333333"/>
<path d="M391.943 372.43C390.183 381.22 387.553 390.32 382.373 397.47C381.633 397.57 380.943 397.67 380.143 397.74C360.223 399.73 341.533 401.39 321.743 397.05C318.673 396.38 315.033 395.03 314.493 391.93C314.383 390.14 314.843 388.35 315.813 386.84C329.373 359.47 338.043 327.73 337.673 297.04C330.293 296.11 321.183 310.39 315.813 315.27L296.033 333.2C287.453 340.92 277.583 349.16 266.133 348.26C259.383 347.73 253.353 344.06 247.543 340.48L227.193 327.73C221.203 324 214.693 319.58 213.123 312.69C222.693 313.42 231.063 318.97 239.643 323.24C248.223 327.52 258.563 330.65 267.183 326.46C273.393 323.44 277.333 317.28 281.023 311.46C305.253 273.16 331.813 236.39 360.563 201.36C367.493 192.91 368.653 180.31 380.813 181.67C402.943 188.15 414.353 214.99 415.843 237.71C418.793 282.35 400.553 329.32 391.923 372.43H391.943Z" fill="url(#paint4_linear_20_12)"/>
</g>
<defs>
<linearGradient id="paint0_linear_20_12" x1="205.883" y1="107.7" x2="39.843" y2="359.17" gradientUnits="userSpaceOnUse">
<stop stop-color="#231F20"/>
<stop offset="0.13" stop-color="#231F20" stop-opacity="0.69"/>
<stop offset="0.25" stop-color="#231F20" stop-opacity="0.32"/>
<stop offset="1" stop-color="#231F20" stop-opacity="0"/>
</linearGradient>
<linearGradient id="paint1_linear_20_12" x1="173.323" y1="29.46" x2="833.253" y2="515.73" gradientUnits="userSpaceOnUse">
<stop stop-color="white"/>
<stop offset="0.13" stop-color="white" stop-opacity="0.69"/>
<stop offset="0.15" stop-color="white" stop-opacity="0.61"/>
<stop offset="0.2" stop-color="white" stop-opacity="0.47"/>
<stop offset="0.25" stop-color="white" stop-opacity="0.34"/>
<stop offset="0.3" stop-color="white" stop-opacity="0.23"/>
<stop offset="0.36" stop-color="white" stop-opacity="0.15"/>
<stop offset="0.44" stop-color="white" stop-opacity="0.08"/>
<stop offset="0.52" stop-color="white" stop-opacity="0.03"/>
<stop offset="0.65" stop-color="white" stop-opacity="0"/>
<stop offset="1" stop-color="white" stop-opacity="0"/>
</linearGradient>
<linearGradient id="paint2_linear_20_12" x1="13.813" y1="43.61" x2="596.753" y2="473.16" gradientUnits="userSpaceOnUse">
<stop stop-color="white"/>
<stop offset="0.13" stop-color="white" stop-opacity="0.69"/>
<stop offset="0.15" stop-color="white" stop-opacity="0.61"/>
<stop offset="0.2" stop-color="white" stop-opacity="0.47"/>
<stop offset="0.25" stop-color="white" stop-opacity="0.34"/>
<stop offset="0.3" stop-color="white" stop-opacity="0.23"/>
<stop offset="0.36" stop-color="white" stop-opacity="0.15"/>
<stop offset="0.44" stop-color="white" stop-opacity="0.08"/>
<stop offset="0.52" stop-color="white" stop-opacity="0.03"/>
<stop offset="0.65" stop-color="white" stop-opacity="0"/>
<stop offset="1" stop-color="white" stop-opacity="0"/>
</linearGradient>
<linearGradient id="paint3_linear_20_12" x1="26.063" y1="196.94" x2="685.993" y2="683.21" gradientUnits="userSpaceOnUse">
<stop stop-color="white"/>
<stop offset="0.13" stop-color="white" stop-opacity="0.69"/>
<stop offset="0.15" stop-color="white" stop-opacity="0.61"/>
<stop offset="0.2" stop-color="white" stop-opacity="0.47"/>
<stop offset="0.25" stop-color="white" stop-opacity="0.34"/>
<stop offset="0.3" stop-color="white" stop-opacity="0.23"/>
<stop offset="0.36" stop-color="white" stop-opacity="0.15"/>
<stop offset="0.44" stop-color="white" stop-opacity="0.08"/>
<stop offset="0.52" stop-color="white" stop-opacity="0.03"/>
<stop offset="0.65" stop-color="white" stop-opacity="0"/>
<stop offset="1" stop-color="white" stop-opacity="0"/>
</linearGradient>
<linearGradient id="paint4_linear_20_12" x1="805.613" y1="242.88" x2="-210.187" y2="354.32" gradientUnits="userSpaceOnUse">
<stop stop-color="#231F20"/>
<stop offset="0.13" stop-color="#231F20" stop-opacity="0.69"/>
<stop offset="0.25" stop-color="#231F20" stop-opacity="0.32"/>
<stop offset="1" stop-color="#231F20" stop-opacity="0"/>
</linearGradient>
<clipPath id="clip0_20_12">
<rect width="483" height="400" fill="white"/>
</clipPath>
</defs>
</svg>
