<svg width="600" height="515" viewBox="0 0 600 515" fill="none" xmlns="http://www.w3.org/2000/svg">
<path d="M299.972 494.944C431.4 494.944 537.944 388.4 537.944 256.972C537.944 125.544 431.4 19 299.972 19C168.544 19 62 125.544 62 256.972C62 388.4 168.544 494.944 299.972 494.944Z" fill="#BBBBBB"/>
<path d="M499.381 280.695C486.272 390.845 386.378 469.501 276.239 456.392C166.099 443.283 87.4531 343.379 100.563 233.249C113.672 123.12 213.565 44.4532 323.705 57.5626C433.845 70.672 512.491 170.576 499.381 280.695Z" fill="#B8B8B8"/>
<path d="M499.381 280.695C486.272 390.845 386.378 469.501 276.239 456.392C166.099 443.283 87.4531 343.379 100.563 233.249C113.672 123.12 213.565 44.4532 323.705 57.5626C433.845 70.672 512.491 170.576 499.381 280.695Z" fill="url(#paint0_linear_23_61)"/>
<path d="M299.553 434.777C302.143 434.777 304.24 436.875 304.24 439.465V446.062C304.24 448.652 302.143 450.75 299.553 450.75C296.962 450.75 294.865 448.652 294.865 446.062V439.465C294.865 436.875 296.962 434.777 299.553 434.777Z" fill="white"/>
<path d="M410.112 88.9936C400.799 86.5081 391.318 84.6832 381.743 83.5506C271.603 70.4412 171.71 149.098 158.6 259.237C149.581 334.905 184.158 409.156 247.88 450.949C152.958 425.59 88.6067 333.667 100.562 233.249C113.672 123.109 213.565 44.4532 323.705 57.5625C354.559 61.1912 384.145 71.9514 410.112 88.9936Z" fill="url(#paint1_linear_23_61)"/>
<path d="M299.553 64.5892C302.143 64.5892 304.24 66.6867 304.24 69.2771V75.8737C304.24 78.4641 302.143 80.5616 299.553 80.5616C296.962 80.5616 294.865 78.4641 294.865 75.8737V69.2771C294.865 66.6867 296.962 64.5892 299.553 64.5892Z" fill="white"/>
<path d="M299.553 434.777C302.143 434.777 304.24 436.875 304.24 439.465V446.062C304.24 448.652 302.143 450.75 299.553 450.75C296.962 450.75 294.865 448.652 294.865 446.062V439.465C294.865 436.875 296.962 434.777 299.553 434.777Z" fill="white"/>
<path d="M163.026 121.148C164.861 119.313 167.819 119.313 169.654 121.148L174.321 125.815C176.157 127.651 176.157 130.608 174.321 132.443C172.486 134.279 169.528 134.279 167.693 132.443L163.026 127.776C161.191 125.941 161.191 122.984 163.026 121.148Z" fill="white"/>
<path d="M431.418 382.908C429.587 381.078 426.619 381.078 424.788 382.908C422.957 384.739 422.957 387.707 424.788 389.538L429.452 394.203C431.283 396.033 434.251 396.033 436.082 394.203C437.913 392.372 437.913 389.404 436.082 387.573L431.418 382.908Z" fill="white"/>
<path d="M106.467 257.675C106.467 255.084 108.565 252.987 111.155 252.987H117.752C120.342 252.987 122.44 255.084 122.44 257.675C122.44 260.265 120.342 262.363 117.752 262.363H111.155C108.565 262.363 106.467 260.265 106.467 257.675Z" fill="white"/>
<path d="M487.94 252.976H481.343C478.754 252.976 476.655 255.075 476.655 257.664C476.655 260.253 478.754 262.352 481.343 262.352H487.94C490.529 262.352 492.628 260.253 492.628 257.664C492.628 255.075 490.529 252.976 487.94 252.976Z" fill="white"/>
<path d="M163.026 394.201C161.191 392.366 161.191 389.408 163.026 387.573L167.693 382.906C169.528 381.071 172.486 381.071 174.321 382.906C176.157 384.741 176.157 387.699 174.321 389.534L169.654 394.201C167.819 396.036 164.861 396.036 163.026 394.201Z" fill="white"/>
<path d="M429.456 121.136L424.791 125.801C422.961 127.631 422.961 130.6 424.791 132.43C426.622 134.261 429.59 134.261 431.421 132.43L436.086 127.766C437.916 125.935 437.916 122.967 436.086 121.136C434.255 119.305 431.287 119.305 429.456 121.136Z" fill="white"/>
<path d="M288.292 248.976V107.445C288.292 107.445 290.28 99.8833 296.432 104.362L298.357 246.973L312.847 246.69C312.847 246.69 319.91 211.669 322.421 207.746C324.932 203.823 336.817 199.555 336.817 199.555C336.817 199.555 336.723 194.29 335.436 192.748C334.149 191.206 331.083 187.986 331.659 186.591C332.234 185.196 332.862 183.864 332.862 183.864C332.862 183.864 331.094 176.082 331.795 173.984C331.795 173.984 335.038 165.908 335.436 165.341C336.147 164.104 337.717 163.674 338.962 164.377C339.098 164.45 339.223 164.544 339.338 164.639C341.619 166.086 346.118 174.75 346.118 174.75C346.118 174.75 351.579 179.721 352.008 184.839C352.437 189.958 347.29 198.422 347.29 198.422L355.231 201.757C355.231 201.757 374.095 210.515 375.528 212.76C376.972 215.004 374.806 218.728 374.806 218.728L356.267 219.032L349.654 228.828L350.523 244.057L362.691 250.581C362.691 250.581 364.511 254.22 364.019 255.07C363.538 255.919 407.292 256.339 407.292 256.339V261.845C407.292 261.845 406.947 264.551 403.4 264.667C399.853 264.782 367.315 264.667 367.315 264.667L364.814 279.592L364.919 288.832L373.854 298.272C373.854 298.272 374.388 302.257 371.971 301.964C369.554 301.67 357.731 295.87 357.585 291.297V275.375L355.649 263.041L347.353 256.958L340.97 260.555L337.989 279.98L338.784 294.359V298.345L334.379 307.931C334.379 307.931 331.784 308.403 331.784 303.547C331.784 298.691 335.478 293.09 335.478 293.09C334.62 290.72 333.375 288.507 331.784 286.546C329.556 284.123 324.523 259.276 324.523 259.276L290.374 261.751L288.292 248.945V248.976Z" fill="url(#paint2_linear_23_61)"/>
<path d="M299.972 269.861C307.091 269.861 312.861 264.09 312.861 256.972C312.861 249.854 307.091 244.083 299.972 244.083C292.854 244.083 287.083 249.854 287.083 256.972C287.083 264.09 292.854 269.861 299.972 269.861Z" fill="#808080"/>
<path d="M299.972 269.861C307.091 269.861 312.861 264.09 312.861 256.972C312.861 249.854 307.091 244.083 299.972 244.083C292.854 244.083 287.083 249.854 287.083 256.972C287.083 264.09 292.854 269.861 299.972 269.861Z" fill="url(#paint3_linear_23_61)"/>
<path d="M299.553 99.8062C302.143 99.8062 304.24 101.904 304.24 104.494V260.569H294.833V104.494C294.833 101.904 296.931 99.8062 299.521 99.8062H299.553Z" fill="#231F20"/>
<path d="M299.06 252.2H404.962C407.28 252.2 409.147 254.077 409.147 256.385C409.147 258.692 407.27 260.569 404.962 260.569H299.06C296.742 260.569 294.875 258.692 294.875 256.385C294.875 254.077 296.752 252.2 299.06 252.2Z" fill="#231F20"/>
<path d="M347.113 298.943C346.799 300.527 346.096 302.005 345.079 303.253C344.051 304.543 342.918 305.739 341.681 306.83C340.926 307.606 340.024 308.224 339.017 308.633C337.979 309.021 336.804 308.77 336.028 307.973C335.346 306.976 335.346 305.665 336.028 304.669C336.731 303.715 337.57 302.876 338.524 302.184C340.674 300.359 342.121 298.052 344.062 296.069C346.348 293.731 347.46 296.919 347.113 298.953V298.943Z" fill="#B8B8B8"/>
<path d="M362.782 291.34C363.809 292.902 365.194 294.203 366.83 295.115C368.487 296.069 370.217 296.866 372.011 297.517C373.154 298.052 374.402 298.324 375.66 298.324C376.961 298.324 378.135 297.538 378.649 296.332C378.953 294.958 378.366 293.552 377.192 292.776C376.027 292.053 374.769 291.507 373.437 291.172C370.343 290.112 367.784 288.246 364.848 286.924C361.376 285.372 361.544 289.284 362.771 291.34H362.782Z" fill="#B8B8B8"/>
<path d="M358.01 219.081C358.01 219.081 375.818 226.212 378.754 226.044C381.691 225.877 384.313 223.38 383.369 219.983C382.425 216.585 357.433 203.874 357.433 203.874L358.01 219.081Z" fill="#B8B8B8"/>
<path d="M356.584 219.081C356.584 219.081 374.391 226.212 377.317 226.044C380.243 225.877 382.876 223.381 381.932 219.983C380.988 216.585 356.007 203.832 356.007 203.832L356.573 219.081H356.584Z" fill="url(#paint4_linear_23_61)"/>
<path d="M332.137 242.237C332.001 236.993 332.137 231.75 332.536 226.516C333.06 219.196 330.774 210.313 335.525 204.713C336.92 203.066 343.957 201.808 346.107 201.724C351.224 201.661 357.056 202.447 361.03 206.265C364.124 209.254 361.806 216.532 361.46 220.822C360.8 229.107 361.775 231.98 361.869 238.105C361.932 242.719 361.775 248.246 358.062 251.036C356.017 252.536 350.868 252.42 348.33 252.588C344.848 252.84 338.514 253.7 335.315 252.032C332.305 250.449 332.253 245.163 332.137 242.227V242.237Z" fill="#B8B8B8"/>
<path d="M332.137 242.237C332.001 236.993 332.137 231.75 332.536 226.516C333.06 219.196 330.774 210.313 335.525 204.713C336.92 203.066 343.957 201.808 346.107 201.724C351.224 201.661 357.056 202.447 361.03 206.265C364.124 209.254 361.806 216.532 361.46 220.822C360.8 229.107 361.775 231.98 361.869 238.105C361.932 242.719 361.775 248.246 358.062 251.036C356.017 252.536 350.868 252.42 348.33 252.588C344.848 252.84 338.514 253.7 335.315 252.032C332.305 250.449 332.253 245.163 332.137 242.227V242.237Z" fill="url(#paint5_linear_23_61)"/>
<path d="M333.658 215.116L334.738 227.513C335.252 233.878 339.919 239.143 346.19 240.402C346.516 240.465 346.851 240.517 347.187 240.538C350.805 240.821 356.972 243.852 356.972 243.852L342.698 248.288L335.252 246.054L332.137 246.862L332.473 228.278L333.647 215.127L333.658 215.116Z" fill="url(#paint6_linear_23_61)"/>
<path d="M342.751 204.985C342.855 206.726 343.642 208.362 344.953 209.527C346.033 210.282 347.334 210.649 348.644 210.596C350.134 210.691 351.581 210.093 352.567 208.96C353.563 207.523 353.249 205.552 352.798 203.832C352.577 202.584 351.969 201.441 351.067 200.57C349.62 199.438 346.557 199.333 344.858 199.92C342.908 200.602 342.551 203.234 342.761 204.985H342.751Z" fill="#B8B8B8"/>
<path d="M342.751 204.985C342.855 206.726 343.642 208.362 344.953 209.527C346.033 210.282 347.334 210.649 348.644 210.596C350.134 210.691 351.581 210.093 352.567 208.96C353.563 207.523 353.249 205.552 352.798 203.832C352.577 202.584 351.969 201.441 351.067 200.57C349.62 199.438 346.557 199.333 344.858 199.92C342.908 200.602 342.551 203.234 342.761 204.985H342.751Z" fill="url(#paint7_linear_23_61)"/>
<path d="M338.87 188.363C338.87 187.366 340.013 180.403 336.143 181.913C334.801 182.406 335.325 183.906 335.577 185.185C335.965 187.209 338.891 188.845 338.87 188.363Z" fill="#666666"/>
<path d="M356.542 188.667C356.636 187.671 355.178 180.707 358.922 182.49C360.212 183.119 359.562 184.482 359.195 185.814C358.639 187.786 356.489 189.149 356.552 188.667H356.542Z" fill="#666666"/>
<path d="M344.712 204.471C344.659 205.426 344.827 206.37 345.194 207.251C345.456 207.712 345.792 208.121 346.191 208.478C346.652 209.034 347.271 209.432 347.973 209.61C348.76 209.705 349.536 209.422 350.071 208.834C350.574 208.247 350.92 207.544 351.067 206.789C351.392 205.122 351.445 203.412 351.225 201.734L351.004 198.913C351.004 197.676 350.69 196.459 350.071 195.379C349.515 194.603 348.655 194.099 347.711 193.973C342.803 193.355 344.638 201.724 344.701 204.471H344.712Z" fill="#666666"/>
<path d="M357.59 176.459C357.59 176.459 358.954 195.945 349.054 198.452C339.153 200.958 337.759 184.524 337.486 178.788C337.213 173.051 341.66 168.248 349.054 169.171C352.462 169.601 356.867 171.824 357.59 176.459Z" fill="#666666"/>
<path d="M341.094 164.671C343.002 161.84 347.376 161.525 350.281 163.329C351.613 164.168 352.735 165.322 354.213 165.909C355.273 166.318 356.447 166.381 357.527 166.716C360.862 167.797 362.698 171.373 361.618 174.708C361.24 175.862 360.548 176.889 359.604 177.665C358.524 178.536 357.181 179.05 356.007 179.815C356.007 178.641 354.738 177.508 353.762 176.826C352.756 176.197 351.602 175.851 350.406 175.83L350.711 176.501C349.012 177.036 347.187 177.015 345.498 176.428C343.621 175.778 341.628 174.435 339.825 175.295C338.954 175.715 338.063 176.617 337.203 176.176C336.72 175.83 336.427 175.274 336.416 174.687C335.85 170.901 338.849 167.923 341.094 164.682V164.671Z" fill="#231F20"/>
<path d="M335.535 204.723C331.435 206.202 328.33 209.61 327.24 213.826C325.467 220.926 319.091 249.001 319.091 249.001C319.091 249.001 325.216 249.694 327.313 249.285L333.396 224.408C333.396 224.408 333.144 209.642 335.546 204.723H335.535Z" fill="#B8B8B8"/>
<path d="M335.535 204.723C331.435 206.202 328.33 209.61 327.24 213.826C325.467 220.926 319.091 249.001 319.091 249.001C319.091 249.001 325.216 249.694 327.313 249.285L333.396 224.408C333.396 224.408 333.144 209.642 335.546 204.723H335.535Z" fill="url(#paint8_linear_23_61)"/>
<path d="M338.524 288.655L340.517 294.349C340.517 294.349 341.775 296.688 343.684 294.958C343.684 294.958 344.324 294.307 344.45 292.095L342.761 287.04L338.535 288.665L338.524 288.655Z" fill="#666666"/>
<path d="M335.241 303.484C335.231 303.998 335.346 304.501 335.598 304.952C336.122 305.665 336.972 306.085 337.853 306.054C339.426 306.033 340.926 305.403 342.037 304.302C343.139 303.201 344.03 301.921 344.68 300.516C345.11 299.761 345.414 298.943 345.603 298.093C345.991 296.101 345.184 294.014 344.397 292.126C344.691 292.839 340.58 293.374 340.202 293.374C338.587 293.374 338.807 294.37 338.272 295.702C337.255 298.251 335.21 300.59 335.231 303.484H335.241Z" fill="#231F20"/>
<path d="M376.006 253.176C374.695 263.946 369.756 279.394 369.536 279.394C368.455 279.09 363.568 280.317 362.457 279.898C361.88 279.667 361.544 268.204 361.859 262.237C361.964 260.244 361.964 254.172 361.964 252.2L348.319 252.599L345.603 252.766C345.624 255.336 345.414 257.905 344.974 260.433C343.516 271.078 342.037 276.353 342.551 287.05C342.478 288.791 338.776 289.504 337.517 288.162C331.854 282.111 331.476 275.713 330.312 267.501C329.536 262.027 326.988 242.017 334.056 240.528C335.095 240.297 336.164 240.202 337.234 240.265C338.902 240.381 342.142 240.475 343.202 241.901C343.558 242.08 350.7 245.666 356.73 243.831L363.096 237.266C364.9 235.001 368.015 234.246 370.647 235.441C373.133 236.616 375.021 239.426 375.818 242.636C376.615 245.845 376.405 249.652 375.975 253.165L376.006 253.176Z" fill="#B8B8B8"/>
<path d="M361.995 287.501C361.932 287.942 361.964 288.393 362.09 288.823C362.278 289.232 362.572 289.599 362.939 289.871C365.939 292.504 369.515 294.402 373.374 295.409C374.192 295.681 375.084 295.681 375.912 295.409C377.202 294.675 377.737 293.091 377.16 291.728C376.552 290.427 375.577 289.326 374.36 288.56C373.143 287.805 372.074 286.819 371.214 285.676C370.91 284.984 370.448 284.386 369.85 283.925C369.368 283.726 368.854 283.642 368.34 283.684C367.176 283.684 363.778 283.159 362.824 283.778C361.869 284.397 362.048 286.274 361.985 287.512L361.995 287.501Z" fill="#231F20"/>
<path d="M362.614 279.908L363.17 284.669C364.061 285.467 365.089 286.096 366.211 286.505C367.197 286.809 368.246 286.253 368.55 285.267C368.602 285.089 368.634 284.9 368.634 284.722V284.334L368.917 279.363L362.614 279.929V279.908Z" fill="#666666"/>
<path d="M382.226 219.993L355.472 214.393L354.255 221.64C354.255 221.64 376.332 231.215 379.981 228.404C383.631 225.593 383.82 221.797 382.226 219.993Z" fill="#B8B8B8"/>
<path d="M382.226 219.993L355.472 214.393L354.255 221.64C354.255 221.64 376.332 231.215 379.981 228.404C383.631 225.593 383.82 221.797 382.226 219.993Z" fill="url(#paint9_linear_23_61)"/>
<path d="M355.315 215.263C355.315 215.263 346.463 211.278 343.065 211.519C339.667 211.76 339.73 214.172 339.73 214.172V216.815C339.699 217.885 340.317 218.86 341.293 219.29C342.226 219.72 343.254 219.899 344.282 219.804C346.442 219.479 346.883 218.367 346.883 218.367C346.883 218.367 348.802 220.297 349.987 219.846C351.455 219.238 353.091 219.165 354.612 219.626L355.315 215.242V215.263Z" fill="#666666"/>
<path d="M353.301 214.036L352.242 219.93L354.318 220.224L355.241 214.477L353.301 214.036Z" fill="#231F20"/>
<path d="M353.301 214.036L352.986 215.871L354.948 216.207L355.241 214.477L353.301 214.036Z" fill="#231F20"/>
<path d="M352.652 212.963L352.453 213.982L356.19 214.711L356.389 213.692L352.652 212.963Z" fill="#B8B8B8"/>
<path d="M352.652 212.963L352.453 213.982L356.19 214.711L356.389 213.692L352.652 212.963Z" fill="url(#paint10_linear_23_61)"/>
<path d="M338.87 177.068C338.776 179.69 338.482 182.29 338 184.87C338.031 184.157 337.958 183.455 337.779 182.762C337.727 182.469 337.601 182.207 337.402 181.986C337.192 181.766 336.857 181.724 336.605 181.892C336.731 180.497 336.175 179.123 336.217 177.718C336.238 176.69 336.594 175.704 337.213 174.897C337.245 174.844 337.287 174.813 337.329 174.792C337.391 174.771 337.454 174.771 337.517 174.792C338.44 175.148 338.996 176.103 338.86 177.078L338.87 177.068Z" fill="#231F20"/>
<path d="M356.846 185.94L357.517 182.794C357.517 182.605 357.611 182.374 357.811 182.311C358.01 182.248 358.02 182.311 358.104 182.217C358.146 182.175 358.167 182.112 358.188 182.06L358.996 179.501C359.111 179.102 359.237 178.714 359.321 178.305C359.373 178.116 359.373 177.928 359.321 177.739C359.247 177.519 359.09 177.34 358.891 177.235C358.178 176.753 357.213 176.942 356.73 177.655C356.709 177.686 356.688 177.718 356.667 177.76C356.332 178.295 356.279 178.955 356.51 179.543C357.003 181.64 357.118 183.801 356.856 185.94H356.846Z" fill="#231F20"/>
<path d="M352.63 212.987L352.965 212.788L356.143 213.396L356.374 213.711L352.63 212.987Z" fill="#B8B8B8"/>
<path d="M352.63 212.987L352.965 212.788L356.143 213.396L356.374 213.711L352.63 212.987Z" fill="url(#paint11_linear_23_61)"/>
<path d="M317.213 249.683C316.102 249.903 315.179 250.638 314.717 251.676C314.445 252.683 314.424 253.742 314.665 254.759C314.728 255.325 314.875 255.871 315.105 256.395C315.305 256.878 315.766 257.203 316.291 257.224C317.014 257.15 317.434 256.154 317.476 255.283C317.413 254.413 317.413 253.532 317.476 252.662C317.381 253.742 317.381 254.833 317.476 255.913C317.465 256.343 317.612 256.762 317.895 257.087C318.136 257.266 318.462 257.276 318.724 257.14C319.363 256.752 319.772 256.091 319.846 255.346C319.94 254.57 319.919 253.784 319.783 253.018C319.909 253.574 319.93 254.151 319.856 254.707C319.772 255.273 319.825 255.85 320.024 256.374C320.265 256.867 320.853 257.171 321.23 256.836C321.471 256.563 321.618 256.206 321.629 255.839C321.776 254.916 321.828 253.983 321.776 253.039C321.618 253.994 321.671 254.969 321.912 255.902C322.227 256.783 323.076 257.496 323.831 257.161C324.45 256.752 324.827 256.06 324.827 255.315C324.911 254.549 324.827 253.773 324.827 253.008C324.827 252.861 324.859 252.725 324.911 252.588C325.121 252.19 325.614 252.378 326.002 252.326C326.39 252.274 326.904 251.655 326.998 251.047C327.061 250.417 327.019 249.778 326.862 249.169C325.09 249.211 323.328 249.138 321.566 248.949C320.087 248.928 318.608 249.18 317.213 249.673V249.683Z" fill="#666666"/>
<path d="M376.164 253.176C374.853 263.946 369.913 279.394 369.693 279.394C368.644 279.331 367.595 279.405 366.568 279.625C364.932 279.866 363.191 280.128 362.582 279.908C362.53 279.908 362.488 279.803 362.446 279.625C361.974 277.895 361.722 268.445 361.964 262.845V262.237C362.068 260.244 362.058 254.172 362.058 252.2L348.424 252.599L345.708 252.767C345.729 255.336 345.519 257.905 345.079 260.433C343.621 271.078 342.142 276.353 342.656 287.05C342.604 288.172 341.052 288.875 339.625 288.865C338.891 288.906 338.178 288.655 337.633 288.172C331.969 282.121 331.592 275.724 330.428 267.512C329.652 262.037 327.103 242.027 334.172 240.538C335.21 240.307 336.28 240.213 337.349 240.276C339.017 240.391 342.258 240.486 343.317 241.912C343.673 242.09 350.815 245.677 356.846 243.842L363.212 237.276C365.015 235.011 368.13 234.256 370.763 235.452C373.248 236.626 375.136 239.437 375.933 242.646C376.73 245.855 376.573 249.662 376.143 253.176H376.164Z" fill="url(#paint12_linear_23_61)"/>
<path d="M339.688 288.864C338.954 288.906 338.241 288.655 337.696 288.172C332.032 282.121 331.655 275.724 330.491 267.512C329.715 262.037 327.166 242.027 334.235 240.538C331.907 245.184 331.162 250.47 332.137 255.577C333.794 263.778 339.688 288.875 339.688 288.875V288.864Z" fill="url(#paint13_linear_23_61)"/>
<path d="M366.568 279.625C364.932 279.866 363.191 280.128 362.582 279.908C362.53 279.908 362.488 279.803 362.446 279.625C361.974 277.895 361.722 268.445 361.964 262.845V262.237C362.069 260.244 362.058 254.172 362.058 252.2L345.708 252.767L345.037 247.072C345.037 247.072 354.088 249.306 356.793 248.97C359.499 248.634 362.561 245.981 362.561 245.981C362.561 245.981 366.326 240.758 367.438 245.981C368.55 250.826 366.767 276.531 366.557 279.615L366.568 279.625Z" fill="url(#paint14_linear_23_61)"/>
<defs>
<linearGradient id="paint0_linear_23_61" x1="317.864" y1="-224.384" x2="270.796" y2="1041.94" gradientUnits="userSpaceOnUse">
<stop stop-color="#231F20" stop-opacity="0"/>
<stop offset="1" stop-color="#232323"/>
</linearGradient>
<linearGradient id="paint1_linear_23_61" x1="19.3263" y1="107.064" x2="1101.85" y2="685.303" gradientUnits="userSpaceOnUse">
<stop stop-color="white" stop-opacity="0"/>
<stop offset="0.84" stop-color="white" stop-opacity="0.84"/>
<stop offset="0.97" stop-color="white"/>
</linearGradient>
<linearGradient id="paint2_linear_23_61" x1="360.085" y1="-146.93" x2="336.197" y2="494.17" gradientUnits="userSpaceOnUse">
<stop stop-color="#231F20" stop-opacity="0"/>
<stop offset="1" stop-color="#231F20"/>
</linearGradient>
<linearGradient id="paint3_linear_23_61" x1="299.458" y1="204.398" x2="300.297" y2="290.123" gradientUnits="userSpaceOnUse">
<stop stop-color="#231F20" stop-opacity="0"/>
<stop offset="1" stop-color="#231F20"/>
</linearGradient>
<linearGradient id="paint4_linear_23_61" x1="370.417" y1="210.628" x2="363.684" y2="223.328" gradientUnits="userSpaceOnUse">
<stop stop-color="#231F20" stop-opacity="0"/>
<stop offset="1" stop-color="#231F20"/>
</linearGradient>
<linearGradient id="paint5_linear_23_61" x1="348.676" y1="196.805" x2="344.754" y2="276.93" gradientUnits="userSpaceOnUse">
<stop stop-opacity="0"/>
<stop offset="0.5" stop-opacity="0.19"/>
<stop offset="0.55" stop-opacity="0.24"/>
<stop offset="0.97"/>
</linearGradient>
<linearGradient id="paint6_linear_23_61" x1="346.998" y1="174.897" x2="343.149" y2="278.345" gradientUnits="userSpaceOnUse">
<stop stop-color="#231F20" stop-opacity="0"/>
<stop offset="1" stop-color="#231F20"/>
</linearGradient>
<linearGradient id="paint7_linear_23_61" x1="349.022" y1="194.498" x2="346.358" y2="221.398" gradientUnits="userSpaceOnUse">
<stop stop-opacity="0"/>
<stop offset="0.5" stop-opacity="0.19"/>
<stop offset="0.55" stop-opacity="0.24"/>
<stop offset="0.97"/>
</linearGradient>
<linearGradient id="paint8_linear_23_61" x1="323.968" y1="226.023" x2="338.157" y2="229.579" gradientUnits="userSpaceOnUse">
<stop stop-opacity="0"/>
<stop offset="0.5" stop-opacity="0.19"/>
<stop offset="0.55" stop-opacity="0.24"/>
<stop offset="0.97"/>
</linearGradient>
<linearGradient id="paint9_linear_23_61" x1="369.808" y1="217.067" x2="366.641" y2="229.201" gradientUnits="userSpaceOnUse">
<stop stop-color="#231F20" stop-opacity="0"/>
<stop offset="1" stop-color="#231F20"/>
</linearGradient>
<linearGradient id="paint10_linear_23_61" x1="354.453" y1="212.805" x2="354.39" y2="214.86" gradientUnits="userSpaceOnUse">
<stop stop-color="#231F20" stop-opacity="0"/>
<stop offset="1" stop-color="#231F20"/>
</linearGradient>
<linearGradient id="paint11_linear_23_61" x1="354.602" y1="211.928" x2="354.434" y2="214.235" gradientUnits="userSpaceOnUse">
<stop stop-color="white" stop-opacity="0"/>
<stop offset="0.84" stop-color="white" stop-opacity="0.84"/>
<stop offset="0.97" stop-color="white"/>
</linearGradient>
<linearGradient id="paint12_linear_23_61" x1="351.78" y1="231.246" x2="355.891" y2="303.327" gradientUnits="userSpaceOnUse">
<stop stop-color="white" stop-opacity="0"/>
<stop offset="0.84" stop-color="white" stop-opacity="0.84"/>
<stop offset="0.97" stop-color="white"/>
</linearGradient>
<linearGradient id="paint13_linear_23_61" x1="342.289" y1="264.502" x2="319.877" y2="265.351" gradientUnits="userSpaceOnUse">
<stop stop-color="#231F20" stop-opacity="0"/>
<stop offset="1" stop-color="#231F20"/>
</linearGradient>
<linearGradient id="paint14_linear_23_61" x1="374.465" y1="230.019" x2="339.908" y2="291.749" gradientUnits="userSpaceOnUse">
<stop stop-color="#231F20" stop-opacity="0"/>
<stop offset="1" stop-color="#231F20"/>
</linearGradient>
</defs>
</svg>
