<?xml version="1.0" standalone="no"?><!DOCTYPE svg PUBLIC "-//W3C//DTD SVG 1.1//EN" "http://www.w3.org/Graphics/SVG/1.1/DTD/svg11.dtd"><svg t="1742289268078" class="icon" viewBox="0 0 1024 1024" version="1.1" xmlns="http://www.w3.org/2000/svg" p-id="3801" xmlns:xlink="http://www.w3.org/1999/xlink" width="200" height="200"><path d="M832 797.8c117-82.2 192-208.2 192-349.8C1024 200.6 794.8 0 512 0S0 200.6 0 448c0 141.4 75 267.6 192 349.8V928c0 53 43 96 96 96h96v-96c0-17.6 14.4-32 32-32s32 14.4 32 32v96h128v-96c0-17.6 14.4-32 32-32s32 14.4 32 32v96h96c53 0 96-43 96-96v-128-2.2zM192 512a128 128 0 1 1 256 0 128 128 0 1 1-256 0z m512-128a128 128 0 1 1 0 256 128 128 0 1 1 0-256z" p-id="3802"></path></svg>